<svg xmlns="http://www.w3.org/2000/svg" viewBox="0 0 603.8 438.4"><path d="M207 107l-10 7-5 4s-20-12-35-15-23-3-41 28c-10 16-19 56-33 86-14 29-32 51-60 38-57-25 2-181 60-204s124 56 124 56zm381 83c-29 20-53-6-74-38-16-26-29-54-40-66-24-27-31-25-46-20s-31 21-31 21l-10-5-7-3s49-89 111-78 149 153 97 189z" fill="#505a66"/><path d="M197 114l-5 4s-20-12-35-14-23-4-41 27c-10 16-19 56-33 86-13-33 6-119 43-127 43-10 71 24 71 24zm317 38c-16-26-29-54-40-66-24-27-31-25-46-20s-31 21-31 21l-10-5s31-47 74-35c37 11 59 69 53 105z" fill="#17afac"/><path d="M494 388c-34 37-175 54-241 50h-2c-65-4-108 0-110-53a1200 1200 0 0141-268c19-46 91-54 91-54s40-60 53-54c11 5-4 31-9 39 6-8 22-30 37-21 17 10-16 36-16 36s34-4 67 12 82 135 105 190 19 85-16 123z" fill="#c4c6c5"/><path d="M330 330s1 21 11 19 3-22 3-22zm81-11s1 22 11 19 3-21 3-21z" fill="#fff"/><path d="M353 224c29-5 92-8 104 55s-43 41-75 44-64 34-94 25-49-106 65-124z" fill="#f2e30c"/><path d="M362 253s-28-3-36-20 57-26 61-12-25 32-25 32z" fill="#38424c"/><path d="M253 438h-2c-65-4-108 0-110-53-1-38 10-133 23-202-1 56-2 130 3 155l15-31s10 65 15 79l10-34s18 54 46 86z" fill="#a8a8a8"/><path d="M362 259s7 28 10 51c0 0 6-41-10-51z" fill="#ce9d11"/><circle cx="239.9" cy="229.6" r="13" fill="#38424c"/><circle cx="450.9" cy="196.6" r="13" fill="#38424c"/></svg>