<svg xmlns="http://www.w3.org/2000/svg" fill="#ffa800" viewBox="0 0 640 512"><path d="M352 288h-16v-88c0-4-4-8-8-8h-14c-4 0-9 1-13 4l-15 10a8 8 0 0 0-2 11l8 14a8 8 0 0 0 12 2v55h-16c-4 0-8 4-8 8v16c0 4 4 8 8 8h64c4 0 8-4 8-8v-16c0-4-4-8-8-8zM608 64H32C14 64 0 78 0 96v320c0 18 14 32 32 32h576c18 0 32-14 32-32V96c0-18-14-32-32-32zM48 400v-64c35 0 64 29 64 64H48zm0-224v-64h64c0 35-29 64-64 64zm272 192c-53 0-96-50-96-112s43-112 96-112 96 50 96 112-43 112-96 112zm272 32h-64c0-35 29-64 64-64v64zm0-224c-35 0-64-29-64-64h64v64z"/></svg>