<svg viewBox="0 0 512 512" xmlns="http://www.w3.org/2000/svg"><linearGradient id="a" x1="50%" y1="0%" x2="50%" y2="100%"><stop offset="0%" stop-color="#f79533"/><stop offset="20%" stop-color="#f37055"/><stop offset="40%" stop-color="#ef4e7b"/><stop offset="60%" stop-color="#a166ab"/><stop offset="80%" stop-color="#5073b8"/><stop offset="100%" stop-color="#1098ad"/></linearGradient><path fill="url(#a)" d="M241.5 0h2.94c17.71.58 35.21 4.53 51.73 10.84 4.43 1.59 8.35 4.41 12.9 5.64 3.67.11 7.24-1.03 10.9-1.2 13.49-1.26 27.25 3.44 37.57 12.11 14.2 11.4 23.88 28.55 25.8 46.69.07 4.48 1.3 10.25-2.74 13.44-3.77 3.26-10.11 1.17-11.65-3.4-.79-4.02-.17-8.19-1.09-12.2-2.87-14.93-11.98-28.85-25.14-36.64-6.28-3.54-13.53-5.83-20.8-5.04-7.07.6-14.67 2.82-21.34-.74-17.68-9.34-37.67-13.85-57.58-14.41-24.55-.32-48.91 9.42-66.82 26.14-20.17 18.47-32.23 45.45-32.28 72.83-.13 55.66 0 111.32-.07 166.98.04 2.42.14 5.18 2.02 6.99 2 2.34 5.3 2.28 8.12 2.31 18.58-.07 37.16 0 55.75-.04-.01-2.07 0-4.14.01-6.21-13.93-8.04-26.46-18.73-35.44-32.17-10.94-16.14-17.09-35.46-17.5-54.95-.13-6.64-.22-13.29-.01-19.93.18-7.72 5.39-14.94 12.59-17.66 4.34-1.81 9.14-1.32 13.72-1.22 29.75.91 59.95-8.17 83.59-26.39 9.65-6.87 18.16-15.25 25.81-24.27 2.75-3.2 4.93-7.04 8.51-9.42 5.52-3.56 13.68-1.9 17.22 3.69 2.83 4.36 5.27 9.22 9.73 12.2 5.8 4.63 14.08 3.61 19.87 8.24 3.67 2.66 5.92 6.74 7.19 11.01 4.65 1.15 9.2 2.69 13.42 4.99.13-7.35-.22-14.71.14-22.04.13-4.18 4.29-7.49 8.38-6.82 3.74.39 6.53 3.91 6.42 7.61.39 16-.51 32.06.61 48.03-.35 4.32-.71 8.64-.55 12.97 0 35 .05 70.01-.03 105.01.15 8.59-5.18 16.91-13.05 20.34-4.79 2.26-10.21 2.02-15.37 2.02-17.57-.02-35.15-.03-52.72 0 .01.67.02 2.01.03 2.68 25.24 6.3 50.49 12.52 75.74 18.78 12.11 2.62 23.32 9.38 30.9 19.24 5.28 6.58 8.14 14.75 9.69 22.95 6.94 35 14.11 69.95 20.91 104.97 2.02 9.75 1.13 21.04-5.78 28.74-5.63 6.46-14.39 8.93-22.67 9.31H218.14c-5.06-.25-8.71-5.9-6.47-10.54 1.32-3.26 4.97-4.65 8.28-4.46 45.71-.01 91.42.01 137.13-.01 0-22.65.03-45.31-.01-67.96.06-2.48-.02-5.24 1.63-7.28 2.51-3.57 8.28-3.89 11.2-.66 2.17 2.02 2.17 5.16 2.22 7.9-.05 22.67-.01 45.34-.03 68.01 12.32-.03 24.64.06 36.96-.04 4.95-.2 10.93-.38 14.1-4.85 3.6-5.34 2.28-12.16 1.09-18.05-6.68-33.79-13.47-67.56-20.17-101.35-1.31-6.24-3.2-12.56-7.21-17.64-5.33-7.13-13.56-11.51-22.07-13.62-14.42-3.6-28.86-7.13-43.28-10.73-15.37 17.9-30.55 35.96-45.93 53.85-6.77 7.88-16.16 14.03-26.74 14.77-12.27 1.19-24.19-5.07-31.95-14.29-15.55-17.98-30.75-36.27-46.18-54.36-13.9 3.43-27.79 6.88-41.7 10.3-7.81 1.75-15.55 5-21.17 10.87-5.19 5.15-8.19 12.09-9.56 19.19-6.97 34.93-13.94 69.87-20.87 104.81-.89 4.54-1.52 9.4.15 13.85 1.24 3.39 4.41 5.84 7.93 6.52 3.78.73 7.66.76 11.5.79 11.06-.04 22.13 0 33.19-.03 0-22.68.03-45.37-.02-68.05.03-2.68.07-5.71 2.1-7.73 2.84-3.25 8.51-3.11 11.15.31 1.8 2.03 1.73 4.91 1.8 7.46-.05 22.67-.01 45.34-.02 68.01 9.29.08 18.6-.11 27.89.07 4.22-.2 8.13 3.56 7.75 7.84-.09 3.88-3.54 6.82-7.27 7.1h-81.78c-9.41-.28-19.68-3.23-25.23-11.39-6.7-9.43-5.5-21.76-2.9-32.39 6.59-33.08 13.15-66.17 19.74-99.25 1.74-8.89 5.05-17.66 11-24.61 7.23-8.89 17.77-14.6 28.78-17.35 25.51-6.34 51.04-12.63 76.54-18.99.01-.68.02-2.02.03-2.69-19.89-.11-39.79.14-59.68-.12-11.56-.17-21.54-10.69-21.18-22.23-.09-54.66 0-109.32-.05-163.98-.01-11.15.87-22.38 3.82-33.17 6.48-25.45 22.18-48.34 43.33-63.86C194.78 7.96 218.07.29 241.5 0m27.4 148.82c-26.05 17.28-57.71 25.72-88.9 24.23-2.24.04-4.91-.47-6.7 1.23-1.82 1.72-1.54 4.41-1.64 6.69.11 10.38-.37 20.89 1.84 31.12 4.6 22.72 18.62 43.66 38.5 55.76 16.95 10.89 38.04 14.95 57.86 11.46 17.25-2.9 33.61-11.11 46.07-23.4 15.64-15.28 24.66-37.02 24.6-58.88.01-19.96.14-39.94-.06-59.9-.19-3.61-4.32-4.2-7.11-4.75-11.14-1.92-20.49-9.74-25.99-19.4-10.8 13.89-23.72 26.19-38.47 35.84m86.68-.03c-.02 10.26-.03 20.52 0 30.79 4.33-1.52 8.57-3.91 11.13-7.85 2.59-3.38 1.71-7.87 1.59-11.81-1.82-5.71-7.3-9.28-12.72-11.13m0 46.19c.04 17.29-4.21 34.67-12.72 49.75-9.2 16.92-23.72 30.58-40.57 39.76 0 1.93-.01 3.87-.01 5.81 18.91.03 37.81-.02 56.72.03 2.54-.01 5.44-.12 7.29-2.14 1.98-1.83 2.16-4.69 2.16-7.22-.04-30.27 0-60.54-.02-90.81-4.04 2.21-8.38 3.77-12.85 4.82m-130.85 95.65c-.08 7.76.1 15.53-.07 23.29-.01 3.32-2.42 6.41-5.65 7.2-7.3 2-14.69 3.64-22.02 5.54 4.43 4.97 8.37 10.51 13.13 15.12 30.71.22 61.43.02 92.14.1 4.32-5.05 8.62-10.11 12.91-15.19-7.11-1.82-14.26-3.46-21.36-5.33-3.35-.79-6.39-3.59-6.36-7.22-.4-7.76-.06-15.53-.18-23.29-20.2 6.55-42.38 6.44-62.54-.22m-2.14 66.26c5.29 6.22 10.49 12.51 15.87 18.65 4.21 4.83 10.02 8.65 16.58 8.94 7.21.42 13.88-3.6 18.46-8.9 5.41-6.16 10.65-12.47 15.98-18.69-22.3-.02-44.59-.02-66.89 0z"/></svg>