<svg xmlns="http://www.w3.org/2000/svg" viewBox="0 0 24 24"><path d="M22.9 12a.4.4 0 0 0-.2-.4l-4.2-2.1 4.1-2.2a.4.4 0 0 0 0-.8l-3.5-1.8a.4.4 0 1 0-.4.8L21.5 7l-9.6 5-9.6-5 9.6-5 3.4 1.8a.4.4 0 1 0 .4-.8l-3.6-2h-.4L1.1 6.5a.4.4 0 0 0 0 .8l4.2 2.2-4.2 2.1a.4.4 0 0 0 0 .8l4.1 2.2-4.1 2.1a.4.4 0 0 0 0 .8L11.7 23h.4l10.6-5.5a.4.4 0 0 0 0-.8l-4.1-2.2 4.1-2.2a.4.4 0 0 0 .2-.4zm-10.8.8 5.5-2.9 1.3.7-9.6 5-1.7-.9 3.9-2.1h.6zm-1.5-.6-4 2.1-1.7-.9 3.9-2.1zM6.2 9.9l1.7.9-4 2.1-1.7-.9zM21.5 17l-9.6 5-9.6-5 3.9-2 5.5 2.9h.4l5.5-2.9zm-9.6 0-1.7-.9 9.6-5 1.7.9z"/><path d="M17.2 4.6h.3a.4.4 0 0 0 0-.6h-.6a.4.4 0 0 0 0 .6z"/></svg>