<svg xmlns="http://www.w3.org/2000/svg" viewBox="0 0 24 24"><path d="M5.5 2.9c-1.3 0-2.3 1-2.3 2.3 0 1.3 1 2.3 2.3 2.3 1.3 0 2.3-1 2.3-2.3S6.7 2.9 5.5 2.9zm0 3.9C4.7 6.8 4 6.1 4 5.3s.7-1.5 1.5-1.5S7 4.4 7 5.2s-.7 1.6-1.5 1.6zm4.2 9.4L7.4 8.6c0-.2-.2-.3-.4-.3H3.9c-.2 0-.3.1-.4.3l-2.3 7.7c0 .1 0 .2.1.3.1.1.2.2.3.2h1.5v5c0 .2.2.4.4.4h3.8c.2 0 .4-.2.4-.4v-5h1.5c.2 0 .4-.2.4-.4.1-.1.1-.1.1-.2zm-2.3-.3c-.2 0-.4.2-.4.4v5H5.9v-5.4h-.8v5.4H3.9v-5c0-.2-.2-.4-.4-.4H2.1L4.2 9h2.5l2.1 6.9H7.4zm11.1-13c-1.3 0-2.3 1-2.3 2.3s1 2.3 2.3 2.3c1.3 0 2.3-1 2.3-2.3 0-1.3-1-2.3-2.3-2.3zm0 3.9c-.8 0-1.5-.7-1.5-1.5s.7-1.5 1.5-1.5 1.5.7 1.5 1.5-.7 1.5-1.5 1.5zm1.2 1.5h-2.3c-1.5 0-2.7 1.2-2.7 2.7v5.4c0 .2.2.4.4.4h1.1v5c0 .2.2.4.4.4h3.8c.2 0 .4-.2.4-.4v-5H22c.2 0 .4-.2.4-.4V11c-.1-1.5-1.3-2.7-2.7-2.7zm1.9 7.6h-.8v-4.6H20v10h-1.1v-5.4h-.8v5.4H17v-10h-.8v4.6h-.8v-5c0-1.1.9-1.9 1.9-1.9h2.3c1.1 0 1.9.9 1.9 1.9v5zM11.6 1h.8v23h-.8z"/></svg>