<svg xmlns="http://www.w3.org/2000/svg" viewBox="0 0 512 512"><path d="M437.02 74.98C388.667 26.629 324.38 0 256 0l-.806.001L255 0c-.125 0-.25.002-.374.004C186.759.358 123.009 26.953 74.98 74.98 26.629 123.333 0 187.62 0 256s26.629 132.667 74.98 181.02C123.333 485.371 187.62 512 256 512c46.812 0 92.616-12.757 132.462-36.893 9.447-5.723 12.467-18.021 6.744-27.468-5.724-9.449-18.021-12.467-27.469-6.745C334.143 461.244 295.504 472 256 472c-119.103 0-216-96.897-216-216 0-112.019 85.714-204.395 195-214.987V256c0 11.046 8.954 20 20 20h216.064c-3.33 35.495-15.499 69.683-35.69 99.885-6.14 9.183-3.672 21.603 5.51 27.742 9.185 6.14 21.604 3.671 27.742-5.511C497.002 355.674 512 306.531 512 256c0-68.38-26.629-132.667-74.98-181.02zM275 40.828a214.592 214.592 0 0 1 43.972 8.532L275 93.327V40.828zm0 109.064 83.823-83.812a216.863 216.863 0 0 1 34.074 22.959L275 206.936v-57.044zM302.505 236l118.84-118.84a216.941 216.941 0 0 1 23.652 34.339L360.495 236h-57.99zm114.559 0 44.958-44.958a214.47 214.47 0 0 1 9.06 44.958h-54.018z"/></svg>