<svg xmlns="http://www.w3.org/2000/svg" viewBox="0 0 128 128" xml:space="preserve"><path d="m114.2 100.2-5.9-55.7c-.3-2.6-2.4-5.5-5.5-5.5h-17V27c0-12.4-10-23-21.8-23S42.2 14.5 42.2 27v12h-17c-3.1 0-5.2 2.8-5.5 5.5l-5.9 56c-.2 1.6.3 3.3 1.4 4.4s2.5 1.8 4.1 1.8h89.4c1.5 0 3-.6 4-1.8 1.1-1.3 1.7-3 1.5-4.7zM83 54.2c.4.2.9.2 1.4 0l1.2 6.6H82l1-6.6zM46.5 27.1c0-10.1 8-18.6 17.5-18.6S81.5 17 81.5 27.1v12h-35v-12zm-2.8 27.1c.4.2.9.2 1.4 0l1.2 6.6h-3.6c-.1 0 1-6.6 1-6.6zm65.7 47.8c-.2.2-.4.3-.7.4H19.3c-.3 0-.6-.1-.8-.4-.2-.3-.4-.6-.3-1.1L24 45.1c.1-.8.7-1.6 1.2-1.6h17v4.3c-1.1 0-2 .7-2.2 1.8l-2.2 13.1c-.2 1.2.6 2.3 1.8 2.5h9.1c1.2 0 2.2-.9 2.2-2.2v-.3l-2.2-13.1c-.2-1.1-1.1-1.8-2.2-1.8v-4.3h34.9v4.3c-1.1 0-2 .7-2.2 1.8L77 62.7c-.2 1.2.6 2.3 1.8 2.5h9.1c1.2 0 2.2-.9 2.2-2.2v-.3l-2.2-13.1c-.2-1.1-1.1-1.8-2.2-1.8v-4.3h17c.4 0 1.1.7 1.2 1.6l6 55.7c0 .4-.1.8-.5 1.2z"/></svg>