<svg viewBox="0 0 512 512" xmlns="http://www.w3.org/2000/svg"><path fill="#010100" d="M245 0h142c2 2 5 4 6 7 1 4-3 8-5 11l-96 153h101c7 0 11 10 6 15L131 504l-8 8h-7c-3-3-6-7-4-12l95-227h-87c-6 0-12-7-8-12L239 6c1-3 4-5 6-6m8 17L133 256h86c4 0 10 3 10 8l-5 12-42 102-31 75 4-5 213-253c2-2 5-4 6-7h-98c-6 0-12-8-8-13L369 17H253Z"/><path fill="#ffe336" d="M253 17h116L268 175c-4 5 2 13 8 13h66L186 373l-4 5 42-102 5-12c0-5-6-8-10-8h-86L253 17Z"/><path fill="#f7970a" d="M342 188h32c-1 3-4 5-6 7L155 448l-4 5 31-75 4-5 156-185Z"/></svg>