<svg xmlns="http://www.w3.org/2000/svg" viewBox="0 0 346.93 346.93"><path d="M175 .86a173.47 173.47 0 1 0 173.46 173.47A173.47 173.47 0 0 0 175 .86ZM248.23 154c-1.74 7.14-5.43 20.16-12.41 24-3.24 1.75-7.51 0-10.82-.75-8-1.73-15.88-4.12-24-5.21 1.46-4.5 5.63-6.6 8.7-10 5.18-5.8 9.46-14.12 10.2-22a37.5 37.5 0 0 0-3.16-20A43.4 43.4 0 0 0 205 104.52c-26.86-21.38-69 .58-64.82 35.48A42.4 42.4 0 0 0 165 172.5c10.13 4.5 23.08 6.59 34 8.37 15.37 2.5 30.43 8.77 46 10.13-.95 6.48-5.87 11.77-9.58 17-6.82 9.65-13.67 19.29-20.39 29-8.34 12-16.68 24.08-25.17 36-2.05 2.88-5.68 10.79-9.81 10.79-3.67 0-6.63-6.23-8.39-8.79-6-8.72-12.12-17.36-18.24-26-8.69-12.28-17.15-24.72-25.84-37-7.09-10-14.94-19.93-20.32-31a83.8 83.8 0 0 1-6.8-51c10.09-55.57 81-86.11 125.54-48.56 21.43 18.07 28.72 45.94 22.23 72.56Z" style="fill:#fdc13d" transform="translate(-1.54 -.86)"/><path d="M226 81.44c-44.55-37.55-115.45-7-125.54 48.56a83.8 83.8 0 0 0 6.8 51c5.38 11.07 13.23 21 20.32 31 8.69 12.28 17.15 24.72 25.84 37 6.12 8.64 12.24 17.28 18.24 26 1.76 2.56 4.72 8.79 8.39 8.79 4.13 0 7.76-7.91 9.81-10.79 8.49-11.92 16.83-24 25.17-36 6.72-9.71 13.57-19.35 20.39-29 3.71-5.23 8.63-10.52 9.58-17-15.57-1.36-30.63-7.63-46-10.13-10.92-1.78-23.87-3.87-34-8.37a42.4 42.4 0 0 1-24.82-32.5c-4.18-34.9 38-56.86 64.82-35.48A43.4 43.4 0 0 1 216.74 120a37.5 37.5 0 0 1 3.16 20c-.74 7.84-5 16.16-10.2 22-3.07 3.44-7.24 5.54-8.7 10 8.12 1.09 16 3.48 24 5.21 3.31.71 7.58 2.5 10.82.75 7-3.8 10.67-16.82 12.41-24 6.49-26.58-.8-54.45-22.23-72.52Z" style="fill:#fffffe" transform="translate(-1.54 -.86)"/></svg>