<svg xmlns="http://www.w3.org/2000/svg" viewBox="0 0 500 300"><path d="M129.5 237.7v-46.2H59.3V175l70.2-102.3h19.8V175h30.5v16.5h-30.6v46.1zm0-62.6v-72.5L80.4 175zM250.1 67.8q28.2 0 42.9 23.6t14.8 63.7q0 40.2-14.8 63.8t-42.9 23.6q-28.1 0-42.9-23.6t-14.8-63.8q0-40.1 14.8-63.7t42.9-23.6zm-32.2 122.6 57-89.4q-5.4-9.9-11.7-13.3a27 27 0 0 0-13.2-3.4q-17.7 0-26.9 19.7t-9.2 50q0 6.9.4 14.9t3.6 21.5zm64.1-69.7-56.6 89.9a34.3 34.3 0 0 0 10.5 11.6 23.7 23.7 0 0 0 13.3 3.9q20.2 0 28.7-22.6t8.5-50.1a122.3 122.3 0 0 0-4.4-32.7zm108.7 117v-46.2h-70.1V175l70.1-102.3h19.8V175H441v16.5h-30.5v46.1zm0-62.6v-72.5L341.6 175z" fill="#f90"/><path d="M129.5 227.9v-46.2H59.3v-16.4l70.2-102.4h19.8v102.4h30.5v16.5h-30.6v46.1zm0-62.6V92.8l-49.1 72.5zM250.1 58q28.2 0 42.9 23.6t14.8 63.7q0 40.2-14.8 63.8t-42.9 23.6q-28.1 0-42.9-23.6t-14.8-63.8q0-40.1 14.8-63.7T250.1 58zm-32.2 122.6 57-89.4q-5.4-9.9-11.7-13.3a27 27 0 0 0-13.2-3.4q-17.7 0-26.9 19.7t-9.2 50q0 6.9.4 14.9t3.6 21.5zm64.1-69.7-56.6 89.9a34.3 34.3 0 0 0 10.5 11.6 23.7 23.7 0 0 0 13.3 3.9q20.2 0 28.7-22.6t8.5-50.1a122.3 122.3 0 0 0-4.4-32.7zm108.7 117v-46.2h-70.1v-16.4l70.1-102.4h19.8v102.4H441v16.5h-30.5v46.1zm0-62.6V92.8l-49.1 72.4z" fill="#f2e30c"/></svg>