<svg xmlns="http://www.w3.org/2000/svg" viewBox="0 0 500 300"><path d="M130 238v-47H59v-16l71-102h19v102h31v17h-31v46zm0-63v-72l-50 72zM250 68q28 0 43 23t15 64q0 40-15 64t-43 24q-28 0-43-24t-15-64q0-40 15-64t43-23zm-32 122l57-89q-6-10-12-13a27 27 0 00-13-4q-18 0-27 20t-9 50v15q0 8 4 21zm64-69l-57 90a34 34 0 0011 11 24 24 0 0013 4q20 0 29-23t8-50a122 122 0 00-4-32zm109 117v-47h-70v-16l70-102h20v102h30v17h-30v46zm0-63v-72l-49 72z" fill="#f90"/><path d="M130 228v-46H59v-17l71-102h19v102h31v17h-31v46zm0-63V93l-50 72zM250 58q28 0 43 24t15 63q0 41-15 64t-43 24q-28 0-43-24t-15-64q0-40 15-63t43-24zm-32 123l57-90q-6-10-12-13a27 27 0 00-13-4q-18 0-27 20t-9 50v15q0 8 4 22zm64-70l-57 90a34 34 0 0011 11 24 24 0 0013 4q20 0 29-22t8-50a122 122 0 00-4-33zm109 117v-46h-70v-17l70-102h20v102h30v17h-30v46zm0-63V93l-49 72z" fill="#f2e30c"/></svg>