<svg xmlns="http://www.w3.org/2000/svg" viewBox="0 0 460 582.3"><path d="M135.9 247.9s-12.4-54.1 2.5-107.5 66.3-157.6 124.7-138 22 59.4-8.3 98.3-76.5 69.1-78.8 99.6-6.1 60.1-6.1 60.1z" fill="#505a66"/><path d="M358.3 527.3c-13.8 18.3-59.9 28.1-107.5 35-31 4.6-62.6 7.9-86.3 11.7-60.1 9.6-133.2 23.5-159.8-44S73 306.6 96 269s74.3-39.9 74.3-39.9-31.2-30.1-17.4-45.5c8.6-9.6 28.6 8.1 42.5 22.9-9-12.3-16.5-27.9-3.6-34.5 22.9-11.8 49.6 46.9 49.6 46.9 1.1.5 68.8 34.1 85.4 83s54.4 195.2 31.5 225.4z" fill="#c4c6c5"/><path d="M81.2 510.2s7.8 22 43.8 16.1 36.8-47.8 36.8-47.8-76.1 3.9-80.6 31.7z" style="fill:#ce9d11"/><path d="M67.8 504.1s1.2 22.5 11.7 19.7 2.8-22.5 2.8-22.5zm85.8-10.8s1.2 22.5 11.7 19.7 2.8-22.5 2.8-22.5z" fill="#fff"/><path d="M140.3 386.1c32.8-.6 101 6.6 104.4 76.2s-87.9 36-122.7 34.3-40.3 28.1-71 13.5-36.7-121.8 89.3-124z" fill="#f2e30c"/><path d="M97.6 426.4s-29.8-8.3-35.4-27.5 64.7-18.8 66.8-2.9-31.4 30.4-31.4 30.4z" style="fill:#38424c"/><path d="M358.3 527.3c-13.8 18.3-59.9 28.1-107.5 35 37.9-49.5 52.3-108.1 52.3-108.1L271 469.1s23.5-62.1 17.4-118.8-46.3-130.3-47-131.4c1.1.5 68.8 34.1 85.4 83s54.4 195.2 31.5 225.4z" fill="#a8a8a8"/><path d="M262.4 262.9s-1.6-55.5 23.4-104.9S381.5 16.4 435 47s10 62.6-27.3 94.8-88.5 52.9-96.7 82.3-17.7 57.9-17.7 57.9z" fill="#505a66"/><path d="M270.9 268.2s13.2-70.9 37.6-108 59.9-58 74.3-47.2-32 34.8-52.9 57c-19 20.2-36.9 71.2-48.4 104.7z" fill="#17afac"/><path d="M97.2 437.4s2 30.2 5.8 55c.1 0-18.9-40.1-5.8-55z" fill="#ce9d11"/><circle cx="74.9" cy="355.4" r="13.7" transform="rotate(-8 74.425 353.691)" fill="#38424c"/><circle cx="209.3" cy="354.7" r="13.7" transform="rotate(-8 208.12 352.98)" fill="#38424c"/></svg>