<svg xmlns="http://www.w3.org/2000/svg" viewBox="0 0 460 582.3"><path d="M136 248s-12-54 2-108S205-17 263 2s22 60-8 99-77 69-79 99l-6 60z" fill="#505a66"/><path d="M358 527c-13 19-60 28-107 35l-86 12c-61 10-134 24-160-44s68-223 91-261 74-40 74-40-31-30-17-45c9-10 29 8 42 22-9-12-16-27-3-34 23-12 49 47 49 47 2 0 69 34 86 83s54 195 31 225z" fill="#c4c6c5"/><path d="M81 510s8 22 44 16 37-48 37-48-76 4-81 32z" fill="#ce9d11"/><path d="M68 504s1 23 11 20 3-23 3-23zm86-11s1 23 11 20 3-22 3-22z" fill="#fff"/><path d="M140 386c33 0 101 7 105 76s-88 36-123 35-40 28-71 13-37-122 89-124z" fill="#f2e30c"/><path d="M98 426s-30-8-36-27 65-19 67-3-31 30-31 30z" fill="#38424c"/><path d="M358 527c-13 19-60 28-107 35 38-49 52-108 52-108l-32 15s24-62 17-119-46-130-47-131c1 0 69 34 86 83s54 195 31 225z" fill="#a8a8a8"/><path d="M262 263s-1-56 24-105S382 16 435 47s10 63-27 95-89 53-97 82l-18 58z" fill="#505a66"/><path d="M271 268s13-71 37-108 60-58 75-47-32 35-53 57c-19 20-37 71-48 105z" fill="#17afac"/><path d="M97 437s2 31 6 55c0 0-19-40-6-55z" fill="#ce9d11"/><circle cx="74.9" cy="355.4" r="13.7" transform="rotate(-8 74 354)" fill="#38424c"/><circle cx="209.3" cy="354.7" r="13.7" transform="rotate(-8 208 353)" fill="#38424c"/></svg>