<svg xmlns="http://www.w3.org/2000/svg" viewBox="0 0 603.8 438.4"><path d="m207.1 106.6-9.9 7.3-5.5 4s-19.5-12.3-34.9-14.4-22.6-3.1-41 27.7c-9.6 15.9-18.6 55.4-33 86.3-13.4 28.8-31.6 50.1-59.3 37.8C-33.9 229.6 24.6 73.8 83 51.2s124.1 55.4 124.1 55.4zm381 83.4c-28.7 20.1-53.4-6.3-73.8-38.2-16.2-25.4-29.7-54.3-40.4-66.1C450 59 443.1 61.4 428.4 66.3S396.9 87 396.9 87l-9.9-4.6-7.3-3.5S429.3-10.1 491 1s148.6 152.9 97.1 189z" fill="#505a66"/><path d="m197.2 113.9-5.5 4s-19.5-12.3-34.9-14.4-22.6-3.1-41 27.7c-9.6 15.9-18.6 55.4-33 86.3C70 183.7 88.6 98 125.6 89.7c43.5-9.7 71.6 24.2 71.6 24.2zm317.1 37.9c-16.2-25.4-29.7-54.3-40.4-66.1C450 59 443.1 61.4 428.4 66.3S396.9 87 396.9 87l-9.9-4.6s31.1-47.1 73.8-35.2c37.6 10.3 59.5 68.9 53.5 104.6z" fill="#17afac"/><path d="M494.2 387.6c-34.6 37.7-175.4 54.1-241.6 50.3h-1.4c-65.6-4.1-107.7 0-109.7-53.3-1.5-37.7 9.4-133 22.8-201.8 5.5-28.4 11.5-52.3 17.2-65.8 19.5-46.1 91.3-54.3 91.3-54.3S312.7 3 326.1 9.2c11.2 5.2-3.7 30.7-8.7 38.7 5.1-7.5 21.8-29.8 36.4-21.2 17.4 10.3-15.4 35.9-15.4 35.9s33.8-4.1 66.6 12.3 82 135.4 104.6 189.7 19.5 85-15.4 123z" fill="#c4c6c5"/><path d="M329.8 330.1s1.3 21.2 11.3 18.5 2.5-21.3 2.5-21.3zm81.1-10.8s1.3 21.2 11.3 18.5 2.5-21.3 2.5-21.3z" fill="#fff"/><path d="M352.7 223.6c29.6-4.8 92.3-7.3 104.6 55.3s-43.1 41-74.9 44.1-64.6 33.8-94.3 24.6-49.2-105.5 64.6-124z" fill="#f2e30c"/><path d="M362.1 253.2s-28.1-3.6-35.7-20.3 56.1-25.6 60.1-11.4-24.4 31.7-24.4 31.7z" fill="#38424c"/><path d="M252.6 437.9h-1.4c-65.6-4.1-107.7 0-109.7-53.3-1.5-37.7 9.4-133 22.8-201.8-1.7 56.2-2.7 130.5 2.6 155.3l15-30.6s10.5 64.1 15.3 78.3l9.9-33.3s17.7 53.5 45.5 85.4z" fill="#a8a8a8"/><path d="M362.1 258.9s6.5 27.8 9.8 51.4c.1 0 6.2-41.5-9.8-51.4z" fill="#ce9d11"/><circle cx="239.9" cy="229.6" r="13" fill="#38424c"/><circle cx="450.9" cy="196.6" r="13" fill="#38424c"/></svg>