<svg xmlns="http://www.w3.org/2000/svg" viewBox="0 0 350 540"><defs><clipPath id="a"><path style="fill:none" d="M0 0h346v540H0z"/></clipPath><clipPath id="b"><path style="fill:none" d="M0 0h350v540H0z"/></clipPath></defs><g style="clip-path:url(#a)"><path d="m307.3 380.3-16.4-17.9" style="fill:#f7a388"/><path d="m307.9 379.6-16.4-18c-.8-.9-2.1.5-1.2 1.4l16.4 18c.8.9 2-.5 1.2-1.4zm35.5 45.2c-6-2.8-9.8-11.8-7.6-18.8.4-1.2-1.4-1.6-1.7-.4-2.5 7.7 1.7 17.7 8.4 20.8 1 .6 2-1.2.9-1.6zm-10.2 7c-3.3-3.4-5.4-9.1-4.4-14.1.2-1.2-1.5-1.7-1.7-.5a18.3 18.3 0 0 0 4.8 15.9c.8.9 2.1-.5 1.3-1.3zm33.2-1.2a4.5 4.5 0 0 0 3.5-1.1c.8-.8-.4-2.2-1.2-1.4a3.1 3.1 0 0 1-2.3.5c-1.1.1-1.1 2 0 2zm-26.6-71.8c-1.7-.1-3.6-.3-4.8-1.6a8 8 0 0 1-1.5-4.3c-.3-1.8-.6-3.4-2-4.5a8.9 8.9 0 0 0-4.6-1.9l-2.3-.3a3.8 3.8 0 0 1-2.2-2.1c-1.1-1.9-.9-3.9-1.2-6-.6-3.8-4-4.8-7.1-4.9-.7 0-.7 1.2 0 1.2s3.6.3 4.8 1.5 1.1 3.4 1.4 5.2a9.1 9.1 0 0 0 2.1 4.8c1.2 1.5 2.8 1.4 4.5 1.6a7.4 7.4 0 0 1 4.6 2.2c1.2 1.4 1 3.8 1.5 5.6 1 3.5 3.8 4.5 6.9 4.6.7.2.7-1.1-.1-1.1z" style="fill:#5cbd7e"/><path d="m318 420.3-1.4 1.6-26.7-29.6 1.4-1.6z" style="fill:#f7a388"/><path d="m330 297.1-2.1 2.2-16.7-18.5 2.1-2.2z" style="fill:#ffd880"/><path d="m332.7 281.2-2.5 2.8-2.2-2.5 2.5-2.7 2.2 2.4z" style="fill:#231f20"/><path d="m331.5 279.9-2.5 2.7h2.5l-2.2-2.4v2.7l2.5-2.7h-2.5l2.2 2.4c1.6 1.8 4.1-1 2.5-2.7l-2.2-2.4a1.7 1.7 0 0 0-2.5 0l-2.5 2.7a2 2 0 0 0 0 2.7l2.2 2.4a1.7 1.7 0 0 0 2.5 0l2.5-2.7c1.6-1.7-.9-4.5-2.5-2.7zm-4.3 177.5a140 140 0 0 0 7.6-12.3h-1c3.2 3.6 6.7 7.1 9.5 11.1l.6-1.1-17.1.8c-.8.1-.8 1.4 0 1.3l17.1-.8a.8.8 0 0 0 .6-1.1 118.9 118.9 0 0 0-9.7-11.4.6.6 0 0 0-1 .1c-2.4 4.1-4.7 8.3-7.4 12-.5 1.1.3 2.1.8 1.4z" style="fill:#231f20"/><path d="M291.4 344.2c5.4 0 10.8.8 16.2-.5a.8.8 0 0 0 .6-.9c-.2-5.8-.5-11.7-.7-17.5a1.1 1.1 0 0 0-.9-1c-5.4-.3-10.9-.7-16.3.1a1 1 0 0 0-.6 1.2c.9 5.9-.2 11.9.8 17.8.2 1.2 1.9.7 1.7-.5-1-5.9.1-11.9-.8-17.8l-.6 1.2c5.2-.8 10.6-.3 15.8-.1l-.9-1c.2 5.8.4 11.7.7 17.5l.6-.9c-5.2 1.3-10.5.5-15.7.4-1.1.1-1.1 2 .1 2z" style="fill:#ffd880"/><path d="M309.9 454.2c4.3-4.7 9.1-8.4 12.4-14.2L309 426.6s-9.7 9.7-12.7 14c3.3 2.5 8.7 10 13.6 13.6z" style="fill:#bae5f7"/><path d="M338.6 324c2.4-2.6 5.1-4.9 7-8a1.3 1.3 0 0 0-.1-1.2c-2.5-2.4-4.9-4.9-7.3-7.4a.7.7 0 0 0-1.2 0 58.9 58.9 0 0 0-7.1 7.9c-.3.4 0 1 .3 1.3 2.7 2.2 4.7 5.3 7.5 7.5.9.7 1.8-1 .9-1.7-2.8-2.1-4.8-5.3-7.5-7.5l.3 1.3a54.8 54.8 0 0 1 6.9-7.5h-1.2l7.3 7.4c0-.4-.1-.8-.1-1.2-1.8 3-4.4 5.2-6.7 7.7-1 .9.2 2.2 1 1.4z" style="fill:#5cbd7e"/><path d="M279.1 379.1c2.7-2 4.7-5.3 3.4-8.9s-5.1-4-8.3-4.6a5.3 5.3 0 0 1-4.4-5.6c0-2.2.4-4-.4-6.1s-4.7-3.4-7.2-2.9c-7.3 1.4-6.3 10-3.8 15.6s4.8 6.9 8.2 9.4 7.3 4.8 11.3 3.7a4.5 4.5 0 0 0 1.2-.6c1-.6.1-2.3-.9-1.7-3.2 1.9-7.1-.6-9.9-2.4a22.4 22.4 0 0 1-7.9-8 18.5 18.5 0 0 1-2.4-8.9 5.2 5.2 0 0 1 4.4-5.2c3-.7 5.7.8 5.6 4.4a23.5 23.5 0 0 0 .1 5.3 7 7 0 0 0 2.7 3.8c2.4 1.9 5.8.8 8.3 2.4s1.6 6.7-1 8.6c-.8.7 0 2.4 1 1.7zm94.6-78.6c-4.3.2-8.6-.7-12.8-1.4a7.8 7.8 0 0 1 .5 1.4c1.9-3.6 2.6-7.8 3.7-11.8a1 1 0 0 0-.6-1.2c-5.4-.9-10.8-1.5-16.2-2.1l.9 1.2c1.3-3.5 2.7-7.1 4.2-10.5.2-.5.1-1.3-.5-1.4-4.8-1.2-9.6-1.7-14.4-2.5-1.1-.2-1.6 1.7-.5 1.9 4.8.8 9.6 1.3 14.4 2.5a7.8 7.8 0 0 1-.5-1.4c-1.5 3.6-3 7.3-4.3 11a.9.9 0 0 0 .9 1.2c5.2.6 10.5 1.2 15.7 2l-.6-1.2c-1 3.8-1.6 7.8-3.5 11.3a1 1 0 0 0 .5 1.4c4.4.7 8.8 1.7 13.3 1.5 1 0 1-2-.2-1.9zm-31.1 82.2c-2.5 2.1-5 4.5-8.1 5.6-1.3.4-2.9 0-2.9-1.8s1.5-2.6 2.3-3.5 3.9-3.6 2.7-5.9-3.7-2.3-5.8-1.6-5.2 3.1-7.8 2.5c-1-.2-2.4-1.3-1.8-2.5a13.4 13.4 0 0 1 2.7-3.1c1.4-1.4 3.7-3.7 2.6-6s-3.9-2.2-6-1.2a45.1 45.1 0 0 1-4.4 2.2c-1.4.5-3.9.4-4.5-1.5s2.3-3 3-3.5l3.6-2.2c1-.6.1-2.3-.9-1.7s-5.1 2.7-6.8 5.1.1 5 2.5 5.8 5.7-1.2 8-2.4 2.5-1.3 3.6-.2-.3 2.5-1 3.2-4.2 3.3-4.4 5.8 2.7 4.1 4.7 4.1 5.2-1.9 7.7-2.8 2.3-.6 3.2.3-.5 2.4-1.2 3.1-2.9 2.8-3.6 4.7a4 4 0 0 0 1.9 4.7c1.9 1 4.1-.2 5.8-1.2a41 41 0 0 0 5.8-4.5c.9-.6 0-2.3-.9-1.5z" style="fill:#231f20"/><path d="M319.9 309.5c-3 0-6.3-.5-7.8-3.7s-.7-5.6-1.5-8.3-3.5-4.9-5.8-6.3a15.3 15.3 0 0 0-8.7-2.6c-1.1.1-1.1 2 0 1.9 3.1-.2 6.3 1.3 9 3.1a11 11 0 0 1 3.5 3.6c.8 1.3.7 3.1.9 4.7s.7 4.8 2.2 6.7 5.4 2.8 8.2 2.9c1.1 0 1.1-1.9 0-2z" style="fill:#bae5f7"/><path d="M318.8 313.7c-5.6 1.2-11.1-3.7-12.3-9.6-.2-1.2-1.9-.7-1.7.5 1.4 7 7.9 12.3 14.5 10.9 1.1-.2.6-2-.5-1.8z" style="fill:#bae5f7"/><path d="M292.5 408c-4.4.6-8.8-.7-11.4-4.9s-2.3-8.6-.9-12.7a.9.9 0 1 0-1.7-.5 16.8 16.8 0 0 0 1.3 14.5c2.8 4.6 7.9 6.2 12.7 5.5 1.1-.2 1.2-2.1 0-1.9zm-14.7-1.4c-4-3.5-4.5-9.2-4-14.5.1-1.2-1.7-1.2-1.8 0-.5 5.7.2 12 4.5 15.9.9.8 2.2-.6 1.3-1.4zm12.8 8.6c2.4 0 5.1.5 7.4-.3s.6-2.2-.5-1.9-4.7.2-7 .2-1.1 2 .1 2z" style="fill:#ffd880"/><path d="M344.7 331.4a1.8 1.8 0 1 0-3.5 0 1.8 1.8 0 1 0 3.5 0z" style="fill:#f7a388"/><path d="M318.9 400a2.7 2.7 0 1 0-5.3 0 2.7 2.7 0 1 0 5.3 0zm-2-12.2a1.8 1.8 0 1 0-3.5 0 1.8 1.8 0 1 0 3.5 0zm7.8 9.1a.9.9 0 1 0-1.8 0 .9.9 0 1 0 1.8 0zm-18.8-5.9a.9.9 0 1 0-1.8 0 .9.9 0 1 0 1.8 0zm-25.3-53.7c0-5.1.4-10.2-.3-15.2-.2-1.2-1.9-.7-1.7.5.7 4.9.2 9.8.2 14.7a.9.9 0 1 0 1.8 0z" style="fill:#231f20"/><path d="M291.3 307.7a58 58 0 0 1-9.3-.5c-2.4-.5-5.3-1.5-5.2-4.7s3.7-3.2 5.4-3.6a43.9 43.9 0 0 1 8.9-.5c1.1 0 1.1-1.9 0-1.9a42.2 42.2 0 0 0-10.6.9c-2.6.6-5.1 2.1-5.5 5.2-1 8.1 12.1 7.2 16.3 7.2 1.1-.2 1.1-2.1 0-2.1z" style="fill:#5cbd7e"/><path d="M281.2 286c2.1-4.7 6-8 9-12 .7-1-.5-2.3-1.2-1.4-3.1 4.1-7.1 7.5-9.3 12.4-.5 1.1 1 2.1 1.5 1z" style="fill:#f7a388"/><path d="M264.5 391.4c-.2-4.2-7-4.7-9.7-5s-10.2-1.1-12.4 3.1 1.5 5.3 3.7 5.9a19.5 19.5 0 0 0 3.4.3l4 .3c3.3.1 10.7.7 11-4.6a.9.9 0 1 0-1.8 0c-.1 3.6-7.1 2.8-9.2 2.6l-5.2-.4a6.8 6.8 0 0 1-3.4-.8 2.1 2.1 0 0 1 0-3.7 9 9 0 0 1 4-.9 28.1 28.1 0 0 1 5.8.1 22.9 22.9 0 0 1 5.2 1.1c.8.3 2.7.9 2.8 2a.9.9 0 1 0 1.8 0z" style="fill:#bae5f7"/></g><g style="clip-path:url(#a)"><path d="M339.8 54.8c2.7-2 4.7-5.3 3.4-8.9s-5.1-4-8.3-4.6a5.3 5.3 0 0 1-4.4-5.6c0-2.2.4-4-.4-6.1s-4.7-3.4-7.2-2.9c-7.3 1.4-6.3 10-3.8 15.6s4.8 6.9 8.2 9.4 7.3 4.8 11.3 3.7l1.2-.6c1-.6.1-2.3-.9-1.7-3.2 1.9-7.1-.6-9.9-2.4a22.4 22.4 0 0 1-7.9-8 18.5 18.5 0 0 1-2.4-8.9 5.2 5.2 0 0 1 4.4-5.2c3-.7 5.7.8 5.6 4.4a23.5 23.5 0 0 0 .1 5.3 7 7 0 0 0 2.7 3.8c2.4 1.9 5.8.8 8.3 2.4s1.6 6.7-1 8.6c-.9.7 0 2.4 1 1.7zm94.6-78.6c-4.3.2-8.6-.7-12.8-1.4a7.8 7.8 0 0 1 .5 1.4c1.9-3.6 2.6-7.8 3.7-11.8a1 1 0 0 0-.6-1.2c-5.4-.9-10.8-1.5-16.2-2.1l.9 1.2c1.3-3.5 2.7-7.1 4.2-10.5.2-.5.1-1.3-.5-1.4-4.8-1.2-9.6-1.7-14.4-2.5-1.1-.2-1.6 1.7-.5 1.9 4.8.8 9.6 1.3 14.4 2.5a7.8 7.8 0 0 1-.5-1.4c-1.5 3.6-3 7.3-4.3 11a.9.9 0 0 0 .9 1.2c5.2.6 10.5 1.2 15.7 2l-.6-1.2c-1 3.8-1.6 7.8-3.5 11.3a1 1 0 0 0 .5 1.4c4.4.7 8.8 1.7 13.3 1.5.9-.1.9-2-.2-1.9zm-31.1 82.1c-2.5 2.1-5 4.5-8.1 5.6-1.3.4-2.9 0-2.9-1.8s1.5-2.6 2.3-3.5 3.9-3.6 2.7-5.9-3.7-2.3-5.8-1.6-5.2 3.1-7.8 2.5c-1-.2-2.4-1.3-1.8-2.5a13.4 13.4 0 0 1 2.7-3.1c1.4-1.4 3.7-3.7 2.6-6s-3.9-2.2-6-1.2a45.1 45.1 0 0 1-4.4 2.2c-1.4.5-3.9.4-4.5-1.5s2.3-3 3-3.5l3.6-2.2c1-.6.1-2.3-.9-1.7s-5.1 2.7-6.8 5.1.1 5 2.5 5.8 5.7-1.2 8-2.4 2.5-1.3 3.6-.2-.3 2.5-1 3.2-4.2 3.3-4.4 5.8 2.7 4.1 4.7 4.1 5.2-1.9 7.7-2.8 2.3-.6 3.2.3-.5 2.4-1.2 3.1-2.9 2.8-3.6 4.7a4 4 0 0 0 1.9 4.7c1.9 1 4.1-.2 5.8-1.2a41 41 0 0 0 5.8-4.5c.9-.6 0-2.2-.9-1.5z" style="fill:#231f20"/><path d="M353.2 83.6c-4.4.6-8.8-.7-11.4-4.9s-2.3-8.6-.9-12.7a.9.9 0 1 0-1.7-.5 16.8 16.8 0 0 0 1.3 14.5c2.8 4.6 7.9 6.2 12.7 5.5 1.1-.1 1.1-2 0-1.9zm-14.7-1.3c-4-3.5-4.5-9.2-4-14.5.1-1.2-1.7-1.2-1.8 0-.5 5.7.2 12 4.5 15.9.9.7 2.1-.6 1.3-1.4zm12.8 8.5c2.4 0 5.1.5 7.4-.3s.6-2.2-.5-1.9-4.7.2-7 .2-1.1 2 .1 2z" style="fill:#ffd880"/><path d="M341.3 12.9c0-5.1.4-10.2-.3-15.2-.2-1.2-1.9-.7-1.7.5.7 4.9.2 9.8.2 14.7a.9.9 0 1 0 1.8 0z" style="fill:#231f20"/><path d="M325.1 67c-.2-4.2-7-4.7-9.7-5s-10.2-1.1-12.4 3.1 1.5 5.3 3.7 5.9a19.5 19.5 0 0 0 3.4.3l4 .3c3.4.2 10.8.8 11-4.6a.9.9 0 1 0-1.8 0c-.1 3.6-7.1 2.8-9.2 2.6l-5.2-.4a6.8 6.8 0 0 1-3.4-.8 2.1 2.1 0 0 1 0-3.7 9 9 0 0 1 4-.9 28.1 28.1 0 0 1 5.8.1 22.9 22.9 0 0 1 5.2 1.1c.8.3 2.7.9 2.8 2s1.9 1.3 1.8 0z" style="fill:#bae5f7"/></g><g style="clip-path:url(#a)"><path d="m220.1 514.1-16.4-18" style="fill:#f7a388"/><path d="m220.7 513.4-16.4-18c-.8-.9-2.1.5-1.2 1.4l16.4 18c.8.8 2-.5 1.2-1.4zm52 49.4c-6.6.6-14.5-5.2-16.1-12.3a.9.9 0 1 0-1.7.5c1.8 7.9 10.5 14.4 17.8 13.7 1.2-.1 1.2-2 0-1.9zm-17.8-4.1c-3.3-3.4-5.4-9.1-4.4-14.1.2-1.2-1.5-1.7-1.7-.5a18.3 18.3 0 0 0 4.8 15.9c.9 1 2.2-.4 1.3-1.3zm24.3 5.6a4.5 4.5 0 0 0 3.5-1.1c.8-.8-.4-2.2-1.2-1.4a3.1 3.1 0 0 1-2.3.5c-1.1.1-1.1 2 0 2zm-6.9-60.4c-2.6-.1-5.5-.4-7.4-2.5s-2-4.4-2.4-6.7-1-5.2-3.1-7-4.7-2.5-7.2-2.9l-3.5-.4c-1.5-.3-2.6-1.8-3.4-3.2s-1.4-6-1.9-9.3c-.9-5.9-6.2-7.5-11-7.6-1.1 0-1.1 1.9 0 1.9 2.6.1 5.5.4 7.5 2.4s1.7 5.3 2.2 8.1a14.5 14.5 0 0 0 3.2 7.5c1.9 2.3 4.4 2.1 6.9 2.5a11.9 11.9 0 0 1 7.2 3.4c1.8 2.1 1.6 5.9 2.3 8.6 1.6 5.4 5.9 7 10.7 7.1 1.1.1 1.1-1.9-.1-1.9z" style="fill:#5cbd7e"/><path d="m230.8 554-1.5 1.6-26.6-29.6 1.4-1.5 26.7 29.5z" style="fill:#f7a388"/><path d="m242.8 430.9-2.1 2.2-16.7-18.5 2.1-2.2z" style="fill:#ffd880"/><path d="m245.5 415-2.5 2.7-2.2-2.4 2.5-2.7z" style="fill:#231f20"/><path d="m244.2 413.6-2.5 2.7h2.5l-2.2-2.4v2.7l2.5-2.7H242l2.2 2.4c1.6 1.8 4.1-1 2.5-2.7l-2.2-2.4a1.7 1.7 0 0 0-2.5 0l-2.5 2.7a2 2 0 0 0 0 2.7l2.2 2.4a1.7 1.7 0 0 0 2.5 0l2.5-2.7c1.7-1.7-.8-4.4-2.5-2.7z" style="fill:#231f20"/><path d="M273.5 484.8c-.1 3.6 3 3.9 5.6 4.1s3 .5 3.5 1.8a6.7 6.7 0 0 1-.3 3.7c-.6 2.5-1.3 5.1-.2 7.6s4.2 3.5 6.7 3.8 5.7.1 6.4-2.6a4.4 4.4 0 0 0-.7-3.7c-1-1.1-2.3-1.1-3.7-1.1a5 5 0 0 1-2.6-.6c-.7-.4-.3-1.4-.2-2.1a15.2 15.2 0 0 0 .8-5.6c-.3-3.4-2.7-5.7-5.4-7s-9.4-3-9.9 1.7c-.1 1.2 1.6 1.2 1.8 0s5.5-.7 6.5-.4c3.5 1.2 6 4.2 5.2 8.4s-2 5.6 1.1 7.1c1.3.6 2.8.4 4.1.5a1.7 1.7 0 0 1 1.4 2c-.1.8-1 1.1-1.6 1.3-2.6.8-6.2.1-8-2s-.3-5.4.2-7.7.4-4.4-1.4-5.8a7.1 7.1 0 0 0-3.7-1.2c-1.5-.2-3.9.1-3.8-2.2a.9.9 0 1 0-1.8 0z" style="fill:#ffd880"/><path d="M297 476.4c.5-4.4-4.4-3.5-7.2-4.4-9.9-3.1 4-13.4-5-19.3-2.9-1.9-11.9-3-11.4 2s4.9 1.8 8 4.2-2.2 6.3-.3 12.4 15.4 9.7 15.9 5.1z" style="fill:#f7a388"/><path d="M204.2 478c5.4 0 10.8.8 16.2-.5a.8.8 0 0 0 .6-.9c-.2-5.8-.5-11.7-.7-17.5a1.1 1.1 0 0 0-.9-1c-5.4-.3-10.9-.7-16.3.1a1 1 0 0 0-.6 1.2c.9 5.9-.2 11.9.8 17.8.2 1.2 1.9.7 1.7-.5-1-5.9.1-11.9-.8-17.8l-.6 1.2c5.2-.8 10.6-.3 15.8-.1l-.9-1c.2 5.8.4 11.7.7 17.5l.6-.9c-5.2 1.3-10.5.5-15.7.4-1.1 0-1.1 2 .1 2z" style="fill:#ffd880"/><path d="M259.4 453.4c2.4-2.6 5.1-4.9 7-8a1.3 1.3 0 0 0-.1-1.2c-2.5-2.4-4.9-4.9-7.3-7.4a.7.7 0 0 0-1.2 0 58.9 58.9 0 0 0-7.1 7.9c-.3.4 0 1 .3 1.3 2.7 2.2 4.7 5.3 7.5 7.5.9.7 1.8-1 .9-1.7-2.8-2.1-4.8-5.3-7.5-7.5l.3 1.3a54.8 54.8 0 0 1 6.9-7.5h-1.2l7.3 7.4c0-.4-.1-.8-.1-1.2-1.8 3-4.4 5.2-6.7 7.7-1 .9.2 2.3 1 1.4z" style="fill:#5cbd7e"/><path d="M191.9 512.9c2.7-2 4.7-5.3 3.4-8.9s-5.1-4-8.3-4.6a5.3 5.3 0 0 1-4.4-5.6c0-2.2.4-4-.4-6.1s-4.7-3.4-7.2-2.9c-7.3 1.4-6.3 10-3.8 15.6 1.8 4.1 4.8 6.9 8.2 9.4s7.3 4.8 11.3 3.7l1.2-.6c1-.6.1-2.3-.9-1.7-3.2 1.9-7.1-.6-9.9-2.4a22.4 22.4 0 0 1-7.9-8 18.5 18.5 0 0 1-2.4-8.9 5.2 5.2 0 0 1 4.4-5.2c3-.7 5.7.8 5.6 4.4a23.5 23.5 0 0 0 .1 5.3 7 7 0 0 0 2.7 3.8c2.4 1.9 5.8.8 8.3 2.4s1.6 6.7-1 8.6c-.9.7 0 2.3 1 1.7zm94.6-78.6c-4.3.2-8.6-.7-12.8-1.4a7.8 7.8 0 0 1 .5 1.4c1.9-3.6 2.6-7.8 3.7-11.8a1 1 0 0 0-.6-1.2c-5.4-.9-10.8-1.5-16.2-2.1l.9 1.2c1.3-3.5 2.7-7.1 4.2-10.5.2-.5.1-1.3-.5-1.4-4.8-1.2-9.6-1.7-14.4-2.5-1.1-.2-1.6 1.7-.5 1.9 4.8.8 9.6 1.3 14.4 2.5a7.8 7.8 0 0 1-.5-1.4c-1.5 3.6-3 7.3-4.3 11a.9.9 0 0 0 .9 1.2c5.2.6 10.5 1.2 15.7 2l-.6-1.2c-1 3.8-1.6 7.8-3.5 11.3a1 1 0 0 0 .5 1.4c4.4.7 8.8 1.7 13.3 1.5.9-.1 1-2-.2-1.9zm-31.1 82.1c-2.5 2.1-5 4.5-8.1 5.6-1.3.4-2.9 0-2.9-1.8s1.5-2.6 2.3-3.5 3.9-3.6 2.7-5.9-3.7-2.3-5.8-1.6-5.2 3.1-7.8 2.5c-1-.2-2.4-1.3-1.8-2.5a13.4 13.4 0 0 1 2.7-3.1c1.4-1.4 3.7-3.7 2.6-6s-3.9-2.2-6-1.2a45.1 45.1 0 0 1-4.4 2.2c-1.4.5-3.9.4-4.5-1.5s2.3-3 3-3.5l3.6-2.2c1-.6.1-2.3-.9-1.7s-5.1 2.7-6.8 5.1.1 5 2.5 5.8 5.7-1.2 8-2.4 2.5-1.3 3.6-.2-.3 2.5-1 3.2-4.2 3.3-4.4 5.8 2.7 4.1 4.7 4.1 5.2-1.9 7.7-2.8 2.3-.6 3.2.3-.5 2.4-1.2 3.1-2.9 2.8-3.6 4.7a4 4 0 0 0 1.9 4.7c1.9 1 4.1-.2 5.8-1.2a41 41 0 0 0 5.8-4.5c.9-.6 0-2.2-.9-1.5z" style="fill:#231f20"/><path d="M232.7 443.3c-3 0-6.3-.5-7.8-3.7s-.7-5.6-1.5-8.3-3.5-4.9-5.8-6.3a15.3 15.3 0 0 0-8.7-2.6c-1.1.1-1.1 2 0 1.9 3.1-.2 6.3 1.3 9 3.1a11 11 0 0 1 3.5 3.6c.8 1.3.7 3.1.9 4.7s.7 4.8 2.2 6.7 5.4 2.8 8.2 2.9c1.1-.1 1.1-2 0-2z" style="fill:#bae5f7"/><path d="M231.6 447.5c-5.6 1.2-11.1-3.7-12.3-9.6-.2-1.2-1.9-.7-1.7.5 1.4 7 7.9 12.3 14.5 10.9 1.1-.2.6-2.1-.5-1.8z" style="fill:#bae5f7"/><path d="M205.3 541.7c-4.4.6-8.8-.7-11.4-4.9s-2.3-8.6-.9-12.7a.9.9 0 1 0-1.7-.5 16.8 16.8 0 0 0 1.3 14.5c2.8 4.6 7.9 6.2 12.7 5.5 1.1-.1 1.1-2 0-1.9zm-14.7-1.3c-4-3.5-4.5-9.2-4-14.5.1-1.2-1.7-1.2-1.8 0-.5 5.7.2 12 4.5 15.9.9.7 2.2-.6 1.3-1.4zm12.8 8.5c2.4 0 5.1.5 7.4-.3s.6-2.2-.5-1.9-4.7.2-7 .2-1.1 2 .1 2z" style="fill:#ffd880"/><path d="M274.7 537.3c-.8-2-2.4-3.5-4.4-2.1a3.9 3.9 0 0 0-1.2 5c1.4 2.2 5 2 6.8.7a5.2 5.2 0 0 0 1.6-6.5c-1.3-3.2-5.4-3.8-8.1-3a6.8 6.8 0 0 0-4.9 7.3 8.5 8.5 0 0 0 7.1 6.9c3.2.5 6.4-1.6 8.2-4.3s1.9-9.7-1.6-12.4-7.9-1.9-11.3-.1a11 11 0 0 0-5.5 11.7c1.1 7.3 9 9.7 14.7 8 1.1-.3.6-2.2-.5-1.9a10.2 10.2 0 0 1-10.9-2.9c-2.2-2.6-2.2-6.8-.6-9.8s8.5-6 12.5-3.8a6.3 6.3 0 0 1 2.9 6 7.7 7.7 0 0 1-7.2 7.6c-4.2.2-8.4-5.4-4.8-9.1s8.8-2.2 8.6 2.4c-.1 2.6-4.4 4.2-5.8 2s1.4-3.7 2.4-1.2 2.5.6 2-.5zm-4.7-68.6a2.7 2.7 0 1 0-5.3 0 2.7 2.7 0 1 0 5.3 0zm-12.5-3.6a1.8 1.8 0 1 0-3.5 0 1.8 1.8 0 1 0 3.5 0z" style="fill:#f7a388"/><path d="M231.7 533.8a2.7 2.7 0 1 0-5.3 0 2.7 2.7 0 1 0 5.3 0zm-2-12.3a1.8 1.8 0 1 0-3.5 0 1.8 1.8 0 1 0 3.5 0zm7.8 9.1a.9.9 0 1 0-1.8 0 .9.9 0 1 0 1.8 0zm-18.8-5.9a.9.9 0 1 0-1.8 0 .9.9 0 1 0 1.8 0z" style="fill:#231f20"/><path d="M296.8 515.7a2.7 2.7 0 1 0-5.3 0 2.7 2.7 0 1 0 5.3 0zm-6.8 10.5a1.8 1.8 0 1 0-3.5 0 1.8 1.8 0 1 0 3.5 0zm-7.1-9.4a.9.9 0 1 0-1.8 0 .9.9 0 1 0 1.8 0zm18.2 8.3a.9.9 0 1 0-1.8 0 .9.9 0 1 0 1.8 0z" style="fill:#bae5f7"/><path d="M193.4 471c0-5.1.4-10.2-.3-15.2-.2-1.2-1.9-.7-1.7.5.7 4.9.2 9.8.2 14.7a.9.9 0 1 0 1.8 0z" style="fill:#231f20"/><path d="M204 441.5a58 58 0 0 1-9.3-.5c-2.4-.5-5.3-1.5-5.2-4.7s3.7-3.2 5.4-3.6a43.9 43.9 0 0 1 8.9-.5c1.1 0 1.1-1.9 0-1.9a42.2 42.2 0 0 0-10.6.9c-2.6.6-5.1 2.1-5.5 5.2-1 8.1 12.1 7.2 16.3 7.2 1.2-.2 1.2-2.1 0-2.1z" style="fill:#5cbd7e"/><path d="M194 419.7c2.1-4.7 6-8 9-12 .7-1-.5-2.3-1.2-1.4-3.1 4.1-7.1 7.5-9.3 12.4-.6 1.2 1 2.1 1.5 1z" style="fill:#f7a388"/><path d="M308.5 465.8a51.3 51.3 0 0 1-5.3-5.1c-.8-.9-2 .5-1.2 1.4a51.3 51.3 0 0 0 5.3 5.1c.8.7 2.1-.7 1.2-1.4z" style="fill:#5cbd7e"/><path d="M297.3 455.6a18.8 18.8 0 0 1-2.4-2.5c-.8-.9-2 .4-1.2 1.4l2.4 2.5c.4.3.9.4 1.2 0a1.2 1.2 0 0 0 0-1.4z" style="fill:#ffd880"/><path d="M177.2 525.1c-.2-4.2-7-4.7-9.7-5s-10.2-1.1-12.4 3.1 1.5 5.3 3.7 5.9a19.5 19.5 0 0 0 3.4.3l4 .3c3.4.2 10.8.8 11-4.6a.9.9 0 1 0-1.8 0c-.1 3.6-7.1 2.8-9.2 2.6l-5.2-.4a6.8 6.8 0 0 1-3.4-.8 2.1 2.1 0 0 1 0-3.7 9 9 0 0 1 4-.9 28.1 28.1 0 0 1 5.8.1 22.9 22.9 0 0 1 5.2 1.1c.8.3 2.7.9 2.8 2s1.9 1.3 1.8 0z" style="fill:#bae5f7"/></g><g style="clip-path:url(#a)"><path d="m186.9 324-16.4-18" style="fill:#f7a388"/><path d="m187.6 323.3-16.4-18c-.8-.9-2.1.5-1.2 1.4l16.4 18c.7.8 2-.5 1.2-1.4zm52 49.4c-6.6.6-14.5-5.2-16.1-12.3a.9.9 0 1 0-1.7.5c1.8 7.9 10.5 14.4 17.8 13.7 1.1-.1 1.1-2 0-1.9zm-17.8-4.1c-3.3-3.4-5.4-9.1-4.4-14.1.2-1.2-1.5-1.7-1.7-.5a18.3 18.3 0 0 0 4.8 15.9c.9.9 2.1-.4 1.3-1.3zm24.3 5.6a4.5 4.5 0 0 0 3.5-1.1c.8-.8-.4-2.2-1.2-1.4a3.1 3.1 0 0 1-2.3.5c-1.2.1-1.2 2 0 2zm-6.9-60.4c-2.6-.1-5.5-.4-7.4-2.5s-2-4.4-2.4-6.7-1-5.2-3.1-7-4.7-2.5-7.2-2.9l-3.5-.4c-1.5-.3-2.6-1.8-3.4-3.2s-1.4-6-1.9-9.3c-.9-5.9-6.2-7.5-11-7.6-1.1 0-1.1 1.9 0 1.9 2.6.1 5.5.4 7.5 2.4s1.7 5.3 2.2 8.1a14.5 14.5 0 0 0 3.2 7.5c1.9 2.3 4.4 2.1 6.9 2.5a11.9 11.9 0 0 1 7.2 3.4c1.8 2.1 1.6 5.9 2.3 8.6 1.6 5.4 5.9 7 10.7 7.1 1 0 1-1.9-.1-1.9z" style="fill:#5cbd7e"/><path d="m197.7 363.9-1.5 1.6-26.7-29.6 1.5-1.6z" style="fill:#f7a388"/><path d="m209.6 240.8-2 2.2-16.7-18.6 2-2.2z" style="fill:#ffd880"/><path d="m212.3 224.9-2.5 2.7-2.2-2.4 2.6-2.8 2.1 2.5z" style="fill:#231f20"/><path d="m211.1 223.5-2.5 2.7h2.5l-2.2-2.4v2.7l2.5-2.7h-2.5l2.2 2.4c1.6 1.8 4.1-1 2.5-2.7l-2.2-2.4a1.7 1.7 0 0 0-2.5 0l-2.5 2.7a2 2 0 0 0 0 2.7l2.2 2.4a1.7 1.7 0 0 0 2.5 0l2.5-2.7c1.6-1.7-.9-4.5-2.5-2.7z" style="fill:#231f20"/><path d="M240.3 294.7c-.1 3.6 3 3.9 5.6 4.1s3 .5 3.5 1.8a6.7 6.7 0 0 1-.3 3.7c-.6 2.5-1.3 5.1-.2 7.6s4.2 3.5 6.7 3.8 5.7.1 6.4-2.6a4.4 4.4 0 0 0-.7-3.7c-1-1.1-2.3-1.1-3.7-1.1a5 5 0 0 1-2.6-.6c-.7-.4-.3-1.4-.2-2.1a15.2 15.2 0 0 0 .8-5.6c-.3-3.4-2.7-5.7-5.4-7s-9.3-3-9.9 1.7c-.1 1.2 1.6 1.2 1.8 0s5.5-.7 6.5-.4c3.5 1.2 6 4.2 5.2 8.4s-2 5.6 1.1 7.1c1.3.6 2.8.4 4.1.5a1.7 1.7 0 0 1 1.4 2c-.1.8-1 1.1-1.6 1.3-2.6.8-6.2.1-8-2s-.3-5.4.2-7.7.4-4.4-1.4-5.8a7.1 7.1 0 0 0-3.7-1.2c-1.5-.2-3.9.1-3.8-2.2a.9.9 0 1 0-1.8 0z" style="fill:#ffd880"/><path d="M263.8 286.3c.5-4.4-4.4-3.5-7.2-4.4-9.9-3.1 4-13.4-5-19.3-2.9-1.9-11.9-3-11.4 2s4.9 1.8 8 4.2-2.2 6.3-.3 12.4 15.5 9.7 15.9 5.1z" style="fill:#f7a388"/><path d="M212 400c4-5.5 7.4-11.6 10.9-17.5l-1.4.2c4.6 5.1 9.6 10.2 13.5 15.9l.8-1.5-24.4 1.2c-1.1.1-1.1 2 0 1.9l24.4-1.2a1 1 0 0 0 .8-1.5c-4.1-5.9-9.1-11.1-13.8-16.3a.9.9 0 0 0-1.4.2c-3.4 5.8-6.7 11.8-10.6 17.1-.7 1.1.5 2.4 1.2 1.5z" style="fill:#231f20"/><path d="M171 287.8c5.4 0 10.8.8 16.2-.5a.8.8 0 0 0 .6-.9c-.2-5.8-.5-11.7-.7-17.5a1.1 1.1 0 0 0-.9-1c-5.4-.3-10.9-.7-16.3.1a1 1 0 0 0-.6 1.2c.9 5.9-.2 11.9.8 17.8.2 1.2 1.9.7 1.7-.5-1-5.9.1-11.9-.8-17.8l-.6 1.2c5.2-.8 10.6-.3 15.8-.1l-.9-1c.2 5.8.4 11.7.7 17.5l.6-.9c-5.2 1.3-10.5.5-15.7.4-1 .1-1 2 .1 2z" style="fill:#ffd880"/><path d="M189.6 397.8c4.3-4.7 9.1-8.4 12.4-14.2l-13.3-13.4s-9.7 9.7-12.7 14c3.3 2.6 8.7 10 13.6 13.6z" style="fill:#bae5f7"/><path d="M226.3 263.3c2.4-2.6 5.1-4.9 7-8a1.3 1.3 0 0 0-.1-1.2c-2.5-2.4-4.9-4.9-7.3-7.4a.7.7 0 0 0-1.2 0 58.9 58.9 0 0 0-7.1 7.9c-.3.4 0 1 .3 1.3 2.7 2.2 4.7 5.3 7.5 7.5.9.7 1.8-1 .9-1.7-2.8-2.1-4.8-5.3-7.5-7.5l.3 1.3a54.8 54.8 0 0 1 6.9-7.5h-1.2l7.3 7.4c0-.4-.1-.8-.1-1.2-1.8 3-4.4 5.2-6.7 7.7-1.1.9.2 2.3 1 1.4z" style="fill:#5cbd7e"/><path d="M158.7 322.7c2.7-2 4.7-5.3 3.4-8.9s-5.1-4-8.3-4.6a5.3 5.3 0 0 1-4.4-5.6c0-2.2.4-4-.4-6.1s-4.7-3.4-7.2-2.9c-7.3 1.4-6.3 10-3.8 15.6 1.8 4.1 4.8 6.9 8.2 9.4s7.3 4.8 11.3 3.7a4.5 4.5 0 0 0 1.2-.6c1-.6.1-2.3-.9-1.7-3.2 1.9-7.1-.6-9.9-2.4a22.4 22.4 0 0 1-7.9-8 18.5 18.5 0 0 1-2.4-8.9 5.2 5.2 0 0 1 4.4-5.2c3-.7 5.7.8 5.6 4.4a23.5 23.5 0 0 0 .1 5.3 7 7 0 0 0 2.7 3.8c2.4 1.9 5.8.8 8.3 2.4s1.6 6.7-1 8.6c-.8.7.1 2.4 1 1.7zm94.7-78.6c-4.3.2-8.6-.7-12.8-1.4a7.8 7.8 0 0 1 .5 1.4c1.9-3.6 2.6-7.8 3.7-11.8a1 1 0 0 0-.6-1.2c-5.4-.9-10.8-1.5-16.2-2.1l.9 1.2c1.3-3.5 2.7-7.1 4.2-10.5.2-.5.1-1.3-.5-1.4-4.8-1.2-9.6-1.7-14.4-2.5-1.1-.2-1.6 1.7-.5 1.9 4.8.8 9.6 1.3 14.4 2.5a7.8 7.8 0 0 1-.5-1.4c-1.5 3.6-3 7.3-4.3 11a.9.9 0 0 0 .9 1.2c5.2.6 10.5 1.2 15.7 2l-.6-1.2c-1 3.8-1.6 7.8-3.5 11.3a1 1 0 0 0 .5 1.4c4.4.7 8.8 1.7 13.3 1.5.9 0 .9-1.9-.2-1.9zm-31.1 82.2c-2.5 2.1-5 4.5-8.1 5.6-1.3.4-2.9 0-2.9-1.8s1.5-2.6 2.3-3.5 3.9-3.6 2.7-5.9-3.7-2.3-5.8-1.6-5.2 3.1-7.8 2.5c-1-.2-2.4-1.3-1.8-2.5a13.4 13.4 0 0 1 2.7-3.1c1.4-1.4 3.7-3.7 2.6-6s-3.9-2.2-6-1.2a45.1 45.1 0 0 1-4.4 2.2c-1.4.5-3.9.4-4.5-1.5s2.3-3 3-3.5l3.6-2.2c1-.6.1-2.3-.9-1.7s-5.1 2.7-6.8 5.1.1 5 2.5 5.8 5.7-1.2 8-2.4 2.5-1.3 3.6-.2-.3 2.5-1 3.2-4.2 3.3-4.4 5.8 2.7 4.1 4.7 4.1 5.2-1.9 7.7-2.8 2.3-.6 3.2.3-.5 2.4-1.2 3.1-2.9 2.8-3.6 4.7a4 4 0 0 0 1.9 4.7c1.9 1 4.1-.2 5.8-1.2a41 41 0 0 0 5.8-4.5c.8-.6 0-2.3-.9-1.5z" style="fill:#231f20"/><path d="M199.5 253.2c-3 0-6.3-.5-7.8-3.7s-.7-5.6-1.5-8.3-3.5-4.9-5.8-6.3a15.3 15.3 0 0 0-8.7-2.6c-1.1.1-1.1 2 0 1.9 3.1-.2 6.3 1.3 9 3.1a11 11 0 0 1 3.5 3.6c.8 1.3.7 3.1.9 4.7s.7 4.8 2.2 6.7 5.4 2.8 8.2 2.9c1.2-.1 1.2-2 0-2z" style="fill:#bae5f7"/><path d="M198.4 257.3c-5.6 1.2-11.1-3.7-12.3-9.6-.2-1.2-1.9-.7-1.7.5 1.4 7 7.9 12.3 14.5 10.9 1.1-.1.6-2-.5-1.8z" style="fill:#bae5f7"/><path d="M172.2 351.6c-4.4.6-8.8-.7-11.4-4.9s-2.3-8.6-.9-12.7a.9.9 0 1 0-1.7-.5 16.8 16.8 0 0 0 1.3 14.5c2.8 4.6 7.9 6.2 12.7 5.5 1.1-.1 1.1-2.1 0-1.9zm-14.8-1.3c-4-3.5-4.5-9.2-4-14.5.1-1.2-1.7-1.2-1.8 0-.5 5.7.2 12 4.5 15.9.9.7 2.2-.7 1.3-1.4zm12.8 8.5c2.4 0 5.1.5 7.4-.3s.6-2.2-.5-1.9-4.7.2-7 .2-1 2 .1 2z" style="fill:#ffd880"/><path d="M241.6 347.2c-.8-2-2.4-3.5-4.4-2.1a3.9 3.9 0 0 0-1.2 5c1.4 2.2 5 2 6.8.7a5.2 5.2 0 0 0 1.6-6.5c-1.3-3.2-5.4-3.8-8.1-3a6.8 6.8 0 0 0-4.9 7.3 8.5 8.5 0 0 0 7.1 6.9c3.2.5 6.4-1.6 8.2-4.3s1.9-9.7-1.6-12.4-7.9-1.9-11.3-.1a11 11 0 0 0-5.5 11.7c1.1 7.3 9 9.7 14.7 8 1.1-.3.6-2.2-.5-1.9a10.2 10.2 0 0 1-10.9-2.9c-2.2-2.6-2.2-6.8-.6-9.8s8.5-6 12.5-3.8a6.3 6.3 0 0 1 2.9 6 7.7 7.7 0 0 1-7.2 7.6c-4.2.2-8.4-5.4-4.8-9.1s8.8-2.2 8.6 2.4c-.1 2.6-4.4 4.2-5.8 2s1.4-3.7 2.4-1.2 2.4.6 2-.5zm-4.8-68.7a2.7 2.7 0 1 0-5.3 0 2.7 2.7 0 1 0 5.3 0zm-12.4-3.5a1.8 1.8 0 1 0-3.5 0 1.8 1.8 0 1 0 3.5 0z" style="fill:#f7a388"/><path d="M198.5 343.7a2.7 2.7 0 1 0-5.3 0 2.7 2.7 0 1 0 5.3 0zm-1.9-12.3a1.8 1.8 0 1 0-3.5 0 1.8 1.8 0 1 0 3.5 0zm7.8 9.1a.9.9 0 1 0-1.8 0 .9.9 0 1 0 1.8 0zm-18.8-5.9a.9.9 0 1 0-1.8 0 .9.9 0 1 0 1.8 0z" style="fill:#231f20"/><path d="M263.7 325.5a2.7 2.7 0 1 0-5.3 0 2.7 2.7 0 1 0 5.3 0zm-6.8 10.5a1.8 1.8 0 1 0-3.5 0 1.8 1.8 0 1 0 3.5 0zm-7.1-9.4a.9.9 0 1 0-1.8 0 .9.9 0 1 0 1.8 0zm18.1 8.4a.9.9 0 1 0-1.8 0 .9.9 0 1 0 1.8 0z" style="fill:#bae5f7"/><path d="M160.2 280.9c0-5.1.4-10.2-.3-15.2-.2-1.2-1.9-.7-1.7.5.7 4.9.2 9.8.2 14.7a.9.9 0 1 0 1.8 0z" style="fill:#231f20"/><path d="M170.9 251.3a58 58 0 0 1-9.3-.5c-2.4-.5-5.3-1.5-5.2-4.7s3.7-3.2 5.4-3.6a43.9 43.9 0 0 1 8.9-.5c1.1 0 1.1-1.9 0-1.9a42.2 42.2 0 0 0-10.6.9c-2.6.6-5.1 2.1-5.5 5.2-1 8.1 12.1 7.2 16.3 7.2 1.1-.1 1.1-2.1 0-2.1z" style="fill:#5cbd7e"/><path d="M160.8 229.6c2.1-4.7 6-8 9-12 .7-1-.5-2.3-1.2-1.4-3.1 4.1-7.1 7.5-9.3 12.4-.5 1.1 1 2.1 1.5 1z" style="fill:#f7a388"/><path d="M275.4 275.6a51.3 51.3 0 0 1-5.3-5.1c-.8-.9-2 .5-1.2 1.4a51.3 51.3 0 0 0 5.3 5.1c.8.8 2.1-.6 1.2-1.4z" style="fill:#5cbd7e"/><path d="M264.1 265.4a18.8 18.8 0 0 1-2.4-2.5c-.8-.9-2 .4-1.2 1.4l2.4 2.5c.4.3.9.4 1.2 0a1.1 1.1 0 0 0 0-1.4z" style="fill:#ffd880"/><path d="M144.1 335c-.2-4.2-7-4.7-9.7-5s-10.2-1.1-12.4 3.1 1.5 5.3 3.7 5.9a19.5 19.5 0 0 0 3.4.3l4 .3c3.4.2 10.8.8 11-4.6a.9.9 0 1 0-1.8 0c-.1 3.6-7.1 2.8-9.2 2.6l-5.2-.4a6.8 6.8 0 0 1-3.4-.8 2.1 2.1 0 0 1 0-3.7 9 9 0 0 1 4-.9 28.1 28.1 0 0 1 5.8.1 22.9 22.9 0 0 1 5.2 1.1c.8.3 2.7.9 2.8 2s1.9 1.2 1.8 0z" style="fill:#bae5f7"/></g><g style="clip-path:url(#a)"><path d="m99.7 457.7-16.4-18" style="fill:#f7a388"/><path d="m100.3 457-16.4-18c-.8-.9-2.1.5-1.2 1.4l16.4 18c.8.9 2.1-.5 1.2-1.4zm52.1 49.4c-6.6.6-14.5-5.2-16.1-12.3a.9.9 0 1 0-1.7.5c1.8 7.9 10.5 14.4 17.8 13.7 1.1-.1 1.1-2 0-1.9zm-17.8-4c-3.3-3.4-5.4-9.1-4.4-14.1.2-1.2-1.5-1.7-1.7-.5a18.3 18.3 0 0 0 4.8 15.9c.9.9 2.1-.5 1.3-1.3zm24.3 5.6a4.5 4.5 0 0 0 3.5-1.1c.8-.8-.4-2.2-1.2-1.4a3.1 3.1 0 0 1-2.3.5 1 1 0 0 0 0 2zm-6.9-60.5c-2.6-.1-5.5-.4-7.4-2.5s-2-4.4-2.4-6.7-1-5.2-3.1-7-4.7-2.5-7.2-2.9l-3.5-.4c-1.5-.3-2.6-1.8-3.4-3.2s-1.4-6-1.9-9.3c-.9-5.9-6.2-7.5-11-7.6-1.1 0-1.1 1.9 0 1.9 2.6.1 5.5.4 7.5 2.4s1.7 5.3 2.2 8.1a14.5 14.5 0 0 0 3.2 7.5c1.9 2.3 4.4 2.1 6.9 2.5a11.9 11.9 0 0 1 7.2 3.4c1.8 2.1 1.6 5.9 2.3 8.6 1.6 5.4 5.9 7 10.7 7.1 1 .1 1-1.8-.1-1.9z" style="fill:#5cbd7e"/><path d="m110.4 497.6-1.4 1.6-26.7-29.5 1.5-1.6z" style="fill:#f7a388"/><path d="m122.4 374.5-2 2.2-16.7-18.5 2-2.2z" style="fill:#ffd880"/><path d="m125.1 358.6-2.5 2.7-2.2-2.4 2.5-2.7z" style="fill:#231f20"/><path d="m123.9 357.2-2.5 2.7h2.5l-2.2-2.4v2.7l2.5-2.7h-2.5l2.2 2.4c1.6 1.8 4.1-1 2.5-2.7l-2.2-2.4a1.7 1.7 0 0 0-2.5 0l-2.5 2.7a2 2 0 0 0 0 2.7l2.2 2.4a1.7 1.7 0 0 0 2.5 0l2.5-2.7c1.6-1.7-.9-4.4-2.5-2.7z" style="fill:#231f20"/><path d="M153.1 428.5c-.1 3.6 3 3.9 5.6 4.1s3 .5 3.5 1.8a6.7 6.7 0 0 1-.3 3.7c-.6 2.5-1.3 5.1-.2 7.6s4.2 3.5 6.7 3.8 5.7.1 6.4-2.6a4.4 4.4 0 0 0-.7-3.7c-1-1.1-2.3-1.1-3.7-1.1a5 5 0 0 1-2.6-.6c-.7-.4-.3-1.4-.2-2.1a15.2 15.2 0 0 0 .8-5.6c-.3-3.4-2.7-5.7-5.4-7s-9.3-3-9.9 1.7c-.1 1.2 1.6 1.2 1.8 0s5.5-.7 6.5-.4c3.5 1.2 6 4.2 5.2 8.4s-2 5.6 1.1 7.1c1.3.6 2.8.4 4.1.5a1.7 1.7 0 0 1 1.4 2c-.1.8-1 1.1-1.6 1.3-2.6.8-6.2.1-8-2s-.3-5.4.2-7.7.4-4.4-1.4-5.8a7.1 7.1 0 0 0-3.7-1.2c-1.5-.2-3.9.1-3.8-2.2a.9.9 0 1 0-1.8 0z" style="fill:#ffd880"/><path d="M176.6 420.1c.5-4.4-4.4-3.5-7.2-4.4-9.9-3.1 4-13.4-5-19.3-2.9-1.9-11.9-3-11.4 2s4.9 1.8 8 4.2-2.2 6.3-.3 12.4 15.4 9.7 15.9 5.1z" style="fill:#f7a388"/><path d="M124.8 533.7c4-5.5 7.4-11.6 10.9-17.5l-1.4.2c4.6 5.1 9.6 10.2 13.5 15.9l.8-1.5-24.4 1.2c-1.1.1-1.1 2 0 1.9l24.4-1.2a1 1 0 0 0 .8-1.5c-4.1-5.9-9.1-11.1-13.8-16.3a.9.9 0 0 0-1.4.2c-3.4 5.8-6.7 11.8-10.6 17.1-.7 1.1.5 2.5 1.2 1.5z" style="fill:#231f20"/><path d="M83.8 421.6c5.4 0 10.8.8 16.2-.5a.8.8 0 0 0 .6-.9c-.2-5.8-.5-11.7-.7-17.5a1.1 1.1 0 0 0-.9-1c-5.4-.3-10.9-.7-16.3.1a1 1 0 0 0-.6 1.2c.9 5.9-.2 11.9.8 17.8.2 1.2 1.9.7 1.7-.5-1-5.9.1-11.9-.8-17.8l-.6 1.2c5.2-.8 10.6-.3 15.8-.1l-.9-1c.2 5.8.4 11.7.7 17.5l.6-.9c-5.2 1.3-10.5.5-15.7.4-1 .1-1 2 .1 2z" style="fill:#ffd880"/><path d="M102.3 531.5c4.3-4.7 9.1-8.4 12.4-14.2l-13.3-13.4s-9.7 9.7-12.7 14c3.4 2.6 8.7 10.1 13.6 13.6z" style="fill:#bae5f7"/><path d="M139.1 397c2.4-2.6 5.1-4.9 7-8a1.3 1.3 0 0 0-.1-1.2c-2.5-2.4-4.9-4.9-7.3-7.4a.7.7 0 0 0-1.2 0 58.9 58.9 0 0 0-7.1 7.9c-.3.4 0 1 .3 1.3 2.7 2.2 4.7 5.3 7.5 7.5.9.7 1.8-1 .9-1.7-2.8-2.1-4.8-5.3-7.5-7.5l.3 1.3a54.8 54.8 0 0 1 6.9-7.5h-1.2l7.3 7.4c0-.4-.1-.8-.1-1.2-1.8 3-4.4 5.2-6.7 7.7-1.1.9.2 2.3 1 1.4z" style="fill:#5cbd7e"/><path d="M71.5 456.5c2.7-2 4.7-5.3 3.4-8.9s-5.1-4-8.3-4.6a5.3 5.3 0 0 1-4.4-5.6c0-2.2.4-4-.4-6.1s-4.7-3.4-7.2-2.9c-7.3 1.4-6.3 10-3.8 15.6s4.8 6.9 8.2 9.4 7.3 4.8 11.3 3.7l1.2-.6c1-.6.1-2.3-.9-1.7-3.2 1.9-7.1-.6-9.9-2.4a22.4 22.4 0 0 1-7.9-8 18.5 18.5 0 0 1-2.4-8.9 5.2 5.2 0 0 1 4.4-5.2c3-.7 5.7.8 5.6 4.4a23.5 23.5 0 0 0 .1 5.3 7 7 0 0 0 2.7 3.8c2.4 1.9 5.8.8 8.3 2.4s1.6 6.7-1 8.6c-.8.7.1 2.4 1 1.7zm94.7-78.6c-4.3.2-8.6-.7-12.8-1.4a7.8 7.8 0 0 1 .5 1.4c1.9-3.6 2.6-7.8 3.7-11.8a1 1 0 0 0-.6-1.2c-5.4-.9-10.8-1.5-16.2-2.1l.9 1.2c1.3-3.5 2.7-7.1 4.2-10.5.2-.5.1-1.3-.5-1.4-4.8-1.2-9.6-1.7-14.4-2.5-1.1-.2-1.6 1.7-.5 1.9 4.8.8 9.6 1.3 14.4 2.5a7.8 7.8 0 0 1-.5-1.4c-1.5 3.6-3 7.3-4.3 11a.9.9 0 0 0 .9 1.2c5.2.6 10.5 1.2 15.7 2l-.6-1.2c-1 3.8-1.6 7.8-3.5 11.3a1 1 0 0 0 .5 1.4c4.4.7 8.8 1.7 13.3 1.5.9-.1.9-2-.2-1.9zM135 460c-2.5 2.1-5 4.5-8.1 5.6-1.3.4-2.9 0-2.9-1.8s1.5-2.6 2.3-3.5 3.9-3.6 2.7-5.9-3.7-2.3-5.8-1.6-5.2 3.1-7.8 2.5c-1-.2-2.4-1.3-1.8-2.5a13.4 13.4 0 0 1 2.7-3.1c1.4-1.4 3.7-3.7 2.6-6s-3.9-2.2-6-1.2a45.1 45.1 0 0 1-4.4 2.2c-1.4.5-3.9.4-4.5-1.5s2.3-3 3-3.5l3.6-2.2c1-.6.1-2.3-.9-1.7s-5.1 2.7-6.8 5.1.1 5 2.5 5.8 5.7-1.2 8-2.4 2.5-1.3 3.6-.2-.3 2.5-1 3.2-4.2 3.3-4.4 5.8 2.7 4.1 4.7 4.1 5.2-1.9 7.7-2.8 2.3-.6 3.2.3-.5 2.4-1.2 3.1-2.9 2.8-3.6 4.7a4 4 0 0 0 1.9 4.7c1.9 1 4.1-.2 5.8-1.2a41 41 0 0 0 5.8-4.5c.9-.6 0-2.2-.9-1.5z" style="fill:#231f20"/><path d="M112.3 386.9c-3 0-6.3-.5-7.8-3.7s-.7-5.6-1.5-8.3-3.5-4.9-5.8-6.3a15.3 15.3 0 0 0-8.7-2.6c-1.1.1-1.1 2 0 1.9 3.1-.2 6.3 1.3 9 3.1a11 11 0 0 1 3.5 3.6c.8 1.3.7 3.1.9 4.7s.7 4.8 2.2 6.7 5.4 2.8 8.2 2.9c1.1 0 1.1-2 0-2z" style="fill:#bae5f7"/><path d="M111.2 391.1c-5.6 1.2-11.1-3.7-12.3-9.6-.2-1.2-1.9-.7-1.7.5 1.4 7 7.9 12.3 14.5 10.9 1.1-.2.6-2-.5-1.8z" style="fill:#bae5f7"/><path d="M84.9 485.3c-4.4.6-8.8-.7-11.4-4.9s-2.3-8.6-.9-12.7a.9.9 0 1 0-1.7-.5 16.8 16.8 0 0 0 1.3 14.5c2.8 4.6 7.9 6.2 12.7 5.5 1.2-.1 1.2-2 0-1.9zM70.2 484c-4-3.5-4.5-9.2-4-14.5.1-1.2-1.7-1.2-1.8 0-.5 5.7.2 12 4.5 15.9.9.7 2.2-.6 1.3-1.4zm12.8 8.5c2.4 0 5.1.5 7.4-.3s.6-2.2-.5-1.9-4.7.2-7 .2-1 2 .1 2z" style="fill:#ffd880"/><path d="M154.4 480.9c-.8-2-2.4-3.5-4.4-2.1a3.9 3.9 0 0 0-1.2 5c1.4 2.2 5 2 6.8.7a5.2 5.2 0 0 0 1.6-6.5c-1.3-3.2-5.4-3.8-8.1-3a6.8 6.8 0 0 0-4.9 7.3 8.5 8.5 0 0 0 7.1 6.9c3.2.5 6.4-1.6 8.2-4.3s1.9-9.7-1.6-12.4-7.9-1.9-11.3-.1a11 11 0 0 0-5.5 11.7c1.1 7.3 9 9.7 14.7 8 1.1-.3.6-2.2-.5-1.9a10.2 10.2 0 0 1-10.9-2.9c-2.2-2.6-2.2-6.8-.6-9.8s8.5-6 12.5-3.8a6.3 6.3 0 0 1 2.9 6 7.7 7.7 0 0 1-7.2 7.6c-4.2.2-8.4-5.4-4.8-9.1s8.8-2.2 8.6 2.4c-.1 2.6-4.4 4.2-5.8 2s1.4-3.7 2.4-1.2 2.4.7 2-.5zm-4.8-68.6a2.7 2.7 0 1 0-5.3 0 2.7 2.7 0 1 0 5.3 0zm-12.4-3.6a1.8 1.8 0 1 0-3.5 0 1.8 1.8 0 1 0 3.5 0z" style="fill:#f7a388"/><path d="M111.3 477.4a2.7 2.7 0 1 0-5.3 0 2.7 2.7 0 1 0 5.3 0zm-2-12.2a1.8 1.8 0 1 0-3.5 0 1.8 1.8 0 1 0 3.5 0zm7.8 9a.9.9 0 1 0-1.8 0 .9.9 0 1 0 1.8 0zm-18.7-5.9a.9.9 0 1 0-1.8 0 .9.9 0 1 0 1.8 0z" style="fill:#231f20"/><path d="M176.4 459.3a2.7 2.7 0 1 0-5.3 0 2.7 2.7 0 1 0 5.3 0zm-6.7 10.5a1.8 1.8 0 1 0-3.5 0 1.8 1.8 0 1 0 3.5 0zm-7.1-9.4a.9.9 0 1 0-1.8 0 .9.9 0 1 0 1.8 0zm18.1 8.3a.9.9 0 1 0-1.8 0 .9.9 0 1 0 1.8 0z" style="fill:#bae5f7"/><path d="M73 414.6c0-5.1.4-10.2-.3-15.2-.2-1.2-1.9-.7-1.7.5.7 4.9.2 9.8.2 14.7a.9.9 0 1 0 1.8 0z" style="fill:#231f20"/><path d="M83.7 385.1a58 58 0 0 1-9.3-.5c-2.4-.5-5.3-1.5-5.2-4.7s3.7-3.2 5.4-3.6a43.9 43.9 0 0 1 8.9-.5c1.1 0 1.1-1.9 0-1.9a42.2 42.2 0 0 0-10.6.9c-2.6.6-5.1 2.1-5.5 5.2-1 8.1 12.1 7.2 16.3 7.2 1.1-.2 1.1-2.1 0-2.1z" style="fill:#5cbd7e"/><path d="M73.6 363.3c2.1-4.7 6-8 9-12 .7-1-.5-2.3-1.2-1.4-3.1 4.1-7.1 7.5-9.3 12.4-.5 1.2 1 2.2 1.5 1z" style="fill:#f7a388"/><path d="M188.1 409.4a51.3 51.3 0 0 1-5.3-5.1c-.8-.9-2 .5-1.2 1.4a51.3 51.3 0 0 0 5.3 5.1c.9.7 2.1-.6 1.2-1.4z" style="fill:#5cbd7e"/><path d="M176.9 399.2a18.8 18.8 0 0 1-2.4-2.5c-.8-.9-2 .4-1.2 1.4l2.4 2.5c.4.3.9.4 1.2 0s.4-1.1 0-1.4z" style="fill:#ffd880"/><path d="M56.9 468.7c-.2-4.2-7-4.7-9.7-5s-10.2-1.1-12.4 3.1 1.5 5.3 3.7 5.9a19.5 19.5 0 0 0 3.4.3l4 .3c3.4.2 10.8.8 11-4.6a.9.9 0 1 0-1.8 0c-.1 3.6-7.1 2.8-9.2 2.6l-5.2-.4a6.8 6.8 0 0 1-3.4-.8 2.1 2.1 0 0 1 0-3.7 9 9 0 0 1 4-.9 28.1 28.1 0 0 1 5.8.1 22.9 22.9 0 0 1 5.2 1.1c.8.3 2.7.9 2.8 2a.9.9 0 1 0 1.8 0z" style="fill:#bae5f7"/></g><g style="clip-path:url(#a)"><path d="m154.5 131.8-16.4-18" style="fill:#f7a388"/><path d="m155.2 131.1-16.4-18c-.8-.9-2.1.5-1.2 1.4l16.4 18c.7.8 2-.5 1.2-1.4zm52 49.4c-6.6.6-14.5-5.2-16.1-12.3a.9.9 0 1 0-1.7.5c1.8 7.9 10.5 14.4 17.8 13.7 1.1-.1 1.1-2 0-1.9zm-17.8-4.1c-3.3-3.4-5.4-9.1-4.4-14.1.2-1.2-1.5-1.7-1.7-.5a18.3 18.3 0 0 0 4.8 15.9c.9.9 2.1-.4 1.3-1.3zm24.3 5.6a4.5 4.5 0 0 0 3.5-1.1c.8-.8-.4-2.2-1.2-1.4a3.1 3.1 0 0 1-2.3.5c-1.2.1-1.2 2 0 2zm-6.9-60.4c-2.6-.1-5.5-.4-7.4-2.5s-2-4.4-2.4-6.7-1-5.2-3.1-7-4.7-2.5-7.2-2.9l-3.5-.4c-1.5-.3-2.6-1.8-3.4-3.2-1.7-2.9-1.4-6-1.9-9.3-.9-5.9-6.2-7.5-11-7.6-1.1 0-1.1 1.9 0 1.9 2.6.1 5.5.4 7.5 2.4s1.7 5.3 2.2 8.1a14.5 14.5 0 0 0 3.2 7.5c1.9 2.3 4.4 2.1 6.9 2.5a11.9 11.9 0 0 1 7.2 3.4c1.8 2.1 1.6 5.9 2.3 8.6 1.6 5.4 5.9 7 10.7 7.1 1 .1 1-1.9-.1-1.9z" style="fill:#5cbd7e"/><path d="m165.3 171.7-1.5 1.6-26.7-29.6 1.5-1.6z" style="fill:#f7a388"/><path d="m177.2 48.6-2 2.2-16.7-18.5 2-2.2z" style="fill:#ffd880"/><path d="m179.9 32.7-2.5 2.7-2.2-2.4 2.6-2.8 2.1 2.5z" style="fill:#231f20"/><path d="m178.7 31.3-2.5 2.7h2.5l-2.2-2.4v2.7l2.5-2.7h-2.5l2.2 2.4c1.6 1.8 4.1-1 2.5-2.7l-2.2-2.4a1.7 1.7 0 0 0-2.5 0l-2.5 2.7a2 2 0 0 0 0 2.7l2.2 2.4a1.7 1.7 0 0 0 2.5 0l2.5-2.7c1.6-1.7-.9-4.4-2.5-2.7z" style="fill:#231f20"/><path d="M207.9 102.5c-.1 3.6 3 3.9 5.6 4.1s3 .5 3.5 1.8a6.7 6.7 0 0 1-.3 3.7c-.6 2.5-1.3 5.1-.2 7.6s4.2 3.5 6.7 3.8 5.7.1 6.4-2.6a4.4 4.4 0 0 0-.7-3.7c-1-1.1-2.3-1.1-3.7-1.1a5 5 0 0 1-2.6-.6c-.7-.4-.3-1.4-.2-2.1a15.2 15.2 0 0 0 .8-5.6c-.3-3.4-2.7-5.7-5.4-7s-9.3-3-9.9 1.7c-.1 1.2 1.6 1.2 1.8 0s5.5-.7 6.5-.4c3.5 1.2 6 4.2 5.2 8.4-.5 2.7-2 5.6 1.1 7.1 1.3.6 2.8.4 4.1.5a1.7 1.7 0 0 1 1.4 2c-.1.8-1 1.1-1.6 1.3-2.6.8-6.2.1-8-2s-.3-5.4.2-7.7.4-4.4-1.4-5.8a7.1 7.1 0 0 0-3.7-1.2c-1.5-.2-3.9.1-3.8-2.2a.9.9 0 1 0-1.8 0z" style="fill:#ffd880"/><path d="M231.4 94.1c.5-4.4-4.4-3.5-7.2-4.4-9.9-3.1 4-13.4-5-19.3-2.9-1.9-11.9-3-11.4 2s4.9 1.8 8 4.2-2.2 6.3-.3 12.4 15.5 9.7 15.9 5.1z" style="fill:#f7a388"/><path d="M179.6 207.8c4-5.5 7.4-11.6 10.9-17.5l-1.4.2c4.6 5.1 9.6 10.2 13.5 15.9l.8-1.5-24.4 1.2c-1.1.1-1.1 2 0 1.9l24.4-1.2a1 1 0 0 0 .8-1.5c-4.1-5.9-9.1-11.1-13.8-16.3a.9.9 0 0 0-1.4.2c-3.4 5.8-6.7 11.8-10.6 17.1-.7 1.1.5 2.5 1.2 1.5z" style="fill:#231f20"/><path d="M138.6 95.7c5.4 0 10.8.8 16.2-.5a.8.8 0 0 0 .6-.9c-.2-5.8-.5-11.7-.7-17.5a1.1 1.1 0 0 0-.9-1c-5.4-.3-10.9-.7-16.3.1a1 1 0 0 0-.6 1.2c.9 5.9-.2 11.9.8 17.8.2 1.2 1.9.7 1.7-.5-1-5.9.1-11.9-.8-17.8l-.6 1.2c5.2-.8 10.6-.3 15.8-.1l-.9-1c.2 5.8.4 11.7.7 17.5l.6-.9c-5.2 1.3-10.5.5-15.7.4-1 0-1 1.9.1 2z" style="fill:#ffd880"/><path d="M157.2 205.6c4.3-4.7 9.1-8.4 12.4-14.2L156.3 178s-9.7 9.7-12.7 14c3.3 2.6 8.7 10 13.6 13.6z" style="fill:#bae5f7"/><path d="M193.9 71.1c2.4-2.6 5.1-4.9 7-8a1.3 1.3 0 0 0-.1-1.2c-2.5-2.4-4.9-4.9-7.3-7.4a.7.7 0 0 0-1.2 0 58.9 58.9 0 0 0-7.1 7.9c-.3.4 0 1 .3 1.3 2.7 2.2 4.7 5.3 7.5 7.5.9.7 1.8-1 .9-1.7-2.8-2.1-4.8-5.3-7.5-7.5l.3 1.3a54.8 54.8 0 0 1 6.9-7.5h-1.2l7.3 7.4c0-.4-.1-.8-.1-1.2-1.8 3-4.4 5.2-6.7 7.7-1.1.9.2 2.3 1 1.4z" style="fill:#5cbd7e"/><path d="M126.3 130.5c2.7-2 4.7-5.3 3.4-8.9s-5.1-4-8.3-4.6a5.3 5.3 0 0 1-4.4-5.6c0-2.2.4-4-.4-6.1s-4.7-3.4-7.2-2.9c-7.3 1.4-6.3 10-3.8 15.6s4.8 6.9 8.2 9.4 7.3 4.8 11.3 3.7a2.7 2.7 0 0 0 1.2-.6c1-.6.1-2.3-.9-1.7-3.2 1.9-7.1-.6-9.9-2.4a22.4 22.4 0 0 1-7.9-8 18.5 18.5 0 0 1-2.4-8.9 5.2 5.2 0 0 1 4.4-5.2c3-.7 5.7.8 5.6 4.4a23.5 23.5 0 0 0 .1 5.3 7 7 0 0 0 2.7 3.8c2.4 1.9 5.8.8 8.3 2.4s1.6 6.7-1 8.6c-.8.8.1 2.4 1 1.7zM221 51.9c-4.3.2-8.6-.7-12.8-1.4a7.8 7.8 0 0 1 .5 1.4c1.9-3.6 2.6-7.8 3.7-11.8a1 1 0 0 0-.6-1.2c-5.4-.9-10.8-1.5-16.2-2.1l.9 1.2c1.3-3.5 2.7-7.1 4.2-10.5.2-.5.1-1.3-.5-1.4-4.8-1.2-9.6-1.7-14.4-2.5-1.1-.2-1.6 1.7-.5 1.9 4.8.8 9.6 1.3 14.4 2.5a7.8 7.8 0 0 1-.5-1.4c-1.5 3.6-3 7.3-4.3 11a.9.9 0 0 0 .9 1.2c5.2.6 10.5 1.2 15.7 2l-.6-1.2c-1 3.8-1.6 7.8-3.5 11.3a1 1 0 0 0 .5 1.4c4.4.7 8.8 1.7 13.3 1.5.9 0 .9-1.9-.2-1.9zm-31.1 82.2c-2.5 2.1-5 4.5-8.1 5.6-1.3.4-2.9 0-2.9-1.8s1.5-2.6 2.3-3.5 3.9-3.6 2.7-5.9-3.7-2.3-5.8-1.6-5.2 3.1-7.8 2.5c-1-.2-2.4-1.3-1.8-2.5a13.4 13.4 0 0 1 2.7-3.1c1.4-1.4 3.7-3.7 2.6-6s-3.9-2.2-6-1.2a45.1 45.1 0 0 1-4.4 2.2c-1.4.5-3.9.4-4.5-1.5s2.3-3 3-3.5l3.6-2.2c1-.6.1-2.3-.9-1.7s-5.1 2.7-6.8 5.1.1 5 2.5 5.8 5.7-1.2 8-2.4 2.5-1.3 3.6-.2-.3 2.5-1 3.2-4.2 3.3-4.4 5.8 2.7 4.1 4.7 4.1 5.2-1.9 7.7-2.8 2.3-.6 3.2.3-.5 2.4-1.2 3.1-2.9 2.8-3.6 4.7a4 4 0 0 0 1.9 4.7c1.9 1 4.1-.2 5.8-1.2a41 41 0 0 0 5.8-4.5c.8-.6 0-2.3-.9-1.5z" style="fill:#231f20"/><path d="M167.1 61c-3 0-6.3-.5-7.8-3.7s-.7-5.6-1.5-8.3-3.5-4.9-5.8-6.3a15.3 15.3 0 0 0-8.7-2.6c-1.1.1-1.1 2 0 1.9 3.1-.2 6.3 1.3 9 3.1a11 11 0 0 1 3.5 3.6c.8 1.3.7 3.1.9 4.7s.7 4.8 2.2 6.7 5.4 2.8 8.2 2.9c1.2-.1 1.2-2 0-2z" style="fill:#bae5f7"/><path d="M166 65.2c-5.6 1.2-11.1-3.7-12.3-9.6-.2-1.2-1.9-.7-1.7.5 1.4 7 7.9 12.3 14.5 10.9 1.1-.2.6-2.1-.5-1.8z" style="fill:#bae5f7"/><path d="M139.8 159.4c-4.4.6-8.8-.7-11.4-4.9s-2.3-8.6-.9-12.7a.9.9 0 1 0-1.7-.5 16.8 16.8 0 0 0 1.3 14.5c2.8 4.6 7.9 6.2 12.7 5.5 1.1-.1 1.1-2.1 0-1.9zm-14.8-1.3c-4-3.5-4.5-9.2-4-14.5.1-1.2-1.7-1.2-1.8 0-.5 5.7.2 12 4.5 15.9.9.7 2.2-.7 1.3-1.4zm12.8 8.5c2.4 0 5.1.5 7.4-.3s.6-2.2-.5-1.9-4.7.2-7 .2-1 2 .1 2z" style="fill:#ffd880"/><path d="M209.2 155c-.8-2-2.4-3.5-4.4-2.1a3.9 3.9 0 0 0-1.2 5c1.4 2.2 5 2 6.8.7a5.2 5.2 0 0 0 1.6-6.5c-1.3-3.2-5.4-3.8-8.1-3a6.8 6.8 0 0 0-4.9 7.3 8.5 8.5 0 0 0 7.1 6.9c3.2.5 6.4-1.6 8.2-4.3s1.9-9.7-1.6-12.4-7.9-1.9-11.3-.1a11 11 0 0 0-5.5 11.7c1.1 7.3 9 9.7 14.7 8 1.1-.3.6-2.2-.5-1.9a10.2 10.2 0 0 1-10.9-2.9c-2.2-2.6-2.2-6.8-.6-9.8s8.5-6 12.5-3.8a6.3 6.3 0 0 1 2.9 6 7.7 7.7 0 0 1-7.2 7.6c-4.2.2-8.4-5.4-4.8-9.1s8.8-2.2 8.6 2.4c-.1 2.6-4.4 4.2-5.8 2s1.4-3.7 2.4-1.2 2.4.6 2-.5zm-4.8-68.6a2.7 2.7 0 1 0-5.3 0 2.7 2.7 0 1 0 5.3 0zM192 82.8a1.8 1.8 0 1 0-3.5 0 1.8 1.8 0 1 0 3.5 0z" style="fill:#f7a388"/><path d="M166.1 151.5a2.7 2.7 0 1 0-5.3 0 2.7 2.7 0 1 0 5.3 0zm-1.9-12.3a1.8 1.8 0 1 0-3.5 0 1.8 1.8 0 1 0 3.5 0zm7.7 9.1a.9.9 0 0 0-1.8 0 .9.9 0 1 0 1.8 0zm-18.7-5.9a.9.9 0 0 0-1.8 0 .9.9 0 0 0 1.8 0z" style="fill:#231f20"/><path d="M231.3 133.4a2.7 2.7 0 1 0-5.3 0 2.7 2.7 0 1 0 5.3 0zm-6.8 10.4a1.8 1.8 0 1 0-3.5 0 1.8 1.8 0 1 0 3.5 0zm-7.1-9.4a.9.9 0 0 0-1.8 0 .9.9 0 1 0 1.8 0zm18.1 8.4a.9.9 0 0 0-1.8 0 .9.9 0 0 0 1.8 0z" style="fill:#bae5f7"/><path d="M127.8 88.7c0-5.1.4-10.2-.3-15.2-.2-1.2-1.9-.7-1.7.5.7 4.9.2 9.8.2 14.7a.9.9 0 1 0 1.8 0z" style="fill:#231f20"/><path d="M138.5 59.2a58 58 0 0 1-9.3-.5c-2.4-.5-5.3-1.5-5.2-4.7s3.7-3.2 5.4-3.6a43.9 43.9 0 0 1 8.9-.5c1.1 0 1.1-1.9 0-1.9a42.2 42.2 0 0 0-10.6.9c-2.6.6-5.1 2.1-5.5 5.2-1 8.1 12.1 7.2 16.3 7.2 1.1-.2 1.1-2.1 0-2.1z" style="fill:#5cbd7e"/><path d="M128.4 37.4c2.1-4.7 6-8 9-12 .7-1-.5-2.3-1.2-1.4-3.1 4.1-7.1 7.5-9.3 12.4-.5 1.2 1 2.1 1.5 1z" style="fill:#f7a388"/><path d="M243 83.5a51.3 51.3 0 0 1-5.3-5.1c-.8-.9-2 .5-1.2 1.4a51.3 51.3 0 0 0 5.3 5.1c.8.7 2.1-.7 1.2-1.4z" style="fill:#5cbd7e"/><path d="M231.7 73.2a18.8 18.8 0 0 1-2.4-2.5c-.8-.9-2 .4-1.2 1.4l2.4 2.5c.4.3.9.4 1.2 0a1.1 1.1 0 0 0 0-1.4z" style="fill:#ffd880"/><path d="M111.7 142.8c-.2-4.2-7-4.7-9.7-5s-10.2-1.1-12.4 3.1 1.5 5.3 3.7 5.9a19.5 19.5 0 0 0 3.4.3l4 .3c3.4.2 10.8.8 11-4.6a.9.9 0 1 0-1.8 0c-.1 3.6-7.1 2.8-9.2 2.6l-5.2-.4a6.8 6.8 0 0 1-3.4-.8 2.1 2.1 0 0 1 0-3.7 9 9 0 0 1 4-.9 28.1 28.1 0 0 1 5.8.1 22.9 22.9 0 0 1 5.2 1.1c.8.3 2.7.9 2.8 2s1.9 1.3 1.8 0z" style="fill:#bae5f7"/></g><g style="clip-path:url(#b)"><path d="m281.3 190.2-16.6-18" style="fill:#f7a388"/><path d="m281.9 189.5-16.6-18c-.8-.9-2.1.5-1.2 1.4l16.6 18c.7.8 2-.5 1.2-1.4zm52.6 49.4c-6.7.6-14.7-5.2-16.3-12.3a.9.9 0 1 0-1.7.5c1.8 7.9 10.6 14.4 18 13.7 1.1-.1 1.1-2 0-1.9zm-18-4.1c-3.3-3.4-5.5-9.1-4.5-14.1.2-1.2-1.5-1.7-1.7-.5a18.1 18.1 0 0 0 4.9 15.9c.9.9 2.1-.4 1.3-1.3zm24.6 5.6a4.5 4.5 0 0 0 3.5-1.1c.8-.8-.4-2.2-1.2-1.4a3.1 3.1 0 0 1-2.3.5c-1.1.1-1.1 2 0 2zm-7-60.4c-2.6-.1-5.6-.4-7.5-2.5s-2-4.4-2.4-6.7-1-5.2-3.1-7-4.8-2.5-7.3-2.9l-3.5-.4c-1.5-.3-2.6-1.8-3.4-3.2s-1.4-6-1.9-9.3c-.9-5.9-6.3-7.5-11.1-7.6-1.1 0-1.1 1.9 0 1.9s5.6.4 7.6 2.4 1.7 5.3 2.2 8.1a14.5 14.5 0 0 0 3.2 7.5c1.9 2.3 4.5 2.1 7 2.5a12.1 12.1 0 0 1 7.3 3.4c1.8 2.1 1.6 5.9 2.3 8.6 1.6 5.4 6 7 10.8 7.1.9.1.9-1.9-.2-1.9z" style="fill:#5cbd7e"/><path d="m292.1 230.1-1.5 1.6-27-29.6 1.5-1.6z" style="fill:#f7a388"/><path d="m304.2 107-2 2.2-16.9-18.5 2-2.2z" style="fill:#ffd880"/><path d="m307 91.1-2.6 2.7-2.2-2.4 2.6-2.8z" style="fill:#231f20"/><path d="m305.7 89.7-2.5 2.7h2.5l-2.2-2.4v2.7L306 90h-2.5l2.2 2.4c1.6 1.8 4.1-1 2.5-2.7l-2.2-2.4a1.7 1.7 0 0 0-2.5 0L301 90a2 2 0 0 0 0 2.7l2.2 2.4a1.7 1.7 0 0 0 2.5 0l2.5-2.7c1.6-1.7-.9-4.4-2.5-2.7z" style="fill:#231f20"/><path d="M325.2 156.2c-.1 3.6 3 3.9 5.7 4.1s3 .5 3.5 1.8a6.7 6.7 0 0 1-.3 3.7c-.6 2.5-1.3 5.1-.2 7.6s4.2 3.5 6.8 3.8 5.8.1 6.5-2.6a4.4 4.4 0 0 0-.7-3.7c-1-1.1-2.3-1.1-3.7-1.1a5 5 0 0 1-2.6-.6c-.7-.4-.3-1.4-.2-2.1a15.2 15.2 0 0 0 .8-5.6c-.3-3.4-2.7-5.7-5.5-7s-9.6-3-10.1 1.7c-.1 1.2 1.6 1.2 1.8 0s5.6-.7 6.6-.4c3.5 1.2 6.1 4.2 5.3 8.4-.5 2.7-2 5.6 1.1 7.1 1.3.6 2.8.4 4.1.5a1.7 1.7 0 0 1 1.4 2c-.1.8-1 1.1-1.6 1.3-2.6.8-6.3.1-8.1-2s-.3-5.4.2-7.7.4-4.4-1.4-5.8a7.1 7.1 0 0 0-3.7-1.2c-1.5-.2-3.9.1-3.8-2.2a1 1 0 0 0-1.9 0z" style="fill:#ffd880"/><path d="M349.3 137.1c.5-4.4-4.5-3.5-7.3-4.4-10-3.1 4-13.4-5.1-19.3-2.9-1.9-12-3-11.5 2s5 1.8 8.1 4.2-2.2 6.3-.3 12.4 15.6 9.7 16.1 5.1z" style="fill:#f7a388"/><path d="M306.7 266.2c4-5.5 7.5-11.6 11-17.5l-1.4.2c4.7 5.1 9.7 10.2 13.7 15.9l.8-1.5-24.7 1.2c-1.1.1-1.1 2 0 1.9l24.7-1.2a1 1 0 0 0 .8-1.5c-4.1-5.9-9.2-11.1-14-16.3a.9.9 0 0 0-1.4.2 196.9 196.9 0 0 1-10.7 17.1c-.8 1.1.4 2.5 1.2 1.5z" style="fill:#231f20"/><path d="M265.1 154c5.5 0 10.9.8 16.4-.5a.8.8 0 0 0 .6-.9c-.2-5.8-.5-11.7-.7-17.5a1.1 1.1 0 0 0-.9-1c-5.5-.3-11-.7-16.5.1a1 1 0 0 0-.6 1.2c.9 5.9-.2 11.9.8 17.8.2 1.2 1.9.7 1.7-.5-1-5.9.1-11.9-.8-17.8l-.6 1.2c5.3-.8 10.7-.3 16-.1l-.9-1c.2 5.8.4 11.7.7 17.5l.6-.9c-5.3 1.3-10.6.5-15.9.4-1 .1-1 2 .1 2z" style="fill:#ffd880"/><path d="M283.9 264c4.3-4.7 9.2-8.4 12.5-14.2l-13.5-13.4s-9.8 9.7-12.8 14c3.4 2.6 8.9 10 13.8 13.6z" style="fill:#bae5f7"/><path d="M321.1 129.5c2.4-2.6 5.2-4.9 7.1-8a1.3 1.3 0 0 0-.1-1.2c-2.5-2.4-5-4.9-7.4-7.4a.7.7 0 0 0-1.2 0 59.7 59.7 0 0 0-7.2 7.9c-.3.4 0 1 .3 1.3 2.7 2.2 4.8 5.3 7.6 7.5.9.7 1.8-1 .9-1.7-2.8-2.1-4.9-5.3-7.6-7.5l.3 1.3a55.5 55.5 0 0 1 7-7.5h-1.2c2.4 2.5 5 4.9 7.4 7.4 0-.4-.1-.8-.1-1.2-1.8 3-4.5 5.2-6.8 7.7-1.2.9.2 2.3 1 1.4z" style="fill:#5cbd7e"/><path d="M252.7 188.9c2.7-2 4.8-5.3 3.4-8.9s-5.2-4-8.4-4.6a5.4 5.4 0 0 1-4.5-5.6c0-2.2.4-4-.4-6.1s-4.8-3.4-7.3-2.9c-7.4 1.4-6.4 10-3.8 15.6s4.9 6.9 8.3 9.4 7.4 4.8 11.4 3.7a2.2 2.2 0 0 0 1.3-.6c1-.6.1-2.3-.9-1.7-3.2 1.9-7.2-.6-10-2.4s-6.1-4.5-8-8a18.5 18.5 0 0 1-2.4-8.9c.1-3 1.9-4.6 4.5-5.2s5.8.8 5.7 4.4a23.5 23.5 0 0 0 .1 5.3 7 7 0 0 0 2.7 3.8c2.4 1.9 5.9.8 8.4 2.4s1.6 6.7-1 8.6c-.9.8 0 2.4.9 1.7zm95.8-78.6c-4.3.2-8.7-.7-12.9-1.4a7.8 7.8 0 0 1 .5 1.4c1.9-3.6 2.6-7.8 3.7-11.8a1 1 0 0 0-.6-1.2c-5.5-.9-10.9-1.5-16.4-2.1l.9 1.2c1.3-3.5 2.7-7.1 4.2-10.5.2-.5.1-1.3-.5-1.4-4.9-1.2-9.7-1.7-14.6-2.5-1.1-.2-1.6 1.7-.5 1.9 4.9.8 9.7 1.3 14.6 2.5a7.8 7.8 0 0 1-.5-1.4c-1.5 3.6-3 7.3-4.3 11a.9.9 0 0 0 .9 1.2c5.3.6 10.6 1.2 15.9 2l-.6-1.2c-1 3.8-1.6 7.8-3.5 11.3a1 1 0 0 0 .5 1.4c4.5.7 8.9 1.7 13.5 1.5.8 0 .8-1.9-.3-1.9zM317 192.5c-2.5 2.1-5.1 4.5-8.2 5.6-1.3.4-2.9 0-2.9-1.8s1.5-2.6 2.3-3.5 3.9-3.6 2.7-5.9-3.7-2.3-5.9-1.6-5.3 3.1-7.9 2.5c-1-.2-2.4-1.3-1.8-2.5a13.4 13.4 0 0 1 2.7-3.1c1.4-1.4 3.7-3.7 2.6-6s-3.9-2.2-6.1-1.2a37.4 37.4 0 0 1-4.5 2.2c-1.4.5-3.9.4-4.6-1.5s2.3-3 3-3.5l3.6-2.2c1-.6.1-2.3-.9-1.7s-5.2 2.7-6.9 5.1.1 5 2.5 5.8 5.8-1.2 8.1-2.4 2.5-1.3 3.6-.2-.3 2.5-1 3.2-4.2 3.3-4.5 5.8 2.7 4.1 4.8 4.1 5.3-1.9 7.8-2.8 2.3-.6 3.2.3-.5 2.4-1.2 3.1-2.9 2.8-3.6 4.7a4 4 0 0 0 1.9 4.7c1.9 1 4.1-.2 5.9-1.2a48.5 48.5 0 0 0 5.9-4.5c1.2-.6.3-2.3-.6-1.5z" style="fill:#231f20"/><path d="M294 119.4c-3 0-6.4-.5-7.9-3.7s-.7-5.6-1.5-8.3-3.5-4.9-5.9-6.3a15.6 15.6 0 0 0-8.8-2.6c-1.1.1-1.1 2 0 1.9 3.1-.2 6.4 1.3 9.1 3.1a11 11 0 0 1 3.5 3.6c.8 1.3.7 3.1.9 4.7s.7 4.8 2.2 6.7 5.5 2.8 8.3 2.9 1.3-2 .1-2z" style="fill:#bae5f7"/><path d="M292.8 123.6c-5.7 1.2-11.2-3.7-12.4-9.6-.2-1.2-1.9-.7-1.7.5 1.4 7 8 12.3 14.7 10.9 1.1-.2.7-2.1-.6-1.8z" style="fill:#bae5f7"/><path d="M266.3 217.8c-4.5.6-8.9-.7-11.5-4.9s-2.3-8.6-.9-12.7a.9.9 0 1 0-1.7-.5 16.8 16.8 0 0 0 1.3 14.5c2.8 4.6 8 6.2 12.8 5.5 1.2-.1 1.2-2.1 0-1.9zm-14.9-1.3c-4-3.5-4.6-9.2-4-14.5.1-1.2-1.7-1.2-1.8 0-.5 5.7.2 12 4.6 15.9.9.7 2.1-.7 1.2-1.4zm12.9 8.5c2.4 0 5.2.5 7.5-.3s.6-2.2-.5-1.9-4.8.2-7.1.2-1 2 .1 2z" style="fill:#ffd880"/><path d="M333.9 209.3c-.8-2-2.4-3.5-4.5-2.1a3.9 3.9 0 0 0-1.2 5c1.4 2.2 5.1 2 6.9.7a5.2 5.2 0 0 0 1.6-6.5c-1.3-3.2-5.5-3.8-8.2-3a6.9 6.9 0 0 0-5 7.3 8.5 8.5 0 0 0 7.2 6.9c3.2.5 6.5-1.6 8.3-4.3s1.9-9.7-1.6-12.4-8-1.9-11.4-.1a11 11 0 0 0-5.6 11.7c1.1 7.3 9.1 9.7 14.9 8 1.1-.3.6-2.2-.5-1.9a10.4 10.4 0 0 1-11-2.9c-2.2-2.6-2.2-6.8-.6-9.8s8.6-6 12.6-3.8a6.3 6.3 0 0 1 2.9 6 7.7 7.7 0 0 1-7.3 7.6c-4.2.2-8.5-5.4-4.9-9.1s8.9-2.2 8.7 2.4c-.1 2.6-4.5 4.2-5.9 2s1.4-3.7 2.4-1.2 2.6.6 2.2-.5zm-2.2-64.5a2.7 2.7 0 1 0-5.4 0 2.7 2.7 0 1 0 5.4 0zm-12.6-3.6a1.8 1.8 0 1 0-3.5 0 1.8 1.8 0 1 0 3.5 0z" style="fill:#f7a388"/><path d="M292.9 209.9a2.7 2.7 0 1 0-5.4 0 2.7 2.7 0 1 0 5.4 0zm-1.9-12.3a1.8 1.8 0 1 0-3.5 0 1.8 1.8 0 1 0 3.5 0zm7.9 9.1a.9.9 0 1 0-1.8 0 .9.9 0 1 0 1.8 0zm-19-5.9a.9.9 0 1 0-1.8 0 .9.9 0 1 0 1.8 0z" style="fill:#231f20"/><path d="M348.8 187.8a2.7 2.7 0 1 0-5.4 0 2.7 2.7 0 1 0 5.4 0zm-6.8 10.4a1.8 1.8 0 1 0-3.5 0 1.8 1.8 0 1 0 3.5 0zm-7.2-9.4a.9.9 0 1 0-1.8 0 .9.9 0 1 0 1.8 0zm10 34.7a.9.9 0 1 0-1.8 0 .9.9 0 1 0 1.8 0z" style="fill:#bae5f7"/><path d="M254.2 147.1c0-5.1.4-10.2-.3-15.2-.2-1.2-1.9-.7-1.7.5.7 4.9.2 9.8.2 14.7a.9.9 0 1 0 1.8 0z" style="fill:#231f20"/><path d="M265 117.6a59.3 59.3 0 0 1-9.4-.5c-2.4-.5-5.4-1.5-5.3-4.7s3.7-3.2 5.5-3.6a44.9 44.9 0 0 1 9-.5c1.1 0 1.1-1.9 0-1.9a43 43 0 0 0-10.7.9c-2.6.6-5.2 2.1-5.6 5.2-1 8.1 12.2 7.2 16.5 7.2 1.2-.2 1.2-2.1 0-2.1z" style="fill:#5cbd7e"/><path d="M254.8 95.8c2.1-4.7 6.1-8 9.1-12 .7-1-.5-2.3-1.2-1.4-3.1 4.1-7.2 7.5-9.4 12.4-.5 1.2 1 2.1 1.5 1z" style="fill:#f7a388"/><path d="M237.9 201.2c-.2-4.2-7.1-4.7-9.8-5s-10.3-1.1-12.5 3.1 1.5 5.3 3.7 5.9a19.5 19.5 0 0 0 3.4.3l4 .3c3.5.2 11 .8 11.2-4.6a.9.9 0 1 0-1.8 0c-.1 3.6-7.2 2.8-9.3 2.6l-5.3-.4a6.8 6.8 0 0 1-3.4-.8 2.1 2.1 0 0 1 0-3.7 9 9 0 0 1 4-.9 29.2 29.2 0 0 1 5.9.1 25 25 0 0 1 5.3 1.1c.8.3 2.7.9 2.8 2s1.9 1.3 1.8 0z" style="fill:#bae5f7"/></g><g style="clip-path:url(#a)"><path d="m247 2.4-16.4-18" style="fill:#f7a388"/><path d="m247.6 1.7-16.4-18c-.8-.9-2.1.5-1.2 1.4l16.4 18c.8.8 2-.5 1.2-1.4zm52 49.4c-6.6.6-14.5-5.2-16.1-12.3a.9.9 0 1 0-1.7.5c1.8 7.9 10.5 14.4 17.8 13.7 1.2-.1 1.2-2 0-1.9zM281.8 47c-3.3-3.4-5.4-9.1-4.4-14.1.2-1.2-1.5-1.7-1.7-.5a18.3 18.3 0 0 0 4.8 15.9.9.9 0 1 0 1.3-1.3zm24.3 5.6a4.5 4.5 0 0 0 3.5-1.1c.8-.8-.4-2.2-1.2-1.4a3.1 3.1 0 0 1-2.3.5c-1.1.1-1.1 2 0 2zm-6.9-60.4c-2.6-.1-5.5-.4-7.4-2.5s-2-4.4-2.4-6.7-1-5.2-3.1-7-4.7-2.5-7.2-2.9l-3.5-.4c-1.5-.3-2.6-1.8-3.4-3.2-1.7-2.9-1.4-6-1.9-9.3-.9-5.9-6.2-7.5-11-7.6-1.1 0-1.1 1.9 0 1.9 2.6.1 5.5.4 7.5 2.4s1.7 5.3 2.2 8.1a14.5 14.5 0 0 0 3.2 7.5c1.9 2.3 4.4 2.1 6.9 2.5a11.9 11.9 0 0 1 7.2 3.4c1.8 2.1 1.6 5.9 2.3 8.6 1.6 5.4 5.9 7 10.7 7.1 1.1 0 1.1-1.9-.1-1.9z" style="fill:#5cbd7e"/><path d="m257.7 42.3-1.5 1.6-26.6-29.6 1.4-1.6z" style="fill:#f7a388"/><path d="M272.1 78.4c4-5.5 7.4-11.6 10.9-17.5l-1.4.2c4.6 5.1 9.6 10.2 13.5 15.9l.8-1.5-24.4 1.2c-1.1.1-1.1 2 0 1.9l24.4-1.2a1 1 0 0 0 .8-1.5c-4.1-5.9-9.1-11.1-13.8-16.3a.9.9 0 0 0-1.4.2c-3.4 5.8-6.7 11.8-10.6 17.1-.8 1.1.5 2.4 1.2 1.5z" style="fill:#231f20"/><path d="M249.6 76.2c4.3-4.7 9.1-8.4 12.4-14.2l-13.3-13.4s-9.7 9.7-12.7 14c3.3 2.6 8.7 10 13.6 13.6z" style="fill:#bae5f7"/><path d="M218.8 1.1c2.7-2 4.7-5.3 3.4-8.9s-5.1-4-8.3-4.6a5.3 5.3 0 0 1-4.4-5.6c0-2.2.4-4-.4-6.1s-4.7-3.4-7.2-2.9c-7.3 1.4-6.3 10-3.8 15.6 1.8 4.1 4.8 6.9 8.2 9.4s7.3 4.8 11.3 3.7a4.5 4.5 0 0 0 1.2-.6c1-.6.1-2.3-.9-1.7-3.2 1.9-7.1-.6-9.9-2.4a22.4 22.4 0 0 1-7.9-8 18.5 18.5 0 0 1-2.4-8.9 5.2 5.2 0 0 1 4.4-5.2c3-.7 5.7.8 5.6 4.4a23.5 23.5 0 0 0 .1 5.3 7 7 0 0 0 2.7 3.8c2.4 1.9 5.8.8 8.3 2.4s1.6 6.7-1 8.6c-.8.7 0 2.4 1 1.7zm94.6-78.6c-4.3.2-8.6-.7-12.8-1.4a7.8 7.8 0 0 1 .5 1.4c1.9-3.6 2.6-7.8 3.7-11.8a1 1 0 0 0-.6-1.2c-5.4-.9-10.8-1.5-16.2-2.1l.9 1.2c1.3-3.5 2.7-7.1 4.2-10.5.2-.5.1-1.3-.5-1.4-4.8-1.2-9.6-1.7-14.4-2.5-1.1-.2-1.6 1.7-.5 1.9 4.8.8 9.6 1.3 14.4 2.5a7.8 7.8 0 0 1-.5-1.4c-1.5 3.6-3 7.3-4.3 11a.9.9 0 0 0 .9 1.2c5.2.6 10.5 1.2 15.7 2l-.6-1.2c-1 3.8-1.6 7.8-3.5 11.3a1 1 0 0 0 .5 1.4c4.4.7 8.8 1.7 13.3 1.5 1 0 1-1.9-.2-1.9zM282.3 4.7c-2.5 2.1-5 4.5-8.1 5.6-1.3.4-2.9 0-2.9-1.8s1.5-2.6 2.3-3.5 3.9-3.6 2.7-5.9-3.7-2.3-5.8-1.6-5.2 3.1-7.8 2.5c-1-.2-2.4-1.3-1.8-2.5a13.4 13.4 0 0 1 2.7-3.1c1.4-1.4 3.7-3.7 2.6-6s-3.9-2.2-6-1.2a45.1 45.1 0 0 1-4.4 2.2c-1.4.5-3.9.4-4.5-1.5s2.3-3 3-3.5l3.6-2.2c1-.6.1-2.3-.9-1.7s-5.1 2.7-6.8 5.1.1 5 2.5 5.8 5.7-1.2 8-2.4 2.5-1.3 3.6-.2-.3 2.5-1 3.2-4.1 3.5-4.3 6 2.7 4.1 4.7 4.1 5.2-1.9 7.7-2.8 2.3-.6 3.2.3-.5 2.4-1.2 3.1-2.9 2.8-3.6 4.7a4 4 0 0 0 1.9 4.7c1.9 1 4.1-.2 5.8-1.2a41 41 0 0 0 5.8-4.5c.8-.8-.1-2.5-1-1.7z" style="fill:#231f20"/><path d="M232.2 30c-4.4.6-8.8-.7-11.4-4.9s-2.3-8.6-.9-12.7a.9.9 0 1 0-1.7-.5 16.8 16.8 0 0 0 1.3 14.5c2.8 4.6 7.9 6.2 12.7 5.5 1.1-.1 1.1-2.1 0-1.9zm-14.7-1.3c-4-3.5-4.5-9.2-4-14.5.1-1.2-1.7-1.2-1.8 0-.5 5.7.2 12 4.5 15.9.9.7 2.2-.7 1.3-1.4zm12.8 8.5c2.4 0 5.1.5 7.4-.3s.6-2.2-.5-1.9-4.7.2-7 .2-1.1 2 .1 2z" style="fill:#ffd880"/><path d="M301.6 25.6c-.8-2-2.4-3.5-4.4-2.1a3.9 3.9 0 0 0-1.2 5c1.4 2.2 5 2 6.8.7a5.2 5.2 0 0 0 1.6-6.5c-1.3-3.2-5.4-3.8-8.1-3a6.8 6.8 0 0 0-4.9 7.3 8.5 8.5 0 0 0 7.1 6.9c3.2.5 6.4-1.6 8.2-4.3s1.9-9.7-1.6-12.4-7.9-1.9-11.3-.1a11 11 0 0 0-5.5 11.7c1.1 7.3 9 9.7 14.7 8 1.1-.3.6-2.2-.5-1.9a10.2 10.2 0 0 1-10.9-2.9c-2.2-2.6-2.2-6.8-.6-9.8s8.5-6 12.5-3.8a6.3 6.3 0 0 1 2.9 6 7.7 7.7 0 0 1-7.2 7.6c-4.2.2-8.4-5.4-4.8-9.1s8.8-2.2 8.6 2.4c-.1 2.6-4.4 4.2-5.8 2s1.4-3.7 2.4-1.2 2.5.6 2-.5zm-4.7-68.7a2.7 2.7 0 1 0-5.3 0 2.7 2.7 0 1 0 5.3 0zm-12.5-3.5a1.8 1.8 0 1 0-3.5 0 1.8 1.8 0 1 0 3.5 0z" style="fill:#f7a388"/><path d="M258.6 22.1a2.7 2.7 0 1 0-5.3 0 2.7 2.7 0 1 0 5.3 0zm-2-12.3a1.8 1.8 0 1 0-3.5 0 1.8 1.8 0 1 0 3.5 0zm7.8 9.1a.9.9 0 1 0-1.8 0 .9.9 0 1 0 1.8 0zM245.6 13a.9.9 0 0 0-1.8 0 .9.9 0 1 0 1.8 0z" style="fill:#231f20"/><path d="M323.7 3.9a2.7 2.7 0 1 0-5.3 0 2.7 2.7 0 1 0 5.3 0zM317 14.4a1.8 1.8 0 1 0-3.5 0 1.8 1.8 0 1 0 3.5 0zM309.8 5a.9.9 0 1 0-1.8 0 .9.9 0 1 0 1.8 0zm18.2 8.4a.9.9 0 1 0-1.8 0 .9.9 0 1 0 1.8 0zm-123.8 0c-.2-4.2-7-4.7-9.7-5s-10.2-1.1-12.4 3.1 1.5 5.3 3.7 5.9a19.5 19.5 0 0 0 3.4.3l4 .3c3.3.2 10.7.8 11-4.6a.9.9 0 1 0-1.8 0c-.1 3.6-7.1 2.8-9.2 2.6l-5.2-.4a6.8 6.8 0 0 1-3.4-.8 2.1 2.1 0 0 1 0-3.7 9 9 0 0 1 4-.9 28.1 28.1 0 0 1 5.8.1 22.9 22.9 0 0 1 5.2 1.1c.8.3 2.7.9 2.8 2a.9.9 0 1 0 1.8 0z" style="fill:#bae5f7"/></g><g style="clip-path:url(#a)"><path d="M152.2 20.8c4-5.5 7.4-11.6 10.9-17.5l-1.4.2c4.6 5.1 9.6 10.2 13.5 15.9l.8-1.5-24.4 1.2c-1.1.1-1.1 2 0 1.9l24.4-1.2a1 1 0 0 0 .8-1.5C172.7 12.4 167.7 7.2 163 2a.9.9 0 0 0-1.4.2C158.2 8 154.9 14 151 19.3c-.8 1.1.5 2.4 1.2 1.5z" style="fill:#231f20"/><path d="M129.7 18.6c4.3-4.7 9.1-8.4 12.4-14.2C137.5-.1 128.8-9 128.8-9S119 .7 116.1 5c3.3 2.5 8.7 10 13.6 13.6z" style="fill:#bae5f7"/></g><g style="clip-path:url(#a)"><path d="m-19.6 397.8-16.4-18c-.8-.9-2.1.5-1.2 1.4l16.4 18c.7.9 2-.5 1.2-1.4zm52 49.4c-6.6.6-14.5-5.2-16.1-12.3a.9.9 0 1 0-1.7.5c1.8 7.9 10.5 14.4 17.8 13.7 1.1-.1 1.1-2 0-1.9zm-17.8-4c-3.3-3.4-5.4-9.1-4.4-14.1.2-1.2-1.5-1.7-1.7-.5a18.3 18.3 0 0 0 4.8 15.9c.9.9 2.1-.5 1.3-1.3zm24.3 5.5a4.5 4.5 0 0 0 3.5-1.1c.8-.8-.4-2.2-1.2-1.4a3.1 3.1 0 0 1-2.3.5c-1.2.1-1.2 2 0 2zM32 388.3c-2.6-.1-5.5-.4-7.4-2.5s-2-4.4-2.4-6.7-1-5.2-3.1-7-4.7-2.5-7.2-2.9l-3.5-.4c-1.5-.3-2.6-1.8-3.4-3.2s-1.4-6-1.9-9.3c-.9-5.9-6.2-7.5-11-7.6-1.1 0-1.1 1.9 0 1.9s5.5.4 7.5 2.4 1.7 5.3 2.2 8.1a14.5 14.5 0 0 0 3.2 7.5c1.9 2.3 4.4 2.1 6.9 2.5a11.9 11.9 0 0 1 7.2 3.4c1.8 2.1 1.6 5.9 2.3 8.6 1.6 5.4 5.9 7 10.7 7.1 1 .1 1-1.8-.1-1.9z" style="fill:#5cbd7e"/><path d="m2.4 315.3-2 2.2-16.7-18.5 2-2.2z" style="fill:#ffd880"/><path d="m5.1 299.4-2.5 2.7-2.2-2.4L3 297z" style="fill:#231f20"/><path d="m3.9 298-2.5 2.7h2.5l-2.2-2.4v2.7l2.5-2.7H1.7l2.2 2.4c1.6 1.8 4.1-1 2.5-2.7l-2.2-2.4a1.7 1.7 0 0 0-2.5 0l-2.5 2.7a2 2 0 0 0 0 2.7l2.2 2.4a1.7 1.7 0 0 0 2.5 0l2.5-2.7c1.6-1.7-.9-4.4-2.5-2.7z" style="fill:#231f20"/><path d="M33.1 369.2c-.1 3.6 3 3.9 5.6 4.1s3 .5 3.5 1.8a6.7 6.7 0 0 1-.3 3.7c-.6 2.5-1.3 5.1-.2 7.6s4.2 3.5 6.7 3.8 5.7.1 6.4-2.6a4.4 4.4 0 0 0-.7-3.7c-1-1.1-2.3-1.1-3.7-1.1a5 5 0 0 1-2.6-.6c-.7-.4-.3-1.4-.2-2.1a15.2 15.2 0 0 0 .8-5.6c-.3-3.4-2.7-5.7-5.4-7s-9.3-2.9-9.9 1.7c-.1 1.2 1.6 1.2 1.8 0s5.5-.7 6.5-.4c3.5 1.2 6 4.2 5.2 8.4s-2 5.6 1.1 7.1c1.3.6 2.8.4 4.1.5a1.7 1.7 0 0 1 1.4 2c-.1.8-1 1.1-1.6 1.3-2.6.8-6.2.1-8-2s-.3-5.4.2-7.7.4-4.4-1.4-5.8a7.1 7.1 0 0 0-3.7-1.2c-1.5-.2-3.9.1-3.8-2.2a.9.9 0 1 0-1.8 0z" style="fill:#ffd880"/><path d="M56.6 360.9c.5-4.4-4.4-3.5-7.2-4.4-9.9-3.1 4-13.4-5-19.3-2.9-1.9-11.9-3-11.4 2s4.9 1.8 8 4.2-2.2 6.3-.3 12.4 15.5 9.6 15.9 5.1z" style="fill:#f7a388"/><path d="M4.8 474.5c4-5.5 7.4-11.6 10.9-17.5l-1.4.2c4.6 5.1 9.6 10.2 13.5 15.9l.8-1.5-24.4 1.2c-1.1.1-1.1 2 0 1.9l24.4-1.2a1 1 0 0 0 .8-1.5c-4.1-5.9-9.1-11.1-13.8-16.3a.9.9 0 0 0-1.4.2c-3.4 5.8-6.7 11.8-10.6 17.1-.7 1.1.5 2.5 1.2 1.5z" style="fill:#231f20"/><path d="M19.1 337.8c2.4-2.6 5.1-4.9 7-8a1.3 1.3 0 0 0-.1-1.2c-2.5-2.4-4.9-4.9-7.3-7.4a.7.7 0 0 0-1.2 0 58.9 58.9 0 0 0-7.1 7.9c-.3.4 0 1 .3 1.3 2.7 2.2 4.7 5.3 7.5 7.5.9.7 1.8-1 .9-1.7-2.8-2.1-4.8-5.3-7.5-7.5l.3 1.3a54.8 54.8 0 0 1 6.9-7.5h-1.2l7.3 7.4c0-.4-.1-.8-.1-1.2-1.8 3-4.4 5.2-6.7 7.7-1.1.9.2 2.3 1 1.4z" style="fill:#5cbd7e"/><path d="M-48.5 397.3c2.7-2 4.7-5.3 3.4-8.9s-5.1-4-8.3-4.6a5.3 5.3 0 0 1-4.4-5.6c0-2.2.4-4-.4-6.1s-4.7-3.4-7.2-2.9c-7.3 1.4-6.3 10-3.8 15.6s4.8 6.9 8.2 9.4 7.3 4.8 11.3 3.7l1.2-.6c1-.6.1-2.3-.9-1.7-3.2 1.9-7.1-.6-9.9-2.4a22.4 22.4 0 0 1-7.9-8 18.5 18.5 0 0 1-2.4-8.9 5.2 5.2 0 0 1 4.4-5.2c3-.7 5.7.8 5.6 4.4a23.5 23.5 0 0 0 .1 5.3 7 7 0 0 0 2.7 3.8c2.4 1.9 5.8.8 8.3 2.4s1.6 6.7-1 8.6c-.8.7.1 2.4 1 1.7zm94.7-78.6c-4.3.2-8.6-.7-12.8-1.4a7.8 7.8 0 0 1 .5 1.4c1.9-3.6 2.6-7.8 3.7-11.8a1 1 0 0 0-.6-1.2c-5.4-.9-10.8-1.5-16.2-2.1l.9 1.2c1.3-3.5 2.7-7.1 4.2-10.5.2-.5.1-1.3-.5-1.4-4.8-1.2-9.6-1.7-14.4-2.5-1.1-.2-1.6 1.7-.5 1.9 4.8.8 9.6 1.3 14.4 2.5a7.8 7.8 0 0 1-.5-1.4c-1.5 3.6-3 7.3-4.3 11a.9.9 0 0 0 .9 1.2c5.2.6 10.5 1.2 15.7 2l-.6-1.2c-1 3.8-1.6 7.8-3.5 11.3a1 1 0 0 0 .5 1.4c4.4.7 8.8 1.7 13.3 1.5.9-.1.9-2-.2-1.9zm-31.1 82.1c-2.5 2.1-5 4.5-8.1 5.6-1.3.4-2.9 0-2.9-1.8s1.5-2.6 2.3-3.5 3.9-3.6 2.7-5.9-3.7-2.3-5.8-1.6-5.2 3.1-7.8 2.5c-1-.2-2.4-1.3-1.8-2.5a13.4 13.4 0 0 1 2.7-3.1c1.4-1.4 3.7-3.7 2.6-6s-3.9-2.2-6-1.2a45.1 45.1 0 0 1-4.4 2.2c-1.4.5-3.9.4-4.5-1.5s2.3-3 3-3.5l3.6-2.2c1-.6.1-2.3-.9-1.7s-5.1 2.7-6.8 5.1.1 5 2.5 5.8 5.7-1.2 8-2.4 2.5-1.3 3.6-.2-.3 2.5-1 3.2-4.2 3.3-4.4 5.8 2.7 4.1 4.7 4.1 5.2-1.9 7.7-2.8 2.3-.6 3.2.3-.5 2.4-1.2 3.1-2.9 2.8-3.6 4.7a4 4 0 0 0 1.9 4.7c1.9 1 4.1-.2 5.8-1.2a41 41 0 0 0 5.8-4.5c.8-.6 0-2.2-.9-1.5z" style="fill:#231f20"/><path d="M34.4 421.7c-.8-2-2.4-3.5-4.4-2.1a3.9 3.9 0 0 0-1.2 5c1.4 2.2 5 2 6.8.7a5.2 5.2 0 0 0 1.6-6.5c-1.3-3.2-5.4-3.8-8.1-3a6.8 6.8 0 0 0-4.9 7.3 8.5 8.5 0 0 0 7.1 6.9c3.2.5 6.4-1.6 8.2-4.3s1.9-9.7-1.6-12.4-7.9-1.9-11.3-.1a11 11 0 0 0-5.5 11.7c1.1 7.3 9 9.7 14.7 8 1.1-.3.6-2.2-.5-1.9a10.2 10.2 0 0 1-10.9-2.9c-2.2-2.6-2.2-6.8-.6-9.8s8.5-6 12.5-3.8a6.3 6.3 0 0 1 2.9 6 7.7 7.7 0 0 1-7.2 7.6c-4.2.2-8.4-5.4-4.8-9.1s8.8-2.2 8.6 2.4c-.1 2.6-4.4 4.2-5.8 2s1.4-3.7 2.4-1.2 2.4.7 2-.5zm-4.8-68.6a2.7 2.7 0 1 0-5.3 0 2.7 2.7 0 1 0 5.3 0zm-12.4-3.6a1.8 1.8 0 1 0-3.5 0 1.8 1.8 0 1 0 3.5 0z" style="fill:#f7a388"/><path d="M56.5 400.1a2.7 2.7 0 1 0-5.3 0 2.7 2.7 0 1 0 5.3 0zm-6.8 10.5a1.8 1.8 0 1 0-3.5 0 1.8 1.8 0 1 0 3.5 0zm-7.1-9.4a.9.9 0 1 0-1.8 0 .9.9 0 1 0 1.8 0zm18.1 8.3a.9.9 0 1 0-1.8 0 .9.9 0 1 0 1.8 0z" style="fill:#bae5f7"/><path d="M68.2 350.2a51.3 51.3 0 0 1-5.3-5.1c-.8-.9-2 .5-1.2 1.4a51.3 51.3 0 0 0 5.3 5.1c.8.7 2.1-.7 1.2-1.4z" style="fill:#5cbd7e"/><path d="M56.9 340a18.8 18.8 0 0 1-2.4-2.5c-.8-.9-2 .4-1.2 1.4l2.4 2.5c.4.3.9.4 1.2 0s.4-1.1 0-1.4z" style="fill:#ffd880"/></g><g style="clip-path:url(#a)"><path d="m13.6 587.2-16.4-18c-.8-.9-2.1.5-1.2 1.4l16.4 18c.7.8 2-.5 1.2-1.4zm52 49.4c-6.6.6-14.5-5.2-16.1-12.3a.9.9 0 1 0-1.7.5c1.8 7.9 10.5 14.4 17.8 13.7 1.1-.1 1.1-2 0-1.9zm-17.8-4.1c-3.3-3.4-5.4-9.1-4.4-14.1.2-1.2-1.5-1.7-1.7-.5a18.3 18.3 0 0 0 4.8 15.9c.9 1 2.1-.4 1.3-1.3zm24.3 5.6a4.5 4.5 0 0 0 3.5-1.1c.8-.8-.4-2.2-1.2-1.4a3.1 3.1 0 0 1-2.3.5c-1.1.1-1.1 2 0 2zm-6.9-60.4c-2.6-.1-5.5-.4-7.4-2.5s-2-4.4-2.4-6.7-1-5.2-3.1-7-4.7-2.5-7.2-2.9l-3.5-.4c-1.5-.3-2.6-1.8-3.4-3.2s-1.4-6-1.9-9.3c-.9-5.9-6.2-7.5-11-7.6-1.1 0-1.1 1.9 0 1.9 2.6.1 5.5.4 7.5 2.4s1.7 5.3 2.2 8.1a14.5 14.5 0 0 0 3.2 7.5c1.9 2.3 4.4 2.1 6.9 2.5a11.9 11.9 0 0 1 7.2 3.4c1.8 2.1 1.6 5.9 2.3 8.6 1.6 5.4 5.9 7 10.7 7.1 1 .1 1-1.9-.1-1.9z" style="fill:#5cbd7e"/><path d="m35.7 504.7-2.1 2.2-16.7-18.5 2.1-2.2z" style="fill:#ffd880"/><path d="m38.4 488.8-2.6 2.7-2.2-2.4 2.6-2.7z" style="fill:#231f20"/><path d="m37.1 487.4-2.5 2.7h2.5l-2.2-2.4v2.7l2.5-2.7h-2.5l2.2 2.4c1.6 1.8 4.1-1 2.5-2.7l-2.2-2.4a1.7 1.7 0 0 0-2.5 0l-2.5 2.7a2 2 0 0 0 0 2.7l2.2 2.4a1.7 1.7 0 0 0 2.5 0l2.5-2.7c1.6-1.7-.9-4.4-2.5-2.7z" style="fill:#231f20"/><path d="M89.9 550.3c.5-4.4-4.4-3.5-7.2-4.4-9.9-3.1 4-13.4-5-19.3-2.9-1.9-11.9-3-11.4 2s4.9 1.8 8 4.2-2.2 6.3-.3 12.4 15.4 9.6 15.9 5.1z" style="fill:#f7a388"/><path d="M-3 551.8c5.4 0 10.8.8 16.2-.5a.8.8 0 0 0 .6-.9c-.2-5.8-.5-11.7-.7-17.5a1.1 1.1 0 0 0-.9-1c-5.3-.3-10.8-.7-16.2.1a1 1 0 0 0-.6 1.2c.9 5.9-.2 11.9.8 17.8.2 1.2 1.9.7 1.7-.5-1-5.9.1-11.9-.8-17.8l-.6 1.2c5.2-.8 10.6-.3 15.8-.1l-.9-1c.2 5.8.4 11.7.7 17.5l.6-.9c-5.2 1.3-10.5.5-15.7.4-1.1 0-1.1 2 0 2z" style="fill:#ffd880"/><path d="M52.3 527.2c2.4-2.6 5.1-4.9 7-8a1.3 1.3 0 0 0-.1-1.2c-2.5-2.4-4.9-4.9-7.3-7.4a.7.7 0 0 0-1.2 0 58.9 58.9 0 0 0-7.1 7.9c-.3.4 0 1 .3 1.3 2.7 2.2 4.7 5.3 7.5 7.5.9.7 1.8-1 .9-1.7-2.8-2.1-4.8-5.3-7.5-7.5l.3 1.3a54.8 54.8 0 0 1 6.9-7.5h-1.2l7.3 7.4c0-.4-.1-.8-.1-1.2-1.8 3-4.4 5.2-6.7 7.7-1.1.9.2 2.3 1 1.4z" style="fill:#5cbd7e"/><path d="M-15.2 586.7c2.7-2 4.7-5.3 3.4-8.9s-5.1-4-8.3-4.6a5.3 5.3 0 0 1-4.4-5.6c0-2.2.4-4-.4-6.1s-4.7-3.4-7.2-2.9c-7.3 1.4-6.3 10-3.8 15.6s4.8 6.9 8.2 9.4 7.3 4.8 11.3 3.7l1.2-.6c1-.6.1-2.3-.9-1.7-3.2 1.9-7.1-.6-9.9-2.4a22.4 22.4 0 0 1-7.9-8 18.5 18.5 0 0 1-2.4-8.9 5.2 5.2 0 0 1 4.4-5.2c3-.7 5.7.8 5.6 4.4a23.5 23.5 0 0 0 .1 5.3 7 7 0 0 0 2.7 3.8c2.4 1.9 5.8.8 8.3 2.4s1.6 6.7-1 8.6c-.9.7 0 2.4 1 1.7zm94.6-78.6c-4.3.2-8.6-.7-12.8-1.4a7.8 7.8 0 0 1 .5 1.4c1.9-3.6 2.6-7.8 3.7-11.8a1 1 0 0 0-.6-1.2c-5.4-.9-10.8-1.5-16.2-2.1l.9 1.2c1.3-3.5 2.7-7.1 4.2-10.5.2-.5.1-1.3-.5-1.4-4.8-1.2-9.6-1.7-14.4-2.5-1.1-.2-1.6 1.7-.5 1.9 4.8.8 9.6 1.3 14.4 2.5a7.8 7.8 0 0 1-.5-1.4c-1.5 3.6-3 7.3-4.3 11a.9.9 0 0 0 .9 1.2c5.2.6 10.5 1.2 15.7 2l-.6-1.2c-1 3.8-1.6 7.8-3.5 11.3a1 1 0 0 0 .5 1.4c4.4.7 8.8 1.7 13.3 1.5.9-.1.9-2-.2-1.9zm-31.1 82.1c-2.5 2.1-5 4.5-8.1 5.6-1.3.4-2.9 0-2.9-1.8s1.5-2.6 2.3-3.5 3.9-3.6 2.7-5.9-3.7-2.3-5.8-1.6-5.2 3.1-7.8 2.5c-1-.2-2.4-1.3-1.8-2.5a13.4 13.4 0 0 1 2.7-3.1c1.4-1.4 3.7-3.7 2.6-6s-3.9-2.2-6-1.2a45.1 45.1 0 0 1-4.4 2.2c-1.4.5-3.9.4-4.5-1.5s2.3-3 3-3.5l3.6-2.2c1-.6.1-2.3-.9-1.7s-5.1 2.7-6.8 5.1.1 5 2.5 5.8 5.7-1.2 8-2.4 2.5-1.3 3.6-.2-.3 2.5-1 3.2-4.2 3.3-4.4 5.8 2.7 4.1 4.7 4.1 5.2-1.9 7.7-2.8 2.3-.6 3.2.3-.5 2.4-1.2 3.1-2.9 2.8-3.6 4.7a4 4 0 0 0 1.9 4.7c1.9 1 4.1-.2 5.8-1.2a41 41 0 0 0 5.8-4.5c.9-.6 0-2.2-.9-1.5z" style="fill:#231f20"/><path d="M25.5 517.1c-3 0-6.3-.5-7.8-3.7s-.7-5.6-1.5-8.3-3.5-4.9-5.8-6.3a15.3 15.3 0 0 0-8.7-2.6c-1.1.1-1.1 2 0 1.9 3.1-.2 6.3 1.3 9 3.1a11 11 0 0 1 3.5 3.6c.8 1.3.7 3.1.9 4.7s.7 4.8 2.2 6.7 5.4 2.8 8.2 2.9c1.2-.1 1.2-2 0-2z" style="fill:#bae5f7"/><path d="M24.4 521.3c-5.6 1.2-11.1-3.7-12.3-9.6-.2-1.2-1.9-.7-1.7.5 1.4 7 7.9 12.3 14.5 10.9 1.1-.2.7-2.1-.5-1.8z" style="fill:#bae5f7"/><path d="M67.6 611.1c-.8-2-2.4-3.5-4.4-2.1a3.9 3.9 0 0 0-1.2 5c1.4 2.2 5 2 6.8.7a5.2 5.2 0 0 0 1.6-6.5c-1.3-3.2-5.4-3.8-8.1-3a6.8 6.8 0 0 0-4.9 7.3 8.5 8.5 0 0 0 7.1 6.9c3.2.5 6.4-1.6 8.2-4.3s1.9-9.7-1.6-12.4-7.9-1.9-11.3-.1a11 11 0 0 0-5.5 11.7c1.1 7.3 9 9.7 14.7 8 1.1-.3.6-2.2-.5-1.9a10.2 10.2 0 0 1-10.9-2.9c-2.2-2.6-2.2-6.8-.6-9.8s8.5-6 12.5-3.8a6.3 6.3 0 0 1 2.9 6 7.7 7.7 0 0 1-7.2 7.6c-4.2.2-8.4-5.4-4.8-9.1s8.8-2.2 8.6 2.4c-.1 2.6-4.4 4.2-5.8 2s1.4-3.7 2.4-1.2 2.4.6 2-.5zm-4.8-68.6a2.7 2.7 0 1 0-5.3 0 2.7 2.7 0 1 0 5.3 0zm-12.4-3.6a1.8 1.8 0 1 0-3.5 0 1.8 1.8 0 1 0 3.5 0z" style="fill:#f7a388"/><path d="M101.4 539.6a51.3 51.3 0 0 1-5.3-5.1c-.8-.9-2 .5-1.2 1.4a51.3 51.3 0 0 0 5.3 5.1c.8.7 2.1-.7 1.2-1.4z" style="fill:#5cbd7e"/><path d="M90.2 529.4a18.8 18.8 0 0 1-2.4-2.5c-.8-.9-2 .4-1.2 1.4l2.4 2.5c.4.3.9.4 1.2 0a1.2 1.2 0 0 0 0-1.4z" style="fill:#ffd880"/></g><g style="clip-path:url(#a)"><path d="m340.1 567.5-16.4-18c-.8-.9-2.1.5-1.2 1.4l16.4 18c.7.8 2-.5 1.2-1.4zm52 49.4c-6.6.6-14.5-5.2-16.1-12.3a.9.9 0 1 0-1.7.5c1.8 7.9 10.5 14.4 17.8 13.7 1.1-.1 1.1-2 0-1.9zm-17.8-4.1c-3.3-3.4-5.4-9.1-4.4-14.1.2-1.2-1.5-1.7-1.7-.5a18.3 18.3 0 0 0 4.8 15.9c.9.9 2.1-.4 1.3-1.3zm24.3 5.6a4.5 4.5 0 0 0 3.5-1.1c.8-.8-.4-2.2-1.2-1.4a3.1 3.1 0 0 1-2.3.5c-1.1.1-1.1 2 0 2zm-6.9-60.4c-2.6-.1-5.5-.4-7.4-2.5s-2-4.4-2.4-6.7-1-5.2-3.1-7-4.7-2.5-7.2-2.9l-3.5-.4c-1.5-.3-2.6-1.8-3.4-3.2-1.7-2.9-1.4-6-1.9-9.3-.9-5.9-6.2-7.5-11-7.6-1.1 0-1.1 1.9 0 1.9 2.6.1 5.5.4 7.5 2.4s1.7 5.3 2.2 8.1a14.5 14.5 0 0 0 3.2 7.5c1.9 2.3 4.4 2.1 6.9 2.5a11.9 11.9 0 0 1 7.2 3.4c1.8 2.1 1.6 5.9 2.3 8.6 1.6 5.4 5.9 7 10.7 7.1 1 0 1-1.9-.1-1.9z" style="fill:#5cbd7e"/><path d="m342.6 475.4-1.5 1.7-12.6-14 1.5-1.7zM323.5 532c5.4 0 10.8.8 16.2-.5a.8.8 0 0 0 .6-.9c-.2-5.8-.5-11.7-.7-17.5a1.1 1.1 0 0 0-.9-1c-5.4-.3-10.9-.7-16.3.1a1 1 0 0 0-.6 1.2c.9 5.9-.2 11.9.8 17.8.2 1.2 1.9.7 1.7-.5-1-5.9.1-11.9-.8-17.8l-.6 1.2c5.2-.8 10.6-.3 15.8-.1l-.9-1c.2 5.8.4 11.7.7 17.5l.6-.9c-5.2 1.3-10.5.5-15.7.4-1 .1-1 2 .1 2z" style="fill:#ffd880"/><path d="M311.2 566.9c2.7-2 4.7-5.3 3.4-8.9s-5.1-4-8.3-4.6a5.3 5.3 0 0 1-4.4-5.6c0-2.2.4-4-.4-6.1s-4.7-3.4-7.2-2.9c-7.3 1.4-6.3 10-3.8 15.6s4.8 6.9 8.2 9.4 7.3 4.8 11.3 3.7a2.3 2.3 0 0 0 1.2-.6c1-.6.1-2.3-.9-1.7-3.2 1.9-7.1-.6-9.9-2.4a22.4 22.4 0 0 1-7.9-8 18.5 18.5 0 0 1-2.4-8.9 5.2 5.2 0 0 1 4.4-5.2c3-.7 5.7.8 5.6 4.4a23.5 23.5 0 0 0 .1 5.3 7 7 0 0 0 2.7 3.8c2.4 1.9 5.8.8 8.3 2.4s1.6 6.7-1 8.6c-.8.8.1 2.4 1 1.7zm94.7-78.6c-4.3.2-8.6-.7-12.8-1.4a7.8 7.8 0 0 1 .5 1.4c1.9-3.6 2.6-7.8 3.7-11.8a1 1 0 0 0-.6-1.2c-5.4-.9-10.8-1.5-16.2-2.1l.9 1.2c1.3-3.5 2.7-7.1 4.2-10.5.2-.5.1-1.3-.5-1.4-4.8-1.2-9.6-1.7-14.4-2.5-1.1-.2-1.6 1.7-.5 1.9 4.8.8 9.6 1.3 14.4 2.5a7.8 7.8 0 0 1-.5-1.4c-1.5 3.6-3 7.3-4.3 11a.9.9 0 0 0 .9 1.2c5.2.6 10.5 1.2 15.7 2l-.6-1.2c-1 3.8-1.6 7.8-3.5 11.3a1 1 0 0 0 .5 1.4c4.4.7 8.8 1.7 13.3 1.5.9 0 .9-1.9-.2-1.9zm-31.1 82.2c-2.5 2.1-5 4.5-8.1 5.6-1.3.4-2.9 0-2.9-1.8s1.5-2.6 2.3-3.5 3.9-3.6 2.7-5.9-3.7-2.3-5.8-1.6-5.2 3.1-7.8 2.5c-1-.2-2.4-1.3-1.8-2.5a13.4 13.4 0 0 1 2.7-3.1c1.4-1.4 3.7-3.7 2.6-6s-3.9-2.2-6-1.2a45.1 45.1 0 0 1-4.4 2.2c-1.4.5-3.9.4-4.5-1.5s2.3-3 3-3.5l3.6-2.2c1-.6.1-2.3-.9-1.7s-5.1 2.7-6.8 5.1.1 5 2.5 5.8 5.7-1.2 8-2.4 2.5-1.3 3.6-.2-.3 2.5-1 3.2-4.2 3.3-4.4 5.8 2.7 4.1 4.7 4.1 5.2-1.9 7.7-2.8 2.3-.6 3.2.3-.5 2.4-1.2 3.1-2.9 2.8-3.6 4.7a4 4 0 0 0 1.9 4.7c1.9 1 4.1-.2 5.8-1.2a41 41 0 0 0 5.8-4.5c.9-.6 0-2.3-.9-1.5z" style="fill:#231f20"/><path d="M341.8 490.7c-2.4 0-5.1-.4-6.4-3s-.6-4.6-1.2-6.8-2.9-4-4.7-5.1a12.1 12.1 0 0 0-7.1-2.1c-.9.1-.9 1.6 0 1.5 2.5-.2 5.1 1.1 7.3 2.5a10 10 0 0 1 2.9 2.9c.7 1.1.6 2.5.7 3.8a10.6 10.6 0 0 0 1.8 5.5c1.5 2 4.4 2.3 6.7 2.4s.9-1.6 0-1.6zm.2 14.1c-5.6 1.2-11.1-3.7-12.3-9.6-.2-1.2-1.9-.7-1.7.5 1.4 7 7.9 12.3 14.5 10.9 1.1-.1.7-2-.5-1.8z" style="fill:#bae5f7"/><path d="M312.7 525.1c0-5.1.4-10.2-.3-15.2-.2-1.2-1.9-.7-1.7.5.7 4.9.2 9.8.2 14.7a.9.9 0 1 0 1.8 0z" style="fill:#231f20"/><path d="M323.4 495.5a58 58 0 0 1-9.3-.5c-2.4-.5-5.3-1.5-5.2-4.7s3.7-3.2 5.4-3.6a43.9 43.9 0 0 1 8.9-.5c1.1 0 1.1-1.9 0-1.9a42.2 42.2 0 0 0-10.6.9c-2.6.6-5.1 2.1-5.5 5.2-1 8.1 12.1 7.2 16.3 7.2 1.2-.1 1.2-2.1 0-2.1z" style="fill:#5cbd7e"/><path d="M313.3 473.8c2.1-4.7 6-8 9-12 .7-1-.5-2.3-1.2-1.4-3.1 4.1-7.1 7.5-9.3 12.4-.5 1.1 1 2.1 1.5 1z" style="fill:#f7a388"/></g><g style="clip-path:url(#a)"><path d="m67.3 265.5-16.4-17.9" style="fill:#f7a388"/><path d="m67.9 264.8-16.4-18c-.8-.9-2.1.5-1.2 1.4l16.4 18c.8.9 2.1-.5 1.2-1.4zm52.1 49.4c-6.6.6-14.5-5.2-16.1-12.3a.9.9 0 1 0-1.7.5c1.8 7.9 10.5 14.4 17.8 13.7 1.1 0 1.1-2 0-1.9zm-17.8-4c-3.3-3.4-5.4-9.1-4.4-14.1.2-1.2-1.5-1.7-1.7-.5a18.3 18.3 0 0 0 4.8 15.9c.9.9 2.1-.5 1.3-1.3zm24.3 5.6a4.5 4.5 0 0 0 3.5-1.1c.8-.8-.4-2.2-1.2-1.4a3.1 3.1 0 0 1-2.3.5 1 1 0 0 0 0 2zm-6.9-60.5c-2.6-.1-5.5-.4-7.4-2.5s-2-4.4-2.4-6.7-1-5.2-3.1-7-4.7-2.5-7.2-2.9l-3.5-.4c-1.5-.3-2.6-1.8-3.4-3.2s-1.4-6-1.9-9.3c-.9-5.9-6.2-7.5-11-7.6-1.1 0-1.1 1.9 0 1.9s5.5.4 7.5 2.4 1.7 5.3 2.2 8.1a14.5 14.5 0 0 0 3.2 7.5c1.9 2.3 4.4 2.1 6.9 2.5a11.9 11.9 0 0 1 7.2 3.4c1.8 2.1 1.6 5.9 2.3 8.6 1.6 5.4 5.9 7 10.7 7.1 1 .1 1-1.8-.1-1.9z" style="fill:#5cbd7e"/><path d="m78 305.5-1.4 1.5-26.7-29.5 1.5-1.6z" style="fill:#f7a388"/><path d="m90 182.3-2 2.2L71.3 166l2-2.2z" style="fill:#ffd880"/><path d="m92.7 166.4-2.5 2.8-2.2-2.5 2.5-2.7z" style="fill:#231f20"/><path d="m91.5 165.1-2.5 2.7h2.5l-2.2-2.4v2.7l2.5-2.7h-2.5l2.2 2.4c1.6 1.8 4.1-1 2.5-2.7l-2.2-2.4a1.7 1.7 0 0 0-2.5 0l-2.5 2.7a2 2 0 0 0 0 2.7l2.2 2.4a1.7 1.7 0 0 0 2.5 0l2.5-2.7c1.6-1.8-.9-4.5-2.5-2.7z" style="fill:#231f20"/><path d="M120.7 236.3c-.1 3.6 3 3.9 5.6 4.1s3 .5 3.5 1.8a6.7 6.7 0 0 1-.3 3.7c-.6 2.5-1.3 5.1-.2 7.6s4.2 3.5 6.7 3.8 5.7.1 6.4-2.6a4.4 4.4 0 0 0-.7-3.7c-1-1.1-2.3-1.1-3.7-1.1a5 5 0 0 1-2.6-.6c-.7-.4-.3-1.4-.2-2.1a15.2 15.2 0 0 0 .8-5.6c-.3-3.4-2.7-5.7-5.4-7s-9.3-3-9.9 1.7c-.1 1.2 1.6 1.2 1.8 0s5.5-.7 6.5-.4c3.5 1.2 6 4.2 5.2 8.4-.5 2.7-2 5.6 1.1 7.1 1.3.6 2.8.4 4.1.5a1.7 1.7 0 0 1 1.4 2c-.1.8-1 1.1-1.6 1.3-2.6.8-6.2.1-8-2s-.3-5.4.2-7.7.4-4.4-1.4-5.8a7.1 7.1 0 0 0-3.7-1.2c-1.5-.2-3.9.1-3.8-2.2a.9.9 0 1 0-1.8 0z" style="fill:#ffd880"/><path d="M144.2 227.9c.5-4.4-4.4-3.5-7.2-4.4-9.9-3.1 4-13.4-5-19.3-2.9-1.9-11.9-3-11.4 2s4.9 1.8 8 4.2-2.2 6.3-.3 12.4 15.4 9.7 15.9 5.1z" style="fill:#f7a388"/><path d="M92.4 341.5c4-5.5 7.4-11.6 10.9-17.5l-1.4.2c4.6 5.1 9.6 10.2 13.5 15.9l.8-1.5-24.4 1.2c-1.1.1-1.1 2 0 1.9l24.4-1.2a1 1 0 0 0 .8-1.5c-4.1-5.9-9.1-11.1-13.8-16.3a.9.9 0 0 0-1.4.2c-3.4 5.8-6.7 11.8-10.6 17.1-.7 1.1.5 2.5 1.2 1.5z" style="fill:#231f20"/><path d="M51.4 229.4c5.4 0 10.8.8 16.2-.5a.8.8 0 0 0 .6-.9c-.2-5.8-.5-11.7-.7-17.5a1.1 1.1 0 0 0-.9-1c-5.4-.3-10.9-.7-16.3.1a1 1 0 0 0-.6 1.2c.9 5.9-.2 11.9.8 17.8.2 1.2 1.9.7 1.7-.5-1-5.9.1-11.9-.8-17.8l-.6 1.2c5.2-.8 10.6-.3 15.8-.1l-.9-1c.2 5.8.4 11.7.7 17.5l.6-.9c-5.2 1.3-10.5.5-15.7.4-1 .1-1 2 .1 2z" style="fill:#ffd880"/><path d="M69.9 339.4c4.3-4.7 9.1-8.4 12.4-14.2L69 311.8s-9.7 9.7-12.7 14c3.4 2.5 8.7 10 13.6 13.6z" style="fill:#bae5f7"/><path d="M106.7 204.8c2.4-2.6 5.1-4.9 7-8a1.3 1.3 0 0 0-.1-1.2c-2.5-2.4-4.9-4.9-7.3-7.4a.7.7 0 0 0-1.2 0 58.9 58.9 0 0 0-7.1 7.9c-.3.4 0 1 .3 1.3 2.7 2.2 4.7 5.3 7.5 7.5.9.7 1.8-1 .9-1.7-2.8-2.1-4.8-5.3-7.5-7.5l.3 1.3a54.8 54.8 0 0 1 6.9-7.5h-1.2l7.3 7.4c0-.4-.1-.8-.1-1.2-1.8 3-4.4 5.2-6.7 7.7s.2 2.3 1 1.4z" style="fill:#5cbd7e"/><path d="M39.1 264.3c2.7-2 4.7-5.3 3.4-8.9s-5.1-4-8.3-4.6a5.3 5.3 0 0 1-4.4-5.6c0-2.2.4-4-.4-6.1s-4.7-3.4-7.2-2.9c-7.3 1.4-6.3 10-3.8 15.6 1.8 4.1 4.8 6.9 8.2 9.4s7.3 4.8 11.3 3.7l1.2-.6c1-.6.1-2.3-.9-1.7-3.2 1.9-7.1-.6-9.9-2.4a22.4 22.4 0 0 1-7.9-8 18.5 18.5 0 0 1-2.4-8.9 5.2 5.2 0 0 1 4.4-5.2c3-.7 5.7.8 5.6 4.4a23.5 23.5 0 0 0 .1 5.3 7 7 0 0 0 2.7 3.8c2.4 1.9 5.8.8 8.3 2.4s1.6 6.7-1 8.6c-.8.7.1 2.4 1 1.7zm94.7-78.6c-4.3.2-8.6-.7-12.8-1.4a7.8 7.8 0 0 1 .5 1.4c1.9-3.6 2.6-7.8 3.7-11.8a1 1 0 0 0-.6-1.2c-5.4-.9-10.8-1.5-16.2-2.1l.9 1.2c1.3-3.5 2.7-7.1 4.2-10.5.2-.5.1-1.3-.5-1.4-4.8-1.2-9.6-1.7-14.4-2.5-1.1-.2-1.6 1.7-.5 1.9 4.8.8 9.6 1.3 14.4 2.5a7.8 7.8 0 0 1-.5-1.4c-1.5 3.6-3 7.3-4.3 11a.9.9 0 0 0 .9 1.2c5.2.6 10.5 1.2 15.7 2l-.6-1.2c-1 3.8-1.6 7.8-3.5 11.3a1 1 0 0 0 .5 1.4c4.4.7 8.8 1.7 13.3 1.5.9 0 .9-2-.2-1.9zm-31.2 82.1c-2.5 2.1-5 4.5-8.1 5.6-1.3.4-2.9 0-2.9-1.8s1.5-2.6 2.3-3.5 3.9-3.6 2.7-5.9-3.7-2.3-5.8-1.6-5.2 3.1-7.8 2.5c-1-.2-2.4-1.3-1.8-2.5a13.4 13.4 0 0 1 2.7-3.1c1.4-1.4 3.7-3.7 2.6-6s-3.9-2.2-6-1.2a45.1 45.1 0 0 1-4.4 2.2c-1.4.5-3.9.4-4.5-1.5s2.3-3 3-3.5l3.6-2.2c1-.6.1-2.3-.9-1.7s-5.1 2.7-6.8 5.1.1 5 2.5 5.8 5.7-1.2 8-2.4 2.5-1.3 3.6-.2-.3 2.5-1 3.2-4.2 3.3-4.4 5.8 2.7 4.1 4.7 4.1 5.2-1.9 7.7-2.8 2.3-.6 3.2.3-.5 2.4-1.2 3.1-2.9 2.8-3.6 4.7a4 4 0 0 0 1.9 4.7c1.9 1 4.1-.2 5.8-1.2a41 41 0 0 0 5.8-4.5c.9-.5 0-2.2-.9-1.5z" style="fill:#231f20"/><path d="M79.9 194.7c-3 0-6.3-.5-7.8-3.7s-.7-5.6-1.5-8.3-3.5-4.9-5.8-6.3a15.3 15.3 0 0 0-8.7-2.6c-1.1.1-1.1 2 0 1.9 3.1-.2 6.3 1.3 9 3.1a11 11 0 0 1 3.5 3.6c.8 1.3.7 3.1.9 4.7s.7 4.8 2.2 6.7 5.4 2.8 8.2 2.9c1.1 0 1.1-2 0-2z" style="fill:#bae5f7"/><path d="M78.8 198.9c-5.6 1.2-11.1-3.7-12.3-9.6-.2-1.2-1.9-.7-1.7.5 1.4 7 7.9 12.3 14.5 10.9 1.1-.2.6-2-.5-1.8z" style="fill:#bae5f7"/><path d="M52.5 293.2c-4.4.6-8.8-.7-11.4-4.9s-2.3-8.6-.9-12.7a.9.9 0 1 0-1.7-.5 16.8 16.8 0 0 0 1.3 14.5c2.8 4.6 7.9 6.2 12.7 5.5 1.2-.2 1.2-2.1 0-1.9zm-14.7-1.4c-4-3.5-4.5-9.2-4-14.5.1-1.2-1.7-1.2-1.8 0-.5 5.7.2 12 4.5 15.9.9.8 2.2-.6 1.3-1.4zm12.8 8.6c2.4 0 5.1.5 7.4-.3s.6-2.2-.5-1.9-4.7.2-7 .2-1 2 .1 2z" style="fill:#ffd880"/><path d="M122 288.7c-.8-2-2.4-3.5-4.4-2.1a3.9 3.9 0 0 0-1.2 5c1.4 2.2 5 2 6.8.7a5.2 5.2 0 0 0 1.6-6.5c-1.3-3.2-5.4-3.8-8.1-3a6.8 6.8 0 0 0-4.9 7.3 8.5 8.5 0 0 0 7.1 6.9c3.2.5 6.4-1.6 8.2-4.3s1.9-9.7-1.6-12.4-7.9-1.9-11.3-.1a11 11 0 0 0-5.5 11.7c1.1 7.3 9 9.7 14.7 8 1.1-.3.6-2.2-.5-1.9a10.2 10.2 0 0 1-10.9-2.9c-2.2-2.6-2.2-6.8-.6-9.8s8.5-6 12.5-3.8a6.3 6.3 0 0 1 2.9 6 7.7 7.7 0 0 1-7.2 7.6c-4.2.2-8.4-5.4-4.8-9.1s8.8-2.2 8.6 2.4c-.1 2.6-4.4 4.2-5.8 2s1.4-3.7 2.4-1.2 2.4.7 2-.5zm-4.8-68.6a2.7 2.7 0 1 0-5.3 0 2.7 2.7 0 1 0 5.3 0zm-12.4-3.5a1.8 1.8 0 1 0-3.5 0 1.8 1.8 0 1 0 3.5 0z" style="fill:#f7a388"/><path d="M78.9 285.2a2.7 2.7 0 1 0-5.3 0 2.7 2.7 0 1 0 5.3 0zm-2-12.2a1.8 1.8 0 1 0-3.5 0 1.8 1.8 0 1 0 3.5 0zm7.8 9.1a.9.9 0 1 0-1.8 0 .9.9 0 1 0 1.8 0zm-18.7-6a.9.9 0 1 0-1.8 0 .9.9 0 1 0 1.8 0z" style="fill:#231f20"/><path d="M144 267.1a2.7 2.7 0 1 0-5.3 0 2.7 2.7 0 1 0 5.3 0zm-6.7 10.5a1.8 1.8 0 1 0-3.5 0 1.8 1.8 0 1 0 3.5 0zm-7.1-9.4a.9.9 0 1 0-1.8 0 .9.9 0 1 0 1.8 0zm18.1 8.3a.9.9 0 1 0-1.8 0 .9.9 0 1 0 1.8 0z" style="fill:#bae5f7"/><path d="M40.6 222.5c0-5.1.4-10.2-.3-15.2-.2-1.2-1.9-.7-1.7.5.7 4.9.2 9.8.2 14.7a.9.9 0 0 0 1.8 0z" style="fill:#231f20"/><path d="M51.3 192.9a58 58 0 0 1-9.3-.5c-2.4-.5-5.3-1.5-5.2-4.7s3.7-3.2 5.4-3.6a43.9 43.9 0 0 1 8.9-.5c1.1 0 1.1-1.9 0-1.9a42.2 42.2 0 0 0-10.6.9c-2.6.6-5.1 2.1-5.5 5.2-1 8.1 12.1 7.2 16.3 7.2 1.1-.2 1.1-2.1 0-2.1z" style="fill:#5cbd7e"/><path d="M41.2 171.2c2.1-4.7 6-8 9-12 .7-1-.5-2.3-1.2-1.4-3.1 4.1-7.1 7.5-9.3 12.4-.5 1.1 1 2.1 1.5 1z" style="fill:#f7a388"/><path d="M155.7 217.2a51.3 51.3 0 0 1-5.3-5.1c-.8-.9-2 .5-1.2 1.4a51.3 51.3 0 0 0 5.3 5.1c.9.7 2.1-.6 1.2-1.4z" style="fill:#5cbd7e"/><path d="M144.5 207a18.8 18.8 0 0 1-2.4-2.5c-.8-.9-2 .4-1.2 1.4l2.4 2.5c.4.3.9.4 1.2 0s.4-1.1 0-1.4z" style="fill:#ffd880"/><path d="M24.5 276.6c-.2-4.2-7-4.7-9.7-5s-10.2-1.1-12.4 3.1 1.5 5.3 3.7 5.9a19.5 19.5 0 0 0 3.4.3l4 .3c3.3.1 10.8.7 11-4.6a.9.9 0 1 0-1.8 0c-.1 3.6-7.1 2.8-9.2 2.6l-5.2-.4a6.8 6.8 0 0 1-3.4-.8 2.1 2.1 0 0 1 0-3.7 9 9 0 0 1 4-.9 28.1 28.1 0 0 1 5.8.1 22.9 22.9 0 0 1 5.2 1.1c.8.3 2.7.9 2.8 2a.9.9 0 1 0 1.8 0z" style="fill:#bae5f7"/></g><g style="clip-path:url(#a)"><path d="m34.2 75.4-16.4-18" style="fill:#f7a388"/><path d="m34.8 74.7-16.4-18c-.8-.9-2.1.5-1.2 1.4l16.4 18c.8.9 2-.5 1.2-1.4zm52 49.4c-6.6.6-14.5-5.2-16.1-12.3a.9.9 0 1 0-1.7.5c1.8 7.9 10.5 14.4 17.8 13.7 1.1-.1 1.2-2 0-1.9zm-17.8-4c-3.3-3.4-5.4-9.1-4.4-14.1.2-1.2-1.5-1.7-1.7-.5a18.3 18.3 0 0 0 4.8 15.9c.9.9 2.2-.5 1.3-1.3zm24.3 5.5a4.5 4.5 0 0 0 3.5-1.1c.8-.8-.4-2.2-1.2-1.4a3.1 3.1 0 0 1-2.3.5c-1.1.1-1.1 2 0 2zm-6.9-60.4c-2.6-.1-5.5-.4-7.4-2.5s-2-4.4-2.4-6.7-1-5.2-3.1-7-4.7-2.5-7.2-2.9l-3.5-.4c-1.5-.3-2.6-1.8-3.4-3.2-1.7-2.9-1.4-6-1.9-9.3-.9-5.9-6.2-7.5-11-7.6-1.1 0-1.1 1.9 0 1.9 2.6.1 5.5.4 7.5 2.4s1.7 5.3 2.2 8.1a14.5 14.5 0 0 0 3.2 7.5c1.9 2.3 4.4 2.1 6.9 2.5a11.9 11.9 0 0 1 7.2 3.4c1.8 2.1 1.6 5.9 2.3 8.6 1.6 5.4 5.9 7 10.7 7.1 1.1.1 1.1-1.8-.1-1.9z" style="fill:#5cbd7e"/><path d="m44.9 115.3-1.5 1.6-26.7-29.6 1.5-1.5z" style="fill:#f7a388"/><path d="M87.6 46.1c-.1 3.6 3 3.9 5.6 4.1s3 .5 3.5 1.8a6.7 6.7 0 0 1-.3 3.7c-.6 2.5-1.3 5.1-.2 7.6s4.2 3.5 6.7 3.8 5.7.1 6.4-2.6a4.4 4.4 0 0 0-.7-3.7c-1-1.1-2.3-1.1-3.7-1.1a5 5 0 0 1-2.6-.6c-.7-.4-.3-1.4-.2-2.1a15.2 15.2 0 0 0 .8-5.6c-.3-3.4-2.7-5.7-5.4-7s-9.4-2.9-9.9 1.7c-.1 1.2 1.6 1.2 1.8 0s5.5-.7 6.5-.4c3.5 1.2 6 4.2 5.2 8.4s-2 5.6 1.1 7.1c1.3.6 2.8.4 4.1.5a1.7 1.7 0 0 1 1.4 2c-.1.8-1 1.1-1.6 1.3-2.6.8-6.2.1-8-2s-.3-5.4.2-7.7.4-4.4-1.4-5.8a7.1 7.1 0 0 0-3.7-1.2c-1.5-.2-3.9.1-3.8-2.2a.9.9 0 0 0-1.8 0z" style="fill:#ffd880"/><path d="M111.1 37.8c.5-4.4-4.4-3.5-7.2-4.4-9.9-3.1 4-13.4-5-19.3-2.9-1.9-11.9-3-11.4 2s4.9 1.8 8 4.2-2.2 6.3-.3 12.4 15.4 9.6 15.9 5.1z" style="fill:#f7a388"/><path d="M59.3 151.4c4-5.5 7.4-11.6 10.9-17.5l-1.4.2c4.6 5.1 9.6 10.2 13.5 15.9l.8-1.5-24.4 1.2c-1.1.1-1.1 2 0 1.9l24.4-1.2a1 1 0 0 0 .8-1.5c-4.1-5.9-9.1-11.1-13.8-16.3a.9.9 0 0 0-1.4.2c-3.4 5.8-6.7 11.8-10.6 17.1-.8 1.1.5 2.5 1.2 1.5z" style="fill:#231f20"/><path d="M18.2 39.3c5.4 0 10.8.8 16.2-.5a.8.8 0 0 0 .6-.9c-.2-5.8-.5-11.7-.7-17.5a1.1 1.1 0 0 0-.9-1c-5.4-.3-10.9-.7-16.3.1a1 1 0 0 0-.6 1.2c.9 5.9-.2 11.9.8 17.8.2 1.2 1.9.7 1.7-.5-1-5.9.1-11.9-.8-17.8l-.6 1.2c5.2-.8 10.6-.3 15.8-.1l-.9-1c.2 5.8.4 11.7.7 17.5l.6-.9c-5.2 1.3-10.5.5-15.7.4-1 0-1 2 .1 2z" style="fill:#ffd880"/><path d="M36.8 149.2c4.3-4.7 9.1-8.4 12.4-14.2l-13.3-13.4s-9.7 9.7-12.7 14c3.3 2.6 8.7 10.1 13.6 13.6z" style="fill:#bae5f7"/><path d="M73.5 14.7c2.4-2.6 5.1-4.9 7-8a1.3 1.3 0 0 0-.1-1.2c-2.5-2.4-4.9-4.9-7.3-7.4a.7.7 0 0 0-1.2 0A58.9 58.9 0 0 0 64.8 6c-.3.4 0 1 .3 1.3 2.7 2.2 4.7 5.3 7.5 7.5.9.7 1.8-1 .9-1.7-2.8-2.1-4.8-5.3-7.5-7.5a3.1 3.1 0 0 0 .1 1.4A54.8 54.8 0 0 1 73-.5h-1.2l7.3 7.4c0-.4-.1-.8-.1-1.2-1.8 3-4.4 5.2-6.7 7.7-.8.8.4 2.2 1.2 1.3z" style="fill:#5cbd7e"/><path d="M6 74.2c2.7-2 4.7-5.3 3.4-8.9s-5.1-4-8.3-4.6a5.3 5.3 0 0 1-4.4-5.6c0-2.2.4-4-.4-6.1s-4.7-3.4-7.2-2.9c-7.3 1.4-6.3 10-3.8 15.6 1.8 4.1 4.8 6.9 8.2 9.4s7.3 4.8 11.3 3.7l1.2-.6c1-.6.1-2.3-.9-1.7-3.2 1.9-7.1-.6-9.9-2.4a22.4 22.4 0 0 1-7.9-8 18.5 18.5 0 0 1-2.4-8.9 5.2 5.2 0 0 1 4.4-5.2c3-.7 5.7.8 5.6 4.4a23.5 23.5 0 0 0 .1 5.3 7 7 0 0 0 2.7 3.8c2.4 1.9 5.8.8 8.3 2.4s1.6 6.7-1 8.6c-.9.7 0 2.4 1 1.7zm94.6-78.6c-4.3.2-8.6-.7-12.8-1.4a7.8 7.8 0 0 1 .5 1.4c1.9-3.6 2.6-7.8 3.7-11.8a1 1 0 0 0-.6-1.2c-5.4-.9-10.8-1.5-16.2-2.1l.9 1.2c1.3-3.5 2.7-7.1 4.2-10.5.2-.5.1-1.3-.5-1.4-4.8-1.2-9.6-1.7-14.4-2.5-1.1-.2-1.6 1.7-.5 1.9 4.8.8 9.6 1.3 14.4 2.5a7.8 7.8 0 0 1-.5-1.4c-1.5 3.6-3 7.3-4.3 11a.9.9 0 0 0 .9 1.2c5.2.6 10.5 1.2 15.7 2l-.6-1.2c-1 3.8-1.6 7.8-3.5 11.3a1 1 0 0 0 .5 1.4c4.4.7 8.8 1.7 13.3 1.5.9-.1.9-2-.2-1.9zM69.5 77.7c-2.5 2.1-5 4.5-8.1 5.6-1.3.4-2.9 0-2.9-1.8s1.5-2.6 2.3-3.5 3.9-3.6 2.7-5.9-3.7-2.3-5.8-1.6-5.2 3.1-7.8 2.5c-1-.2-2.4-1.3-1.8-2.5a13.4 13.4 0 0 1 2.7-3.1c1.4-1.4 3.7-3.7 2.6-6s-3.9-2.2-6-1.2a26.4 26.4 0 0 1-4.4 2.3c-1.4.5-3.9.4-4.5-1.5s2.3-3 3-3.5l3.6-2.2c1-.6.1-2.3-.9-1.7s-5.1 2.7-6.8 5.1.1 5 2.5 5.8 5.7-1.2 8-2.4 2.5-1.3 3.6-.2-.3 2.5-1 3.2-4.2 3.3-4.4 5.8 2.7 4.1 4.7 4.1 5.2-1.9 7.7-2.8 2.3-.6 3.2.3-.5 2.4-1.2 3.1-2.9 2.8-3.6 4.7a4 4 0 0 0 1.9 4.7c1.9 1 4.1-.2 5.8-1.2a41 41 0 0 0 5.8-4.5c.9-.7 0-2.3-.9-1.6z" style="fill:#231f20"/><path d="M46.8 4.6c-3 0-6.3-.5-7.8-3.7s-.7-5.6-1.5-8.3-3.5-4.9-5.8-6.3a15.3 15.3 0 0 0-8.7-2.6c-1.1.1-1.1 2 0 1.9 3.1-.2 6.3 1.3 9 3.1a11 11 0 0 1 3.5 3.6c.8 1.3.7 3.1.9 4.7s.7 4.8 2.2 6.7 5.4 2.8 8.2 2.9c1.1-.1 1.1-2 0-2z" style="fill:#bae5f7"/><path d="M45.7 8.8C40 9.9 34.5 5.1 33.4-.8c-.2-1.2-1.9-.7-1.7.5 1.4 7 7.9 12.3 14.5 10.9 1-.2.6-2.1-.5-1.8z" style="fill:#bae5f7"/><path d="M19.4 103c-4.4.6-8.8-.7-11.4-4.9s-2.3-8.6-.9-12.7a.9.9 0 1 0-1.7-.5 16.8 16.8 0 0 0 1.3 14.5c2.8 4.6 7.9 6.2 12.7 5.5 1.1-.1 1.1-2 0-1.9zm-14.7-1.3c-4-3.5-4.5-9.2-4-14.5.1-1.2-1.7-1.2-1.8 0-.5 5.7.2 12 4.5 15.9.9.7 2.1-.6 1.3-1.4zm12.8 8.5c2.4 0 5.1.5 7.4-.3s.6-2.2-.5-1.9-4.7.2-7 .2-1.1 2 .1 2z" style="fill:#ffd880"/><path d="M88.8 98.6c-.8-2-2.4-3.5-4.4-2.1a3.9 3.9 0 0 0-1.2 5c1.4 2.2 5 2 6.8.7a5.2 5.2 0 0 0 1.6-6.5c-1.3-3.2-5.4-3.8-8.1-3a6.8 6.8 0 0 0-4.9 7.3 8.5 8.5 0 0 0 7.1 6.9c3.2.5 6.4-1.6 8.2-4.3s1.9-9.7-1.6-12.4-7.9-1.9-11.3-.1a11 11 0 0 0-5.5 11.7c1.1 7.3 9 9.7 14.7 8 1.1-.3.6-2.2-.5-1.9a10.2 10.2 0 0 1-10.9-2.9c-2.2-2.6-2.2-6.8-.6-9.8s8.5-6 12.5-3.8a6.3 6.3 0 0 1 2.9 6 7.7 7.7 0 0 1-7.2 7.6c-4.2.2-8.4-5.4-4.8-9.1s8.8-2.2 8.6 2.4c-.1 2.6-4.4 4.2-5.8 2s1.4-3.7 2.4-1.2 2.5.7 2-.5zM84.1 30a2.7 2.7 0 1 0-5.3 0 2.7 2.7 0 1 0 5.3 0zm-12.5-3.6a1.8 1.8 0 1 0-3.5 0 1.8 1.8 0 1 0 3.5 0z" style="fill:#f7a388"/><path d="M45.8 95.1a2.7 2.7 0 1 0-5.3 0 2.7 2.7 0 1 0 5.3 0zm-2-12.2a1.8 1.8 0 1 0-3.5 0 1.8 1.8 0 1 0 3.5 0zm7.8 9a.9.9 0 0 0-1.8 0 .9.9 0 1 0 1.8 0zM32.8 86a.9.9 0 0 0-1.8 0 .9.9 0 1 0 1.8 0z" style="fill:#231f20"/><path d="M110.9 77a2.7 2.7 0 1 0-5.3 0 2.7 2.7 0 1 0 5.3 0zm-6.8 10.5a1.8 1.8 0 1 0-3.5 0 1.8 1.8 0 1 0 3.5 0zM97 78.1a.9.9 0 0 0-1.8 0 .9.9 0 0 0 1.8 0zm18.2 8.3a.9.9 0 0 0-1.8 0 .9.9 0 1 0 1.8 0z" style="fill:#bae5f7"/><path d="M7.5 32.3c0-5.1.4-10.2-.3-15.2-.2-1.2-1.9-.7-1.7.5.7 4.9.2 9.8.2 14.7a.9.9 0 1 0 1.8 0z" style="fill:#231f20"/><path d="M18.1 2.8a58 58 0 0 1-9.3-.5C6.4 1.8 3.5.7 3.6-2.5S7.3-5.7 9-6.1a43.9 43.9 0 0 1 8.9-.5c1.1 0 1.1-1.9 0-1.9a42.2 42.2 0 0 0-10.6.9c-2.5.6-5.1 2-5.4 5.1C.9 5.6 14 4.7 18.1 4.7a1 1 0 0 0 0-1.9zm104.5 24.3a51.3 51.3 0 0 1-5.3-5.1c-.8-.9-2 .5-1.2 1.4a51.3 51.3 0 0 0 5.3 5.1c.8.7 2.1-.7 1.2-1.4z" style="fill:#5cbd7e"/><path d="M111.4 16.9a18.8 18.8 0 0 1-2.4-2.5c-.8-.9-2 .4-1.2 1.4l2.4 2.5c.4.3.9.4 1.2 0a1.2 1.2 0 0 0 0-1.4z" style="fill:#ffd880"/></g><g style="clip-path:url(#a)"><path d="m-52.4 208.5-16.4-18c-.8-.9-2.1.5-1.2 1.4l16.4 18c.7.8 2-.6 1.2-1.4zm52 49.4c-6.6.6-14.5-5.2-16.1-12.3a.9.9 0 1 0-1.7.5c1.8 7.9 10.5 14.4 17.8 13.7 1.1-.1 1.1-2 0-1.9zm-17.8-4.1c-3.3-3.4-5.4-9.1-4.4-14.1.2-1.2-1.5-1.7-1.7-.5a18.3 18.3 0 0 0 4.8 15.9c.9.9 2.1-.4 1.3-1.3zm24.3 5.6a4.5 4.5 0 0 0 3.5-1.1c.8-.8-.4-2.2-1.2-1.4a3.1 3.1 0 0 1-2.3.5c-1.1.1-1.1 2 0 2zM-.8 199c-2.6-.1-5.5-.4-7.4-2.5s-2-4.4-2.4-6.7-1-5.2-3.1-7-4.7-2.5-7.2-2.9l-3.5-.4c-1.5-.3-2.6-1.8-3.4-3.2s-1.4-6-1.9-9.3c-.9-5.9-6.2-7.5-11-7.6-1.1 0-1.1 1.9 0 1.9s5.5.4 7.5 2.4 1.7 5.3 2.2 8.1a14.5 14.5 0 0 0 3.2 7.5c1.9 2.3 4.4 2.1 6.9 2.5a11.9 11.9 0 0 1 7.2 3.4c1.8 2.1 1.6 5.9 2.3 8.6 1.6 5.4 5.9 7 10.7 7.1 1 0 1-1.9-.1-1.9z" style="fill:#5cbd7e"/><path d="M.4 179.9c-.1 3.6 3 3.9 5.6 4.1s3 .5 3.5 1.8a6.7 6.7 0 0 1-.3 3.7c-.6 2.5-1.3 5.1-.2 7.6s4.2 3.5 6.7 3.8 5.7.1 6.4-2.6a4.4 4.4 0 0 0-.7-3.7c-1-1.1-2.3-1.1-3.7-1.1a5 5 0 0 1-2.6-.6c-.7-.4-.3-1.4-.2-2.1a15.2 15.2 0 0 0 .8-5.6c-.3-3.4-2.7-5.7-5.4-7s-9.4-3-9.9 1.7c-.1 1.2 1.6 1.2 1.8 0s5.5-.7 6.5-.4c3.5 1.2 6 4.2 5.2 8.4s-2 5.6 1.1 7.1c1.3.6 2.8.4 4.1.5a1.7 1.7 0 0 1 1.4 2c-.1.8-1 1.1-1.6 1.3-2.6.8-6.2.1-8-2s-.3-5.4.2-7.7.4-4.4-1.4-5.8a7.1 7.1 0 0 0-3.7-1.2c-1.5-.2-3.9.1-3.8-2.2a.9.9 0 1 0-1.8 0z" style="fill:#ffd880"/><path d="M23.9 171.5c.5-4.4-4.4-3.5-7.2-4.4-9.9-3.1 4-13.4-5-19.3-2.9-1.9-11.9-3-11.4 2s4.9 1.8 8 4.2-2.2 6.3-.3 12.4 15.4 9.7 15.9 5.1z" style="fill:#f7a388"/><path d="M-81.2 207.9c2.7-2 4.7-5.3 3.4-8.9s-5.1-4-8.3-4.6a5.3 5.3 0 0 1-4.4-5.6c0-2.2.4-4-.4-6.1s-4.7-3.4-7.2-2.9c-7.3 1.4-6.3 10-3.8 15.6s4.8 6.9 8.2 9.4 7.3 4.8 11.3 3.7l1.2-.6c1-.6.1-2.3-.9-1.7-3.2 1.9-7.1-.6-9.9-2.4a22.4 22.4 0 0 1-7.9-8 18.5 18.5 0 0 1-2.4-8.9 5.2 5.2 0 0 1 4.4-5.2c3-.7 5.7.8 5.6 4.4a23.5 23.5 0 0 0 .1 5.3 7 7 0 0 0 2.7 3.8c2.4 1.9 5.8.8 8.3 2.4s1.6 6.7-1 8.6c-.9.7 0 2.4 1 1.7zm94.6-78.6c-4.3.2-8.6-.7-12.8-1.4a7.8 7.8 0 0 1 .5 1.4c1.9-3.6 2.6-7.8 3.7-11.8a1 1 0 0 0-.6-1.2c-5.4-.9-10.8-1.5-16.2-2.1l.9 1.2c1.3-3.5 2.7-7.1 4.2-10.5.2-.5.1-1.3-.5-1.4-4.8-1.2-9.6-1.7-14.4-2.5-1.1-.2-1.6 1.7-.5 1.9 4.8.8 9.6 1.3 14.4 2.5a7.8 7.8 0 0 1-.5-1.4c-1.5 3.6-3 7.3-4.3 11a.9.9 0 0 0 .9 1.2c5.2.6 10.5 1.2 15.7 2l-.6-1.2c-1 3.8-1.6 7.8-3.5 11.3a1 1 0 0 0 .5 1.4c4.4.7 8.8 1.7 13.3 1.5.9 0 .9-1.9-.2-1.9zm-31.1 82.2c-2.5 2.1-5 4.5-8.1 5.6-1.3.4-2.9 0-2.9-1.8s1.5-2.6 2.3-3.5 3.9-3.6 2.7-5.9-3.7-2.3-5.8-1.6-5.2 3.1-7.8 2.5c-1-.2-2.4-1.3-1.8-2.5a13.4 13.4 0 0 1 2.7-3.1c1.4-1.4 3.7-3.7 2.6-6s-3.9-2.2-6-1.2a45.1 45.1 0 0 1-4.4 2.2c-1.4.5-3.9.4-4.5-1.5s2.3-3 3-3.5l3.6-2.2c1-.6.1-2.3-.9-1.7s-5.1 2.7-6.8 5.1.1 5 2.5 5.8 5.7-1.2 8-2.4 2.5-1.3 3.6-.2-.3 2.5-1 3.2-4.2 3.3-4.4 5.8 2.7 4.1 4.7 4.1 5.2-1.9 7.7-2.8 2.3-.6 3.2.3-.5 2.4-1.2 3.1-2.9 2.8-3.6 4.7a4 4 0 0 0 1.9 4.7c1.9 1 4.1-.2 5.8-1.2a41 41 0 0 0 5.8-4.5c.9-.6 0-2.3-.9-1.5z" style="fill:#231f20"/><path d="M1.6 232.4c-.8-2-2.4-3.5-4.4-2.1a3.9 3.9 0 0 0-1.2 5c1.4 2.2 5 2 6.8.7a5.2 5.2 0 0 0 1.6-6.5c-1.3-3.2-5.4-3.8-8.1-3a6.8 6.8 0 0 0-4.9 7.3 8.5 8.5 0 0 0 7.1 6.9c3.2.5 6.4-1.6 8.2-4.3s1.9-9.7-1.6-12.4-7.9-1.9-11.3-.1a11 11 0 0 0-5.5 11.7c1.1 7.3 9 9.7 14.7 8 1.1-.3.6-2.2-.5-1.9a10.2 10.2 0 0 1-10.9-2.9c-2.2-2.6-2.2-6.8-.6-9.8s8.5-6 12.5-3.8a6.3 6.3 0 0 1 2.9 6 7.7 7.7 0 0 1-7.2 7.6c-4.2.2-8.4-5.4-4.8-9.1s8.8-2.2 8.6 2.4c-.1 2.6-4.4 4.2-5.8 2s1.4-3.7 2.4-1.2 2.4.6 2-.5zm-4.8-68.7a2.7 2.7 0 1 0-5.3 0 2.7 2.7 0 1 0 5.3 0zm-12.4-3.5a1.8 1.8 0 1 0-3.5 0 1.8 1.8 0 1 0 3.5 0z" style="fill:#f7a388"/><path d="M23.7 210.7a2.7 2.7 0 1 0-5.3 0 2.7 2.7 0 1 0 5.3 0zm-6.8 10.5a1.8 1.8 0 1 0-3.5 0 1.8 1.8 0 1 0 3.5 0zm-7.1-9.4a.9.9 0 0 0-1.8 0 .9.9 0 1 0 1.8 0zm18.1 8.4a.9.9 0 0 0-1.8 0 .9.9 0 1 0 1.8 0z" style="fill:#bae5f7"/><path d="M35.4 160.8a51.3 51.3 0 0 1-5.3-5.1c-.8-.9-2 .5-1.2 1.4a51.3 51.3 0 0 0 5.3 5.1c.8.8 2.1-.6 1.2-1.4z" style="fill:#5cbd7e"/><path d="M24.1 150.6a18.8 18.8 0 0 1-2.4-2.5c-.8-.9-2 .4-1.2 1.4l2.4 2.5c.4.3.9.4 1.2 0a1 1 0 0 0 0-1.4z" style="fill:#ffd880"/></g></svg>