<svg xmlns="http://www.w3.org/2000/svg" xmlns:xlink="http://www.w3.org/1999/xlink" viewBox="0 0 401.768 401.768"><path d="M240.884 8.008h-25.04c4.952-.048 8.992 3.928 9.04 8.88v23.28h25.44v-23.2c.008-4.952-4-8.968-8.944-8.976-.168 0-.328.008-.496.016z" fill="#e8e8e8"/><path d="M138.964 394.008c-45.28 0-48.8-37.36-48.8-48.8v-200.24c0-45.28 37.36-48.8 48.8-48.8h123.84c11.44 0 48.8 3.52 48.8 48.8v200c0 11.44-3.52 48.8-48.8 48.8l-123.84.24z" fill="#ffd04d"/><path d="M262.804 96.248h-36.64c11.44 0 48.8 3.52 48.8 48.8v199.92c0 11.44-3.52 48.8-48.8 48.8h36.64c45.28 0 48.8-37.36 48.8-48.8v-200c0-45.2-37.36-48.72-48.8-48.72z" fill="#efb83c"/><g fill="#1b2754"><path d="M262.804 88.248h-4.56v-71.28c0-9.368-7.592-16.96-16.952-16.968-.136 0-.272 0-.408.008h-80c-9.368-.224-17.136 7.192-17.352 16.552 0 .136-.008.272-.008.408v71.28h-4.56c-27.44 0-56.8 14.96-56.8 56.8v199.92c0 27.44 14.96 56.8 56.8 56.8h123.84c41.92 0 56.8-29.36 56.8-56.8v-200c0-41.84-29.36-56.72-56.8-56.72zm-101.92-72.24h80c.528 0 .96.432.96.96v15.2h-82.32v-15.2c-.048-.528.336-.992.864-1.048.168-.016.344.016.496.088zm-.96 32h82.32v40h-82.72l.4-40zm143.68 296.96c0 12.24-4 40.8-40.8 40.8h-123.84c-36.8 0-40.8-28.56-40.8-40.8v-200c0-36.8 28.56-40.8 40.8-40.8h123.84c12.24 0 40.8 4 40.8 40.8v200zm-102.72-202.08c-4.416 0-8 3.584-8 8v188.48c0 4.416 3.584 8 8 8s8-3.584 8-8v-188.48c0-4.416-3.584-8-8-8zm-36.64 16.4c-4.416 0-8 3.584-8 8v155.6c0 4.416 3.584 8 8 8s8-3.584 8-8v-155.6c0-4.416-3.584-8-8-8z"/><use xlink:href="#B"/><path d="M237.524 159.288c-4.416 0-8 3.584-8 8v155.6c0 4.416 3.584 8 8 8s8-3.584 8-8v-155.6c0-4.416-3.584-8-8-8z"/><use xlink:href="#B" x="149.6"/></g><defs ><path id="B" d="M126.084 178.008c-4.416 0-8 3.584-8 8v118.16c0 4.416 3.584 8 8 8s8-3.584 8-8v-118.16c0-4.416-3.584-8-8-8z"/></defs></svg>