<?xml version="1.0" encoding="utf-8"?>
<!-- Generator: Adobe Illustrator 21.0.0, SVG Export Plug-In . SVG Version: 6.00 Build 0)  -->
<svg version="1.1" id="Layer_1" xmlns="http://www.w3.org/2000/svg" xmlns:xlink="http://www.w3.org/1999/xlink" x="0px" y="0px"
	 viewBox="0 0 401.8 401.8" style="enable-background:new 0 0 401.8 401.8;" xml:space="preserve">
<style type="text/css">
	.st0{fill:#E8E8E8;}
	.st1{fill:#FFC52F;}
	.st2{fill:#EFB83C;}
	.st3{fill:#1B2754;}
</style>
<path class="st0" d="M240.9,8h-25c5,0,9,3.9,9,8.9v23.3h25.4V17c0-5-4-9-8.9-9C241.2,8,241.1,8,240.9,8L240.9,8z"/>
<path class="st1" d="M139,394c-45.3,0-48.8-37.4-48.8-48.8V145c0-45.3,37.4-48.8,48.8-48.8h123.8c11.4,0,48.8,3.5,48.8,48.8v200
	c0,11.4-3.5,48.8-48.8,48.8L139,394L139,394z"/>
<path class="st2" d="M262.8,96.2h-36.6c11.4,0,48.8,3.5,48.8,48.8V345c0,11.4-3.5,48.8-48.8,48.8h36.6c45.3,0,48.8-37.4,48.8-48.8
	V145C311.6,99.8,274.2,96.2,262.8,96.2L262.8,96.2z"/>
<g>
	<path class="st3" d="M262.8,88.2h-4.6V17c0-9.4-7.6-17-17-17c-0.1,0-0.3,0-0.4,0h-80c-9.4-0.2-17.1,7.2-17.4,16.6
		c0,0.1,0,0.3,0,0.4v71.3H139c-27.4,0-56.8,15-56.8,56.8V345c0,27.4,15,56.8,56.8,56.8h123.8c41.9,0,56.8-29.4,56.8-56.8V145
		C319.6,103.1,290.2,88.2,262.8,88.2L262.8,88.2z M160.9,16h80c0.5,0,1,0.4,1,1v15.2h-82.3V17c0-0.5,0.3-1,0.9-1
		C160.6,15.9,160.7,15.9,160.9,16z M159.9,48h82.3v40h-82.7L159.9,48z M303.6,345c0,12.2-4,40.8-40.8,40.8H139
		c-36.8,0-40.8-28.6-40.8-40.8V145c0-36.8,28.6-40.8,40.8-40.8h123.8c12.2,0,40.8,4,40.8,40.8V345z M200.9,142.9c-4.4,0-8,3.6-8,8
		v188.5c0,4.4,3.6,8,8,8s8-3.6,8-8V150.9C208.9,146.5,205.3,142.9,200.9,142.9z M164.2,159.3c-4.4,0-8,3.6-8,8v155.6
		c0,4.4,3.6,8,8,8s8-3.6,8-8V167.3C172.2,162.9,168.7,159.3,164.2,159.3L164.2,159.3z"/>
	<g>
		<path id="B" class="st3" d="M126.1,178c-4.4,0-8,3.6-8,8v118.2c0,4.4,3.6,8,8,8s8-3.6,8-8V186C134.1,181.6,130.5,178,126.1,178z"
			/>
	</g>
	<path class="st3" d="M237.5,159.3c-4.4,0-8,3.6-8,8v155.6c0,4.4,3.6,8,8,8s8-3.6,8-8V167.3C245.5,162.9,241.9,159.3,237.5,159.3z"
		/>
	<g>
		<path id="B_1_" class="st3" d="M275.7,178c-4.4,0-8,3.6-8,8v118.2c0,4.4,3.6,8,8,8c4.4,0,8-3.6,8-8V186
			C283.7,181.6,280.1,178,275.7,178z"/>
	</g>
</g>
</svg>
