<svg viewBox="0 0 401.8 401.8" xmlns="http://www.w3.org/2000/svg"><path d="M139 394c-45.3 0-48.8-37.4-48.8-48.8V145c0-45.3 37.4-48.8 48.8-48.8h123.8c11.4 0 48.8 3.5 48.8 48.8v200c0 11.4-3.5 48.8-48.8 48.8L139 394z" fill="#ffc52f"/><path d="M262.8 88.2h-4.6V17c0-9.4-7.6-17-17-17h-80.4c-9.4-.2-17.1 7.2-17.4 16.6v71.7H139c-27.4 0-56.8 15-56.8 56.8V345c0 27.4 15 56.8 56.8 56.8h123.8c41.9 0 56.8-29.4 56.8-56.8V145c0-41.9-29.4-56.8-56.8-56.8zM160.9 16h80c.5 0 1 .4 1 1v15.2h-82.3V17c0-.5.3-1 .9-1 .1-.1.2-.1.4 0zm-1 32h82.3v40h-82.7l.4-40zm143.7 297c0 12.2-4 40.8-40.8 40.8H139c-36.8 0-40.8-28.6-40.8-40.8V145c0-36.8 28.6-40.8 40.8-40.8h123.8c12.2 0 40.8 4 40.8 40.8v200zM200.9 142.9c-4.4 0-8 3.6-8 8v188.5c0 4.4 3.6 8 8 8s8-3.6 8-8V150.9c0-4.4-3.6-8-8-8zm-36.7 16.4c-4.4 0-8 3.6-8 8v155.6c0 4.4 3.6 8 8 8s8-3.6 8-8V167.3c0-4.4-3.5-8-8-8z"/><path d="M126.1 178c-4.4 0-8 3.6-8 8v118.2c0 4.4 3.6 8 8 8s8-3.6 8-8V186c0-4.4-3.6-8-8-8zM237.5 159.3c-4.4 0-8 3.6-8 8v155.6c0 4.4 3.6 8 8 8s8-3.6 8-8V167.3c0-4.4-3.6-8-8-8zM275.7 178c-4.4 0-8 3.6-8 8v118.2c0 4.4 3.6 8 8 8s8-3.6 8-8V186c0-4.4-3.6-8-8-8z"/></svg>