<svg xmlns="http://www.w3.org/2000/svg" viewBox="0 0 128 128" xml:space="preserve"><path d="M79.9 26h-1.2V7.7c0-2.4-2-4.4-4.4-4.4H53.7c-2.4-.1-4.4 1.9-4.5 4.3V26h-1.1c-7 0-14.6 3.9-14.6 14.6V92c0 7 3.9 14.6 14.6 14.6h31.8c10.8 0 14.6-7.6 14.6-14.6V40.6C94.5 29.8 87 26 79.9 26zM53.7 7.4h20.6c.1 0 .3.1.3.3v3.9H53.4V7.7c0-.1.1-.3.3-.3-.1 0 0 0 0 0zm-.2 8.2h21.1v10.3H53.4l.1-10.3zM90.4 92c0 3.1-1 10.5-10.5 10.5H48.1c-9.5 0-10.5-7.3-10.5-10.5V40.6c0-9.5 7.3-10.5 10.5-10.5h31.8c3.1 0 10.5 1 10.5 10.5V92zM64 40c-1.1 0-2.1.9-2.1 2.1v48.4c0 1.1.9 2.1 2.1 2.1 1.1 0 2.1-.9 2.1-2.1V42.1c0-1.2-1-2.1-2.1-2.1zm-9.4 4.2c-1.1 0-2.1.9-2.1 2.1v40c0 1.1.9 2.1 2.1 2.1 1.1 0 2.1-.9 2.1-2.1v-40c-.1-1.1-1-2.1-2.1-2.1z"/><path d="M44.8 45.9c-1.1 0-2.1.9-2.1 2.1v30.4c0 1.1.9 2.1 2.1 2.1 1.1 0 2.1-.9 2.1-2.1V48c-.1-1.2-1-2.1-2.1-2.1zm28.6-4.8c-1.1 0-2.1.9-2.1 2.1v40c0 1.1.9 2.1 2.1 2.1s2.1-1 2.1-2.1v-40c0-1.2-1-2.1-2.1-2.1zm9.8 4.8c-1.1 0-2.1.9-2.1 2.1v30.4c0 1.1.9 2.1 2.1 2.1s2.1-.9 2.1-2.1V48c0-1.2-.9-2.1-2.1-2.1z"/></svg>