<svg xmlns="http://www.w3.org/2000/svg" viewBox="0 0 128 128" style="enable-background:new 0 0 128 128" xml:space="preserve"><path d="M79.4 31.7h-1.2V13.4c0-2.4-2-4.4-4.4-4.4H53.2c-2.4-.1-4.4 1.9-4.5 4.3v18.4h-1.1c-7 0-14.6 3.9-14.6 14.6v51.4c0 7 3.9 14.6 14.6 14.6h31.8c10.8 0 14.6-7.6 14.6-14.6V46.3c0-10.8-7.5-14.6-14.6-14.6zM53.2 13.1h20.6c.1 0 .3.1.3.3v3.9H52.9v-3.9c0-.1.1-.3.2-.3h.1zm-.2 8.2h21.1v10.3H52.9l.1-10.3zm36.9 76.4c0 3.1-1 10.5-10.5 10.5H47.6c-9.5 0-10.5-7.3-10.5-10.5V46.3c0-9.5 7.3-10.5 10.5-10.5h31.8c3.1 0 10.5 1 10.5 10.5v51.4zm-26.4-52c-1.1 0-2.1.9-2.1 2.1v48.4c0 1.1.9 2.1 2.1 2.1 1.1 0 2.1-.9 2.1-2.1V47.8c0-1.2-1-2.1-2.1-2.1zm-9.4 4.2c-1.1 0-2.1.9-2.1 2.1v40c0 1.1.9 2.1 2.1 2.1 1.1 0 2.1-.9 2.1-2.1V52c-.1-1.1-1-2.1-2.1-2.1z"/><path d="M44.3 51.6c-1.1 0-2.1.9-2.1 2.1v30.4c0 1.1.9 2.1 2.1 2.1 1.1 0 2.1-.9 2.1-2.1V53.7c-.1-1.2-1-2.1-2.1-2.1zm28.6-4.8c-1.1 0-2.1.9-2.1 2.1v40c0 1.1.9 2.1 2.1 2.1s2.1-1 2.1-2.1v-40c0-1.2-1-2.1-2.1-2.1zm9.8 4.8c-1.1 0-2.1.9-2.1 2.1v30.4c0 1.1.9 2.1 2.1 2.1s2.1-.9 2.1-2.1V53.7c0-1.2-.9-2.1-2.1-2.1z"/></svg>