<svg id="Capa_1" enable-background="new 0 0 511.942 511.942" height="512" viewBox="0 0 511.942 511.942" width="512" xmlns="http://www.w3.org/2000/svg"><g><g><g><path d="m78.611 258.414c76.712-86.86 158.499-168.647 245.359-245.359 7.876-6.956 19.558-7.493 28.011-1.251 54.867 40.512 102.557 88.202 143.069 143.069 6.242 8.453 5.705 20.135-1.251 28.011-76.713 86.86-158.499 168.646-245.359 245.359-7.876 6.956-19.558 7.493-28.011 1.251-54.867-40.513-102.557-88.202-143.069-143.069-6.242-8.454-5.705-20.135 1.251-28.011z" fill="#78c2a4"/><path d="m260.314 381.307c-14.802-14.802-38.802-14.802-53.605 0-1.059 1.059-2.033 2.17-2.941 3.316-29.537-24.734-56.806-52.003-81.54-81.54 1.146-.908 2.257-1.882 3.316-2.941 14.802-14.802 14.802-38.802 0-53.605-.485-.485-.981-.952-1.485-1.405 29.621-32.575 60.138-64.605 91.081-95.548 29.883-29.883 60.773-59.381 92.196-88.047.5.562 1.013 1.117 1.552 1.656 14.803 14.802 38.802 14.802 53.605 0 2.165-2.165 4.005-4.532 5.537-7.034 29.976 25.039 57.622 52.685 82.661 82.661-2.502 1.532-4.868 3.371-7.034 5.537-14.802 14.802-14.803 38.802 0 53.605.539.539 1.093 1.052 1.656 1.552-28.666 31.423-58.164 62.313-88.047 92.196-30.943 30.943-62.972 61.46-95.548 91.081-.452-.503-.919-.999-1.404-1.484z" fill="#b3e59f"/><g><circle cx="372.273" cy="134.58" fill="#78c2a4" r="19.592"/></g></g><g><path d="m356.541 152.109c-94.53-6.801-189.059-6.801-283.589 0-29.228 2.103-52.599 25.066-55.159 54.258-6.978 79.577-6.978 159.155 0 238.732 2.56 29.191 25.931 52.155 55.159 54.258 94.53 6.801 189.059 6.801 283.589 0 29.228-2.103 52.599-25.066 55.159-54.258 6.978-79.577 6.978-159.154 0-238.732-2.56-29.192-25.931-52.156-55.159-54.258z" fill="#845c47"/><path d="m106.049 501.457c-11.032-.602-22.064-1.305-33.096-2.098-29.232-2.108-52.601-25.066-55.161-54.257-6.977-79.584-6.977-159.158 0-238.732 2.56-29.192 25.929-52.159 55.161-54.257 11.032-.793 22.054-1.496 33.086-2.098-18.25 9.737-31.119 28.198-33.026 49.941-7.348 83.85-7.348 167.701 0 251.551 1.907 21.743 14.777 40.213 33.036 49.95z" fill="#704d3b"/><path d="m347.121 393.281h64.463c11.095 0 20.089-8.994 20.089-20.089v-96.832c0-11.095-8.994-20.089-20.089-20.089h-64.463c-37.834 0-68.505 30.671-68.505 68.505.001 37.834 30.671 68.505 68.505 68.505z" fill="#b78b7a"/><path d="m330.906 373.221c12.397 12.397 29.523 20.067 48.435 20.067h-32.223c-18.912 0-36.038-7.669-48.435-20.067-12.397-12.397-20.067-29.533-20.067-48.445 0-37.834 30.667-68.502 68.502-68.502h32.223c-37.835 0-68.502 30.667-68.502 68.502.001 18.912 7.67 36.047 20.067 48.445z" fill="#986b54"/><circle cx="347.121" cy="324.776" fill="#f4dd45" r="32.22"/><path d="m356.119 355.721c-2.851.833-5.872 1.275-8.994 1.275-17.798 0-32.223-14.425-32.223-32.223 0-17.788 14.425-32.213 32.223-32.213 3.122 0 6.144.442 8.994 1.275-13.421 3.885-23.229 16.272-23.229 30.938 0 14.675 9.807 27.063 23.229 30.948z" fill="#ffc250"/></g></g><g><path d="m501.082 150.422c-32.455-43.952-69.989-83.867-111.562-118.638-3.177-2.658-7.907-2.236-10.564.941s-2.236 7.907.941 10.565c40.658 34.007 77.37 73.049 109.118 116.042 4.111 5.568 3.76 13.381-.839 18.581-21.52 24.373-43.654 48.558-65.858 71.987-.252-4.544-.527-9.092-.824-13.646 9.762-10.378 19.625-21.016 29.362-31.683 1.351-1.48 2.054-3.439 1.951-5.44s-1.002-3.878-2.497-5.212c-.454-.406-.911-.818-1.346-1.253-5.745-5.745-8.908-13.381-8.908-21.503 0-8.121 3.162-15.754 8.92-21.508 1.663-1.67 3.56-3.165 5.639-4.442 1.855-1.141 3.123-3.031 3.475-5.181.351-2.149-.25-4.345-1.646-6.017-25.236-30.215-53.364-58.347-83.603-83.613-1.673-1.398-3.873-1.997-6.023-1.646-2.151.353-4.043 1.625-5.182 3.485-1.259 2.056-2.755 3.957-4.451 5.651-5.738 5.743-13.372 8.906-21.492 8.906-8.122 0-15.759-3.164-21.455-8.86-.449-.457-.88-.923-1.304-1.397-1.334-1.494-3.211-2.392-5.211-2.494-2.014-.101-3.96.6-5.438 1.95-29.956 27.335-59.433 55.427-87.673 83.535-4.719 0-9.439.029-14.158.063 41.46-41.544 84.601-82.169 128.476-120.923 5.207-4.592 13.028-4.942 18.602-.826 3.17 2.334 6.285 4.675 9.26 6.959 3.288 2.524 7.994 1.903 10.517-1.381 2.522-3.285 1.903-7.994-1.382-10.516-3.054-2.345-6.25-4.747-9.492-7.134-11.213-8.281-26.953-7.587-37.43 1.652-47.929 42.334-94.993 86.879-139.95 132.424-35.642.637-71.237 2.229-106.644 4.776-33.084 2.377-59.198 28.068-62.094 61.086-6.976 79.639-6.976 160.4 0 240.04 2.896 33.018 29.01 58.708 62.09 61.085 5.408.392 10.817.752 16.225 1.104.166.011.33.016.494.016 3.92 0 7.219-3.046 7.477-7.014.268-4.134-2.865-7.702-6.998-7.971-5.372-.349-10.744-.708-16.119-1.096-25.696-1.847-45.978-21.796-48.227-47.434-6.899-78.771-6.899-158.651 0-237.42 2.249-25.639 22.531-45.588 48.227-47.435 93.731-6.742 188.782-6.742 282.514 0 25.695 1.846 45.978 21.795 48.226 47.436 1.214 13.819 2.214 27.822 3.007 41.748h-60.112c-41.909 0-76.005 34.096-76.005 76.005s34.096 76.005 76.005 76.005h60.22c-.81 14.588-1.845 29.235-3.115 43.661-2.248 25.639-22.53 45.588-48.227 47.435-78.815 5.666-158.686 6.584-237.395 2.729-4.125-.196-7.655 2.987-7.858 7.125-.203 4.137 2.987 7.655 7.125 7.858 32.06 1.57 64.308 2.354 96.602 2.354 47.596 0 95.29-1.704 142.602-5.105 33.085-2.377 59.199-28.067 62.094-61.083 1.373-15.601 2.477-31.458 3.317-47.223 9.806-4.235 16.688-13.997 16.688-25.34v-96.832c0-6.218-2.069-11.961-5.553-16.58 22.186-23.421 44.297-47.587 65.796-71.936 9.252-10.46 9.952-26.199 1.665-37.422zm-137.359-24.393c4.714-4.714 12.385-4.715 17.101 0 4.715 4.715 4.715 12.387.001 17.101-4.715 4.716-12.388 4.714-17.103 0h.001c-4.715-4.714-4.715-12.386 0-17.101zm25.678 29.543c.699-.572 1.377-1.182 2.029-1.834 10.563-10.563 10.563-27.751 0-38.314-10.565-10.564-27.752-10.563-38.315 0-7.696 7.697-9.778 18.909-6.258 28.515-36.881-2.459-73.947-3.893-111.046-4.284 23.191-22.826 47.137-45.583 71.433-67.865 8.04 6.486 17.974 10.009 28.448 10.009 12.129 0 23.53-4.725 32.1-13.3.49-.49.97-.992 1.438-1.504 25.283 21.658 48.989 45.367 70.625 70.633-.512.467-1.01.944-1.495 1.432-8.578 8.573-13.303 19.974-13.303 32.104 0 10.476 3.523 20.41 10.008 28.447-5.003 5.454-10.029 10.887-15.049 16.276-.273-3.398-.549-6.794-.846-10.173-1.851-21.104-13.193-39.199-29.769-50.142zm34.773 217.619c0 6.942-5.647 12.589-12.589 12.589h-64.464c-33.639 0-61.005-27.367-61.005-61.005s27.366-61.005 61.005-61.005h64.464c6.941 0 12.589 5.647 12.589 12.589z"/><path d="m347.121 285.055c-21.901 0-39.72 17.818-39.72 39.72s17.818 39.72 39.72 39.72 39.721-17.818 39.721-39.72-17.819-39.72-39.721-39.72zm0 64.441c-13.631 0-24.72-11.089-24.72-24.72s11.089-24.72 24.72-24.72 24.721 11.089 24.721 24.72-11.09 24.72-24.721 24.72z"/></g></g></svg>