<?xml version="1.0" encoding="UTF-8"?>
<svg width="512" height="512" enable-background="new 0 0 511.343 511.343" viewBox="0 0 511.34 511.34" xmlns="http://www.w3.org/2000/svg">
<path d="m490.33 106.67h-399.81l-5.943-66.207c-0.972-10.827-10.046-19.123-20.916-19.123h-42.667c-11.598 0-21 9.402-21 21s9.402 21 21 21h23.468c12.825 142.88-20.321-226.42 24.153 269.09 1.714 19.394 12.193 40.439 30.245 54.739-32.547 41.564-2.809 102.84 50.134 102.84 43.942 0 74.935-43.826 59.866-85.334h114.94c-15.05 41.455 15.876 85.334 59.866 85.334 35.106 0 63.667-28.561 63.667-63.667s-28.561-63.667-63.667-63.667h-234.53c-15.952 0-29.853-9.624-35.853-23.646l335.61-19.724c9.162-0.538 16.914-6.966 19.141-15.87l42.67-170.67c3.308-13.234-6.71-26.093-20.374-26.093zm-341.33 341.34c-11.946 0-21.666-9.72-21.666-21.667s9.72-21.667 21.666-21.667c11.947 0 21.667 9.72 21.667 21.667s-9.72 21.667-21.667 21.667zm234.67 0c-11.947 0-21.667-9.72-21.667-21.667s9.72-21.667 21.667-21.667 21.667 9.72 21.667 21.667-9.72 21.667-21.667 21.667zm47.366-169.73-323.4 19.005-13.34-148.62h369.14z"/>
</svg>
