<svg viewBox="0 0 32 32" xmlns="http://www.w3.org/2000/svg"><path d="M4 7a1 1 0 000 2h2.219l2.625 10.5c.223.89 1.02 1.5 1.937 1.5h12.47c.901 0 1.667-.599 1.905-1.469L27.75 10h-2.094l-2.406 9H10.781L8.156 8.5A1.983 1.983 0 006.22 7h-2.22zm18 14c-1.645 0-3 1.355-3 3s1.355 3 3 3 3-1.355 3-3-1.355-3-3-3zm-9 0c-1.645 0-3 1.355-3 3s1.355 3 3 3 3-1.355 3-3-1.355-3-3-3zm3-14v3h-3v2h3v3h2v-3h3v-2h-3V7h-2zm-3 16c.564 0 1 .436 1 1s-.436 1-1 1-1-.436-1-1 .436-1 1-1zm9 0c.564 0 1 .436 1 1s-.436 1-1 1-1-.436-1-1 .436-1 1-1z" font-family="Sans" overflow="visible" style="block-progression:tb;text-indent:0;text-transform:none"/></svg>