<svg viewBox="0 0 512 512" xmlns="http://www.w3.org/2000/svg"><path d="M208 400c-26.5 0-48 21.5-48 48s21.5 48 48 48 48-21.5 48-48-21.5-48-48-48zm0 64c-8.8 0-16-7.2-16-16s7.2-16 16-16 16 7.2 16 16-7.2 16-16 16zM400 400c-26.5 0-48 21.5-48 48s21.5 48 48 48 48-21.5 48-48-21.5-48-48-48zm0 64c-8.8 0-16-7.2-16-16s7.2-16 16-16 16 7.2 16 16-7.2 16-16 16zM508.3 85.7c-3-3.6-7.5-5.8-12.3-5.8H119.9l-13.9-52c-1.9-7-8.2-11.9-15.5-11.9H16C7.2 16 0 23.2 0 32s7.2 16 16 16h62.3l82.3 308.1c1.9 7 8.2 11.9 15.5 11.9h256c8.8 0 16-7.2 16-16s-7.2-16-16-16H188.3l-9.4-35.1L464.7 288c7.5-.4 13.7-5.8 15-13.1l32-176c.9-4.7-.4-9.5-3.4-13.2zm-57.7 170.9l-280.1 12.6-42-157.2h348.4l-26.3 144.6z"/></svg>