<svg xmlns="http://www.w3.org/2000/svg" viewBox="0 0 511.998 511.998"><circle cx="257.013" cy="256.003" r="38.999"/><path d="M257.011 142.002c-62.858 0-113.997 51.139-113.997 113.997s51.139 113.997 113.997 113.997 113.997-51.139 113.997-113.997-51.139-113.997-113.997-113.997zm0 187.995c-40.803 0-73.998-33.195-73.998-73.998 0-40.803 33.195-73.998 73.998-73.998s73.998 33.195 73.998 73.998c0 40.803-33.195 73.998-73.998 73.998z"/><path d="M499.046 212.345c-10.618-16.306-40.581-58.167-89.352-94.633-49.438-36.965-100.997-55.709-153.246-55.709-52.175 0-103.779 18.693-153.379 55.558-48.988 36.41-79.191 78.219-89.903 94.504a79.882 79.882 0 0 0 0 87.867c10.712 16.286 40.915 58.095 89.903 94.505 49.6 36.865 101.203 55.558 153.379 55.558 80.325 0 144.917-44.788 184.957-82.359 8.055-7.558 8.458-20.214.9-28.269-7.559-8.056-20.214-8.458-28.269-.9-34.777 32.632-90.347 71.53-157.59 71.53-97.104 0-177.606-83.001-209.865-132.045a39.913 39.913 0 0 1 0-43.904c32.259-49.044 112.761-132.044 209.865-132.044 97.101 0 177.112 83.08 209.081 132.17a40.017 40.017 0 0 1 0 43.652c-6.027 9.256-3.41 21.645 5.846 27.673 9.255 6.027 21.646 3.411 27.673-5.846 17.269-26.519 17.269-60.79 0-87.308z"/></svg>