<svg xmlns="http://www.w3.org/2000/svg" viewBox="0 0 410 280"><defs><clipPath id="a"><path style="fill:none" d="M0 0h410v280H0z"/></clipPath></defs><g style="clip-path:url(#a)"><path d="M10.9 228.9h22.7v80.9H10.9z" style="fill:#e19974"/><path d="M21.7 255.4v54.5h11.9v-81l-22.7-.5h10.8v3.8H10.9v21.6l5.9-2.2c2.8-.6 4.9 1.1 4.9 3.8z" style="fill:#d77f4a"/><path d="m68.7 197.6 8.1 4.3a2.3 2.3 0 0 0 3.2-3.2l-25.9-46.4a2.4 2.4 0 0 1 3.2-3.2L67 154c2.2 1.1 4.3-1.6 3.2-3.8l-25.3-45.3a2.4 2.4 0 0 1 3.2-3.2l8.6 4.3a2.4 2.4 0 0 0 3.2-3.2l-20-36.1-15.5-27.6a2.5 2.5 0 0 0-4.3 0L4.5 66.6l-20 36.1a2.4 2.4 0 0 0 3.2 3.2l8.6-4.3a2.4 2.4 0 0 1 3.2 3.2l-25.4 45.3a2.4 2.4 0 0 0 3.2 3.2l9.7-4.9c2.2-1.1 4.3 1.6 3.2 3.8l-25.9 46.4c-1.6 2.2 1.1 4.3 3.2 3.2l8.1-4.3a2.4 2.4 0 0 1 3.2 3.2l-28.6 51.2c-1.1 2.2.5 4.3 2.7 3.8l67.4-22.1h3.2l67.4 22.1c2.2.5 3.8-1.6 2.7-3.8l-28.2-51c-1.1-1.6 1.1-4.3 3.3-3.3z" style="fill:#ade194"/><path d="m94 252.1-28.6-51.2a2.4 2.4 0 0 1 3.2-3.2l8.1 4.3a2.4 2.4 0 0 0 3.2-3.2l-25.8-46.5c-1.1-2.2 1.1-4.9 3.2-3.8l9.7 4.9a2.2 2.2 0 0 0 2.7-3.2l-14-25.9a126.2 126.2 0 0 1-80.4 83.1l-24.8 44.8c-1.1 2.2.5 4.3 2.7 3.8l67.4-22.1h3.2L91.2 256c2.3.4 3.9-1.7 2.8-3.9z" style="fill:#80d261"/><path d="m98.9 250.5-24.3-43.7c-.5-.5 0-1.6 1.1-1.1 5.9 3.2 11.9-3.2 9.2-9.2l-22.2-38.8c-.5-.5.5-1.6 1.6-1.1l1.1.5c2.2 1.1 5.4 1.1 7-.5s3.8-5.4 2.2-8.6l-21-37.2c-.5-1.1 0-1.6 1.1-1.6l.5.5a6.6 6.6 0 0 0 7-.5 6.7 6.7 0 0 0 1.6-8.6l-20-36.1-16.1-27.6a5.9 5.9 0 0 0-5.4-3.2 7.5 7.5 0 0 0-5.9 3.2L5 56.3a4.9 4.9 0 0 0 1.6 5.9c2.2 1.1 4.3.5 5.9-1.6L21.2 45h1.6c8.1 13.5 22.1 37.8 29.7 52.3.5.5-.5 1.6-1.1 1.1h-.5a7.3 7.3 0 0 0-8.1.5 6.5 6.5 0 0 0-1.1 8.1l21 37.8c.5.5-.5 1.6-1.1 1.1l-1.6-.5a6.5 6.5 0 0 0-8.1 1.1 7.3 7.3 0 0 0-.5 8.1L73 192.8a1.2 1.2 0 0 1-1.6 1.6 6.3 6.3 0 0 0-8.6 8.6l25.4 45.3c.5 1.1-.5 1.6-1.1 1.6L24.4 230h-4.3l-62.6 20c-.5 0-1.6-1.1-1.1-1.6l25.4-45.4c3.2-5.4-3.2-11.9-8.6-8.6h-.5c-.5.5-1.6-.5-1.1-1.6l21.6-38.3a9.2 9.2 0 0 0 0-7.6c-2.2-2.7-5.4-3.2-8.6-1.6l-1.6.5c-.5.5-1.6-.5-1.1-1.1L2.8 107a7.5 7.5 0 0 0-1.6-8.1 6.5 6.5 0 0 0-7.6-.5h-.5c-.5.5-1.6-.5-1.1-1.6l10.8-20a4 4 0 0 0-.5-4.8c-2.1-1.7-5.4-1.1-6.5 1l-15.6 27.5c-2.7 5.9 3.2 12.4 9.2 9.2l.5-.5c.5-.5 1.6.5 1.1 1.6L-30 148a7.3 7.3 0 0 0 1.6 8.6c2.2 1.6 4.9 1.6 7.6.5l1.1-.5c1.1-.5 2.2.5 1.6 1.1l-22.1 38.8a7.5 7.5 0 0 0 1.6 8.1c2.2 2.2 4.9 2.2 7.6 1.1 1.1-.5 1.6.5 1.1 1.1L-53.8 250a5.7 5.7 0 0 0 0 7 6 6 0 0 0 7.6 2.7l51.7-16.8 1.1 1.1v57.2c0 2.7 1.1 5.9 3.2 7.6l.5.5.5.5h22.3l.5-.5 1.6-1.1a8.1 8.1 0 0 0 2.2-5.9l.5-20.5a4.3 4.3 0 0 0-8.6 0v22.7l-1.1 1.1H15.8l-1.1-1.1v-63.7l.5-1.1 6.5-2.2h.5l6.5 2.2.5 1.1v24.3c0 2.2 1.6 3.8 4.3 3.8a3.7 3.7 0 0 0 3.8-3.8V244l1.6-1.1 51.8 16.7h2.2c4.9.6 8.1-5.3 6-9.1z"/><path d="M70.3 251.4h17.3v61.9H70.3z" style="fill:#e19974"/><path d="M78.5 271.6v41.6h9.1v-61.8l-17.3-.4h8.2v2.9h-8.2v16.5l4.5-1.6a2.9 2.9 0 0 1 3.7 2.8z" style="fill:#d77f4a"/><path d="m114.4 227.5 6.2 3.3a1.8 1.8 0 0 0 2.5-2.5l-19.8-35.5a1.8 1.8 0 0 1 2.5-2.5l7.4 3.7c1.6.8 3.3-1.2 2.5-2.9l-19.5-34.5a1.8 1.8 0 0 1 2.5-2.5l6.6 3.3a1.8 1.8 0 0 0 2.5-2.5l-15.3-27.6-12-21a1.9 1.9 0 0 0-3.3 0l-12 21-15.1 27.6a1.8 1.8 0 0 0 2.5 2.5l6.6-3.3a1.8 1.8 0 0 1 2.5 2.5l-19.5 34.6a1.8 1.8 0 0 0 2.5 2.5l7.4-3.7c1.6-.8 3.3 1.2 2.5 2.9l-19.8 35.4c-1.2 1.6.8 3.3 2.5 2.5l6.2-3.3A1.8 1.8 0 0 1 46 230l-21.9 39.1a1.9 1.9 0 0 0 2.1 2.9l51.5-16.9h2.5l51.5 16.9a1.9 1.9 0 0 0 2.1-2.9L111.9 230c-.8-1.3.8-3.3 2.5-2.5z" style="fill:#ade194"/><path d="M133.8 269.1 111.9 230a1.8 1.8 0 0 1 2.5-2.5l6.2 3.3a1.8 1.8 0 0 0 2.5-2.5l-19.8-35.5c-.8-1.6.8-3.7 2.5-2.9l7.4 3.7a1.6 1.6 0 0 0 2.1-2.5l-10.7-19.8a96.4 96.4 0 0 1-61.4 63.5l-19 34.2a1.9 1.9 0 0 0 2.1 2.9L77.8 255h2.5l51.4 17a1.9 1.9 0 0 0 2.1-2.9z" style="fill:#80d261"/><path d="m137.5 267.9-18.6-33.4c-.4-.4 0-1.2.8-.8 4.5 2.5 9.1-2.5 7-7L109.9 197c-.4-.4.4-1.2 1.2-.8l.8.4c1.6.8 4.1.8 5.4-.4a5.2 5.2 0 0 0 1.6-6.6l-16.1-28.5c-.4-.8 0-1.2.8-1.2l.4.4a5.1 5.1 0 0 0 5.4-.4 5.1 5.1 0 0 0 1.2-6.6l-15.2-27.7-12.4-21a4.5 4.5 0 0 0-4.1-2.5 5.7 5.7 0 0 0-4.5 2.5l-8.7 14.8A3.7 3.7 0 0 0 67 124a3.4 3.4 0 0 0 4.5-1.2l6.6-12h1.2c6.2 10.3 16.9 28.9 22.7 40 .4.4-.4 1.2-.8.8h-.4a5.6 5.6 0 0 0-6.2.4 5 5 0 0 0-.8 6.2l16.1 28.9c.4.4-.4 1.2-.8.8l-1.2-.4a5 5 0 0 0-6.2.8 5.6 5.6 0 0 0-.4 6.2l16.5 29.3a.9.9 0 0 1-1.2 1.2 4.8 4.8 0 0 0-6.6 6.6l19.4 34.6c.4.8-.4 1.2-.8 1.2l-48-15.2h-3.3l-47.9 15.3c-.4 0-1.2-.8-.8-1.2L48 231.6c2.5-4.1-2.5-9.1-6.6-6.6H41c-.4.4-1.2-.4-.8-1.2l16.5-29.3a7 7 0 0 0 0-5.8 5.1 5.1 0 0 0-6.6-1.2l-1.2.4c-.4.4-1.2-.4-.8-.8l16.1-28.9A5.8 5.8 0 0 0 63 152a4.9 4.9 0 0 0-5.8-.4h-.4c-.4.4-1.2-.4-.8-1.2l8.2-15.3a3.1 3.1 0 0 0-.4-3.7c-1.6-1.2-4.1-.8-4.9.8l-12 21c-2.1 4.5 2.5 9.5 7 7l.4-.4c.4-.4 1.2.4.8 1.2l-16.2 28.6a5.6 5.6 0 0 0 1.2 6.6 5.7 5.7 0 0 0 5.8.4l.8-.4c.8-.4 1.6.4 1.2.8l-16.8 29.7a5.8 5.8 0 0 0 1.2 6.2c1.6 1.6 3.7 1.6 5.8.8s1.2.4.8.8l-18.1 33a4.3 4.3 0 0 0 0 5.4 4.6 4.6 0 0 0 5.8 2.1l39.6-12.8.8.8v43.7a7.5 7.5 0 0 0 2.5 5.8l.4.4.4.4h16.9l.4-.4 1.2-.8a6.2 6.2 0 0 0 1.6-4.5l.4-15.7a3.3 3.3 0 1 0-6.6 0v17.3l-.8.8H74l-.8-.8v-48.7l.4-.8 4.9-1.6h.4l4.9 1.6.4.8V279c0 1.6 1.2 2.9 3.3 2.9a2.8 2.8 0 0 0 2.9-2.9v-16.1l1.2-.8 39.6 12.8h1.6c3.9.4 6.3-4.1 4.7-7z"/><path d="M371.7 251h19.2v68.4h-19.2z" style="fill:#e19974"/><path d="M380.9 273.3v46.1h10V251l-19.2-.5h9.1v3.2h-9.1V272l5-1.8a3.2 3.2 0 0 1 4.2 3.1z" style="fill:#d77f4a"/><path d="m420.5 224.5 6.8 3.6a2 2 0 0 0 2.7-2.7l-21.9-39.2a2 2 0 0 1 2.7-2.7l8.2 4.1c1.8.9 3.6-1.4 2.7-3.2l-21.4-38.3a2 2 0 0 1 2.7-2.7l7.3 3.6a2 2 0 0 0 2.7-2.7l-16.9-30.5-13-23.3a2.1 2.1 0 0 0-3.6 0l-13.2 23.3-16.9 30.5a2 2 0 0 0 2.7 2.7l7.3-3.6a2 2 0 0 1 2.7 2.7l-21.4 38.3a2 2 0 0 0 2.7 2.7l8.2-4.1c1.8-.9 3.6 1.4 2.7 3.2l-21.9 39.2c-1.4 1.8.9 3.6 2.7 2.7l6.8-3.6a2 2 0 0 1 2.7 2.7l-24.2 43.3a2.1 2.1 0 0 0 2.3 3.2l57-18.7h2.7l57 18.7a2.1 2.1 0 0 0 2.3-3.2l-24.2-43.3c-.6-1.3 1.2-3.6 3-2.7z" style="fill:#ade194"/><path d="m442 270.6-24.2-43.3a2 2 0 0 1 2.7-2.7l6.8 3.6a2 2 0 0 0 2.7-2.7l-21.9-39.2c-.9-1.8.9-4.1 2.7-3.2l8.2 4.1a1.8 1.8 0 0 0 2.3-2.7l-11.9-21.9a106.6 106.6 0 0 1-67.9 70.2l-21 37.8a2.1 2.1 0 0 0 2.3 3.2l57-18.7h2.7l57 18.7a2.1 2.1 0 0 0 2.5-3.2z" style="fill:#80d261"/><path d="m446.1 269.2-20.5-36.9c-.5-.5 0-1.4.9-.9 5 2.7 10-2.7 7.8-7.8l-18.7-32.8c-.5-.5.5-1.4 1.4-.9l.9.5c1.8.9 4.6.9 5.9-.5a5.7 5.7 0 0 0 1.8-7.3l-17.8-31.5c-.5-.9 0-1.4.9-1.4l.5.5a5.6 5.6 0 0 0 5.9-.5 5.7 5.7 0 0 0 1.4-7.3l-16.9-30.5-13.7-23.2a5 5 0 0 0-4.6-2.7 6.3 6.3 0 0 0-5 2.7l-9.6 16.4a4.1 4.1 0 0 0 1.4 5 3.8 3.8 0 0 0 5-1.4l7.3-13.2h1.4c6.8 11.4 18.7 31.9 25.1 44.2.5.5-.5 1.4-.9.9h-.5a6.2 6.2 0 0 0-6.8.5 5.5 5.5 0 0 0-.9 6.8l17.8 31.9c.5.5-.5 1.4-.9.9l-1.4-.5a5.5 5.5 0 0 0-6.8.9 6.2 6.2 0 0 0-.5 6.8l18.2 32.4a1 1 0 0 1-1.4 1.4 5.3 5.3 0 0 0-7.3 7.3l21.4 38.3c.5.9-.5 1.4-.9 1.4l-52.9-16.9h-3.6l-52.9 16.9c-.5 0-1.4-.9-.9-1.4l21.4-38.3c2.7-4.6-2.7-10-7.3-7.3h-.5c-.5.5-1.4-.5-.9-1.4l18.2-32.4a7.8 7.8 0 0 0 0-6.4c-1.8-2.3-4.6-2.7-7.3-1.4l-1.4.5c-.5.5-1.4-.5-.9-.9l17.8-31.9a6.4 6.4 0 0 0-1.4-6.8 5.5 5.5 0 0 0-6.4-.5h-.5c-.5.5-1.4-.5-.9-1.4l9.1-16.9a3.4 3.4 0 0 0-.5-4.1c-1.8-1.4-4.6-.9-5.5.9l-13.2 23.3c-2.3 5 2.7 10.5 7.8 7.8l.5-.5c.5-.5 1.4.5.9 1.4l-17.8 31.5a6.2 6.2 0 0 0 1.4 7.3c1.8 1.4 4.1 1.4 6.4.5l.9-.5c.9-.5 1.8.5 1.4.9l-18.7 32.8a6.4 6.4 0 0 0 1.4 6.8c1.8 1.8 4.1 1.8 6.4.9s1.4.5.9.9l-20 36.7a4.8 4.8 0 0 0 0 5.9 5.1 5.1 0 0 0 6.4 2.3l43.8-14.1.9.9v48.3c0 2.3.9 5 2.7 6.4l.5.5.5.5h18.7l.5-.5 1.4-.9a6.9 6.9 0 0 0 1.8-5l.5-17.3a3.6 3.6 0 1 0-7.3 0V315l-.9.9h-10.7l-.9-.9v-54l.5-.9 5.5-1.8h.5l5.5 1.8.5.9v20.5c0 1.8 1.4 3.2 3.6 3.2a3.1 3.1 0 0 0 3.2-3.2v-17.7l1.4-.9 43.6 14.1h1.8c4.1.4 6.9-4.6 5.1-7.8z"/></g></svg>