<svg viewBox="0 0 210.68 210.68" xmlns="http://www.w3.org/2000/svg"><path d="M67.869 65.313h39.476c4.143 0 7.5-3.358 7.5-7.5s-3.357-7.5-7.5-7.5H67.869a7.5 7.5 0 000 15zM142.81 81.994H67.869a7.5 7.5 0 000 15h74.941c4.143 0 7.5-3.358 7.5-7.5s-3.357-7.5-7.5-7.5zM67.869 128.68h53.367c4.143 0 7.5-3.358 7.5-7.5s-3.357-7.5-7.5-7.5H67.869a7.5 7.5 0 000 15zM142.81 145.37H67.869a7.5 7.5 0 000 15h74.941c4.143 0 7.5-3.358 7.5-7.5s-3.357-7.5-7.5-7.5z"/><path d="M174.42 18.144L158.474 2.197a7.497 7.497 0 00-10.607 0L137.225 12.84 126.582 2.197a7.501 7.501 0 00-10.608 0l-10.641 10.642L94.694 2.197a7.502 7.502 0 00-10.609.001L73.448 12.839 62.806 2.197a7.497 7.497 0 00-10.607 0L36.254 18.144a7.5 7.5 0 00-2.196 5.303v163.79c0 1.989.791 3.897 2.197 5.304L52.2 208.483a7.499 7.499 0 0010.605 0l10.644-10.642 10.645 10.642a7.498 7.498 0 0010.607-.002l10.634-10.638 10.641 10.639a7.499 7.499 0 0010.605 0l10.645-10.641 10.643 10.641c1.464 1.464 3.384 2.196 5.303 2.196s3.839-.732 5.303-2.196l15.945-15.942a7.497 7.497 0 002.197-5.304V23.446a7.507 7.507 0 00-2.197-5.303zm-12.804 165.99l-8.445 8.444-10.643-10.641a7.499 7.499 0 00-10.605 0l-10.644 10.641-10.642-10.641a7.494 7.494 0 00-5.304-2.196c-1.989 0-3.897.79-5.303 2.198l-10.634 10.638-10.643-10.64a7.5 7.5 0 00-10.605 0l-10.644 10.641-8.445-8.444V26.554l8.445-8.447L68.146 28.75a7.501 7.501 0 0010.608-.001l10.637-10.641L100.03 28.75a7.497 7.497 0 0010.608 0l10.641-10.643 10.644 10.643a7.5 7.5 0 0010.608 0l10.642-10.643 8.445 8.446v157.58z"/></svg>