<svg xmlns="http://www.w3.org/2000/svg" viewBox="0 0 1224 546" fill="#304ffe" xml:space="preserve"><path d="m934.2 114.7-85.8 33v46l58.2-22.4c16.7-6.4 27.7-22.4 27.7-40.3v-16.3zM851 436.6h68.4c1.6 0 2.9-1.3 2.9-2.9V203.8c0-1.6-1.3-2.9-2.9-2.9H851c-1.6 0-2.9 1.3-2.9 2.9v229.9c0 1.6 1.3 2.9 2.9 2.9zm-92.4-94.5c0-6.1 0-45.7-.1-80.1h52.4c1.6 0 2.9-1.3 2.9-2.9v-55.3c0-1.6-1.3-2.9-2.9-2.9h-52.3v-43.7c0-1.6-1.3-2.9-2.9-2.9h-69.5c-1.6 0-2.9 1.3-2.9 2.9.1 17.7 0 115.1 0 193.4 0 85.4 78.2 85.9 105.7 85.9h22.6c1.6 0 2.9-1.3 2.9-2.9v-51.3c0-1.6-1.3-2.9-2.9-2.9-24.3-.2-53-6.5-53-37.3zm-653.4 63.1c0 15.1-8.1 37.1-53.6 37.4-1.6 0-2.9 1.3-2.9 2.9v51.3c0 1.6 1.3 2.9 2.9 2.9h22.6c27.6 0 105.7-1 105.7-86.4 0-78.9-.1-190.4 0-209.5 0-1.6-1.3-2.9-2.9-2.9h-69c-1.6 0-2.9 1.3-2.9 2.9 0 23.6.1 187.1.1 201.4zm244.7-54.4c.1 19.6-11.7 30.9-32.5 30.9s-32.4-11.2-32.4-31c0-14.1.1-127.4 0-146.9 0-1.6-1.3-2.9-2.9-2.9h-68.5c-1.6 0-2.9 1.3-2.9 2.9.1 14.1 0 86.1 0 154.7 0 86.6 80.4 86.8 106.6 86.8 26.2 0 106.6 0 106.6-86.8V203.8c0-1.6-1.3-2.9-2.9-2.9h-68.4c-1.6 0-2.9 1.3-2.9 2.9l.2 147zm686.4-63.9c-.1-19.6 11.7-30.9 32.5-30.9s32.4 11.2 32.4 31c0 14.1-.1 127.4 0 146.9 0 1.6 1.3 2.9 2.9 2.9h68.4c1.6 0 2.9-1.3 2.9-2.9-.1-14.1 0-86.1 0-154.7 0-86.6-80.4-86.8-106.6-86.8-26.2 0-106.6 0-106.6 86.8v154.7c0 1.6 1.3 2.9 2.9 2.9h68.4c1.6 0 2.9-1.3 2.9-2.9l-.1-147zM604 299.7c-1.8-.5-45.4-8.2-47.4-8.6-19.5-3.6-32.3-9.8-32.3-22.3 0-8.3 6.4-22.1 32.1-22.1 27.9 0 31.4 16.9 31.7 24.9.1 1.6 1.3 2.8 2.9 2.8h59.8c1.6 0 3-1.3 2.9-3-.9-27.9-15.6-79.2-102.9-79.2-66.3 0-99.4 33.1-99.4 80 0 35.7 23.5 54.8 54.8 62.3 22 5.3 81.6 5.9 81.6 32.9 0 8.3-6.4 22-32.1 22-28.9 0-35.1-17.9-36-25.6-.2-1.5-1.4-2.5-2.9-2.5h-64.5c-1.7 0-3 1.3-2.9 3 .9 22.7 17.1 81.7 104.9 81.7 69.6 0 104.2-31.7 104.2-80 .4-35.6-23-59.1-54.5-66.3zM959.2 46.3l-110.9 42v46l83.1-31.4c16.8-6.4 27.8-22.4 27.8-40.4V46.3z"/></svg>