<svg fill="#304ffe" xmlns="http://www.w3.org/2000/svg" viewBox="0 0 1224 546"><path d="M961.4 74.8l-93.1 35.8v49.9l63.1-24.3c18.1-6.9 30-24.3 30-43.7V74.8zM871.2 424h74.2c1.7 0 3.1-1.4 3.1-3.1V171.5c0-1.7-1.4-3.1-3.1-3.1h-74.2c-1.7 0-3.1 1.4-3.1 3.1v249.4c0 1.7 1.4 3.1 3.1 3.1zM771 321.5c0-6.6 0-49.6-.1-86.9h56.8c1.7 0 3.1-1.4 3.1-3.1v-60c0-1.7-1.4-3.1-3.1-3.1H771V121c0-1.7-1.4-3.1-3.1-3.1h-75.4c-1.7 0-3.1 1.4-3.1 3.1.1 19.2 0 124.8 0 209.8 0 92.6 84.8 93.2 114.7 93.2h24.5c1.7 0 3.1-1.4 3.1-3.1v-55.6c0-1.7-1.4-3.1-3.1-3.1-26.5-.5-57.6-7.3-57.6-40.7zM62.2 390c0 16.4-8.8 40.2-58.1 40.6-1.7 0-3.1 1.4-3.1 3.1v55.6c0 1.7 1.4 3.1 3.1 3.1h24.5c29.9 0 114.7-1.1 114.7-93.7 0-85.6-.1-206.5 0-227.2 0-1.7-1.4-3.1-3.1-3.1H65.3c-1.7 0-3.1 1.4-3.1 3.1-.1 25.6 0 202.9 0 218.5zm265.5-59.1c.1 21.3-12.7 33.5-35.2 33.5s-35.1-12.2-35.1-33.6c0-15.3.1-138.2 0-159.3 0-1.7-1.4-3.1-3.1-3.1H180c-1.7 0-3.1 1.4-3.1 3.1.1 15.3 0 93.4 0 167.8 0 93.9 87.2 94.2 115.6 94.2s115.6 0 115.6-94.2V171.5c0-1.7-1.4-3.1-3.1-3.1h-74.2c-1.7 0-3.1 1.4-3.1 3.1v159.4zm744.5-69.3c-.1-21.3 12.7-33.5 35.2-33.5 22.5 0 35.1 12.2 35.1 33.6 0 15.3-.1 138.2 0 159.3 0 1.7 1.4 3.1 3.1 3.1h74.2c1.7 0 3.1-1.4 3.1-3.1-.1-15.3 0-93.4 0-167.8 0-93.9-87.2-94.2-115.6-94.2-28.4 0-115.6 0-115.6 94.2V421c0 1.7 1.4 3.1 3.1 3.1h74.2c1.7 0 3.1-1.4 3.1-3.1l.1-159.4zm-468.9 13.9c-2-.5-49.2-8.9-51.4-9.3-21.2-3.9-35-10.6-35-24.2 0-9 6.9-24 34.8-24 30.3 0 34.1 18.3 34.4 27 .1 1.7 1.4 3 3.1 3h64.9c1.7 0 3.2-1.4 3.1-3.2-1-30.3-16.9-85.9-111.6-85.9-71.9 0-107.8 35.9-107.8 86.8 0 38.7 25.5 59.4 59.4 67.6 23.9 5.8 88.5 6.4 88.5 35.7 0 9-6.9 23.9-34.8 23.9-31.3 0-38.1-19.4-39.1-27.8-.2-1.6-1.5-2.7-3.1-2.7h-70c-1.8 0-3.2 1.4-3.1 3.2 1 24.6 18.5 88.6 113.8 88.6 75.5 0 113-34.4 113-86.8.4-38.6-25-64.1-59.1-71.9zM988.6.7L868.3 46.3v49.9l90.1-34.1c18.2-6.9 30.2-24.3 30.2-43.8V.7z"/></svg>