<svg xmlns="http://www.w3.org/2000/svg" xmlns:xlink="http://www.w3.org/1999/xlink" viewBox="0 0 438.891 438.891"><path d="M347.968 57.503h-39.706V39.74c0-5.747-6.27-8.36-12.016-8.36h-30.824C258.108 10.483 239.822.034 218.924.034c-20.668-.777-39.467 11.896-46.498 31.347h-30.302c-5.747 0-11.494 2.612-11.494 8.36v17.763H90.923c-23.53.25-42.78 18.813-43.886 42.318v299.363c0 22.988 20.898 39.706 43.886 39.706h257.045c22.988 0 43.886-16.718 43.886-39.706V99.822c-1.106-23.506-20.356-42.068-43.886-42.32zm-196.44-5.224h28.735a11.496 11.496 0 009.927-9.404c3.094-13.474 14.915-23.146 28.735-23.5a29.78 29.78 0 0128.212 23.51 11.494 11.494 0 0010.45 9.404h29.78v41.796h-135.84V52.28zm219.43 346.906c0 11.494-11.494 18.808-22.988 18.808H90.923c-11.494 0-22.988-7.314-22.988-18.808V99.822C69 87.858 78.913 78.62 90.923 78.402h39.706v26.645c.552 5.854 5.622 10.233 11.494 9.927h154.122a11.492 11.492 0 0012.016-9.927V78.4h39.706c12.01.22 21.922 9.456 22.988 21.42v299.364z"/><use xlink:href="#prefix__B"/><use xlink:href="#prefix__C"/><use xlink:href="#prefix__B" y="-83.593"/><use xlink:href="#prefix__C" y="-83.592"/><path d="M179.217 317.16a10.45 10.45 0 00-14.629-.522l-33.437 31.87-14.106-14.63a10.45 10.45 0 00-14.629-.522 10.97 10.97 0 000 15.15l21.42 21.943a9.403 9.403 0 007.314 3.135 10.45 10.45 0 007.314-3.135l40.75-38.66a9.93 9.93 0 00.603-14.025c-.2-.2-.39-.41-.6-.604z"/><use xlink:href="#prefix__C" y="83.592"/><defs><path id="prefix__B" d="M179.217 233.57a10.45 10.45 0 00-14.629-.522l-33.437 31.87-14.106-14.63a10.45 10.45 0 00-14.629-.522 10.97 10.97 0 000 15.15l21.42 21.943a9.403 9.403 0 007.314 3.135 10.45 10.45 0 007.314-3.135l40.75-38.66a9.93 9.93 0 00.603-14.025 8.78 8.78 0 00-.601-.604z"/><path id="prefix__C" d="M329.16 256.034H208.997a10.45 10.45 0 00-10.449 10.449 10.45 10.45 0 0010.449 10.449H329.16a10.45 10.45 0 0010.449-10.449 10.45 10.45 0 00-10.449-10.449z"/></defs></svg>