<svg xmlns="http://www.w3.org/2000/svg" viewBox="0 0 216.5 59.9">
    <title>logo</title>
    <path
        d="M4.8,18.5,9,16.8h1.8V37.7a11.1,11.1,0,0,1,1.9-2.4A14.4,14.4,0,0,1,18.1,32a9.2,9.2,0,0,1,2.9-.5,10.9,10.9,0,0,1,4.8,1.1,11.6,11.6,0,0,1,3.8,2.9,13.5,13.5,0,0,1,2.5,4.2,14.8,14.8,0,0,1,.9,5.2,18.5,18.5,0,0,1-1.3,7,17.9,17.9,0,0,1-3.6,5.7,17,17,0,0,1-5.3,3.8,15.3,15.3,0,0,1-6.5,1.4,21.8,21.8,0,0,1-6.3-.9,15.6,15.6,0,0,1-5.2-2.7Zm6,38.7L12,58.2l1.5,1,1.8.7a8.5,8.5,0,0,0,2.3.3,7.2,7.2,0,0,0,3.8-1,9.2,9.2,0,0,0,2.9-2.8,14,14,0,0,0,1.9-4.3,21,21,0,0,0,.7-5.4,12.4,12.4,0,0,0-.7-4.2,11.2,11.2,0,0,0-1.9-3.4,8.9,8.9,0,0,0-2.8-2.3,7.3,7.3,0,0,0-3.4-.8l-2.1.3-2,.8-1.8,1.2a6.8,6.8,0,0,0-1.3,1.4Z"
        transform="translate(-4.4 -16.4)"
        style="fill:#ff9e4b;stroke:#000;stroke-miterlimit:10;stroke-width:0.8321978449821472px" />
    <path
        d="M60.1,62a5.5,5.5,0,0,1-2-1.7,4,4,0,0,1-.8-2.4l-2.1,1.6L53,61.1a12.3,12.3,0,0,1-2.6,1.1,11.6,11.6,0,0,1-3.3.4,8.5,8.5,0,0,1-3.2-.6A6.8,6.8,0,0,1,40,58.2a8,8,0,0,1-.5-3,7.8,7.8,0,0,1,.8-3.5A9.2,9.2,0,0,1,42.3,49a15.5,15.5,0,0,1,3.1-2.2,29.7,29.7,0,0,1,3.7-1.7l4.1-1.3,4.1-1.1V40.8a17.3,17.3,0,0,0-.3-3.5,6,6,0,0,0-.9-2.3,3.4,3.4,0,0,0-1.6-1.2,6.3,6.3,0,0,0-2.3-.4A5.4,5.4,0,0,0,50,34a6.3,6.3,0,0,0-1.9,1.3,6.9,6.9,0,0,0-1.3,2,8.6,8.6,0,0,0-.7,2.4H40.6A7.3,7.3,0,0,1,42,36.2a9.7,9.7,0,0,1,2.8-2.6,13.7,13.7,0,0,1,3.8-1.6,17.3,17.3,0,0,1,4.4-.6,18.1,18.1,0,0,1,4.9.6A8.4,8.4,0,0,1,61,33.7a5.7,5.7,0,0,1,1.7,2.5,9.9,9.9,0,0,1,.5,3.3V57.9a3.9,3.9,0,0,0,.8,2.4A5.5,5.5,0,0,0,66,62ZM57.3,44.6l-2.7.9-2.7,1.2-2.5,1.4a13.2,13.2,0,0,0-2.1,1.6,7.8,7.8,0,0,0-1.4,1.8,4.2,4.2,0,0,0-.5,2,5.4,5.4,0,0,0,.4,2.1,6,6,0,0,0,1.1,1.7,5,5,0,0,0,1.6,1.2,4.1,4.1,0,0,0,1.8.4l1.9-.3,1.8-.7,1.7-1,1.7-1.3Z"
        transform="translate(-4.4 -16.4)"
        style="fill:#ff9e4b;stroke:#000;stroke-miterlimit:10;stroke-width:0.8321978449821472px" />
    <path
        d="M101.1,33.6v2.5H95.4a11.1,11.1,0,0,1,1.4,2.7,9.1,9.1,0,0,1,.5,3,8.8,8.8,0,0,1-1,4.2,10,10,0,0,1-2.9,3.3,13.5,13.5,0,0,1-4.4,2.1,19.9,19.9,0,0,1-5.6.7l-2.3-.2-2.1-.5a6.9,6.9,0,0,0-1.4,1.6,3.4,3.4,0,0,0-.6,1.9,1.6,1.6,0,0,0,1,1.4,6.7,6.7,0,0,0,2.8.6l11.1.5a19.4,19.4,0,0,1,4.4.6,7.9,7.9,0,0,1,2.8,1.4,4.8,4.8,0,0,1,1.5,2,7.5,7.5,0,0,1,.4,2.6,9.3,9.3,0,0,1-1.2,4.7,10.6,10.6,0,0,1-3.5,3.6A18.1,18.1,0,0,1,90.8,75a30.9,30.9,0,0,1-7.4.8,42.1,42.1,0,0,1-6.5-.4,19.1,19.1,0,0,1-4.6-1.2,7.1,7.1,0,0,1-2.8-1.9,3.9,3.9,0,0,1-.9-2.5,4.8,4.8,0,0,1,.6-2.4,10.6,10.6,0,0,1,1.6-2.2l2.1-2,2.3-1.8-1.5-.6-1.2-.8a3.7,3.7,0,0,1-.8-1,2.4,2.4,0,0,1-.3-1.2,4.3,4.3,0,0,1,.5-1.9,7.8,7.8,0,0,1,1.3-1.9,11.4,11.4,0,0,1,1.9-1.6,10.1,10.1,0,0,1,2.4-1.2,11.2,11.2,0,0,1-4.7-3.6A8.6,8.6,0,0,1,71,42.2a9,9,0,0,1,1-4.2,10.8,10.8,0,0,1,2.8-3.4A13.8,13.8,0,0,1,79,32.4a15.3,15.3,0,0,1,5.2-.8l2.6.2,2.4.5,2,.7,1.4.8Zm-24,28.1-1.2,1.1-.8,1.3a6.3,6.3,0,0,0-.5,1.4,5.3,5.3,0,0,0-.2,1.3,3.1,3.1,0,0,0,.7,1.9,6,6,0,0,0,2.1,1.6,13.8,13.8,0,0,0,3.5,1.1,26.3,26.3,0,0,0,4.9.4,27.6,27.6,0,0,0,5.3-.5,17.6,17.6,0,0,0,4-1.2,7.9,7.9,0,0,0,2.5-1.7,2.9,2.9,0,0,0,.9-1.9,2.9,2.9,0,0,0-.5-1.7,3.7,3.7,0,0,0-1.5-1.2,8.7,8.7,0,0,0-2.3-.7l-3.1-.2H86.6l-4.1-.2L79.1,62Zm7.4-11a5.5,5.5,0,0,0,2.4-.6A6.7,6.7,0,0,0,89,48.6a7.7,7.7,0,0,0,1.4-2.3,7.7,7.7,0,0,0,.5-2.9,13.4,13.4,0,0,0-.6-4.1,11.2,11.2,0,0,0-1.6-3.3,7.8,7.8,0,0,0-2.4-2.2,5.7,5.7,0,0,0-2.9-.8,5.2,5.2,0,0,0-2.6.6A5,5,0,0,0,79,35.4,8.1,8.1,0,0,0,78,38a14.3,14.3,0,0,0-.3,3.2,13.8,13.8,0,0,0,.5,3.8A10.2,10.2,0,0,0,79.5,48a6.8,6.8,0,0,0,2.2,2A5.4,5.4,0,0,0,84.5,50.8Z"
        transform="translate(-4.4 -16.4)"
        style="fill:#ff9e4b;stroke:#000;stroke-miterlimit:10;stroke-width:0.8321978449821472px" />
    <path
        d="M115.7,60.6a6.6,6.6,0,0,0,2.2-.4,5.9,5.9,0,0,0,1.8-1,4.4,4.4,0,0,0,1.2-1.4,3.6,3.6,0,0,0,.4-1.7,4.2,4.2,0,0,0-.7-2.4,7.2,7.2,0,0,0-1.8-1.8,16.4,16.4,0,0,0-2.6-1.5l-2.9-1.4-2.9-1.5a12.5,12.5,0,0,1-2.6-1.9,8.7,8.7,0,0,1-1.8-2.5,7.5,7.5,0,0,1-.7-3.3,7.4,7.4,0,0,1,.8-3.3,7.9,7.9,0,0,1,2.1-2.6,10.2,10.2,0,0,1,3.2-1.7,12.8,12.8,0,0,1,4.1-.6l2.8.2a9.4,9.4,0,0,1,2.5.8,10.4,10.4,0,0,1,2.5,1.7,22.1,22.1,0,0,1,2.6,2.9l-2.2,2a12.7,12.7,0,0,0-3.8-4.1,8,8,0,0,0-4.5-1.4,8.3,8.3,0,0,0-2.3.3,5.8,5.8,0,0,0-1.8.8,4.1,4.1,0,0,0-1.2,1.3,3,3,0,0,0-.4,1.6,3.8,3.8,0,0,0,.7,2.3,7.7,7.7,0,0,0,2,1.8,18.2,18.2,0,0,0,2.8,1.5l3.2,1.4,3.2,1.5a14.5,14.5,0,0,1,2.8,1.9,8.6,8.6,0,0,1,2,2.5,6.9,6.9,0,0,1,.7,3.3,9,9,0,0,1-.7,3.6,7.7,7.7,0,0,1-2.1,2.9,10.4,10.4,0,0,1-3.6,1.9,16.2,16.2,0,0,1-5,.7l-2.7-.2a11.3,11.3,0,0,1-2.8-.8,13,13,0,0,1-2.8-1.7,15.3,15.3,0,0,1-2.8-2.8l2.4-2.2a25.4,25.4,0,0,0,2.1,2.6,11.4,11.4,0,0,0,2,1.8,7.5,7.5,0,0,0,2.1,1A8.8,8.8,0,0,0,115.7,60.6Z"
        transform="translate(-4.4 -16.4)"
        style="fill:#ff9e4b;stroke:#000;stroke-miterlimit:10;stroke-width:0.8321978449821472px" />
    <path
        d="M132,46.6v-.8l5.5-5.3,4-4.1,2.6-3.1a17.8,17.8,0,0,0,1.6-2.4,8.2,8.2,0,0,0,.8-1.9,7.7,7.7,0,0,0,.2-1.8,7.8,7.8,0,0,0-.4-2.5,6.3,6.3,0,0,0-1.2-2.1,5.7,5.7,0,0,0-1.9-1.5,6.3,6.3,0,0,0-2.7-.6,6.9,6.9,0,0,0-2.3.4,7.9,7.9,0,0,0-2.1,1.1,7,7,0,0,0-1.6,1.6,4.9,4.9,0,0,0-.8,2h-.8a8.6,8.6,0,0,1,.9-3.3,9.5,9.5,0,0,1,2-2.7,9.7,9.7,0,0,1,2.9-1.8,8.7,8.7,0,0,1,3.4-.7,10.9,10.9,0,0,1,3.9.6,8.3,8.3,0,0,1,2.8,1.7,7,7,0,0,1,1.7,2.5,8.1,8.1,0,0,1,.6,3,7.9,7.9,0,0,1-.3,2.2,11.3,11.3,0,0,1-1,2.3,19.9,19.9,0,0,1-1.8,2.6l-2.6,3L141.6,39l-4.5,4.3h15.3l-2.1,3.3Z"
        transform="translate(-4.4 -16.4)"
        style="fill:#ff9e4b;stroke:#000;stroke-miterlimit:10;stroke-width:0.6138605964815234px" />
    <path
        d="M173.1,62.7a16.4,16.4,0,0,1-6.3-1.2,15.6,15.6,0,0,1-5-3.3,14.9,14.9,0,0,1-4.5-10.8,16.3,16.3,0,0,1,1.2-6.2,15.7,15.7,0,0,1,3.3-5.1,15.3,15.3,0,0,1,5-3.4,15.9,15.9,0,0,1,6.3-1.2,17,17,0,0,1,6.3,1.1,15.5,15.5,0,0,1,5,3.1,14.3,14.3,0,0,1,3.3,4.7,14,14,0,0,1,1.2,5.7,17.2,17.2,0,0,1-1.2,6.4,16.3,16.3,0,0,1-3.3,5.2,15.6,15.6,0,0,1-5,3.5A15.2,15.2,0,0,1,173.1,62.7Zm1.1-2.2a6,6,0,0,0,3.2-.9,8.4,8.4,0,0,0,2.5-2.4,12.3,12.3,0,0,0,1.6-3.6,15.3,15.3,0,0,0,.6-4.3,31.6,31.6,0,0,0-.6-6.1,15.3,15.3,0,0,0-1.8-4.9,9,9,0,0,0-8.2-4.5,5.5,5.5,0,0,0-2.9.9,8.6,8.6,0,0,0-2.5,2.4,12.6,12.6,0,0,0-1.7,3.5,13.9,13.9,0,0,0-.6,4.3,26.3,26.3,0,0,0,.7,6.1,16.8,16.8,0,0,0,2,5,10.7,10.7,0,0,0,3.2,3.4A7.9,7.9,0,0,0,174.3,60.5Z"
        transform="translate(-4.4 -16.4)"
        style="fill:#ff9e4b;stroke:#000;stroke-miterlimit:10;stroke-width:0.8321978449821472px" />
    <path
        d="M199.6,31.5h1.7v6.1A20,20,0,0,1,207,33a12.8,12.8,0,0,1,5.9-1.5,6.3,6.3,0,0,1,2.9.7,7.7,7.7,0,0,1,2.4,1.9,9.3,9.3,0,0,1,1.6,2.9,10.5,10.5,0,0,1,.6,3.5V62h-5.9V41.6a8.8,8.8,0,0,0-.4-2.6,5.3,5.3,0,0,0-1-1.9,4.3,4.3,0,0,0-1.5-1.2,4.6,4.6,0,0,0-1.9-.4,6.8,6.8,0,0,0-2,.3l-2.2.9-2.2,1.4-2.1,1.8V62h-6V33.2Z"
        transform="translate(-4.4 -16.4)"
        style="fill:#ff9e4b;stroke:#000;stroke-miterlimit:10;stroke-width:0.8321978449821472px" />
</svg>