<svg xmlns="http://www.w3.org/2000/svg" stroke="#F2E30C" viewBox="0 0 140 30"><path d="M9 4.9h7.8a10.3 10.3 0 0 1 2.7.3 6.2 6.2 0 0 1 2.1 1A4.7 4.7 0 0 1 23 7.9a5.3 5.3 0 0 1 .5 2.4 4.9 4.9 0 0 1-.2 1.6l-.4 1.1-.7.9a5.1 5.1 0 0 1 1.1 1.1 6.5 6.5 0 0 1 .8 1.4 5.4 5.4 0 0 1 .4 2.1 6.5 6.5 0 0 1-.5 2.6 5.6 5.6 0 0 1-1.5 2 6.4 6.4 0 0 1-2.3 1.3 10 10 0 0 1-3 .4H9zm7.3 17.6a5.7 5.7 0 0 0 3.9-1.1 3.9 3.9 0 0 0 1.3-3 3.3 3.3 0 0 0-.5-2 4.8 4.8 0 0 0-1.1-1.2 4.8 4.8 0 0 0-1.6-.7 3.7 3.7 0 0 0 2.2-1.7 3.3 3.3 0 0 0 .4-1.7 3.4 3.4 0 0 0-1.2-2.9 5.1 5.1 0 0 0-3.3-1H12v15.3zm-3.5-8.3V8h3.5a3.9 3.9 0 0 1 2.8.9 3 3 0 0 1 .9 2.2 3 3 0 0 1-.9 2.2 3.9 3.9 0 0 1-2.8.9zm0 7.6v-6.9h3.5l1.7.2 1.4.6a2.9 2.9 0 0 1 .9 1.1 3.3 3.3 0 0 1 .3 1.6 2.9 2.9 0 0 1-1.1 2.6 5.7 5.7 0 0 1-3.2.8zM17.4 11q0-1.4-1.5-1.4h-.7v2.8h.7q1.5-.1 1.5-1.4zm-1.5 9.2q2.3 0 2.3-1.7t-2.3-1.7h-.7v3.5zM31.8 4.9h4.8l7.6 20h-6.3l-.7-1.8h-6l-.7 1.8h-6.3zm-3.1 17.6.6-1.5h9.9l.6 1.5h.8L34.8 7.3h-1.2l-5.7 15.2zM34.2 8l4.7 12.3h-9.4zm1.4 10.7-1.4-3.5-1.3 3.5zm21.8-7a3.7 3.7 0 0 0-1.3-.7l-1.6-.3a3.9 3.9 0 0 0-1.6.3 3.8 3.8 0 0 0-1.2.9 4 4 0 0 0-.8 1.3 4.6 4.6 0 0 0-.3 1.7 4.3 4.3 0 0 0 .3 1.7 4 4 0 0 0 .9 1.3 4.1 4.1 0 0 0 1.3.9 4.3 4.3 0 0 0 1.6.3 4 4 0 0 0 1.9-.4 4.4 4.4 0 0 0 1.4-1.2h-1.8v-4.2h7.7V20a11 11 0 0 1-1.6 2.2 10.5 10.5 0 0 1-2.1 1.7 10.3 10.3 0 0 1-2.6 1.1 10.5 10.5 0 0 1-13.4-10.1 10.7 10.7 0 0 1 .8-4.1 10.5 10.5 0 0 1 2.1-3.3 10 10 0 0 1 3.2-2.2 9.9 9.9 0 0 1 4-.8 11.3 11.3 0 0 1 2.9.3l2.1.8a7.6 7.6 0 0 1 1.7.9zm.3-3.9-.9-.3-1-.2h-1.2a7.7 7.7 0 0 0-3 .6 7.4 7.4 0 0 0-2.4 1.6 7.2 7.2 0 0 0-1.6 2.4A8.1 8.1 0 0 0 47 15a7.9 7.9 0 0 0 .6 3.1 7.2 7.2 0 0 0 1.7 2.4 7.7 7.7 0 0 0 2.4 1.5 7.8 7.8 0 0 0 3 .6 7.3 7.3 0 0 0 3.8-1 8 8 0 0 0 2.7-2.6v-3.9H58v.7h2.4v3a6.8 6.8 0 0 1-5.7 3 7.2 7.2 0 0 1-2.7-.5 6.7 6.7 0 0 1-2.2-1.4 6.6 6.6 0 0 1-1.5-2.2 7.1 7.1 0 0 1-.5-2.8 7.3 7.3 0 0 1 .5-2.8 6.6 6.6 0 0 1 1.4-2.2 6.3 6.3 0 0 1 2.1-1.4 7.1 7.1 0 0 1 2.8-.5h1l.8.2.8.2zM65 18.7l1.4.3 1.4.2h1.5q1.4 0 1.4-1a1.1 1.1 0 0 0-.4-.8l-1.1-.9-1.4-1.1-1.4-1.4a7.2 7.2 0 0 1-1.1-1.8 5.6 5.6 0 0 1-.4-2.2 5.8 5.8 0 0 1 .5-2.5 5 5 0 0 1 1.4-1.8 6.3 6.3 0 0 1 2.2-.9 8.8 8.8 0 0 1 2.6-.4h2.7l1.3.2v5.6h-2.7l-.4.2a.5.5 0 0 0-.2.4q0 .2.4.6l1 .8 1.3 1.3a8.9 8.9 0 0 1 1.3 1.5 8.4 8.4 0 0 1 1 1.8 6.1 6.1 0 0 1 .4 2.3 7.2 7.2 0 0 1-.4 2.5 5.3 5.3 0 0 1-1.3 2 6.2 6.2 0 0 1-2.3 1.3 9.7 9.7 0 0 1-3.3.5h-2.1l-1.7-.4-1.6-.3zm2.5 3.6.9.2h1.8l1.6-.2a4.1 4.1 0 0 0 1.4-.6 3.3 3.3 0 0 0 1-1.2 3.6 3.6 0 0 0 .4-1.7 3.3 3.3 0 0 0-.4-1.7 7.7 7.7 0 0 0-1.1-1.5l-1.4-1.4-1.4-1.2-1.1-1.4a2.5 2.5 0 0 1-.4-1.4 2.1 2.1 0 0 1 .7-1.7 3.4 3.4 0 0 1 2.1-.5h1.5v-.7h-1.4A4.6 4.6 0 0 0 69 8a2.6 2.6 0 0 0-1 2.3 3 3 0 0 0 .4 1.6 7.9 7.9 0 0 0 1.1 1.4l1.4 1.4 1.5 1.3a7.4 7.4 0 0 1 1.1 1.4 2.9 2.9 0 0 1 .4 1.5A2.6 2.6 0 0 1 73 21a4.3 4.3 0 0 1-2.7.8l-1.9-.2h-.9zM82 9.1a9 9 0 0 0 .6-1.4 3.2 3.2 0 0 0 .1-.9q0-1.6-2-1.6h-1V.8H82l2.3.3a6.1 6.1 0 0 1 2 .8 4.4 4.4 0 0 1 1.4 1.5 4.6 4.6 0 0 1 .5 2.3 5.8 5.8 0 0 1-.1 1.3 9 9 0 0 1-.4 1.4L87 9.8l-1.1 2.1-.3.6h3l-1.4 4.2H78zm4 5.7.2-.6h-3.9L85 9.1a12.6 12.6 0 0 0 .7-1.6 4.8 4.8 0 0 0 .3-1.6 2.9 2.9 0 0 0-1-2.4 4.1 4.1 0 0 0-2.6-.8H82v.6h.3a3.3 3.3 0 0 1 2.2.7 2.4 2.4 0 0 1 .8 2 4.5 4.5 0 0 1-.2 1.4 10.9 10.9 0 0 1-.7 1.6l-3.1 5.9zm3.5.1a10.2 10.2 0 0 1 .8-4.1 10.5 10.5 0 0 1 5.6-5.6 10.5 10.5 0 0 1 8.2 0 10.5 10.5 0 0 1 5.6 5.6 10.5 10.5 0 0 1 0 8.2 10.5 10.5 0 0 1-5.6 5.6 10.5 10.5 0 0 1-8.2 0 10.5 10.5 0 0 1-5.6-5.6 10.2 10.2 0 0 1-.8-4.1zm2.8 0a7.5 7.5 0 0 0 .6 3A7.7 7.7 0 0 0 97 22a7.7 7.7 0 0 0 6 0 7.7 7.7 0 0 0 4.1-4.1 7.7 7.7 0 0 0 0-6 7.7 7.7 0 0 0-4.1-4.1 7.7 7.7 0 0 0-6 0 7.7 7.7 0 0 0-4.1 4.1 7.5 7.5 0 0 0-.6 3zm7.7 6.9a6.7 6.7 0 0 1-2.7-.5 7 7 0 0 1-3.7-3.7 6.9 6.9 0 0 1 0-5.4 7 7 0 0 1 3.7-3.7 6.9 6.9 0 0 1 5.4 0 7 7 0 0 1 3.7 3.7 6.9 6.9 0 0 1 0 5.4 7 7 0 0 1-3.7 3.7 6.7 6.7 0 0 1-2.7.5zm-4.2-6.9a4.1 4.1 0 0 0 .3 1.6 4.2 4.2 0 0 0 2.2 2.2 4.2 4.2 0 0 0 3.3 0 4.2 4.2 0 0 0 2.2-2.2 4.2 4.2 0 0 0 0-3.3 4.2 4.2 0 0 0-2.2-2.2 4.2 4.2 0 0 0-3.3 0 4.2 4.2 0 0 0-2.2 2.2 4.1 4.1 0 0 0-.3 1.7zm16.4-10h5.3l5.5 7.7V4.9h6.3v20H124l-5.5-7.7v7.7h-6.3zm3.6 17.6V8.6l9.9 13.9h.8V7.3h-.8v13.8l-10-13.8h-.8v15.2zM133 22h3v3h-3z" fill="#343434"/></svg>