<svg viewBox="0 0 224.55 224.55" xmlns="http://www.w3.org/2000/svg"><path d="M223.48 108.41c-1.779-2.96-44.35-72.503-111.2-72.503S2.86 105.45 1.08 108.41a7.499 7.499 0 000 7.729c1.779 2.96 44.35 72.503 111.2 72.503s109.42-69.543 111.2-72.503a7.499 7.499 0 000-7.729zm-111.2 65.232c-49.925 0-86.176-47.359-95.808-61.374 9.614-14.032 45.761-61.36 95.808-61.36 49.925 0 86.176 47.359 95.808 61.374-9.614 14.031-45.761 61.36-95.808 61.36z"/><path d="M112.27 61.731c-27.869 0-50.542 22.674-50.542 50.543 0 27.868 22.673 50.54 50.542 50.54 27.868 0 50.541-22.672 50.541-50.54 0-27.869-22.672-50.543-50.541-50.543zm0 86.083c-19.598 0-35.542-15.943-35.542-35.54 0-19.599 15.944-35.543 35.542-35.543s35.541 15.944 35.541 35.543c0 19.597-15.943 35.54-35.541 35.54z"/><path d="M112.27 92.91c-10.702 0-19.372 8.669-19.372 19.364 0 10.694 8.67 19.363 19.372 19.363 10.703 0 19.373-8.669 19.373-19.363 0-10.695-8.67-19.364-19.373-19.364z"/></svg>