<svg xmlns="http://www.w3.org/2000/svg" viewBox="0 0 512 512"><linearGradient id="prefix__a" x1="50%" y1="0%" x2="50%" y2="100%"><stop offset="0%" stop-color="#f79533"/><stop offset="20%" stop-color="#f37055"/><stop offset="40%" stop-color="#ef4e7b"/><stop offset="60%" stop-color="#a166ab"/><stop offset="80%" stop-color="#5073b8"/><stop offset="100%" stop-color="#1098ad"/></linearGradient><path fill="url(#prefix__a)" d="M243.3 0h4.3c18.5 1.2 37 6.5 52.5 16.8 2.9 1.8 5.6 4.7 9.3 3.9 12.5-1.6 25.4 1 36.3 7.4C359.3 36 369.6 49.6 373 65c1.9 7.8 1.6 16 1.6 24 0 18-.1 35.9 0 53.9 5 5.2 8.8 11.8 9.3 19.1 1.2 11.3-5.6 22.2-15.1 27.9-3.9 2.7-8.6 3.7-13 5.3-.6 2.9-.4 5.9-.6 8.8-1.8 22.4-11.2 44.3-26.8 60.6-7.4 8.2-16.5 14.6-26.1 20v12.3c2.6 1.8 17.6 12.9 23.4 14.5 16.8 4.9 33.6 9.9 50.5 14.8l1.1.3c8.8 2.4 17.5 5.9 24.5 11.9 7.3 6.1 12.7 14.5 15.3 23.7 1.3 4.2 2.1 8.6 2.9 13 6.6 34 13.5 67.9 19.9 101.9 2.1 9.6-.1 20.6-7.5 27.4-5.5 5.2-13.2 7.2-20.5 7.7H216.2c-1.9-.7-3.9-1.5-5.1-3.2-2.2-3.1-1.6-7.9 1.6-10.1 1.8-1.5 4.2-1.5 6.4-1.6h138v-69c-.3-3.9 1.8-8.2 5.9-8.9 4.8-1.3 9.5 3.1 9 8 .2 23.3 0 46.7.1 70 12.3 0 24.6.1 36.9 0 4.1-.3 8.7-.2 12.2-2.8 2.9-2.1 4.1-5.8 4.3-9.2.3-4.8-1-9.5-1.8-14.1-6.7-33.4-13.3-66.8-20-100.2-1.3-6.4-3.9-12.7-8.4-17.6-4.8-5.4-11.3-9-18.2-10.9-17.9-5.2-35.7-10.5-53.6-15.8-4.6 12.5-9 25.2-13.5 37.8-1.8 5.3-6.5 9.7-12.2 10.3-2.5.4-5.5-.1-7.4 1.9-5.5 4.8-11.1 9.7-16.6 14.5-3.8 3.3-7.6 7.1-12.6 8.4-6.2 1.8-13.2 0-18-4.2-7.2-6.2-14.2-12.5-21.4-18.7-1.8-1.9-4.4-1.6-6.8-1.9-5.6-.4-10.7-4.5-12.5-9.7-4.7-12.8-9-25.7-13.9-38.4-18.4 5.6-36.9 10.8-55.3 16.3-7.8 2.4-15 7.4-19.5 14.3-3.5 5.1-5 11.3-6.2 17.4-6.6 33.6-13.5 67.3-20.1 100.9-.9 4.8-1.8 9.8-.1 14.5 1.2 3.3 4.2 5.8 7.6 6.5 4.6 1 9.3.9 13.9.9h31.2v-69c-.2-3.8 1.7-8.1 5.8-8.9 4.8-1.3 9.6 3.1 9.1 7.9.2 23.3 0 46.7 0 70 9 .1 17.9-.2 26.9.1 4.6-.2 8.5 4.2 7.5 8.7-.4 3.4-3.6 5.5-6.7 6.2h-81.5c-9.1-.3-18.9-3.3-24.4-11-6.7-8.9-6.1-20.8-3.7-31.1l18.3-91.8c1.7-8.4 3-17 6.9-24.7 6-12.3 17.7-21.2 30.6-25.2l57.9-17.1c2.7-.8 5.2-2.1 7.4-3.8 5.1-3.5 10.2-6.9 15.3-10.5v-12.7c-5.6-3.7-11.5-7-16.5-11.5-23-18.7-36.3-48.1-36.5-77.6-5.2-1.4-10.4-3-14.8-6.2-8.7-5.9-14.8-16.3-13.7-27 .4-7.3 4.3-13.8 9.3-19 .1-11 0-21.9 0-32.9.1-9.5.6-19.2 3.1-28.5 1.6-5 8.8-6.3 12.2-2.4 2.5 2.3 2.1 5.9 1.6 8.9-3 15.3-1.5 30.9-1.9 46.4 1.5-.4 3-.7 4.5-1.1 1.6-2.6 3.2-5.5 5.9-7 5.4-3.3 11.9-2.6 17.9-3.3 26.9-2.7 53.2-9.1 79-17.1 11.9-3.5 23.3-8.3 35-12.1 8-2.7 16.8-.1 23.2 4.9 9.6 7.4 19.1 14.9 28.7 22.3 4.1 3.1 6.6 7.7 8.2 12.5 1.5.2 2.9.5 4.4.7V79.4c.1-11-4-22-11.6-30-8.9-9.5-22.2-14.9-35.2-13.5-3.3.3-6.5 1.2-9.8.9-2.5-.7-4.5-2.4-6.6-3.9-19.3-14.6-44.8-20.3-68.6-16.1-23.4 3.8-45.1 17.5-58.6 37-2.1 3-5.1 6.6-9.3 5.7-5.1-.6-8-7-5.1-11.2 7-11 16.3-20.6 26.9-28.2C199.6 6.9 221.4.2 243.3 0m52.8 109.2c-39.9 15.4-81.7 26.6-124.4 29.5v56.2c.1 28.3 14.8 56.3 38.6 71.8 14.9 10.5 33.6 14.7 51.7 13.5 16-1.4 32-6.4 44.8-16.4 15.8-11.8 27.3-29.3 31.5-48.6 2.6-10.5 2.3-21.4 2.3-32.2-.1-13.7.2-27.3 0-41-.2-3.1.3-7-2.6-9-10.2-7.9-20.2-15.9-30.5-23.6-3.3-2.6-7.8-1.8-11.4-.2m-150.5 47.4c-3 4.4-3.1 10.5-.1 14.9 2.5 4 6.8 6.4 11.2 7.7 0-10.1.1-20.3 0-30.4-4.3 1.7-8.6 3.8-11.1 7.8m210.1-7.7c-.1 10.2-.1 20.5-.1 30.7 4-1.6 8.2-3.6 10.7-7.3 3.4-4.5 3.7-11.2.3-15.8-2.5-3.9-6.7-6-10.9-7.6M224.8 290.7c.1 3.5-.5 7.2.9 10.5 6.2 14.6 12.3 29.2 18.4 43.8h24.1c6-14.3 11.9-28.7 18-43 1.7-3.5 1.1-7.5 1.1-11.2-20.2 6.6-42.4 6.5-62.5-.1M202.5 320c4.7 13.3 9.5 26.6 14.3 39.8 4.4-3.2 8.7-6.5 13.1-9.7-5.3-12.6-10.5-25.2-15.8-37.8-4 2.5-7.8 5.1-11.6 7.7m95.6-7.7c-5.2 12.6-10.5 25.2-15.8 37.8 4.4 3.2 8.8 6.4 13.1 9.7 4.9-13.2 9.5-26.5 14.3-39.7-3.8-2.7-7.6-5.4-11.6-7.8m-64.9 54c6.1 5.4 12.2 10.8 18.3 16.1 1.5 1.2 3.2 2.9 5.4 2.4 1.6-.5 2.9-1.8 4.2-2.8 6-5.3 12-10.5 18-15.7-3-2-5.6-4.9-9-6.1-9.3-.2-18.7-.2-28 .1-3.4 1.3-5.9 4-8.9 6z"/></svg>