<svg xmlns="http://www.w3.org/2000/svg" viewBox="0 0 300 137.1" xml:space="preserve" fill="#ff392e"><path d="M52.1 24.5c-1.7 1.1-5.9 4.9-9.3 8.5l-6 6.5h11.7v19.2h15.4V39.5h10.7l-7.7-7.9c-4.2-4.4-8.6-8.2-9.7-8.5-1.2-.3-3.4.2-5.1 1.4zm62 12.3c0 3 .4 3.8 2 3.8 1.9 0 2 .7 2 11.2V63h8.2V52.3h10.3V63h8.2V33.1h-8.2v10.6h-5.1c-5 0-5.1-.1-5.1-3.3 0-5.8-1.6-7.3-7.1-7.3h-5.1c-.1 0-.1 3.7-.1 3.7zm41.7-1.8c-3.1 1.9-6.9 9.1-6.9 12.8 0 4 2.7 9.2 6.2 12.4 3.1 2.7 4 3 9.8 2.6 5.7-.3 7-.8 9.6-3.7 6-6.4 5.9-16.4-.5-22.6-3.3-3-4.3-3.4-9.5-3.4-3.6 0-6.7.8-8.7 1.9zm13.6 8.3c1.2 1.6 2.1 3.7 2.1 4.7 0 3.1-4 7.4-7 7.4-3.6 0-7.4-3.9-7.4-7.7.1-6.7 8.3-9.7 12.3-4.4zm14.5 4.7v15h10.3c9.6 0 10.5-.2 12.8-2.7 3.1-3.1 3.4-8.2.7-11-1.6-1.7-1.7-2.4-.5-3.9 1.5-2.1 1.7-6.7.5-8.6-1.6-2.7-5.7-3.7-14.5-3.7h-9.3V48zm16.7-7.2c.9 2.8-.6 4-5 4-4.1 0-4.5-.2-4.5-2.7s.4-2.7 4.5-2.7c2.8.1 4.7.6 5 1.4zm-.5 10.3c.8.5 1.2 1.8 1 2.8-.2 1.6-1.5 2.1-5.2 2.4-4.5.3-4.9.1-4.9-2.2 0-1.4.3-2.8.7-3.2 1-1.1 6.7-.9 8.4.2zm21.8-15.6c-.5 1.4-2.8 7.4-5.2 13.7-2.4 6.1-4.5 11.8-4.9 12.5-.4.9.7 1.4 3.7 1.4 3.6 0 4.4-.5 5.2-2.7.9-2.5 1.6-2.7 7.1-2.7 5.6 0 6.1.2 6.8 2.7.5 2.4 1.2 2.7 5.1 2.7h4.4l-2.8-7.2c-1.6-3.9-4.1-10.6-5.7-14.9l-2.8-7.7h-4.9c-4.3-.2-5.3.1-6 2.2zm7.1 7.7c.5 1.5 1.4 3.9 1.6 5.3.6 2.5.3 2.7-3.1 2.7-2 0-3.7-.1-3.7-.3 0-1.1 3.4-10.4 3.7-10.4s1 1.3 1.5 2.7zM20 57c-10.1 10.7-10.1 12.3.3 23l7.7 7.9V68.5c0-10.6-.1-19.4-.3-19.4-.2 0-3.8 3.5-7.7 7.9zm63.3 11.1c0 10.6.4 19.4.8 19.4.5 0 4.2-3.5 8.2-7.9 9.9-10.6 9.8-11.5-.8-22.5l-8.2-8.5v19.5zm74.2 6.5c-7.1 3.4-10 11.8-6.7 19.7 2.4 5.4 5.7 8.1 11.3 8.9 12 1.7 20.5-9.3 16-20.8-3.1-8.4-12.3-11.8-20.6-7.8zm12 8.6c4.3 4.5 1.1 12-5.1 12-6.2 0-9.4-7.6-5.1-12 1.1-1.2 3.4-2.1 5.1-2.1 1.7 0 4 .9 5.1 2.1zm-55.4-5.9c0 3 .4 3.8 2 3.8 1.9 0 2 .7 2 11.2v11.2h8.2V81.1h10.3v22.4h8.3l-.3-14.7-.4-14.7-15-.3-15.2-.3c.1.1.1 3.8.1 3.8zm69.8 11.2v14.9H225V73.6h-8.1l-.3 10.9-.3 11-3.8.3-3.9.3V73.6h-8.2V96h-8.2V73.6H184l-.1 14.9zM229 77.3v3.8h10.3v22.4h7.1V81.1h10.3v-7.4H229v3.6zm31.9 10.1c-2.9 7.7-5.3 14.4-5.3 14.9 0 .6 1.7 1.1 3.9 1.1 3.4 0 4-.5 5-3.2 1.1-3 1.5-3.2 7-3.2 5.4 0 5.9.1 6.8 3.2 1 2.7 1.6 3.2 5.1 3.2 2.1 0 4-.3 4-.7 0-.5-2.5-7.1-5.3-14.9l-5.4-14.2h-10.4l-5.4 13.8zm12.5-1.5 1.6 4.8h-3.6c-1.9 0-3.5-.5-3.5-.9 0-1.3 2.9-8.6 3.5-8.6.3-.1 1.2 2 2 4.7zM48.5 87.4V97H36.7l8.3 8.5c6.3 6.5 9 8.5 11.2 8.5 2.1 0 4.9-2 11.2-8.5l8.3-8.5H63.9V77.9H48.5v9.5z"/></svg>