<svg xmlns="http://www.w3.org/2000/svg" viewBox="0 0 300 137.1" fill="#ff392e"><path d="M43.2 18.5c-1.9 1.2-6.4 5.3-10.1 9.3l-6.6 7.1h12.8v20.9h16.8V34.9h11.7l-8.4-8.6c-4.6-4.8-9.4-9-10.6-9.3-1.3-.3-3.7.2-5.6 1.5zM110.9 32c0 3.3.4 4.1 2.2 4.1 2.1 0 2.2.8 2.2 12.2v12.2h9V48.9h11.2v11.6h9V27.9h-9v11.6h-5.6c-5.5 0-5.6-.1-5.6-3.6 0-6.3-1.7-8-7.8-8h-5.6V32zm45.5-2c-3.4 2.1-7.5 9.9-7.5 14 0 4.4 2.9 10 6.8 13.5 3.4 3 4.4 3.3 10.7 2.8 6.2-.3 7.6-.9 10.5-4 6.6-7 6.4-17.9-.6-24.7-3.6-3.3-4.7-3.7-10.4-3.7-4 0-7.4.9-9.5 2.1zm14.8 9.1c1.3 1.7 2.3 4 2.3 5.1 0 3.4-4.4 8.1-7.6 8.1-3.9 0-8.1-4.3-8.1-8.4.1-7.3 9-10.6 13.4-4.8zm15.8 5.1v16.3h11.2c10.5 0 11.5-.2 14-2.9 3.4-3.4 3.7-9 .8-12-1.8-1.9-1.9-2.6-.6-4.3 1.6-2.3 1.9-7.3.6-9.4-1.8-2.9-6.2-4-15.8-4H187v16.3zm18.2-7.9c1 3.1-.7 4.4-5.5 4.4-4.5 0-4.9-.2-4.9-2.9s.4-2.9 4.9-2.9c3.1 0 5.2.6 5.5 1.4zm-.5 11.3c.9.6 1.3 2 1.1 3.1-.2 1.7-1.6 2.3-5.7 2.6-4.9.3-5.3.1-5.3-2.4 0-1.5.3-3.1.8-3.5 1-1.2 7.3-1 9.1.2zm23.8-17.1c-.6 1.5-3.1 8.1-5.7 14.9-2.6 6.7-4.9 12.9-5.3 13.6-.4 1 .8 1.5 4 1.5 3.9 0 4.8-.5 5.7-2.9 1-2.7 1.7-2.9 7.8-2.9s6.7.2 7.4 2.9c.6 2.6 1.3 2.9 5.6 2.9h4.8l-3.1-7.9c-1.7-4.3-4.5-11.6-6.2-16.3l-3.1-8.4H235c-4.7 0-5.7.4-6.5 2.6zm7.7 8.5c.6 1.6 1.5 4.3 1.8 5.8.7 2.7.3 2.9-3.4 2.9-2.2 0-4-.1-4-.3 0-1.2 3.7-11.3 4-11.3s1.1 1.3 1.6 2.9zM8.2 54c-11 11.7-11 13.4.3 25.1l8.4 8.6V66.6c0-11.6-.1-21.2-.3-21.2-.2 0-4.1 3.8-8.4 8.6zm69.1 12.1c0 11.6.4 21.2.9 21.2.6 0 4.6-3.8 9-8.6 10.8-11.6 10.7-12.5-.9-24.6l-9-9.3v21.3zm80.9 7.1c-7.7 3.7-10.9 12.9-7.3 21.5 2.6 5.9 6.2 8.8 12.3 9.7 13.1 1.9 22.4-10.2 17.5-22.7-3.4-9.2-13.4-12.9-22.5-8.5zm13.1 9.4c4.7 4.9 1.2 13.1-5.6 13.1s-10.3-8.3-5.6-13.1c1.2-1.3 3.7-2.3 5.6-2.3s4.4 1 5.6 2.3zm-60.4-6.4c0 3.3.4 4.1 2.2 4.1 2.1 0 2.2.8 2.2 12.2v12.2h9V80.3h11.2v24.4h9.1l-.3-16-.4-16-16.4-.3-16.6-.3v4.1zM187 88.4v16.3h44.8V72.1H223l-.3 11.9-.3 12-4.1.3-4.3.3V72.1h-9v24.4h-9V72.1h-9v16.3zm49.2-12.2v4.1h11.2v24.4h7.8V80.3h11.2v-8.1h-30.2v4zm34.9 11c-3.2 8.4-5.8 15.7-5.8 16.3 0 .7 1.9 1.2 4.3 1.2 3.7 0 4.4-.5 5.5-3.5 1.2-3.3 1.6-3.5 7.6-3.5 5.9 0 6.4.1 7.4 3.5 1.1 3 1.8 3.5 5.6 3.5 2.3 0 4.4-.3 4.4-.8s-2.7-7.8-5.8-16.3l-5.9-15.5H277l-5.9 15.1zm13.6-1.7 1.8 5.2h-3.9c-2.1 0-3.8-.5-3.8-1 0-1.4 3.2-9.4 3.8-9.4.2 0 1.2 2.3 2.1 5.2zM39.3 87.2v10.5H26.4l9.1 9.3c6.9 7.1 9.8 9.3 12.2 9.3 2.3 0 5.3-2.2 12.2-9.3l9.1-9.3H56.1V76.8H39.3v10.4z"/></svg>