<svg xmlns="http://www.w3.org/2000/svg" viewBox="0 0 128 128" style="enable-background:new 0 0 128 128" xml:space="preserve"><path d="M110.3 52.7 72.5 26c-.8-.6-1.9-.7-2.8-.2-.9.5-1.4 1.4-1.4 2.4v13.4C55.7 42.3 44 47.5 35 56.4 25.5 66 20.2 78.8 20.2 92.3V103c0 1.5 1.2 2.7 2.7 2.7 1.2 0 2.2-.8 2.6-1.9l.4-1.4c5.5-19.2 22.7-32.8 42.4-34v13.3c0 1 .6 1.9 1.4 2.4.9.5 2 .4 2.8-.2l37.8-26.7c.7-.5 1.1-1.3 1.1-2.2s-.4-1.8-1.1-2.3zM73.6 76.5V65.6c0-1.5-1.2-2.7-2.7-2.7-5.7 0-11.4.9-16.8 2.8-12.2 4.1-22.3 12.6-28.5 23.4C27.3 65.6 47 46.9 70.9 46.9c1.5 0 2.7-1.2 2.7-2.7V33.4L104.1 55 73.6 76.5z"/></svg>