<svg xmlns="http://www.w3.org/2000/svg" viewBox="0 0 24 24"><path d="M10 8.7A1.9 1.9 0 0 0 9.9 6a1.9 1.9 0 0 0-2.7.1A1.9 1.9 0 0 0 10 8.7zM7.5 7.5a1.1 1.1 0 1 1 1.9.7 1.1 1.1 0 0 1-1.5.1 1.1 1.1 0 0 1-.4-.8zm6.3 4.6a1.9 1.9 0 1 0 2.7-.1 1.9 1.9 0 0 0-2.7.1zm.6.6a1.1 1.1 0 0 1 1.5-.1 1.1 1.1 0 0 1 .1 1.5 1.1 1.1 0 0 1-1.5.1 1.1 1.1 0 0 1-.1-1.5zm.5-5.6a1.9 1.9 0 0 0-2.7.1 1.9 1.9 0 1 0 2.7-.1zm-.5 2.1a1.1 1.1 0 0 1-1.5.1 1.1 1.1 0 1 1 1.5-.1zm-10 2.5a2.5 2.5 0 1 0 3.5.2 2.5 2.5 0 0 0-3.5-.2zm3.2 2a1.6 1.6 0 0 1-.5 1.1 1.6 1.6 0 0 1-2.3-.2 1.6 1.6 0 0 1 2.4-2.1 1.6 1.6 0 0 1 .4 1.2z"/><path d="M21.6 4.2a3 3 0 0 1-.5-2.2c0-.4.1-.8-.3-1s-.7.1-1.2.4a7.7 7.7 0 0 0-2.3 2.7 6.8 6.8 0 0 0-.6 1.9 9.2 9.2 0 0 0-4.5-2.5.4.4 0 0 0-.2.8 8.4 8.4 0 0 1 4.6 2.8 3.1 3.1 0 0 0 .9 2.2v1.4a.8.8 0 0 0 .8.8v2.9a8.3 8.3 0 0 1-3.1 4.7 1.4 1.4 0 0 1-1 .4c-.4-.1-.8-.8-1.2-1.4a3.1 3.1 0 0 0-2.8-2 3.1 3.1 0 0 0-2.8 2c-.4.7-.8 1.3-1.2 1.4a1.4 1.4 0 0 1-1-.4 8.2 8.2 0 0 1-3.3-6.6 8.4 8.4 0 0 1 6.4-8.1.4.4 0 0 0-.2-.8A9.2 9.2 0 0 0 1 12.5a9.1 9.1 0 0 0 1 4.1 9.2 9.2 0 0 0 2.6 3.2 2.1 2.1 0 0 0 1.7.6c.8-.2 1.3-1 1.8-1.9a2.3 2.3 0 0 1 2-1.5 2.3 2.3 0 0 1 2 1.5c.5.9 1 1.7 1.8 1.9h.3a2.4 2.4 0 0 0 1.5-.6 9.2 9.2 0 0 0 2.5-3v4.7a1.5 1.5 0 0 0 3 0v-10a.8.8 0 0 0 .8-.8V9.4a1.6 1.6 0 0 0 .7-.9c.4-1.2-.4-3.1-1.3-4.3zm-3.5.4a6.8 6.8 0 0 1 2.1-2.5h.1a3.7 3.7 0 0 0 .6 2.6c.9 1.3 1.4 2.8 1.2 3.6a.7.7 0 0 1-.4.5H18c-.9-.9-.7-2.7 0-4.1zm1.7 17.5a.7.7 0 0 1-.7-.7v-2h1.3v2a.7.7 0 0 1-.7.7zm.7-3.5h-1.3v-7.1h1.3zm.9-8h-3v-1h3z"/><path d="M10.2 4.2a.4.4 0 0 0 0-.9.4.4 0 0 0 0 .9z"/></svg>