<svg xmlns="http://www.w3.org/2000/svg" viewBox="0 0 512 512"><path d="M437.02 310.826c-28.355-28.355-62.197-49.227-99.125-61.652 34.055-25.17 56.183-65.596 56.183-111.097C394.078 61.94 332.137 0 256 0S117.922 61.94 117.922 138.077c0 45.502 22.128 85.928 56.183 111.097-36.928 12.424-70.768 33.296-99.125 61.652C26.63 359.178 0 423.466 0 491.846 0 502.977 9.023 512 20.154 512h471.69c11.13 0 20.154-9.023 20.154-20.154.001-68.38-26.628-132.668-74.98-181.02zm-278.787-172.75c0-53.9 43.858-97.768 97.77-97.768s97.77 43.858 97.77 97.768-43.858 97.768-97.77 97.768-97.77-43.858-97.77-97.768zM41.243 471.69C51.437 362.172 143.863 276.154 256 276.154S460.563 362.17 470.757 471.69H41.243z"/></svg>