<?xml version="1.0" encoding="iso-8859-1"?>
<!-- Generator: Adobe Illustrator 19.0.0, SVG Export Plug-In . SVG Version: 6.00 Build 0)  -->
<svg version="1.1" id="Layer_1" xmlns="http://www.w3.org/2000/svg" xmlns:xlink="http://www.w3.org/1999/xlink" x="0px" y="0px"
	 viewBox="0 0 512 512" style="enable-background:new 0 0 512 512;" xml:space="preserve">
<g>
	<g>
		<path d="M512,256l-44.277-48.335l18.984-62.786l-60.936-24.257l-10.134-64.772l-65.418,4.482L312.959,6.345L256,38.865
			L199.041,6.346l-37.261,53.985l-65.418-4.482l-10.134,64.772l-60.936,24.257l18.984,62.786L0,256l44.277,48.335l-18.984,62.786
			l60.936,24.257l10.134,64.772l65.418-4.482l37.261,53.986l56.958-32.52l56.958,32.52l37.261-53.985l65.418,4.482l10.134-64.772
			l60.936-24.257l-18.984-62.786L512,256z M396.406,367.944l-8.387,53.606l-54.105-3.707l-30.796,44.618l-47.119-26.903
			l-47.119,26.903l-30.795-44.618l-54.106,3.707l-8.387-53.606l-50.391-20.059l15.69-51.89l-36.636-39.994l36.636-39.994
			l-15.689-51.89l50.391-20.059l8.387-53.606l54.105,3.707l30.796-44.618l47.119,26.903l47.119-26.903l30.795,44.618l54.106-3.707
			l8.387,53.606l50.391,20.059l-15.69,51.89L467.744,256l-36.636,39.994l15.689,51.89L396.406,367.944z"/>
	</g>
</g>
<g>
	<g>
		<path d="M149.315,245.538c-10.275-3.258-16.54-4.261-16.54-8.896c0-3.133,2.882-4.386,7.142-4.386
			c10.65,0,23.556,8.144,23.556,8.144l10.525-20.173c-8.019-4.01-20.424-9.649-33.329-9.649c-17.543,0-33.204,10.4-33.204,30.073
			c0,13.03,6.891,19.671,22.554,24.934c10.65,3.633,19.798,4.761,19.798,9.899c0,2.38-1.879,3.884-7.141,3.884
			c-13.658,0-28.568-9.774-28.568-9.774l-10.525,21.426c10.65,6.264,25.812,10.4,38.717,10.4c16.539,0,33.83-6.891,33.83-28.318
			C176.127,256.439,165.728,250.675,149.315,245.538z"/>
	</g>
</g>
<g>
	<g>
		<path d="M229.503,211.332h-19.798l-33.204,88.963h25.937l5.263-17.416h23.682l5.388,17.416h25.812L229.503,211.332z
			 M211.334,266.588l8.269-29.821l7.894,29.821H211.334z"/>
	</g>
</g>
<g>
	<g>
		<polygon points="293.652,278.992 293.652,211.332 269.218,211.332 269.218,300.294 333.998,300.294 333.998,278.992 		"/>
	</g>
</g>
<g>
	<g>
		<polygon points="367.325,278.992 367.325,264.959 399.652,264.959 399.652,245.161 367.325,245.161 367.325,232.632 
			405.165,232.632 405.165,211.332 342.891,211.332 342.891,300.294 406.293,300.294 406.293,278.992 		"/>
	</g>
</g>
<g>
</g>
<g>
</g>
<g>
</g>
<g>
</g>
<g>
</g>
<g>
</g>
<g>
</g>
<g>
</g>
<g>
</g>
<g>
</g>
<g>
</g>
<g>
</g>
<g>
</g>
<g>
</g>
<g>
</g>
</svg>
