<svg viewBox="0 0 512 512" xmlns="http://www.w3.org/2000/svg"><path d="M512 256l-44.277-48.335 18.984-62.786-60.936-24.257-10.134-64.772-65.418 4.482-37.26-53.987L256 38.865 199.041 6.346 161.78 60.331l-65.418-4.482-10.134 64.772-60.936 24.257 18.984 62.786L0 256l44.277 48.335-18.984 62.786 60.936 24.257 10.134 64.772 65.418-4.482 37.261 53.986L256 473.134l56.958 32.52 37.261-53.985 65.418 4.482 10.134-64.772 60.936-24.257-18.984-62.786L512 256zM396.41 367.94l-8.387 53.606-54.105-3.707-30.796 44.618-47.119-26.903-47.119 26.903-30.795-44.618-54.106 3.707-8.387-53.606-50.391-20.059 15.69-51.89-36.636-39.994 36.636-39.994-15.689-51.89 50.391-20.059 8.387-53.606 54.105 3.707 30.796-44.618 47.119 26.903 47.119-26.903 30.795 44.618 54.106-3.707 8.387 53.606 50.391 20.059-15.69 51.89 36.636 39.993-36.636 39.994 15.689 51.89-50.391 20.06z"/><path d="M149.32 245.54c-10.275-3.258-16.54-4.261-16.54-8.896 0-3.133 2.882-4.386 7.142-4.386 10.65 0 23.556 8.144 23.556 8.144l10.525-20.173c-8.019-4.01-20.424-9.649-33.329-9.649-17.543 0-33.204 10.4-33.204 30.073 0 13.03 6.891 19.671 22.554 24.934 10.65 3.633 19.798 4.761 19.798 9.899 0 2.38-1.879 3.884-7.141 3.884-13.658 0-28.568-9.774-28.568-9.774l-10.525 21.426c10.65 6.264 25.812 10.4 38.717 10.4 16.539 0 33.83-6.891 33.83-28.318-.003-16.663-10.402-22.427-26.815-27.564zM229.5 211.33h-19.798l-33.204 88.963h25.937l5.263-17.416h23.682l5.388 17.416h25.812L229.5 211.33zm-18.169 55.256l8.269-29.821 7.894 29.821h-16.163zM293.65 278.99v-67.66h-24.43v88.96H334v-21.3zM367.32 278.99v-14.03h32.33v-19.8h-32.33v-12.53h37.84v-21.3h-62.27v88.96h63.4v-21.3z"/></svg>