<svg viewBox="0 0 508.4 508.4" xmlns="http://www.w3.org/2000/svg"><path d="M438.8 138.4H366v36.8c13.2 5.2 22 18 22 33.2 0 19.6-16 35.2-35.6 35.2s-35.6-16-35.6-35.2c0-14.8 9.6-27.6 22.8-32.8.4-.4 2.4-.4 2.4-.8v-36.4H167.6l2.4 2.8v33.6h-.4c13.2 5.2 22 18 22 33.2 0 19.6-16 35.2-35.6 35.2s-35.6-16-35.6-35.6c0-15.6 10.4-29.6 24-33.6h1.2v-33.2l-2-2.8H68.8L41.2 502H466l-27.2-363.6zm-393.2 344h388.8H45.6z" fill="#FFC52F"/><g fill="#EF934A"><path d="M158 216c-6.4 0-12-5.2-12-11.6v-34h-1.6c-13.6 4-24 18-24 33.6 0 19.6 15.6 35.6 35.2 35.6s35.2-15.6 35.2-35.2c0-15.2-8.4-28-21.6-32.8h.4v33.2c.4 5.6-5.2 11.2-11.6 11.2zM354 216c-6.4 0-12-5.2-12-11.6v-34h-1.6c-13.6 4-23.6 18-23.6 33.6 0 19.6 16 35.6 35.6 35.6S388 224 388 204.4c0-15.2-9.6-28-21.6-32.8v33.2c-.4 5.6-6 11.2-12.4 11.2z"/></g><path d="M256 3.6c-60.8 0-110 49.2-110 110V204c0 6.4 5.6 11.6 12 11.6s12-5.2 12-11.6v-90.4c0-47.6 38.4-86.4 86-86.4s86 38.8 86 86.4V204c0 6.4 5.6 11.6 12 11.6s12-5.2 12-11.6v-90.4c0-60.8-49.2-110-110-110z" fill="#F0C960"/><path d="M466 508.4H42c-1.2 0-2-.4-2.8-1.2s-1.2-2-1.2-3.2l27.6-364c0-2 2-3.6 4-3.6h68.8c2.4 0 4 1.6 4 4s-1.6 4-4 4H73.6l-26.8 356H462l-26.8-356H366c-2.4 0-4-1.6-4-4s1.6-4 4-4h72.8c2 0 4 1.6 4 3.6l27.6 364c0 1.2-.4 2.4-1.2 3.2s-2 1.2-3.2 1.2z"/><path d="M334 144.4H170c-2.4 0-4-1.6-4-4s1.6-4 4-4h164c2.4 0 4 1.6 4 4s-1.6 4-4 4z"/><path d="M352 220c-8.8 0-16-7.2-16-15.6l-.4-90.4c0-44.8-39.2-82.4-85.6-82.4-44.4 0-78 35.6-78 82.4v90.4c0 8.8-7.2 15.6-16 15.6s-16-7.2-16-15.6l.4-90.4c0-64 48-114 109.6-114 64 0 118 52.4 118 114v90.4c0 8.4-7.2 15.6-16 15.6zM250 23.2c50.8 0 93.6 41.6 93.6 90.4l.4 90.4c0 4.4 3.6 7.6 8 7.6s8-3.6 8-7.6v-90.4c0-57.6-50.4-106-110-106-57.2 0-101.6 46.4-101.6 106L148 204c0 4.4 3.6 7.6 8 7.6s8-3.6 8-7.6v-90.4c0-51.6 36.8-90.4 86-90.4z"/><path d="M155.6 243.2c-21.6 0-39.2-17.6-39.2-39.2 0-14.4 8-27.6 20.4-34.4 2-1.2 4.4-.4 5.6 1.6s.4 4.4-1.6 5.6c-10 5.6-16.4 16-16.4 27.6 0 17.2 14 31.2 31.2 31.2s31.2-14 31.2-31.2c0-12.8-8-24.8-20-29.2-2-.8-3.2-3.2-2.4-5.2s3.2-3.2 5.2-2.4c15.2 6 25.2 20.4 25.2 36.8.4 21.2-17.2 38.8-39.2 38.8zM352.4 243.2c-21.6 0-39.2-17.6-39.2-39.2 0-14 7.2-26.4 18.8-33.6 2-1.2 4.4-.4 5.6 1.2 1.2 2 .4 4.4-1.2 5.6-9.6 5.6-15.2 15.6-15.2 26.8 0 17.2 14 31.2 31.2 31.2s31.2-14 31.2-31.2c0-12.8-8-24.8-20-29.2-2-.8-3.2-3.2-2.4-5.2s3.2-3.2 5.2-2.4c15.2 6 25.2 20.4 25.2 36.8 0 21.6-17.6 39.2-39.2 39.2zM434 488.4H46c-2.4 0-4-1.6-4-4s1.6-4 4-4h388c2.4 0 4 1.6 4 4s-1.6 4-4 4z"/></svg>