<svg xmlns="http://www.w3.org/2000/svg" viewBox="0 0 128 128" style="enable-background:new 0 0 128 128" xml:space="preserve"><path d="M102 95.6 97.9 49c-.1-.8-.7-1.3-1.5-1.3-.8.1-1.3.7-1.3 1.5l4 45.1H42.9c-.8 0-1.4.6-1.4 1.4s.6 1.4 1.4 1.4h56.2c-.3 2.9-2.8 5.4-6.1 5.4H35.9c-3.2 0-5.7-2.5-6.1-5.4h6.6c.8 0 1.4-.6 1.4-1.4s-.6-1.4-1.4-1.4h-6.5l4.9-55.7c.3-3.2 2.9-5.6 6.1-5.6h6.4v9c0 .8.6 1.4 1.4 1.4.8 0 1.4-.6 1.4-1.4v-9h28.7v9c0 .8.6 1.4 1.4 1.4s1.4-.6 1.4-1.4v-9H88c3.2 0 5.8 2.4 6.1 5.6l.4 4c.1.8.7 1.3 1.5 1.3.8-.1 1.3-.7 1.3-1.5l-.4-4c-.4-4.6-4.2-8.1-8.8-8.1h-6.4v-2.8c0-9.4-7.7-17.1-17.1-17.1s-17.1 7.7-17.1 17.1v2.8H41c-4.6 0-8.4 3.5-8.8 8.1L27 95.6c-.5 5.2 3.6 9.7 8.8 9.7h57.3c2.5 0 4.9-1.1 6.5-2.9 1.7-1.9 2.6-4.4 2.4-6.8zM50.1 27.5c0-7.9 6.4-14.4 14.4-14.4s14.4 6.4 14.4 14.4v2.8H50.1v-2.8z"/></svg>