<svg xmlns="http://www.w3.org/2000/svg" xmlns:xlink="http://www.w3.org/1999/xlink" viewBox="0 0 274.43 62.53"><g fill="#ffa800"><path d="M0 6.14h25.2q6.3 0 9.68 3.12a10.11 10.11 0 0 1 3.37 7.73 9.75 9.75 0 0 1-2.41 6.63 10.72 10.72 0 0 1-4.7 2.91 12.2 12.2 0 0 1 6.91 3.86 10.67 10.67 0 0 1 2.21 6.91 11.89 11.89 0 0 1-1.55 6.09 11.61 11.61 0 0 1-4.31 4.28 14.25 14.25 0 0 1-5.11 1.43 58.89 58.89 0 0 1-6 .59H0zm13.6 17.1h5.86q3.15 0 4.38-1.1A4 4 0 0 0 25.06 19a3.73 3.73 0 0 0-1.23-3q-1.23-1.07-4.3-1.07h-5.95zm0 17.12h6.87q3.48 0 4.9-1.23a4.16 4.16 0 0 0 1.43-3.31 3.84 3.84 0 0 0-1.41-3.11q-1.4-1.17-4.95-1.17h-6.85z"/><path d="M.34 6.14h25.2q6.3 0 9.68 3.12a10.11 10.11 0 0 1 3.37 7.73 9.75 9.75 0 0 1-2.41 6.63 10.72 10.72 0 0 1-4.7 2.91 12.2 12.2 0 0 1 6.92 3.86 10.67 10.67 0 0 1 2.21 6.91 11.89 11.89 0 0 1-1.57 6.09 11.61 11.61 0 0 1-4.32 4.31 14.25 14.25 0 0 1-5.11 1.43 58.89 58.89 0 0 1-6 .59H.34zm13.58 17.1h5.86q3.15 0 4.38-1.1a4 4 0 0 0 1.23-3.14 3.73 3.73 0 0 0-1.23-3q-1.23-1.07-4.3-1.07h-5.94zm0 17.12h6.87q3.48 0 4.9-1.23a4.16 4.16 0 0 0 1.43-3.31 3.84 3.84 0 0 0-1.4-3.12q-1.4-1.17-4.95-1.17h-6.85z"/><path d="M.72 6.14h25.16q6.3 0 9.68 3.12a10.11 10.11 0 0 1 3.37 7.73 9.75 9.75 0 0 1-2.41 6.63 10.72 10.72 0 0 1-4.7 2.91 12.2 12.2 0 0 1 6.9 3.86 10.67 10.67 0 0 1 2.21 6.91 11.89 11.89 0 0 1-1.55 6.09 11.61 11.61 0 0 1-4.31 4.28 14.25 14.25 0 0 1-5.11 1.43 58.89 58.89 0 0 1-6 .59H.72zm13.6 17.1h5.86q3.15 0 4.38-1.1a4 4 0 0 0 1.17-3.13 3.73 3.73 0 0 0-1.23-3q-1.23-1.07-4.3-1.07h-5.93zm0 17.12h6.8q3.48 0 4.9-1.23a4.16 4.16 0 0 0 1.43-3.31 3.84 3.84 0 0 0-1.41-3.11q-1.4-1.17-4.95-1.17h-6.83z"/><path d="M1 6.14h25.2q6.3 0 9.68 3.12a10.11 10.11 0 0 1 3.37 7.73 9.75 9.75 0 0 1-2.41 6.63 10.72 10.72 0 0 1-4.7 2.91 12.2 12.2 0 0 1 6.92 3.86 10.67 10.67 0 0 1 2.21 6.91 11.89 11.89 0 0 1-1.57 6.09 11.61 11.61 0 0 1-4.31 4.28 14.25 14.25 0 0 1-5.11 1.43 58.89 58.89 0 0 1-6 .59H1zm13.6 17.1h5.86q3.15 0 4.38-1.1A4 4 0 0 0 26.07 19a3.73 3.73 0 0 0-1.23-3q-1.23-1.07-4.3-1.07H14.6zm0 17.12h6.87q3.48 0 4.9-1.23a4.16 4.16 0 0 0 1.43-3.31 3.84 3.84 0 0 0-1.41-3.11q-1.4-1.17-4.95-1.17H14.6z"/><path d="M1.35 6.14h25.2q6.3 0 9.68 3.12a10.11 10.11 0 0 1 3.37 7.73 9.75 9.75 0 0 1-2.41 6.63 10.72 10.72 0 0 1-4.7 2.91 12.2 12.2 0 0 1 6.91 3.86 10.67 10.67 0 0 1 2.21 6.91 11.89 11.89 0 0 1-1.57 6.09 11.61 11.61 0 0 1-4.33 4.31 14.25 14.25 0 0 1-5.11 1.43 58.89 58.89 0 0 1-6 .59H1.35zm13.6 17.1h5.86q3.15 0 4.38-1.1A4 4 0 0 0 26.41 19a3.73 3.73 0 0 0-1.23-3q-1.23-1.07-4.3-1.07h-5.95zm0 17.12h6.87q3.48 0 4.9-1.23a4.16 4.16 0 0 0 1.43-3.31 3.84 3.84 0 0 0-1.42-3.11q-1.4-1.17-4.95-1.17h-6.84z"/><path d="M1.72 6.14H26.9q6.3 0 9.68 3.12a10.11 10.11 0 0 1 3.37 7.73 9.75 9.75 0 0 1-2.41 6.63 10.72 10.72 0 0 1-4.7 2.91 12.2 12.2 0 0 1 6.89 3.86 10.67 10.67 0 0 1 2.21 6.91 11.89 11.89 0 0 1-1.54 6.09 11.61 11.61 0 0 1-4.31 4.28 14.25 14.25 0 0 1-5.11 1.43 58.89 58.89 0 0 1-6 .59H1.72zm13.6 17.1h5.86q3.15 0 4.38-1.1a4 4 0 0 0 1.17-3.13 3.73 3.73 0 0 0-1.23-3q-1.23-1.07-4.3-1.07h-5.92zm0 17.12h6.87q3.48 0 4.9-1.23a4.16 4.16 0 0 0 1.43-3.31 3.84 3.84 0 0 0-1.41-3.11q-1.4-1.17-4.95-1.17h-6.88z"/><path d="M2.02 6.14h25.2q6.3 0 9.68 3.12a10.11 10.11 0 0 1 3.37 7.73 9.75 9.75 0 0 1-2.41 6.63 10.72 10.72 0 0 1-4.7 2.91 12.2 12.2 0 0 1 6.92 3.86 10.67 10.67 0 0 1 2.21 6.91 11.89 11.89 0 0 1-1.58 6.09 11.61 11.61 0 0 1-4.31 4.28 14.25 14.25 0 0 1-5.11 1.43 58.89 58.89 0 0 1-6 .59H2.02zm13.6 17.1h5.86q3.15 0 4.38-1.1A4 4 0 0 0 27.08 19a3.73 3.73 0 0 0-1.23-3q-1.23-1.07-4.3-1.07H15.6zm0 17.12h6.87q3.48 0 4.9-1.23a4.16 4.16 0 0 0 1.43-3.31 3.84 3.84 0 0 0-1.41-3.11q-1.4-1.17-4.95-1.17H15.6z"/><path d="M2.36 6.14h25.2q6.3 0 9.68 3.12a10.11 10.11 0 0 1 3.37 7.73 9.75 9.75 0 0 1-2.41 6.63 10.72 10.72 0 0 1-4.7 2.91 12.2 12.2 0 0 1 6.91 3.86 10.67 10.67 0 0 1 2.21 6.91 11.89 11.89 0 0 1-1.57 6.09 11.61 11.61 0 0 1-4.34 4.31 14.25 14.25 0 0 1-5.11 1.43 58.89 58.89 0 0 1-6 .59H2.36zm13.6 17.1h5.86q3.15 0 4.38-1.1A4 4 0 0 0 27.42 19a3.73 3.73 0 0 0-1.23-3q-1.23-1.07-4.3-1.07h-5.95zm0 17.12h6.87q3.48 0 4.9-1.23a4.16 4.16 0 0 0 1.43-3.31 3.84 3.84 0 0 0-1.43-3.11q-1.4-1.17-4.95-1.17h-6.83z"/><path d="M2.72 6.14H27.9q6.3 0 9.68 3.12a10.11 10.11 0 0 1 3.37 7.73 9.75 9.75 0 0 1-2.41 6.63 10.72 10.72 0 0 1-4.7 2.91 12.2 12.2 0 0 1 6.88 3.86 10.67 10.67 0 0 1 2.21 6.91 11.89 11.89 0 0 1-1.53 6.09 11.61 11.61 0 0 1-4.31 4.28 14.25 14.25 0 0 1-5.11 1.43 58.89 58.89 0 0 1-6 .59H2.72zm13.6 17.1h5.86q3.15 0 4.38-1.1a4 4 0 0 0 1.17-3.13 3.73 3.73 0 0 0-1.23-3q-1.23-1.07-4.3-1.07h-5.9zm0 17.12h6.87q3.48 0 4.9-1.23a4.16 4.16 0 0 0 1.43-3.31 3.84 3.84 0 0 0-1.41-3.11q-1.4-1.17-4.95-1.17h-6.87z"/><path d="M3.03 6.14h25.2q6.3 0 9.68 3.12a10.11 10.11 0 0 1 3.37 7.73 9.75 9.75 0 0 1-2.41 6.63 10.72 10.72 0 0 1-4.7 2.91 12.2 12.2 0 0 1 6.92 3.86 10.67 10.67 0 0 1 2.21 6.91 11.89 11.89 0 0 1-1.59 6.09 11.61 11.61 0 0 1-4.31 4.28 14.25 14.25 0 0 1-5.11 1.43 58.89 58.89 0 0 1-6 .59H3.03zm13.6 17.1h5.86q3.15 0 4.38-1.1a4 4 0 0 0 1.23-3.14 3.73 3.73 0 0 0-1.23-3q-1.23-1.07-4.3-1.07h-5.94zm0 17.12h6.87q3.48 0 4.9-1.23a4.16 4.16 0 0 0 1.43-3.31 3.84 3.84 0 0 0-1.41-3.11q-1.4-1.17-4.95-1.17h-6.84z"/><path d="M3.37 6.14h25.2q6.3 0 9.68 3.12a10.11 10.11 0 0 1 3.37 7.73 9.75 9.75 0 0 1-2.41 6.63 10.72 10.72 0 0 1-4.7 2.91 12.2 12.2 0 0 1 6.92 3.86 10.67 10.67 0 0 1 2.21 6.91 11.89 11.89 0 0 1-1.57 6.09 11.61 11.61 0 0 1-4.36 4.31 14.25 14.25 0 0 1-5.11 1.43 58.89 58.89 0 0 1-6 .59H3.37zm13.6 17.1h5.86q3.15 0 4.38-1.1A4 4 0 0 0 28.43 19a3.73 3.73 0 0 0-1.23-3q-1.23-1.07-4.3-1.07h-5.94zm0 17.12h6.86q3.48 0 4.9-1.23a4.16 4.16 0 0 0 1.43-3.31 3.84 3.84 0 0 0-1.43-3.11q-1.4-1.17-4.95-1.17h-6.8z"/><path d="M3.72 6.14h25.2q6.3 0 9.68 3.12a10.11 10.11 0 0 1 3.37 7.73 9.75 9.75 0 0 1-2.41 6.63 10.72 10.72 0 0 1-4.7 2.91 12.2 12.2 0 0 1 6.91 3.86 10.67 10.67 0 0 1 2.21 6.91 11.89 11.89 0 0 1-1.57 6.09 11.61 11.61 0 0 1-4.31 4.28 14.25 14.25 0 0 1-5.11 1.43 58.89 58.89 0 0 1-6 .59H3.72zm13.6 17.1h5.86q3.15 0 4.38-1.1a4 4 0 0 0 1.17-3.13 3.73 3.73 0 0 0-1.23-3q-1.23-1.07-4.3-1.07h-5.9zm0 17.12h6.87q3.48 0 4.9-1.23a4.16 4.16 0 0 0 1.43-3.31 3.84 3.84 0 0 0-1.41-3.11q-1.4-1.17-4.95-1.17H17.3z"/><path d="M4.05 6.14h25.2q6.3 0 9.68 3.12a10.11 10.11 0 0 1 3.37 7.73 9.75 9.75 0 0 1-2.41 6.63 10.72 10.72 0 0 1-4.7 2.91 12.2 12.2 0 0 1 6.92 3.86 10.67 10.67 0 0 1 2.21 6.91 11.89 11.89 0 0 1-1.6 6.09 11.61 11.61 0 0 1-4.31 4.28 14.25 14.25 0 0 1-5.11 1.43 58.89 58.89 0 0 1-6 .59H4.05zm13.6 17.1h5.86q3.15 0 4.38-1.1A4 4 0 0 0 29.11 19a3.73 3.73 0 0 0-1.23-3q-1.23-1.07-4.3-1.07h-5.95zm0 17.12h6.87q3.48 0 4.9-1.23a4.16 4.16 0 0 0 1.43-3.31 3.84 3.84 0 0 0-1.41-3.11q-1.4-1.17-4.95-1.17h-6.85z"/><path d="M4.38 6.14h25.2q6.3 0 9.68 3.12a10.11 10.11 0 0 1 3.37 7.73 9.75 9.75 0 0 1-2.41 6.63 10.72 10.72 0 0 1-4.7 2.91 12.2 12.2 0 0 1 6.92 3.86 10.67 10.67 0 0 1 2.21 6.91 11.89 11.89 0 0 1-1.57 6.09 11.61 11.61 0 0 1-4.31 4.28 14.25 14.25 0 0 1-5.11 1.43 58.89 58.89 0 0 1-6 .59H4.38zm13.6 17.1h5.85q3.15 0 4.38-1.1A4 4 0 0 0 29.43 19a3.73 3.73 0 0 0-1.23-3q-1.23-1.07-4.3-1.07h-5.93zm0 17.12h6.87q3.48 0 4.9-1.23a4.16 4.16 0 0 0 1.43-3.31 3.84 3.84 0 0 0-1.45-3.11q-1.4-1.17-4.95-1.17h-6.8z"/><use xlink:href="#B"/></g><use xlink:href="#B" fill="#ff3"/><g fill="#ffa800"><path d="M57.55 28.4L46 27.17a13 13 0 0 1 1.88-4.78 10.41 10.41 0 0 1 3.55-3A14.88 14.88 0 0 1 56 17.96a36.94 36.94 0 0 1 6.3-.51 50.13 50.13 0 0 1 8.74.61 11.24 11.24 0 0 1 5.5 2.54 8.92 8.92 0 0 1 2.44 3.79 13.7 13.7 0 0 1 .89 4.68V43a16.79 16.79 0 0 0 .28 3.49 15.64 15.64 0 0 0 1.23 3.23H70.03a11.53 11.53 0 0 1-.89-1.86 13.75 13.75 0 0 1-.42-2 15.67 15.67 0 0 1-4.73 3.27 19.68 19.68 0 0 1-7.45 1.25q-5.65 0-8.58-2.62a8.31 8.31 0 0 1-2.93-6.38 8.45 8.45 0 0 1 2.11-5.92q2.1-2.32 7.8-3.45 6.8-1.38 8.8-1.93A41 41 0 0 0 68 28.65a4.26 4.26 0 0 0-.92-3.12 4.63 4.63 0 0 0-3.24-.89 8.38 8.38 0 0 0-4.46 1 5.21 5.21 0 0 0-1.83 2.75zm10.5 6.36q-2.5.9-5.2 1.58-3.7 1-4.67 1.93a3.1 3.1 0 0 0 0 4.56 4.21 4.21 0 0 0 2.93.91 7.53 7.53 0 0 0 3.76-1 5.94 5.94 0 0 0 2.45-2.34 8 8 0 0 0 .73-3.67z"/><path d="M57.9 28.4l-11.57-1.23a13 13 0 0 1 1.89-4.77 10.41 10.41 0 0 1 3.51-3 14.88 14.88 0 0 1 4.58-1.43 36.94 36.94 0 0 1 6.3-.51 50.13 50.13 0 0 1 8.74.61 11.24 11.24 0 0 1 5.5 2.54 8.92 8.92 0 0 1 2.48 3.79 13.7 13.7 0 0 1 .89 4.68V43a16.79 16.79 0 0 0 .28 3.49 15.64 15.64 0 0 0 1.23 3.22H70.37a11.53 11.53 0 0 1-.89-1.86 13.75 13.75 0 0 1-.42-2 15.67 15.67 0 0 1-4.73 3.27 19.68 19.68 0 0 1-7.45 1.26q-5.65 0-8.58-2.62a8.31 8.31 0 0 1-2.93-6.38 8.45 8.45 0 0 1 2.11-5.92q2.1-2.32 7.8-3.45 6.8-1.37 8.83-1.92a41 41 0 0 0 4.28-1.44 4.26 4.26 0 0 0-.92-3.12 4.63 4.63 0 0 0-3.24-.89 8.38 8.38 0 0 0-4.46 1 5.21 5.21 0 0 0-1.87 2.74zm10.5 6.36q-2.5.9-5.2 1.58-3.7 1-4.67 1.93a3.1 3.1 0 0 0 0 4.56 4.21 4.21 0 0 0 2.93.91 7.53 7.53 0 0 0 3.76-1 5.94 5.94 0 0 0 2.45-2.34 8 8 0 0 0 .73-3.67z"/><path d="M58.22 28.4l-11.56-1.22a13 13 0 0 1 1.89-4.78 10.41 10.41 0 0 1 3.55-3 14.88 14.88 0 0 1 4.62-1.45 36.94 36.94 0 0 1 6.3-.51 50.13 50.13 0 0 1 8.74.61 11.24 11.24 0 0 1 5.5 2.54 8.92 8.92 0 0 1 2.4 3.81 13.7 13.7 0 0 1 .89 4.68V43a16.79 16.79 0 0 0 .28 3.49 15.64 15.64 0 0 0 1.23 3.23H70.72a11.53 11.53 0 0 1-.89-1.86 13.75 13.75 0 0 1-.42-2 15.67 15.67 0 0 1-4.69 3.26 19.68 19.68 0 0 1-7.51 1.26q-5.65 0-8.58-2.62a8.31 8.31 0 0 1-2.91-6.38 8.45 8.45 0 0 1 2.11-5.92q2.1-2.32 7.8-3.45 6.8-1.37 8.83-1.92a41 41 0 0 0 4.27-1.45 4.26 4.26 0 0 0-.92-3.12 4.63 4.63 0 0 0-3.24-.89 8.38 8.38 0 0 0-4.46 1 5.21 5.21 0 0 0-1.88 2.75zm10.5 6.35q-2.5.9-5.2 1.58-3.7 1-4.67 1.93a3.1 3.1 0 0 0 0 4.56 4.21 4.21 0 0 0 2.93.91 7.53 7.53 0 0 0 3.76-1 5.94 5.94 0 0 0 2.45-2.33 8 8 0 0 0 .73-3.67z"/><path d="M58.56 28.4L47 27.17a13 13 0 0 1 1.89-4.78 10.41 10.41 0 0 1 3.55-3 14.88 14.88 0 0 1 4.58-1.43 36.94 36.94 0 0 1 6.3-.51 50.13 50.13 0 0 1 8.74.61 11.24 11.24 0 0 1 5.5 2.54 8.92 8.92 0 0 1 2.43 3.79 13.7 13.7 0 0 1 .89 4.68V43a16.79 16.79 0 0 0 .28 3.49 15.64 15.64 0 0 0 1.23 3.23H71.05a11.53 11.53 0 0 1-.89-1.86 13.75 13.75 0 0 1-.42-2 15.67 15.67 0 0 1-4.73 3.27 19.68 19.68 0 0 1-7.46 1.25q-5.65 0-8.58-2.62a8.31 8.31 0 0 1-2.92-6.38 8.45 8.45 0 0 1 2.11-5.92q2.1-2.32 7.8-3.45 6.8-1.37 8.83-1.92a41 41 0 0 0 4.28-1.44 4.26 4.26 0 0 0-.92-3.12 4.63 4.63 0 0 0-3.24-.89 8.38 8.38 0 0 0-4.46 1 5.21 5.21 0 0 0-1.88 2.74zm10.5 6.36q-2.5.9-5.2 1.58-3.7 1-4.67 1.93a3.1 3.1 0 0 0 0 4.56 4.21 4.21 0 0 0 2.93.91 7.53 7.53 0 0 0 3.76-1 5.94 5.94 0 0 0 2.46-2.34 8 8 0 0 0 .73-3.67z"/><path d="M58.9 28.4l-11.56-1.22a13 13 0 0 1 1.88-4.78 10.41 10.41 0 0 1 3.55-3 14.88 14.88 0 0 1 4.58-1.43 36.94 36.94 0 0 1 6.3-.51 50.13 50.13 0 0 1 8.74.61 11.24 11.24 0 0 1 5.5 2.54 8.92 8.92 0 0 1 2.44 3.79 13.7 13.7 0 0 1 .89 4.68V43a16.79 16.79 0 0 0 .28 3.49 15.64 15.64 0 0 0 1.22 3.22H71.38a11.53 11.53 0 0 1-.89-1.86 13.75 13.75 0 0 1-.42-2 15.67 15.67 0 0 1-4.73 3.27 19.68 19.68 0 0 1-7.45 1.26q-5.65 0-8.58-2.62a8.31 8.31 0 0 1-2.93-6.38 8.45 8.45 0 0 1 2.11-5.92q2.1-2.32 7.8-3.45 6.8-1.37 8.83-1.92a41 41 0 0 0 4.28-1.44 4.26 4.26 0 0 0-.92-3.12 4.63 4.63 0 0 0-3.24-.89 8.38 8.38 0 0 0-4.46 1 5.21 5.21 0 0 0-1.87 2.74zm10.5 6.36q-2.5.9-5.2 1.58-3.7 1-4.67 1.93a3.1 3.1 0 0 0 0 4.56 4.21 4.21 0 0 0 2.93.91 7.53 7.53 0 0 0 3.76-1 5.94 5.94 0 0 0 2.45-2.34 8 8 0 0 0 .73-3.67z"/><path d="M59.24 28.4l-11.52-1.23a13 13 0 0 1 1.84-4.77 10.41 10.41 0 0 1 3.55-3 14.88 14.88 0 0 1 4.61-1.45 36.94 36.94 0 0 1 6.3-.51 50.13 50.13 0 0 1 8.74.61 11.24 11.24 0 0 1 5.5 2.54 8.92 8.92 0 0 1 2.41 3.81 13.7 13.7 0 0 1 .89 4.68V43a16.79 16.79 0 0 0 .28 3.49 15.64 15.64 0 0 0 1.23 3.23H71.72a11.53 11.53 0 0 1-.89-1.86 13.75 13.75 0 0 1-.42-2 15.67 15.67 0 0 1-4.69 3.26 19.68 19.68 0 0 1-7.49 1.26q-5.65 0-8.58-2.62a8.31 8.31 0 0 1-2.93-6.38 8.45 8.45 0 0 1 2.11-5.92q2.1-2.32 7.8-3.45 6.8-1.37 8.83-1.92a41 41 0 0 0 4.27-1.45 4.26 4.26 0 0 0-.92-3.12 4.63 4.63 0 0 0-3.24-.89 8.38 8.38 0 0 0-4.46 1 5.21 5.21 0 0 0-1.86 2.75zm10.48 6.35q-2.5.9-5.2 1.58-3.7 1-4.67 1.93a3.1 3.1 0 0 0 0 4.56 4.21 4.21 0 0 0 2.93.91 7.53 7.53 0 0 0 3.76-1A5.94 5.94 0 0 0 69 40.39a8 8 0 0 0 .73-3.67z"/><path d="M59.57 28.4L48 27.17a13 13 0 0 1 1.89-4.78 10.41 10.41 0 0 1 3.55-3 14.88 14.88 0 0 1 4.58-1.43 36.94 36.94 0 0 1 6.3-.51 50.13 50.13 0 0 1 8.74.61 11.24 11.24 0 0 1 5.5 2.54 8.92 8.92 0 0 1 2.44 3.79 13.7 13.7 0 0 1 .89 4.68V43a16.79 16.79 0 0 0 .28 3.49 15.64 15.64 0 0 0 1.23 3.23H72.06a11.53 11.53 0 0 1-.89-1.86 13.75 13.75 0 0 1-.42-2 15.67 15.67 0 0 1-4.73 3.27 19.68 19.68 0 0 1-7.46 1.25q-5.65 0-8.58-2.62a8.31 8.31 0 0 1-2.92-6.38 8.45 8.45 0 0 1 2.11-5.92q2.1-2.32 7.8-3.45 6.8-1.37 8.83-1.92a41 41 0 0 0 4.28-1.44 4.26 4.26 0 0 0-.92-3.12 4.63 4.63 0 0 0-3.24-.89 8.38 8.38 0 0 0-4.46 1 5.21 5.21 0 0 0-1.88 2.74zm10.5 6.36q-2.5.9-5.2 1.58-3.7 1-4.67 1.93a3.1 3.1 0 0 0 0 4.56 4.21 4.21 0 0 0 2.93.91 7.53 7.53 0 0 0 3.76-1 5.94 5.94 0 0 0 2.46-2.34 8 8 0 0 0 .73-3.67z"/><path d="M59.9 28.4l-11.56-1.22a13 13 0 0 1 1.88-4.78 10.41 10.41 0 0 1 3.55-3 14.88 14.88 0 0 1 4.58-1.43 36.94 36.94 0 0 1 6.3-.51 50.13 50.13 0 0 1 8.74.61 11.24 11.24 0 0 1 5.5 2.54 8.92 8.92 0 0 1 2.44 3.79 13.7 13.7 0 0 1 .89 4.68V43a16.79 16.79 0 0 0 .28 3.49 15.64 15.64 0 0 0 1.21 3.22H72.4a11.53 11.53 0 0 1-.89-1.86 13.75 13.75 0 0 1-.42-2 15.67 15.67 0 0 1-4.73 3.27 19.68 19.68 0 0 1-7.46 1.26q-5.65 0-8.58-2.62a8.31 8.31 0 0 1-2.92-6.38 8.45 8.45 0 0 1 2.11-5.92q2.1-2.32 7.8-3.45 6.8-1.37 8.83-1.92a41 41 0 0 0 4.28-1.44 4.26 4.26 0 0 0-.92-3.12 4.63 4.63 0 0 0-3.24-.89 8.38 8.38 0 0 0-4.46 1 5.21 5.21 0 0 0-1.88 2.74zm10.5 6.36q-2.5.9-5.2 1.58-3.7 1-4.67 1.93a3.1 3.1 0 0 0 0 4.56 4.21 4.21 0 0 0 2.93.91 7.53 7.53 0 0 0 3.76-1 5.94 5.94 0 0 0 2.5-2.34 8 8 0 0 0 .73-3.67z"/><path d="M60.25 28.4l-11.53-1.23a13 13 0 0 1 1.85-4.77 10.41 10.41 0 0 1 3.55-3 14.88 14.88 0 0 1 4.6-1.45 36.94 36.94 0 0 1 6.3-.51 50.13 50.13 0 0 1 8.74.61 11.24 11.24 0 0 1 5.5 2.54 8.92 8.92 0 0 1 2.46 3.81 13.7 13.7 0 0 1 .89 4.68V43a16.79 16.79 0 0 0 .28 3.49 15.64 15.64 0 0 0 1.23 3.23h-11.4a11.53 11.53 0 0 1-.89-1.86 13.75 13.75 0 0 1-.42-2 15.67 15.67 0 0 1-4.69 3.26 19.68 19.68 0 0 1-7.48 1.26q-5.65 0-8.58-2.62a8.31 8.31 0 0 1-2.94-6.38 8.45 8.45 0 0 1 2.11-5.92q2.1-2.32 7.8-3.45 6.8-1.37 8.83-1.92a41 41 0 0 0 4.27-1.45 4.26 4.26 0 0 0-.92-3.12 4.63 4.63 0 0 0-3.24-.89 8.38 8.38 0 0 0-4.46 1 5.21 5.21 0 0 0-1.85 2.75zm10.47 6.35q-2.5.9-5.2 1.58-3.7 1-4.67 1.93a3.1 3.1 0 0 0 0 4.56 4.21 4.21 0 0 0 2.93.91 7.53 7.53 0 0 0 3.76-1 5.94 5.94 0 0 0 2.47-2.33 8 8 0 0 0 .73-3.67z"/><path d="M60.6 28.4l-11.57-1.23a13 13 0 0 1 1.89-4.77 10.41 10.41 0 0 1 3.55-3 14.88 14.88 0 0 1 4.58-1.43 36.94 36.94 0 0 1 6.3-.51 50.13 50.13 0 0 1 8.74.61 11.24 11.24 0 0 1 5.5 2.54 8.92 8.92 0 0 1 2.44 3.79 13.7 13.7 0 0 1 .89 4.68V43a16.79 16.79 0 0 0 .28 3.49 15.64 15.64 0 0 0 1.23 3.23H73.07a11.53 11.53 0 0 1-.89-1.86 13.75 13.75 0 0 1-.42-2 15.67 15.67 0 0 1-4.73 3.27 19.68 19.68 0 0 1-7.46 1.25q-5.65 0-8.58-2.62a8.31 8.31 0 0 1-2.92-6.38 8.45 8.45 0 0 1 2.11-5.92q2.1-2.32 7.8-3.45 6.8-1.37 8.83-1.92a41 41 0 0 0 4.28-1.44 4.26 4.26 0 0 0-.92-3.12 4.63 4.63 0 0 0-3.24-.89 8.38 8.38 0 0 0-4.46 1 5.21 5.21 0 0 0-1.87 2.74zm10.5 6.36q-2.5.9-5.2 1.58-3.7 1-4.67 1.93a3.1 3.1 0 0 0 0 4.56 4.21 4.21 0 0 0 2.93.91 7.53 7.53 0 0 0 3.76-1 5.94 5.94 0 0 0 2.45-2.34 8 8 0 0 0 .73-3.67z"/><path d="M60.92 28.4l-11.56-1.22a13 13 0 0 1 1.89-4.78 10.41 10.41 0 0 1 3.55-3 14.88 14.88 0 0 1 4.58-1.43 36.94 36.94 0 0 1 6.34-.57 50.13 50.13 0 0 1 8.74.61 11.24 11.24 0 0 1 5.5 2.54 8.92 8.92 0 0 1 2.4 3.85 13.7 13.7 0 0 1 .89 4.68V43a16.79 16.79 0 0 0 .28 3.49 15.64 15.64 0 0 0 1.19 3.22H73.4a11.53 11.53 0 0 1-.89-1.86 13.75 13.75 0 0 1-.42-2 15.67 15.67 0 0 1-4.73 3.27 19.68 19.68 0 0 1-7.46 1.26q-5.65 0-8.58-2.62a8.31 8.31 0 0 1-2.92-6.38 8.45 8.45 0 0 1 2.11-5.92q2.1-2.32 7.8-3.45 6.8-1.37 8.83-1.92a41 41 0 0 0 4.28-1.44 4.26 4.26 0 0 0-.92-3.12 4.63 4.63 0 0 0-3.24-.89 8.38 8.38 0 0 0-4.46 1 5.21 5.21 0 0 0-1.88 2.74zm10.5 6.36q-2.5.9-5.2 1.58-3.7 1-4.67 1.93a3.1 3.1 0 0 0 0 4.56 4.21 4.21 0 0 0 2.93.91 7.53 7.53 0 0 0 3.76-1 5.94 5.94 0 0 0 2.49-2.34 8 8 0 0 0 .73-3.67z"/><path d="M61.26 28.4l-11.54-1.23a13 13 0 0 1 1.86-4.77 10.41 10.41 0 0 1 3.55-3 14.88 14.88 0 0 1 4.59-1.45 36.94 36.94 0 0 1 6.3-.51 50.13 50.13 0 0 1 8.74.61 11.24 11.24 0 0 1 5.5 2.54 8.92 8.92 0 0 1 2.46 3.81 13.7 13.7 0 0 1 .89 4.68V43a16.79 16.79 0 0 0 .28 3.49 15.64 15.64 0 0 0 1.23 3.23h-11.4a11.53 11.53 0 0 1-.89-1.86 13.75 13.75 0 0 1-.42-2 15.67 15.67 0 0 1-4.69 3.26 19.68 19.68 0 0 1-7.47 1.26q-5.65 0-8.58-2.62a8.31 8.31 0 0 1-2.95-6.38 8.45 8.45 0 0 1 2.11-5.92q2.1-2.32 7.8-3.45 6.8-1.37 8.83-1.92a41 41 0 0 0 4.27-1.45 4.26 4.26 0 0 0-.92-3.12 4.63 4.63 0 0 0-3.24-.89 8.38 8.38 0 0 0-4.46 1 5.21 5.21 0 0 0-1.84 2.75zm10.46 6.35q-2.5.9-5.2 1.58-3.7 1-4.67 1.93a3.1 3.1 0 0 0 0 4.56 4.21 4.21 0 0 0 2.93.91 7.53 7.53 0 0 0 3.76-1 5.94 5.94 0 0 0 2.49-2.33 8 8 0 0 0 .73-3.67z"/><path d="M61.6 28.4l-11.56-1.22a13 13 0 0 1 1.88-4.78 10.41 10.41 0 0 1 3.55-3 14.88 14.88 0 0 1 4.58-1.43 36.94 36.94 0 0 1 6.3-.51 50.13 50.13 0 0 1 8.74.61 11.24 11.24 0 0 1 5.5 2.54 8.92 8.92 0 0 1 2.44 3.79 13.7 13.7 0 0 1 .89 4.68V43a16.79 16.79 0 0 0 .28 3.49 15.64 15.64 0 0 0 1.23 3.23H74.08a11.53 11.53 0 0 1-.89-1.86 13.75 13.75 0 0 1-.42-2 15.67 15.67 0 0 1-4.73 3.27 19.68 19.68 0 0 1-7.45 1.25q-5.65 0-8.58-2.62a8.31 8.31 0 0 1-2.93-6.38 8.45 8.45 0 0 1 2.11-5.92q2.1-2.32 7.8-3.45 6.8-1.37 8.83-1.92a41 41 0 0 0 4.28-1.44 4.26 4.26 0 0 0-.92-3.12 4.63 4.63 0 0 0-3.24-.89 8.38 8.38 0 0 0-4.46 1 5.21 5.21 0 0 0-1.87 2.74zm10.5 6.36q-2.5.9-5.2 1.58-3.7 1-4.67 1.93a3.1 3.1 0 0 0 0 4.56 4.21 4.21 0 0 0 2.93.91 7.53 7.53 0 0 0 3.76-1 5.94 5.94 0 0 0 2.45-2.34 8 8 0 0 0 .73-3.67z"/><path d="M61.93 28.4l-11.56-1.22a13 13 0 0 1 1.89-4.78 10.41 10.41 0 0 1 3.55-3 14.88 14.88 0 0 1 4.58-1.43 36.94 36.94 0 0 1 6.33-.57 50.13 50.13 0 0 1 8.74.61 11.24 11.24 0 0 1 5.5 2.54 8.92 8.92 0 0 1 2.41 3.85 13.7 13.7 0 0 1 .89 4.68V43a16.79 16.79 0 0 0 .28 3.49 15.64 15.64 0 0 0 1.23 3.23H74.42a11.53 11.53 0 0 1-.89-1.86 13.75 13.75 0 0 1-.42-2 15.67 15.67 0 0 1-4.73 3.27 19.68 19.68 0 0 1-7.46 1.25q-5.65 0-8.58-2.62a8.31 8.31 0 0 1-2.92-6.38 8.45 8.45 0 0 1 2.11-5.92q2.1-2.32 7.8-3.45 6.8-1.37 8.83-1.92a41 41 0 0 0 4.28-1.44 4.26 4.26 0 0 0-.92-3.12 4.63 4.63 0 0 0-3.24-.89 8.38 8.38 0 0 0-4.46 1 5.21 5.21 0 0 0-1.88 2.74zm10.5 6.36q-2.5.9-5.2 1.58-3.7 1-4.67 1.93a3.1 3.1 0 0 0 0 4.56 4.21 4.21 0 0 0 2.93.91 7.53 7.53 0 0 0 3.76-1 5.94 5.94 0 0 0 2.48-2.34 8 8 0 0 0 .73-3.67z"/><use xlink:href="#C"/></g><use xlink:href="#C" fill="#ff3"/><g fill="#ffa800"><path d="M110.08 18.15h11.33v31.22a13.16 13.16 0 0 1-1.26 5.66 11.93 11.93 0 0 1-3.36 4.36 13.2 13.2 0 0 1-5.32 2.41 33.12 33.12 0 0 1-7.39.74q-9.5 0-13.07-2.85a9.3 9.3 0 0 1-3.55-7.64q0-.6.06-1.6l11.74 1.34a3.82 3.82 0 0 0 1.37 2.26 5.79 5.79 0 0 0 3.36.92 5.07 5.07 0 0 0 3.91-1.4q1.3-1.4 1.3-4.87v-4.8a11.78 11.78 0 0 1-9.6 4.55 12 12 0 0 1-10.23-5.53Q86.6 39 86.6 32.55q0-7.37 3.57-11.24a12.11 12.11 0 0 1 9.35-3.92 13.09 13.09 0 0 1 6.08 1.25 13.24 13.24 0 0 1 4.47 4.13zm-11.36 15.3a7.49 7.49 0 0 0 1.46 5.07 5.17 5.17 0 0 0 7.63-.06 7.53 7.53 0 0 0 1.53-5.16 7.76 7.76 0 0 0-1.61-5.28 5 5 0 0 0-3.92-1.83 4.55 4.55 0 0 0-3.7 1.68q-1.4 1.7-1.4 5.58z"/><path d="M110.4 18.15h11.3v31.22a13.16 13.16 0 0 1-1.26 5.66 11.93 11.93 0 0 1-3.36 4.36 13.2 13.2 0 0 1-5.32 2.41 33.12 33.12 0 0 1-7.39.74q-9.5 0-13.07-2.85a9.3 9.3 0 0 1-3.55-7.64q0-.6.06-1.6l11.74 1.34a3.82 3.82 0 0 0 1.37 2.26 5.79 5.79 0 0 0 3.36.92 5.07 5.07 0 0 0 3.91-1.4q1.3-1.4 1.3-4.87v-4.8a11.78 11.78 0 0 1-9.6 4.55 12 12 0 0 1-10.18-5.54Q86.96 39 86.96 32.54q0-7.37 3.57-11.24a12.11 12.11 0 0 1 9.33-3.86 13.09 13.09 0 0 1 6.08 1.25 13.24 13.24 0 0 1 4.47 4.13zm-11.4 15.3a7.49 7.49 0 0 0 1.46 5.07 5.17 5.17 0 0 0 7.63-.06 7.53 7.53 0 0 0 1.53-5.16 7.76 7.76 0 0 0-1.61-5.28 5 5 0 0 0-3.92-1.83 4.55 4.55 0 0 0-3.7 1.68q-1.38 1.7-1.38 5.58z"/><path d="M110.72 18.15h11.33v31.22a13.16 13.16 0 0 1-1.26 5.66 11.93 11.93 0 0 1-3.36 4.36 13.2 13.2 0 0 1-5.32 2.41 33.12 33.12 0 0 1-7.39.74q-9.5 0-13.07-2.85a9.3 9.3 0 0 1-3.55-7.64q0-.6.06-1.6l11.74 1.34a3.82 3.82 0 0 0 1.37 2.26 5.79 5.79 0 0 0 3.36.92 5.07 5.07 0 0 0 3.91-1.4q1.3-1.4 1.3-4.87v-4.8a11.78 11.78 0 0 1-9.6 4.55A12 12 0 0 1 90 42.92Q87.24 39 87.24 32.55q0-7.37 3.57-11.24a12.11 12.11 0 0 1 9.33-3.86 13.09 13.09 0 0 1 6.08 1.25 13.24 13.24 0 0 1 4.47 4.13zm-11.4 15.3a7.49 7.49 0 0 0 1.46 5.07 5.17 5.17 0 0 0 7.63-.06 7.53 7.53 0 0 0 1.53-5.16 7.76 7.76 0 0 0-1.61-5.28 5 5 0 0 0-3.92-1.83 4.55 4.55 0 0 0-3.7 1.68q-1.35 1.7-1.35 5.58z"/><path d="M111.1 18.15h11.33v31.22a13.16 13.16 0 0 1-1.26 5.66 11.93 11.93 0 0 1-3.34 4.36 13.2 13.2 0 0 1-5.32 2.41 33.12 33.12 0 0 1-7.39.74q-9.5 0-13.07-2.85a9.3 9.3 0 0 1-3.55-7.64q0-.6.06-1.6l11.74 1.34a3.82 3.82 0 0 0 1.37 2.26 5.79 5.79 0 0 0 3.36.92 5.07 5.07 0 0 0 3.91-1.4q1.3-1.4 1.3-4.87v-4.8a11.78 11.78 0 0 1-9.6 4.55 12 12 0 0 1-10.23-5.53Q87.63 39 87.63 32.55q0-7.37 3.57-11.24a12.11 12.11 0 0 1 9.33-3.86 13.09 13.09 0 0 1 6.08 1.25 13.24 13.24 0 0 1 4.47 4.13zm-11.37 15.3a7.49 7.49 0 0 0 1.46 5.07 5.17 5.17 0 0 0 7.63-.06 7.53 7.53 0 0 0 1.53-5.16 7.76 7.76 0 0 0-1.61-5.28 5 5 0 0 0-3.92-1.83 4.55 4.55 0 0 0-3.7 1.68q-1.4 1.7-1.4 5.58z"/><path d="M111.43 18.15h11.3v31.22a13.16 13.16 0 0 1-1.26 5.66 11.93 11.93 0 0 1-3.36 4.36 13.2 13.2 0 0 1-5.32 2.41 33.12 33.12 0 0 1-7.39.74q-9.5 0-13.07-2.85a9.3 9.3 0 0 1-3.55-7.64q0-.6.06-1.6l11.74 1.34a3.82 3.82 0 0 0 1.37 2.26 5.79 5.79 0 0 0 3.36.92 5.07 5.07 0 0 0 3.91-1.4q1.3-1.4 1.3-4.87v-4.8a11.78 11.78 0 0 1-9.6 4.55 12 12 0 0 1-10.18-5.54Q87.96 39 87.96 32.54q0-7.37 3.57-11.24a12.11 12.11 0 0 1 9.33-3.86 13.09 13.09 0 0 1 6.08 1.25 13.24 13.24 0 0 1 4.47 4.13zm-11.4 15.3a7.49 7.49 0 0 0 1.46 5.07 5.17 5.17 0 0 0 7.63-.06 7.53 7.53 0 0 0 1.53-5.16 7.76 7.76 0 0 0-1.61-5.28 5 5 0 0 0-3.92-1.83 4.55 4.55 0 0 0-3.7 1.68q-1.4 1.7-1.4 5.58z"/><path d="M111.72 18.15h11.33v31.22a13.16 13.16 0 0 1-1.26 5.66 11.93 11.93 0 0 1-3.36 4.36 13.2 13.2 0 0 1-5.32 2.41 33.12 33.12 0 0 1-7.39.74q-9.5 0-13.07-2.85a9.3 9.3 0 0 1-3.55-7.64q0-.6.06-1.6l11.74 1.34a3.82 3.82 0 0 0 1.37 2.26 5.79 5.79 0 0 0 3.36.92 5.07 5.07 0 0 0 3.91-1.4q1.3-1.4 1.3-4.87v-4.8a11.78 11.78 0 0 1-9.6 4.55A12 12 0 0 1 91 42.92Q88.24 39 88.24 32.55q0-7.37 3.57-11.24a12.11 12.11 0 0 1 9.33-3.86 13.09 13.09 0 0 1 6.08 1.25 13.24 13.24 0 0 1 4.47 4.13zm-11.4 15.3a7.49 7.49 0 0 0 1.46 5.07 5.17 5.17 0 0 0 7.63-.06 7.53 7.53 0 0 0 1.53-5.16 7.76 7.76 0 0 0-1.61-5.28 5 5 0 0 0-3.92-1.83 4.55 4.55 0 0 0-3.7 1.68q-1.34 1.7-1.34 5.58z"/><path d="M112.1 18.15h11.33v31.22a13.16 13.16 0 0 1-1.26 5.66 11.93 11.93 0 0 1-3.36 4.36 13.2 13.2 0 0 1-5.32 2.41 33.12 33.12 0 0 1-7.39.74q-9.5 0-13.07-2.85a9.3 9.3 0 0 1-3.55-7.64q0-.6.06-1.6l11.74 1.34a3.82 3.82 0 0 0 1.37 2.26 5.79 5.79 0 0 0 3.36.92 5.07 5.07 0 0 0 3.91-1.4q1.3-1.4 1.3-4.87v-4.8a11.78 11.78 0 0 1-9.6 4.55 12 12 0 0 1-10.23-5.53Q88.62 39 88.62 32.55q0-7.37 3.57-11.24a12.11 12.11 0 0 1 9.33-3.86 13.09 13.09 0 0 1 6.08 1.25 13.24 13.24 0 0 1 4.47 4.13zm-11.38 15.3a7.49 7.49 0 0 0 1.46 5.07 5.17 5.17 0 0 0 7.63-.06 7.53 7.53 0 0 0 1.53-5.16 7.76 7.76 0 0 0-1.61-5.28 5 5 0 0 0-3.92-1.83 4.55 4.55 0 0 0-3.7 1.68q-1.4 1.7-1.4 5.58z"/><path d="M112.44 18.15h11.28v31.22a13.16 13.16 0 0 1-1.26 5.66 11.93 11.93 0 0 1-3.36 4.36 13.2 13.2 0 0 1-5.32 2.41 33.12 33.12 0 0 1-7.39.74q-9.5 0-13.07-2.85a9.3 9.3 0 0 1-3.55-7.64q0-.6.06-1.6l11.74 1.34a3.82 3.82 0 0 0 1.37 2.26 5.79 5.79 0 0 0 3.36.92 5.07 5.07 0 0 0 3.91-1.4q1.3-1.4 1.3-4.87v-4.8a11.78 11.78 0 0 1-9.6 4.55 12 12 0 0 1-10.18-5.54Q88.96 39 88.96 32.54q0-7.37 3.57-11.24a12.11 12.11 0 0 1 9.33-3.86 13.09 13.09 0 0 1 6.08 1.25 13.24 13.24 0 0 1 4.47 4.13zm-11.4 15.3a7.49 7.49 0 0 0 1.46 5.07 5.17 5.17 0 0 0 7.63-.06 7.53 7.53 0 0 0 1.53-5.16 7.76 7.76 0 0 0-1.61-5.28 5 5 0 0 0-3.92-1.83 4.55 4.55 0 0 0-3.7 1.68q-1.4 1.7-1.4 5.58z"/><path d="M112.78 18.15h11.33v31.22a13.16 13.16 0 0 1-1.26 5.66 11.93 11.93 0 0 1-3.36 4.36 13.2 13.2 0 0 1-5.32 2.41 33.12 33.12 0 0 1-7.39.74q-9.5 0-13.07-2.85a9.3 9.3 0 0 1-3.55-7.64q0-.6.06-1.6l11.74 1.34a3.82 3.82 0 0 0 1.37 2.26 5.79 5.79 0 0 0 3.36.92 5.07 5.07 0 0 0 3.91-1.4q1.3-1.4 1.3-4.87v-4.8a11.78 11.78 0 0 1-9.6 4.55 12 12 0 0 1-10.23-5.53Q89.3 39 89.3 32.55q0-7.37 3.57-11.24a12.11 12.11 0 0 1 9.35-3.92 13.09 13.09 0 0 1 6.08 1.25 13.24 13.24 0 0 1 4.47 4.13zm-11.4 15.3a7.49 7.49 0 0 0 1.46 5.07 5.17 5.17 0 0 0 7.63-.06 7.53 7.53 0 0 0 1.53-5.16 7.76 7.76 0 0 0-1.61-5.28 5 5 0 0 0-3.92-1.83 4.55 4.55 0 0 0-3.7 1.68q-1.4 1.7-1.4 5.58z"/><path d="M113.1 18.15h11.33v31.22a13.16 13.16 0 0 1-1.26 5.66 11.93 11.93 0 0 1-3.36 4.36 13.2 13.2 0 0 1-5.32 2.41 33.12 33.12 0 0 1-7.39.74q-9.5 0-13.07-2.85a9.3 9.3 0 0 1-3.55-7.64q0-.6.06-1.6l11.74 1.34a3.82 3.82 0 0 0 1.37 2.26 5.79 5.79 0 0 0 3.36.92 5.07 5.07 0 0 0 3.91-1.4q1.3-1.4 1.3-4.87v-4.8a11.78 11.78 0 0 1-9.6 4.55 12 12 0 0 1-10.23-5.53Q89.63 39 89.63 32.55q0-7.37 3.57-11.24a12.11 12.11 0 0 1 9.33-3.86 13.09 13.09 0 0 1 6.08 1.25 13.24 13.24 0 0 1 4.47 4.13zm-11.4 15.3a7.49 7.49 0 0 0 1.46 5.07 5.17 5.17 0 0 0 7.63-.06 7.53 7.53 0 0 0 1.53-5.16 7.76 7.76 0 0 0-1.61-5.28 5 5 0 0 0-3.92-1.83 4.55 4.55 0 0 0-3.7 1.68q-1.4 1.7-1.4 5.58z"/><path d="M113.45 18.15h11.33v31.22a13.16 13.16 0 0 1-1.26 5.66 11.93 11.93 0 0 1-3.36 4.36 13.2 13.2 0 0 1-5.32 2.41 33.12 33.12 0 0 1-7.39.74q-9.5 0-13.07-2.85a9.3 9.3 0 0 1-3.55-7.64q0-.6.06-1.6l11.74 1.34a3.82 3.82 0 0 0 1.37 2.26 5.79 5.79 0 0 0 3.36.92 5.07 5.07 0 0 0 3.91-1.4q1.3-1.4 1.3-4.87v-4.8a11.78 11.78 0 0 1-9.6 4.55 12 12 0 0 1-10.24-5.54Q89.96 39 89.96 32.54q0-7.37 3.57-11.24a12.11 12.11 0 0 1 9.33-3.86 13.09 13.09 0 0 1 6.08 1.25 13.24 13.24 0 0 1 4.47 4.13zm-11.4 15.3a7.49 7.49 0 0 0 1.46 5.07 5.17 5.17 0 0 0 7.63-.06 7.53 7.53 0 0 0 1.53-5.16 7.76 7.76 0 0 0-1.61-5.28 5 5 0 0 0-3.92-1.83 4.55 4.55 0 0 0-3.7 1.68q-1.4 1.7-1.4 5.58z"/><path d="M113.8 18.15h11.33v31.22a13.16 13.16 0 0 1-1.26 5.66 11.93 11.93 0 0 1-3.34 4.36 13.2 13.2 0 0 1-5.32 2.41 33.12 33.12 0 0 1-7.39.74q-9.5 0-13.07-2.85a9.3 9.3 0 0 1-3.55-7.64q0-.6.06-1.6L103 51.78a3.82 3.82 0 0 0 1.37 2.26 5.79 5.79 0 0 0 3.36.92 5.07 5.07 0 0 0 3.91-1.4q1.3-1.4 1.3-4.87v-4.8a11.78 11.78 0 0 1-9.6 4.55 12 12 0 0 1-10.23-5.53Q90.33 39 90.33 32.55q0-7.37 3.57-11.24a12.11 12.11 0 0 1 9.33-3.86 13.09 13.09 0 0 1 6.08 1.25 13.24 13.24 0 0 1 4.47 4.13zm-11.4 15.3a7.49 7.49 0 0 0 1.46 5.07 5.17 5.17 0 0 0 7.63-.06 7.53 7.53 0 0 0 1.53-5.16 7.76 7.76 0 0 0-1.61-5.28 5 5 0 0 0-3.92-1.83 4.55 4.55 0 0 0-3.7 1.68q-1.4 1.7-1.4 5.58z"/><path d="M114.13 18.15h11.33v31.22a13.16 13.16 0 0 1-1.26 5.66 11.93 11.93 0 0 1-3.36 4.36 13.2 13.2 0 0 1-5.32 2.41 33.12 33.12 0 0 1-7.39.74q-9.5 0-13.07-2.85a9.3 9.3 0 0 1-3.55-7.64q0-.6.06-1.6l11.74 1.34a3.82 3.82 0 0 0 1.37 2.26 5.79 5.79 0 0 0 3.36.92 5.07 5.07 0 0 0 3.91-1.4q1.3-1.4 1.3-4.87v-4.8a11.78 11.78 0 0 1-9.6 4.55 12 12 0 0 1-10.23-5.53q-2.7-3.93-2.7-10.38 0-7.37 3.57-11.24a12.11 12.11 0 0 1 9.33-3.86 13.09 13.09 0 0 1 6.08 1.25 13.24 13.24 0 0 1 4.47 4.13zm-11.4 15.3a7.49 7.49 0 0 0 1.46 5.07 5.17 5.17 0 0 0 7.63-.06 7.53 7.53 0 0 0 1.53-5.16 7.76 7.76 0 0 0-1.61-5.28 5 5 0 0 0-3.92-1.83 4.55 4.55 0 0 0-3.7 1.68q-1.4 1.7-1.4 5.58z"/><path d="M114.46 18.15h11.33v31.22a13.16 13.16 0 0 1-1.26 5.66 11.93 11.93 0 0 1-3.36 4.36 13.2 13.2 0 0 1-5.32 2.41 33.12 33.12 0 0 1-7.39.74q-9.5 0-13.07-2.85a9.3 9.3 0 0 1-3.55-7.64q0-.6.06-1.6l11.82 1.33a3.82 3.82 0 0 0 1.37 2.26 5.79 5.79 0 0 0 3.36.92 5.07 5.07 0 0 0 3.91-1.4q1.3-1.4 1.3-4.87v-4.8a11.78 11.78 0 0 1-9.6 4.55 12 12 0 0 1-10.23-5.53Q91.06 39 91.06 32.54q0-7.37 3.57-11.24a12.11 12.11 0 0 1 9.33-3.86 13.09 13.09 0 0 1 6.08 1.25 13.24 13.24 0 0 1 4.47 4.13zm-11.4 15.3a7.49 7.49 0 0 0 1.46 5.07 5.17 5.17 0 0 0 7.63-.06 7.53 7.53 0 0 0 1.53-5.16 7.76 7.76 0 0 0-1.61-5.28 5 5 0 0 0-3.92-1.83 4.55 4.55 0 0 0-3.7 1.68q-1.38 1.7-1.38 5.58z"/><use xlink:href="#D"/></g><use xlink:href="#D" fill="#ff3"/><g fill="#ffa800"><use xlink:href="#E"/><path d="M126.9 40.95l12-1.13a5.92 5.92 0 0 0 2.08 3.06 6.18 6.18 0 0 0 3.57.92 6 6 0 0 0 3.78-1 2.32 2.32 0 0 0 1-1.93 2.21 2.21 0 0 0-1.37-2 25 25 0 0 0-5.2-1.25 54.12 54.12 0 0 1-8.75-2 9.23 9.23 0 0 1-4.13-3.16 8.21 8.21 0 0 1-1.68-5.08 8.32 8.32 0 0 1 1.81-5.38 10.79 10.79 0 0 1 5-3.37 26.53 26.53 0 0 1 8.53-1.11 29.54 29.54 0 0 1 8.34.86 10.89 10.89 0 0 1 4.49 2.68 14 14 0 0 1 3 4.9L147.9 27.1a3.92 3.92 0 0 0-1.49-2.23 6.07 6.07 0 0 0-3.45-1 4.89 4.89 0 0 0-3 .73 2.17 2.17 0 0 0-.94 1.77 1.88 1.88 0 0 0 1.19 1.75 19.24 19.24 0 0 0 5.17 1.07 35.38 35.38 0 0 1 9 1.9 9.9 9.9 0 0 1 4.5 3.47 8.54 8.54 0 0 1 1.56 5 9.76 9.76 0 0 1-1.65 5.32 11.17 11.17 0 0 1-5.2 4.11 25 25 0 0 1-9.68 1.53q-8.65 0-12.32-2.47a11.09 11.09 0 0 1-4.68-7.09z"/><use xlink:href="#E" x="0.67"/><path d="M127.6 40.95l12-1.13a5.92 5.92 0 0 0 2.08 3.06 6.18 6.18 0 0 0 3.57.92 6 6 0 0 0 3.78-1 2.32 2.32 0 0 0 1-1.93 2.21 2.21 0 0 0-1.37-2 25 25 0 0 0-5.2-1.25 54.12 54.12 0 0 1-8.75-2 9.23 9.23 0 0 1-4.13-3.16 8.21 8.21 0 0 1-1.68-5.08A8.32 8.32 0 0 1 130.7 22a10.79 10.79 0 0 1 5-3.37 26.53 26.53 0 0 1 8.53-1.11 29.54 29.54 0 0 1 8.34.86 10.89 10.89 0 0 1 4.49 2.68 14 14 0 0 1 3 4.9l-11.48 1.13a3.92 3.92 0 0 0-1.49-2.23 6.07 6.07 0 0 0-3.45-1 4.89 4.89 0 0 0-3 .73 2.17 2.17 0 0 0-.94 1.77 1.88 1.88 0 0 0 1.19 1.75 19.24 19.24 0 0 0 5.17 1.07 35.38 35.38 0 0 1 9 1.9 9.9 9.9 0 0 1 4.5 3.47 8.54 8.54 0 0 1 1.56 5 9.76 9.76 0 0 1-1.65 5.32 11.17 11.17 0 0 1-5.2 4.11 25 25 0 0 1-9.65 1.41q-8.65 0-12.32-2.47a11.09 11.09 0 0 1-4.71-6.97z"/><path d="M127.92 40.95l12-1.13a5.92 5.92 0 0 0 2.08 3.06 6.18 6.18 0 0 0 3.57.92 6 6 0 0 0 3.78-1 2.32 2.32 0 0 0 1-1.93 2.21 2.21 0 0 0-1.37-2 25 25 0 0 0-5.2-1.25 54.12 54.12 0 0 1-8.75-2 9.23 9.23 0 0 1-4.13-3.16 8.21 8.21 0 0 1-1.68-5.08 8.32 8.32 0 0 1 1.81-5.38 10.79 10.79 0 0 1 5-3.37 26.53 26.53 0 0 1 8.53-1.11 29.54 29.54 0 0 1 8.34.86 10.89 10.89 0 0 1 4.49 2.68 14 14 0 0 1 3 4.9L148.9 27.1a3.92 3.92 0 0 0-1.49-2.23 6.07 6.07 0 0 0-3.45-1 4.89 4.89 0 0 0-3 .73 2.17 2.17 0 0 0-.94 1.77 1.88 1.88 0 0 0 1.19 1.75 19.24 19.24 0 0 0 5.17 1.07 35.38 35.38 0 0 1 9 1.9 9.9 9.9 0 0 1 4.5 3.47 8.54 8.54 0 0 1 1.56 5 9.76 9.76 0 0 1-1.65 5.32 11.17 11.17 0 0 1-5.2 4.11 25 25 0 0 1-9.68 1.53q-8.65 0-12.32-2.47a11.09 11.09 0 0 1-4.68-7.09z"/><use xlink:href="#E" x="1.68"/><use xlink:href="#F"/><use xlink:href="#E" x="2.36"/><use xlink:href="#E" x="2.69"/><path d="M129.6 40.95l12-1.13a5.92 5.92 0 0 0 2.08 3.06 6.18 6.18 0 0 0 3.57.92 6 6 0 0 0 3.78-1 2.32 2.32 0 0 0 1-1.93 2.21 2.21 0 0 0-1.37-2 25 25 0 0 0-5.2-1.25 54.12 54.12 0 0 1-8.75-2 9.23 9.23 0 0 1-4.13-3.16 8.21 8.21 0 0 1-1.68-5.08 8.32 8.32 0 0 1 1.81-5.38 10.79 10.79 0 0 1 5-3.37 26.53 26.53 0 0 1 8.53-1.11 29.54 29.54 0 0 1 8.34.86 10.89 10.89 0 0 1 4.49 2.68 14 14 0 0 1 3 4.9L150.6 27.1a3.92 3.92 0 0 0-1.49-2.23 6.07 6.07 0 0 0-3.45-1 4.89 4.89 0 0 0-3 .73 2.17 2.17 0 0 0-.94 1.77 1.88 1.88 0 0 0 1.19 1.75 19.24 19.24 0 0 0 5.17 1.07 35.38 35.38 0 0 1 9 1.9 9.9 9.9 0 0 1 4.5 3.47 8.54 8.54 0 0 1 1.56 5 9.76 9.76 0 0 1-1.65 5.32 11.17 11.17 0 0 1-5.2 4.11 25 25 0 0 1-9.68 1.53q-8.65 0-12.32-2.47a11.09 11.09 0 0 1-4.68-7.09z"/><use xlink:href="#E" x="3.37"/><path d="M130.3 40.95l12-1.13a5.92 5.92 0 0 0 2.08 3.06 6.18 6.18 0 0 0 3.57.92 6 6 0 0 0 3.78-1 2.32 2.32 0 0 0 1-1.93 2.21 2.21 0 0 0-1.37-2 25 25 0 0 0-5.2-1.25 54.12 54.12 0 0 1-8.75-2 9.23 9.23 0 0 1-4.13-3.16 8.21 8.21 0 0 1-1.68-5.08A8.32 8.32 0 0 1 133.4 22a10.79 10.79 0 0 1 5-3.37 26.53 26.53 0 0 1 8.53-1.11 29.54 29.54 0 0 1 8.34.86 10.89 10.89 0 0 1 4.49 2.68 14 14 0 0 1 3 4.9l-11.48 1.13a3.92 3.92 0 0 0-1.49-2.23 6.07 6.07 0 0 0-3.45-1 4.89 4.89 0 0 0-3 .73 2.17 2.17 0 0 0-.94 1.77 1.88 1.88 0 0 0 1.19 1.75 19.24 19.24 0 0 0 5.17 1.07 35.38 35.38 0 0 1 9 1.9 9.9 9.9 0 0 1 4.5 3.47 8.54 8.54 0 0 1 1.56 5 9.76 9.76 0 0 1-1.65 5.32 11.17 11.17 0 0 1-5.2 4.11 25 25 0 0 1-9.65 1.41q-8.65 0-12.32-2.47a11.09 11.09 0 0 1-4.71-6.97z"/><path d="M130.62 40.95l12-1.13a5.92 5.92 0 0 0 2.08 3.06 6.18 6.18 0 0 0 3.57.92 6 6 0 0 0 3.78-1 2.32 2.32 0 0 0 1-1.93 2.21 2.21 0 0 0-1.37-2 25 25 0 0 0-5.2-1.25 54.12 54.12 0 0 1-8.75-2 9.23 9.23 0 0 1-4.13-3.16 8.21 8.21 0 0 1-1.68-5.08 8.32 8.32 0 0 1 1.81-5.38 10.79 10.79 0 0 1 5-3.37 26.53 26.53 0 0 1 8.53-1.11 29.54 29.54 0 0 1 8.34.86 10.89 10.89 0 0 1 4.49 2.68 14 14 0 0 1 3 4.9L151.6 27.1a3.92 3.92 0 0 0-1.49-2.23 6.07 6.07 0 0 0-3.45-1 4.89 4.89 0 0 0-3 .73 2.17 2.17 0 0 0-.94 1.77 1.88 1.88 0 0 0 1.19 1.75 19.24 19.24 0 0 0 5.17 1.07 35.38 35.38 0 0 1 9 1.9 9.9 9.9 0 0 1 4.5 3.47 8.54 8.54 0 0 1 1.56 5 9.76 9.76 0 0 1-1.65 5.32 11.17 11.17 0 0 1-5.2 4.11 25 25 0 0 1-9.68 1.53q-8.65 0-12.32-2.47a11.09 11.09 0 0 1-4.68-7.09z"/><use xlink:href="#E" x="4.38"/><use xlink:href="#F" x="2.7"/></g><use xlink:href="#F" x="2.7" fill="#ff3"/><g fill="#ffa800"><path d="M187.98 25.9h-21.26a13.29 13.29 0 0 1 2.21-5.91 29.83 29.83 0 0 1 6.94-6.54 20.66 20.66 0 0 0 4-3.51 3.93 3.93 0 0 0 .87-2.28 2.66 2.66 0 0 0-.86-2 3.28 3.28 0 0 0-4.38 0 5.22 5.22 0 0 0-1.16 3l-7.1-.57a11.28 11.28 0 0 1 1.53-4.66 7.1 7.1 0 0 1 3.13-2.57 14.19 14.19 0 0 1 5.6-.89 15.8 15.8 0 0 1 5.81.85 7.07 7.07 0 0 1 3.27 2.61 6.91 6.91 0 0 1 1.19 4 8.09 8.09 0 0 1-1.36 4.45 18.68 18.68 0 0 1-5 4.65q-2.14 1.48-2.86 2.07-.72.6-1.7 1.55h11z"/><path d="M188.17 25.9h-21.22a13.29 13.29 0 0 1 2.21-5.91 29.83 29.83 0 0 1 6.94-6.54 20.66 20.66 0 0 0 4-3.51 3.93 3.93 0 0 0 .87-2.28 2.66 2.66 0 0 0-.86-2 3.28 3.28 0 0 0-4.38 0 5.22 5.22 0 0 0-1.16 3l-7.1-.57a11.28 11.28 0 0 1 1.53-4.66 7.1 7.1 0 0 1 3.13-2.57 14.19 14.19 0 0 1 5.6-.89 15.8 15.8 0 0 1 5.81.85 7.07 7.07 0 0 1 3.27 2.61 6.91 6.91 0 0 1 1.19 4 8.09 8.09 0 0 1-1.36 4.45 18.68 18.68 0 0 1-5 4.65Q179.5 18 178.8 18.6q-.72.6-1.7 1.55h11z"/><path d="M188.37 25.9h-21.22a13.29 13.29 0 0 1 2.21-5.91 29.83 29.83 0 0 1 6.94-6.54 20.66 20.66 0 0 0 4-3.51 3.93 3.93 0 0 0 .87-2.28 2.66 2.66 0 0 0-.86-2 3.28 3.28 0 0 0-4.38 0 5.22 5.22 0 0 0-1.16 3l-7.1-.57a11.28 11.28 0 0 1 1.53-4.66 7.1 7.1 0 0 1 3.13-2.57 14.19 14.19 0 0 1 5.6-.89 15.8 15.8 0 0 1 5.81.85 7.07 7.07 0 0 1 3.27 2.61 6.91 6.91 0 0 1 1.19 4 8.09 8.09 0 0 1-1.36 4.45 18.68 18.68 0 0 1-5 4.65Q179.7 18 179 18.6q-.72.6-1.7 1.55h11z"/><use xlink:href="#G"/><path d="M188.72 25.9h-21.18a13.29 13.29 0 0 1 2.21-5.91 29.83 29.83 0 0 1 6.94-6.54 20.66 20.66 0 0 0 4-3.51 3.93 3.93 0 0 0 .87-2.28 2.66 2.66 0 0 0-.86-2 3.28 3.28 0 0 0-4.38 0 5.22 5.22 0 0 0-1.16 3l-7.1-.57a11.28 11.28 0 0 1 1.53-4.66A7.1 7.1 0 0 1 172.72.9a14.19 14.19 0 0 1 5.6-.89 15.8 15.8 0 0 1 5.81.85 7.07 7.07 0 0 1 3.27 2.61 6.91 6.91 0 0 1 1.19 4 8.09 8.09 0 0 1-1.36 4.45 18.68 18.68 0 0 1-5 4.65q-2.14 1.48-2.86 2.07-.72.6-1.65 1.5h11z"/><path d="M188.96 25.9h-21.24a13.29 13.29 0 0 1 2.21-5.91 29.83 29.83 0 0 1 6.94-6.54 20.66 20.66 0 0 0 4-3.51 3.93 3.93 0 0 0 .87-2.28 2.66 2.66 0 0 0-.86-2 3.28 3.28 0 0 0-4.38 0 5.22 5.22 0 0 0-1.16 3l-7.1-.57a11.28 11.28 0 0 1 1.53-4.66 7.1 7.1 0 0 1 3.13-2.57 14.19 14.19 0 0 1 5.6-.89 15.8 15.8 0 0 1 5.81.85 7.07 7.07 0 0 1 3.27 2.61 6.91 6.91 0 0 1 1.19 4 8.09 8.09 0 0 1-1.36 4.45 18.68 18.68 0 0 1-5 4.65q-2.14 1.48-2.86 2.07-.72.6-1.7 1.55h11z"/><path d="M189.16 25.9h-21.22a13.29 13.29 0 0 1 2.21-5.91 29.83 29.83 0 0 1 6.94-6.54 20.66 20.66 0 0 0 4-3.51 3.93 3.93 0 0 0 .87-2.28 2.66 2.66 0 0 0-.86-2 3.28 3.28 0 0 0-4.38 0 5.22 5.22 0 0 0-1.16 3l-7.1-.57A11.28 11.28 0 0 1 170 3.43a7.1 7.1 0 0 1 3.13-2.57 14.19 14.19 0 0 1 5.6-.89 15.8 15.8 0 0 1 5.81.85 7.07 7.07 0 0 1 3.27 2.61 6.91 6.91 0 0 1 1.19 4 8.09 8.09 0 0 1-1.36 4.45 18.68 18.68 0 0 1-5 4.65q-2.14 1.48-2.86 2.07-.72.6-1.7 1.55h11z"/><path d="M189.36 25.9h-21.23a13.29 13.29 0 0 1 2.21-5.91 29.83 29.83 0 0 1 6.94-6.54 20.66 20.66 0 0 0 4-3.51 3.93 3.93 0 0 0 .87-2.28 2.66 2.66 0 0 0-.86-2 3.28 3.28 0 0 0-4.38 0 5.22 5.22 0 0 0-1.16 3l-7.1-.57a11.28 11.28 0 0 1 1.53-4.66 7.1 7.1 0 0 1 3.13-2.57 14.19 14.19 0 0 1 5.6-.89 15.8 15.8 0 0 1 5.81.85A7.07 7.07 0 0 1 188 3.43a6.91 6.91 0 0 1 1.19 4 8.09 8.09 0 0 1-1.36 4.45 18.68 18.68 0 0 1-5 4.65q-2.14 1.48-2.86 2.07-.72.6-1.7 1.55h11z"/><use xlink:href="#H"/><path d="M189.72 25.9h-21.2a13.29 13.29 0 0 1 2.21-5.91 29.83 29.83 0 0 1 6.94-6.54 20.66 20.66 0 0 0 4-3.51 3.93 3.93 0 0 0 .87-2.28 2.66 2.66 0 0 0-.86-2 3.28 3.28 0 0 0-4.38 0 5.22 5.22 0 0 0-1.16 3l-7.1-.57a11.28 11.28 0 0 1 1.53-4.66A7.1 7.1 0 0 1 173.72.9a14.19 14.19 0 0 1 5.6-.89 15.8 15.8 0 0 1 5.81.85 7.07 7.07 0 0 1 3.27 2.61 6.91 6.91 0 0 1 1.19 4 8.09 8.09 0 0 1-1.36 4.45 18.68 18.68 0 0 1-5 4.65q-2.14 1.48-2.86 2.07-.72.6-1.65 1.5h11z"/><use xlink:href="#G" x="1.38"/><use xlink:href="#H" x="0.59"/><use xlink:href="#H" x="0.79"/><use xlink:href="#H" x="0.99"/><use xlink:href="#I"/></g><use xlink:href="#I" fill="#ff3"/><g fill="#ffa800"><use xlink:href="#J"/><path d="M194.57 34.03a15.79 15.79 0 0 1 4.88-11.91q4.87-4.73 13.16-4.73 9.48 0 14.33 5.5c5.533 6.75 5.13 16.577-.94 22.85q-4.82 4.65-13.36 4.65-7.6 0-12.3-3.86a15.51 15.51 0 0 1-5.76-12.5zm12.13 0q0 4.22 1.7 6.24a5.6 5.6 0 0 0 8.59 0q1.68-2 1.68-6.4 0-4.1-1.7-6.1a5.28 5.28 0 0 0-4.19-2 5.48 5.48 0 0 0-4.37 2q-1.7 2.07-1.7 6.23z"/><use xlink:href="#K"/><use xlink:href="#J" x="1.01"/><path d="M195.58 34.03a15.79 15.79 0 0 1 4.88-11.91q4.87-4.68 13.17-4.68 9.48 0 14.33 5.5c5.533 6.75 5.13 16.577-.94 22.85q-4.83 4.6-13.36 4.6-7.6 0-12.3-3.86a15.51 15.51 0 0 1-5.77-12.5zm12.13 0q0 4.22 1.7 6.24a5.6 5.6 0 0 0 8.59 0q1.68-2 1.68-6.4 0-4.1-1.7-6.1a5.28 5.28 0 0 0-4.19-2 5.48 5.48 0 0 0-4.37 2q-1.72 2.07-1.72 6.23z"/><use xlink:href="#K" x="1.02"/><use xlink:href="#K" x="1.36"/><use xlink:href="#J" x="2.37"/><path d="M196.93 34.03a15.79 15.79 0 0 1 4.88-11.91q4.9-4.73 13.17-4.73 9.48 0 14.33 5.5c5.533 6.75 5.13 16.577-.94 22.85Q223.54 50.4 215 50.4q-7.6 0-12.3-3.86a15.51 15.51 0 0 1-5.77-12.5zm12.13 0q0 4.22 1.7 6.24a5.6 5.6 0 0 0 8.59 0q1.68-2 1.68-6.4 0-4.1-1.7-6.1a5.28 5.28 0 0 0-4.19-2 5.48 5.48 0 0 0-4.37 2q-1.73 2.07-1.73 6.23z"/><path d="M197.27 34.03a15.79 15.79 0 0 1 4.88-11.91q4.87-4.73 13.16-4.73 9.48 0 14.33 5.5c5.533 6.75 5.13 16.577-.94 22.85q-4.83 4.65-13.36 4.65-7.6 0-12.3-3.86a15.51 15.51 0 0 1-5.76-12.5zm12.13 0q0 4.22 1.7 6.24a5.6 5.6 0 0 0 8.59 0q1.68-2 1.68-6.4 0-4.1-1.7-6.1a5.28 5.28 0 0 0-4.19-2 5.48 5.48 0 0 0-4.37 2q-1.73 2.07-1.73 6.23z"/><path d="M197.6 34.03a15.79 15.79 0 0 1 4.88-11.91q4.87-4.68 13.17-4.68 9.48 0 14.33 5.5c5.533 6.75 5.13 16.577-.94 22.85q-4.84 4.6-13.33 4.6-7.6 0-12.3-3.86a15.51 15.51 0 0 1-5.8-12.5zm12.13 0q0 4.22 1.7 6.24a5.6 5.6 0 0 0 8.59 0q1.68-2 1.68-6.4 0-4.1-1.7-6.1a5.28 5.28 0 0 0-4.19-2 5.48 5.48 0 0 0-4.37 2q-1.75 2.07-1.75 6.23z"/><use xlink:href="#L"/><path d="M198.28 34.03a15.79 15.79 0 0 1 4.88-11.91q4.87-4.73 13.16-4.73 9.48 0 14.33 5.5c5.533 6.75 5.13 16.577-.94 22.85q-4.82 4.65-13.36 4.65-7.6 0-12.3-3.86a15.51 15.51 0 0 1-5.76-12.5zm12.13 0q0 4.22 1.7 6.24a5.6 5.6 0 0 0 8.59 0q1.68-2 1.68-6.4 0-4.1-1.7-6.1a5.28 5.28 0 0 0-4.19-2 5.48 5.48 0 0 0-4.37 2q-1.73 2.07-1.73 6.23z"/><path d="M198.62 34.03a15.79 15.79 0 0 1 4.88-11.91q4.87-4.68 13.17-4.68 9.48 0 14.33 5.5c5.533 6.75 5.13 16.577-.94 22.85q-4.84 4.6-13.34 4.6-7.6 0-12.3-3.86a15.51 15.51 0 0 1-5.79-12.5zm12.13 0q0 4.22 1.7 6.24a5.6 5.6 0 0 0 8.59 0q1.68-2 1.68-6.4 0-4.1-1.7-6.1a5.28 5.28 0 0 0-4.19-2 5.48 5.48 0 0 0-4.37 2q-1.76 2.07-1.76 6.23z"/><use xlink:href="#L" x="1.01"/></g><use xlink:href="#L" x="1.01" fill="#ff3"/><g fill="#ffa800"><use xlink:href="#M"/><path d="M236.66 18.15h11.27v5.14a16.77 16.77 0 0 1 5.11-4.5 13.46 13.46 0 0 1 6.3-1.35 10.33 10.33 0 0 1 7.86 3q2.84 3 2.84 9.23v20.07H257.9V32.4q0-3-1.1-4.2a3.93 3.93 0 0 0-3.09-1.23 4.4 4.4 0 0 0-3.57 1.66q-1.37 1.67-1.37 6v15.16h-12.1z"/><path d="M237 18.15h11.27v5.14a16.77 16.77 0 0 1 5.11-4.5 13.46 13.46 0 0 1 6.34-1.4 10.33 10.33 0 0 1 7.86 3q2.84 3 2.84 9.23V49.7h-12.2V32.4q0-3-1.1-4.2a3.93 3.93 0 0 0-3.09-1.23 4.4 4.4 0 0 0-3.57 1.66q-1.37 1.67-1.37 6v15.16H237z"/><use xlink:href="#M" x="1.01"/><path d="M237.72 18.15H249v5.14a16.77 16.77 0 0 1 5.11-4.5 13.46 13.46 0 0 1 6.3-1.35 10.33 10.33 0 0 1 7.86 3q2.84 3 2.84 9.23v20.07h-12.2V32.4q0-3-1.1-4.2a3.93 3.93 0 0 0-3.09-1.23 4.4 4.4 0 0 0-3.57 1.66q-1.37 1.67-1.37 6v15.16h-12.05z"/><path d="M238 18.15h11.27v5.14a16.77 16.77 0 0 1 5.11-4.5 13.46 13.46 0 0 1 6.33-1.4 10.33 10.33 0 0 1 7.86 3q2.84 3 2.84 9.23V49.7h-12.18V32.4q0-3-1.1-4.2a3.93 3.93 0 0 0-3.09-1.23 4.4 4.4 0 0 0-3.57 1.66q-1.37 1.67-1.37 6v15.16H238z"/><path d="M238.35 18.15h11.27v5.14a16.77 16.77 0 0 1 5.11-4.5 13.46 13.46 0 0 1 6.3-1.35 10.33 10.33 0 0 1 7.86 3q2.84 3 2.84 9.23v20.07h-12.15V32.4q0-3-1.1-4.2a3.93 3.93 0 0 0-3.09-1.23 4.4 4.4 0 0 0-3.57 1.66q-1.37 1.67-1.37 6v15.16h-12.1z"/><path d="M238.72 18.15H250v5.14a16.77 16.77 0 0 1 5.11-4.5 13.46 13.46 0 0 1 6.3-1.35 10.33 10.33 0 0 1 7.86 3q2.84 3 2.84 9.23v20.07h-12.2V32.4q0-3-1.1-4.2a3.93 3.93 0 0 0-3.09-1.23 4.4 4.4 0 0 0-3.57 1.66q-1.37 1.67-1.37 6v15.16h-12.06z"/><path d="M239.02 18.15h11.27v5.14a16.77 16.77 0 0 1 5.11-4.5 13.46 13.46 0 0 1 6.32-1.4 10.33 10.33 0 0 1 7.86 3q2.84 3 2.84 9.23V49.7h-12.17V32.4q0-3-1.1-4.2a3.93 3.93 0 0 0-3.09-1.23 4.4 4.4 0 0 0-3.57 1.66q-1.37 1.67-1.37 6v15.16h-12.1z"/><path d="M239.36 18.15h11.27v5.14a16.77 16.77 0 0 1 5.11-4.5 13.46 13.46 0 0 1 6.3-1.35 10.33 10.33 0 0 1 7.86 3q2.84 3 2.84 9.23v20.07H260.6V32.4q0-3-1.1-4.2a3.93 3.93 0 0 0-3.09-1.23 4.4 4.4 0 0 0-3.57 1.66q-1.37 1.67-1.37 6v15.16h-12.1z"/><path d="M239.72 18.15H251v5.14a16.77 16.77 0 0 1 5.11-4.5 13.46 13.46 0 0 1 6.3-1.35 10.33 10.33 0 0 1 7.86 3q2.84 3 2.84 9.23v20.07h-12.18V32.4q0-3-1.1-4.2a3.93 3.93 0 0 0-3.09-1.23 4.4 4.4 0 0 0-3.57 1.66q-1.37 1.67-1.37 6v15.16h-12.07z"/><path d="M240.04 18.15h11.27v5.14a16.77 16.77 0 0 1 5.11-4.5 13.46 13.46 0 0 1 6.3-1.4 10.33 10.33 0 0 1 7.86 3q2.84 3 2.84 9.23V49.7h-12.16V32.4q0-3-1.1-4.2a3.93 3.93 0 0 0-3.09-1.23 4.4 4.4 0 0 0-3.57 1.66q-1.37 1.67-1.37 6v15.16h-12.1z"/><path d="M240.37 18.15h11.27v5.14a16.77 16.77 0 0 1 5.11-4.5 13.46 13.46 0 0 1 6.3-1.35 10.33 10.33 0 0 1 7.86 3q2.84 3 2.84 9.23v20.07H261.6V32.4q0-3-1.1-4.2a3.93 3.93 0 0 0-3.09-1.23 4.4 4.4 0 0 0-3.57 1.66q-1.37 1.67-1.37 6v15.16h-12.1z"/><path d="M240.72 18.15H252v5.14a16.77 16.77 0 0 1 5.11-4.5 13.46 13.46 0 0 1 6.3-1.35 10.33 10.33 0 0 1 7.86 3q2.84 3 2.84 9.23v20.07h-12.16V32.4q0-3-1.1-4.2a3.93 3.93 0 0 0-3.09-1.23 4.4 4.4 0 0 0-3.57 1.66q-1.37 1.67-1.37 6v15.16h-12.1z"/><use xlink:href="#N"/></g><use xlink:href="#N" fill="#ff3"/><defs ><path id="B" d="M4.72 6.14h25.2q6.3 0 9.68 3.12a10.11 10.11 0 0 1 3.37 7.73 9.75 9.75 0 0 1-2.41 6.63 10.72 10.72 0 0 1-4.7 2.91 12.2 12.2 0 0 1 6.92 3.86A10.67 10.67 0 0 1 45 37.3a11.89 11.89 0 0 1-1.58 6.09 11.61 11.61 0 0 1-4.31 4.28A14.25 14.25 0 0 1 34 49.1a58.89 58.89 0 0 1-6 .59H4.72zm13.6 17.1h5.86q3.15 0 4.38-1.1A4 4 0 0 0 29.78 19a3.73 3.73 0 0 0-1.23-3q-1.23-1.07-4.3-1.07H18.3zm0 17.12h6.87q3.48 0 4.9-1.23a4.16 4.16 0 0 0 1.43-3.31 3.84 3.84 0 0 0-1.41-3.11q-1.4-1.17-4.95-1.17H18.3z"/><path id="C" d="M62.27 28.4l-11.55-1.23a13 13 0 0 1 1.88-4.77 10.41 10.41 0 0 1 3.55-3 14.88 14.88 0 0 1 4.57-1.45 36.94 36.94 0 0 1 6.3-.51 50.13 50.13 0 0 1 8.74.61 11.24 11.24 0 0 1 5.5 2.54 8.92 8.92 0 0 1 2.46 3.81 13.7 13.7 0 0 1 .89 4.68V43a16.79 16.79 0 0 0 .28 3.49 15.64 15.64 0 0 0 1.23 3.23h-11.4a11.53 11.53 0 0 1-.89-1.86 13.75 13.75 0 0 1-.42-2 15.67 15.67 0 0 1-4.69 3.26 19.68 19.68 0 0 1-7.46 1.26q-5.65 0-8.58-2.62a8.31 8.31 0 0 1-2.96-6.38 8.45 8.45 0 0 1 2.11-5.92q2.1-2.32 7.8-3.45 6.8-1.37 8.83-1.92a41 41 0 0 0 4.27-1.45 4.26 4.26 0 0 0-.92-3.12 4.63 4.63 0 0 0-3.24-.89 8.38 8.38 0 0 0-4.46 1 5.21 5.21 0 0 0-1.83 2.75zm10.45 6.35q-2.5.9-5.2 1.58-3.7 1-4.67 1.93a3.1 3.1 0 0 0 0 4.56 4.21 4.21 0 0 0 2.93.91 7.53 7.53 0 0 0 3.76-1 5.94 5.94 0 0 0 2.5-2.33 8 8 0 0 0 .73-3.67z"/><path id="D" d="M114.8 18.15h11.33v31.22a13.16 13.16 0 0 1-1.26 5.66 11.93 11.93 0 0 1-3.36 4.36 13.2 13.2 0 0 1-5.32 2.41 33.12 33.12 0 0 1-7.39.74q-9.5 0-13.07-2.85a9.3 9.3 0 0 1-3.55-7.64q0-.6.06-1.6l11.74 1.34a3.82 3.82 0 0 0 1.37 2.26 5.79 5.79 0 0 0 3.36.92 5.07 5.07 0 0 0 3.91-1.4q1.3-1.4 1.3-4.87v-4.8a11.78 11.78 0 0 1-9.6 4.55 12 12 0 0 1-10.23-5.53Q91.32 39 91.32 32.55q0-7.37 3.57-11.24a12.11 12.11 0 0 1 9.33-3.86 13.09 13.09 0 0 1 6.08 1.25 13.24 13.24 0 0 1 4.47 4.13zm-11.4 15.3a7.49 7.49 0 0 0 1.46 5.07 5.17 5.17 0 0 0 7.63-.06 7.53 7.53 0 0 0 1.53-5.16 7.76 7.76 0 0 0-1.61-5.28 5 5 0 0 0-3.92-1.83 4.55 4.55 0 0 0-3.7 1.68q-1.4 1.7-1.4 5.58z"/><path id="E" d="M126.58 40.95l12-1.13a5.92 5.92 0 0 0 2.08 3.06 6.18 6.18 0 0 0 3.57.92 6 6 0 0 0 3.78-1 2.32 2.32 0 0 0 1-1.93 2.21 2.21 0 0 0-1.37-2 25 25 0 0 0-5.2-1.25 54.12 54.12 0 0 1-8.75-2 9.23 9.23 0 0 1-4.13-3.16 8.21 8.21 0 0 1-1.68-5.08 8.32 8.32 0 0 1 1.81-5.38 10.79 10.79 0 0 1 5-3.37 26.53 26.53 0 0 1 8.53-1.11 29.54 29.54 0 0 1 8.34.86 10.89 10.89 0 0 1 4.49 2.68 14 14 0 0 1 3 4.9l-11.48 1.13a3.92 3.92 0 0 0-1.49-2.23 6.07 6.07 0 0 0-3.45-1 4.89 4.89 0 0 0-3 .73 2.17 2.17 0 0 0-.94 1.77 1.88 1.88 0 0 0 1.19 1.75 19.24 19.24 0 0 0 5.17 1.07 35.38 35.38 0 0 1 9 1.9 9.9 9.9 0 0 1 4.5 3.47 8.54 8.54 0 0 1 1.56 5 9.76 9.76 0 0 1-1.65 5.32 11.17 11.17 0 0 1-5.2 4.11 25 25 0 0 1-9.68 1.53q-8.65 0-12.32-2.47a11.09 11.09 0 0 1-4.68-7.09z"/><path id="F" d="M128.6 40.95l12-1.13a5.92 5.92 0 0 0 2.08 3.06 6.18 6.18 0 0 0 3.57.92 6 6 0 0 0 3.78-1 2.32 2.32 0 0 0 1-1.93 2.21 2.21 0 0 0-1.37-2 25 25 0 0 0-5.2-1.25 54.12 54.12 0 0 1-8.75-2 9.23 9.23 0 0 1-4.09-3.23 8.21 8.21 0 0 1-1.68-5.08 8.32 8.32 0 0 1 1.81-5.38 10.79 10.79 0 0 1 5-3.37 26.53 26.53 0 0 1 8.53-1.11 29.54 29.54 0 0 1 8.34.86 10.89 10.89 0 0 1 4.49 2.68 14 14 0 0 1 3 4.9l-11.48 1.13a3.92 3.92 0 0 0-1.49-2.23 6.07 6.07 0 0 0-3.45-1 4.89 4.89 0 0 0-3 .73 2.17 2.17 0 0 0-.94 1.77 1.88 1.88 0 0 0 1.19 1.75 19.24 19.24 0 0 0 5.17 1.07 35.38 35.38 0 0 1 9 1.9 9.9 9.9 0 0 1 4.5 3.47 8.54 8.54 0 0 1 1.56 5 9.76 9.76 0 0 1-1.65 5.32 11.17 11.17 0 0 1-5.2 4.11 25 25 0 0 1-9.68 1.53q-8.65 0-12.32-2.47a11.09 11.09 0 0 1-4.72-7.02z"/><path id="G" d="M188.57 25.9h-21.23a13.29 13.29 0 0 1 2.21-5.91 29.83 29.83 0 0 1 6.94-6.54 20.66 20.66 0 0 0 4-3.51 3.93 3.93 0 0 0 .87-2.28 2.66 2.66 0 0 0-.86-2 3.28 3.28 0 0 0-4.38 0 5.22 5.22 0 0 0-1.16 3l-7.1-.57a11.28 11.28 0 0 1 1.53-4.66 7.1 7.1 0 0 1 3.13-2.57 14.19 14.19 0 0 1 5.6-.89 15.8 15.8 0 0 1 5.81.85 7.07 7.07 0 0 1 3.27 2.61 6.91 6.91 0 0 1 1.19 4 8.09 8.09 0 0 1-1.36 4.45 18.68 18.68 0 0 1-5 4.65q-2.14 1.48-2.86 2.07-.72.6-1.7 1.55h11z"/><path id="H" d="M189.55 25.9h-21.22a13.29 13.29 0 0 1 2.21-5.91 29.83 29.83 0 0 1 6.94-6.54 20.66 20.66 0 0 0 4-3.51 3.93 3.93 0 0 0 .87-2.28 2.66 2.66 0 0 0-.86-2 3.28 3.28 0 0 0-4.38 0 5.22 5.22 0 0 0-1.16 3l-7.1-.57a11.28 11.28 0 0 1 1.53-4.66 7.1 7.1 0 0 1 3.13-2.57 14.19 14.19 0 0 1 5.6-.89 15.8 15.8 0 0 1 5.81.85 7.07 7.07 0 0 1 3.27 2.61 6.91 6.91 0 0 1 1.19 4 8.09 8.09 0 0 1-1.36 4.45 18.68 18.68 0 0 1-5 4.65q-2.14 1.48-2.86 2.07-.72.6-1.7 1.55h11z"/><path id="I" d="M190.72 25.9h-21.2a13.29 13.29 0 0 1 2.21-5.91 29.83 29.83 0 0 1 6.94-6.54 20.66 20.66 0 0 0 4-3.51 3.93 3.93 0 0 0 .87-2.28 2.66 2.66 0 0 0-.86-2 3.28 3.28 0 0 0-4.38 0 5.22 5.22 0 0 0-1.16 3l-7.1-.57a11.28 11.28 0 0 1 1.53-4.66A7.1 7.1 0 0 1 174.72.9a14.19 14.19 0 0 1 5.6-.89 15.8 15.8 0 0 1 5.81.85 7.07 7.07 0 0 1 3.27 2.61 6.91 6.91 0 0 1 1.19 4 8.09 8.09 0 0 1-1.36 4.45 18.68 18.68 0 0 1-5 4.65q-2.14 1.48-2.86 2.07-.72.6-1.65 1.5h11z"/><path id="J" d="M194.23 34.03a15.79 15.79 0 0 1 4.88-11.91q4.87-4.68 13.17-4.68 9.48 0 14.33 5.5c5.533 6.75 5.13 16.577-.94 22.85q-4.83 4.6-13.36 4.6-7.6 0-12.3-3.86a15.51 15.51 0 0 1-5.77-12.5zm12.13 0q0 4.22 1.7 6.24a5.6 5.6 0 0 0 8.59 0q1.68-2 1.68-6.4 0-4.1-1.7-6.1a5.28 5.28 0 0 0-4.19-2 5.48 5.48 0 0 0-4.37 2q-1.73 2.07-1.73 6.23z"/><path id="K" d="M194.9 34.03a15.79 15.79 0 0 1 4.88-11.91q4.87-4.68 13.17-4.68 9.48 0 14.33 5.5c5.533 6.75 5.13 16.577-.94 22.85q-4.84 4.6-13.37 4.6-7.6 0-12.3-3.86a15.51 15.51 0 0 1-5.76-12.5zm12.13 0q0 4.22 1.7 6.24a5.6 5.6 0 0 0 8.59 0q1.68-2 1.68-6.4 0-4.1-1.7-6.1a5.28 5.28 0 0 0-4.19-2 5.48 5.48 0 0 0-4.37 2q-1.73 2.07-1.73 6.23z"/><path id="L" d="M197.94 34.03a15.79 15.79 0 0 1 4.88-11.91q4.9-4.73 13.17-4.73 9.48 0 14.33 5.5c5.533 6.75 5.13 16.577-.94 22.85q-4.83 4.65-13.36 4.65-7.6 0-12.3-3.86a15.51 15.51 0 0 1-5.77-12.5zm12.13 0q0 4.22 1.7 6.24a5.6 5.6 0 0 0 8.59 0q1.68-2 1.68-6.4 0-4.1-1.7-6.1a5.28 5.28 0 0 0-4.19-2 5.48 5.48 0 0 0-4.37 2q-1.73 2.07-1.73 6.23z"/><path id="M" d="M236.33 18.15h11.27v5.14a16.77 16.77 0 0 1 5.11-4.5 13.46 13.46 0 0 1 6.3-1.35 10.33 10.33 0 0 1 7.86 3q2.84 3 2.84 9.23v20.07h-12.16V32.4q0-3-1.1-4.2a3.93 3.93 0 0 0-3.09-1.23 4.4 4.4 0 0 0-3.57 1.66q-1.37 1.67-1.37 6v15.16h-12.1z"/><path id="N" d="M241.05 18.15h11.27v5.14a16.77 16.77 0 0 1 5.11-4.5 13.46 13.46 0 0 1 6.29-1.4 10.33 10.33 0 0 1 7.86 3q2.84 3 2.84 9.23V49.7h-12.15V32.4q0-3-1.1-4.2a3.93 3.93 0 0 0-3.09-1.23 4.4 4.4 0 0 0-3.57 1.66q-1.37 1.67-1.37 6v15.16h-12.1z"/></defs></svg>