<svg xmlns="http://www.w3.org/2000/svg" viewBox="0 0 128 128" xml:space="preserve" stroke="#000"><path d="M112.1 52.2h-3V37.9c0-5.8-4.7-10.5-10.5-10.5H24.4c-5.8 0-10.5 4.7-10.5 10.5v52.3c0 5.8 4.7 10.5 10.5 10.5h74.3c5.8 0 10.5-4.7 10.5-10.5V75.6h3c1 0 1.7-.8 1.8-1.8V54c0-1-.8-1.8-1.9-1.8zm-6.5 37.9c0 3.9-3.1 7-7 7H24.4c-3.9 0-7-3.1-7-7V37.9c0-3.9 3.1-7 7-7h74.3c3.2 0 5.9 2.2 6.7 5.2H27.9c-1 0-1.8.8-1.8 1.8s.8 1.8 1.8 1.8h77.7v12.7H90.2c-6.4 0-11.7 5.2-11.7 11.7s5.2 11.7 11.7 11.7h15.4c.1 0 .1 14.3 0 14.3zm4.8-18H90.2c-4.5 0-8.2-3.7-8.2-8.2s3.7-8.2 8.2-8.2h20.2v16.4z"/><path d="M86.4 62c0 2.4 2 4.4 4.4 4.4s4.4-2 4.4-4.4-2-4.4-4.4-4.4c-2.5 0-4.4 2-4.4 4.4z"/></svg>