<?xml version="1.0" encoding="utf-8"?>
<!-- Generator: Adobe Illustrator 21.0.0, SVG Export Plug-In . SVG Version: 6.00 Build 0)  -->
<svg version="1.1" id="Capa_1" xmlns="http://www.w3.org/2000/svg" xmlns:xlink="http://www.w3.org/1999/xlink" x="0px" y="0px"
	 viewBox="0 0 512 512" style="enable-background:new 0 0 512 512;" xml:space="preserve">
<style type="text/css">
	.st0{fill:#EDEBED;}
	.st1{fill:#DBD9DC;}
	.st2{fill:#FFC52F;}
	.st3{fill:#FFD164;}
	.st4{fill:#9C969E;}
</style>
<path class="st0" d="M405.9,44.5L60,115h369l-13.7-64.4C414.4,46.3,410.2,43.6,405.9,44.5z"/>
<path class="st1" d="M444.6,82.9c-0.5-4.4-4.4-7.6-8.8-7.1L69.6,115H448L444.6,82.9z"/>
<path class="st2" d="M456.4,467.7H39.6c-17.7,0-32.1-14.4-32.1-32.1V147.1c0-17.7,14.4-32.1,32.1-32.1h416.8
	c17.7,0,32.1,14.4,32.1,32.1v288.6C488.5,453.4,474.1,467.7,456.4,467.7z"/>
<path class="st3" d="M488.5,339.5H376.2c-8.9,0-16-7.2-16-16v-64.1c0-8.9,7.2-16,16-16h112.2c8.9,0,16,7.2,16,16v64.1
	C504.5,332.3,497.3,339.5,488.5,339.5z"/>
<circle class="st4" cx="408.3" cy="291.4" r="16"/>
<path class="st3" d="M272,443.7c-124,0-224.5-100.5-224.5-224.5V115h-8c-17.7,0-32.1,14.4-32.1,32.1v288.6
	c0,17.7,14.4,32.1,32.1,32.1h416.8c14.9,0,27.4-10.2,30.9-24H272z"/>
<path d="M496,237v-89.9c0-21.8-17.7-39.6-39.6-39.6h-1.6L452,82.1c-0.4-4.1-2.5-7.8-5.7-10.4c-3.2-2.6-7.3-3.8-11.4-3.3l-8.3,0.9
	l-4.1-20c-1.7-8.4-9.9-13.8-18.3-12.1L59.2,107.5H39.6C17.7,107.5,0,125.2,0,147.1v288.6c0,21.8,17.7,39.6,39.6,39.6h416.8
	c21.8,0,39.6-17.7,39.6-39.6v-89.9c9.3-3.1,16-11.9,16-22.3v-64.1C512,248.9,505.3,240.1,496,237z M436.6,83.2c0.1,0,0.2,0,0.4,0.1
	c0.2,0.1,0.2,0.3,0.2,0.3l2.6,23.8H210L436.6,83.2z M407.3,51.8c0.3-0.1,0.6,0.1,0.6,0.4l3.8,18.6l-205.5,22L407.3,51.8z
	 M456.4,460.2H39.6c-13.5,0-24.6-11-24.6-24.6v-0.5h385.3c4.1,0,7.5-3.4,7.5-7.5s-3.4-7.5-7.5-7.5H15V162.6h385.3
	c4.1,0,7.5-3.4,7.5-7.5s-3.4-7.5-7.5-7.5H15v-0.5c0-13.5,11-24.6,24.6-24.6H448c0,0,0,0,0,0c0,0,0,0,0,0h8.4
	c13.5,0,24.6,11,24.6,24.6v88.7h-25.1v-80.7c0-4.1-3.4-7.5-7.5-7.5h-16c-4.1,0-7.5,3.4-7.5,7.5s3.4,7.5,7.5,7.5h8.5v73.2h-64.6
	c-13,0-23.5,10.6-23.5,23.5v64.1c0,13,10.6,23.5,23.5,23.5h64.6v73.2h-8.5c-4.1,0-7.5,3.4-7.5,7.5s3.4,7.5,7.5,7.5h16
	c4.1,0,7.5-3.4,7.5-7.5V347H481v88.7C481,449.2,469.9,460.2,456.4,460.2z M497,323.4c0,4.7-3.8,8.5-8.5,8.5c0,0,0,0,0,0c0,0,0,0,0,0
	H376.2c-4.7,0-8.5-3.8-8.5-8.5v-64.1c0-4.7,3.8-8.5,8.5-8.5h112.2c0,0,0,0,0,0c0,0,0,0,0,0c4.7,0,8.5,3.8,8.5,8.5L497,323.4
	L497,323.4z"/>
<path d="M408.3,267.8c-13,0-23.5,10.6-23.5,23.5s10.6,23.5,23.5,23.5s23.5-10.6,23.5-23.5S421.3,267.8,408.3,267.8z M408.3,299.9
	c-4.7,0-8.5-3.8-8.5-8.5s3.8-8.5,8.5-8.5s8.5,3.8,8.5,8.5S413,299.9,408.3,299.9z"/>
</svg>
