<svg xmlns="http://www.w3.org/2000/svg" viewBox="0 0 128 128" style="enable-background:new 0 0 128 128" xml:space="preserve"><path d="M113.2 50.3h-3V35.9c0-5.8-4.7-10.5-10.5-10.5H25.5c-5.8 0-10.5 4.7-10.5 10.5v52.3c0 5.8 4.7 10.5 10.5 10.5h74.3c5.8 0 10.5-4.7 10.5-10.5V73.7h3c1 0 1.7-.8 1.8-1.8V52.1c-.1-1-.9-1.8-1.9-1.8zm-6.5 37.8c0 3.9-3.1 7-7 7H25.5c-3.9 0-7-3.1-7-7V35.9c0-3.9 3.1-7 7-7h74.3c3.2 0 5.9 2.2 6.7 5.2H29c-1 0-1.8.8-1.8 1.8s.8 1.8 1.8 1.8h77.7v12.7H91.3c-6.4 0-11.7 5.2-11.7 11.7s5.2 11.7 11.7 11.7h15.4v14.3zm4.8-17.9H91.3c-4.5 0-8.2-3.7-8.2-8.2s3.7-8.2 8.2-8.2h20.2v16.4z"/><path d="M87.5 62c0 2.4 2 4.4 4.4 4.4s4.4-2 4.4-4.4c0-2.4-2-4.4-4.4-4.4-2.5 0-4.4 2-4.4 4.4z"/></svg>