<svg viewBox="0 0 512 512" xmlns="http://www.w3.org/2000/svg"><path d="M405.9 44.5L60 115h369l-13.7-64.4c-.9-4.3-5.1-7-9.4-6.1z" fill="#edebed"/><path d="M444.6 82.9c-.5-4.4-4.4-7.6-8.8-7.1L69.6 115H448l-3.4-32.1z" fill="#dbd9dc"/><path d="M456.4 467.7H39.6c-17.7 0-32.1-14.4-32.1-32.1V147.1c0-17.7 14.4-32.1 32.1-32.1h416.8c17.7 0 32.1 14.4 32.1 32.1v288.6c0 17.7-14.4 32-32.1 32z" fill="#ffc52f"/><path d="M488.5 339.5H376.2c-8.9 0-16-7.2-16-16v-64.1c0-8.9 7.2-16 16-16h112.2c8.9 0 16 7.2 16 16v64.1c.1 8.8-7.1 16-15.9 16z" fill="#ffd164"/><circle cx="408.3" cy="291.4" r="16" fill="#9c969e"/><path d="M496 237v-89.9c0-21.8-17.7-39.6-39.6-39.6h-1.6L452 82.1c-.4-4.1-2.5-7.8-5.7-10.4s-7.3-3.8-11.4-3.3l-8.3.9-4.1-20c-1.7-8.4-9.9-13.8-18.3-12.1l-345 70.3H39.6C17.7 107.5 0 125.2 0 147.1v288.6c0 21.8 17.7 39.6 39.6 39.6h416.8c21.8 0 39.6-17.7 39.6-39.6v-89.9c9.3-3.1 16-11.9 16-22.3v-64.1c0-10.5-6.7-19.3-16-22.4zM436.6 83.2c.1 0 .2 0 .4.1s.2.3.2.3l2.6 23.8H210l226.6-24.2zm-29.3-31.4c.3-.1.6.1.6.4l3.8 18.6-205.5 22 201.1-41zm49.1 408.4H39.6c-13.5 0-24.6-11-24.6-24.6v-.5h385.3c4.1 0 7.5-3.4 7.5-7.5s-3.4-7.5-7.5-7.5H15V162.6h385.3c4.1 0 7.5-3.4 7.5-7.5s-3.4-7.5-7.5-7.5H15v-.5c0-13.5 11-24.6 24.6-24.6h416.8c13.5 0 24.6 11 24.6 24.6v88.7h-25.1v-80.7c0-4.1-3.4-7.5-7.5-7.5h-16c-4.1 0-7.5 3.4-7.5 7.5s3.4 7.5 7.5 7.5h8.5v73.2h-64.6c-13 0-23.5 10.6-23.5 23.5v64.1c0 13 10.6 23.5 23.5 23.5h64.6v73.2h-8.5c-4.1 0-7.5 3.4-7.5 7.5s3.4 7.5 7.5 7.5h16c4.1 0 7.5-3.4 7.5-7.5V347H481v88.7c0 13.5-11.1 24.5-24.6 24.5zM497 323.4c0 4.7-3.8 8.5-8.5 8.5H376.2c-4.7 0-8.5-3.8-8.5-8.5v-64.1c0-4.7 3.8-8.5 8.5-8.5h112.2c4.7 0 8.5 3.8 8.5 8.5l.1 64.1z"/><path d="M408.3 267.8c-13 0-23.5 10.6-23.5 23.5s10.6 23.5 23.5 23.5 23.5-10.6 23.5-23.5-10.5-23.5-23.5-23.5zm0 32.1c-4.7 0-8.5-3.8-8.5-8.5s3.8-8.5 8.5-8.5 8.5 3.8 8.5 8.5-3.8 8.5-8.5 8.5z"/></svg>