<svg xmlns="http://www.w3.org/2000/svg" viewBox="0 0 24 24"><path d="m15 18.4.9.2a3.3 3.3 0 0 1-3.1 2.2H4.3A3.3 3.3 0 0 1 1 17.5V7.1a3.3 3.3 0 0 1 3.3-3.3h2.5A3.3 3.3 0 0 1 10.1 1h4.6A3.3 3.3 0 0 1 18 4.3v2.2h-1V4.3a2.4 2.4 0 0 0-2.4-2.4h-4.5a2.4 2.4 0 0 0-2.3 1.9h5A3.3 3.3 0 0 1 16 6.5l-.9.2a2.4 2.4 0 0 0-2.3-1.9H4.3a2.4 2.4 0 0 0-2.4 2.3v10.4a2.4 2.4 0 0 0 2.4 2.4h8.5a2.4 2.4 0 0 0 2.2-1.5zm4.6-.9a5.7 5.7 0 1 1 2.1-7.8 5.7 5.7 0 0 1-2.1 7.8zm-.5-.8a4.8 4.8 0 1 0-6.5-1.7 4.8 4.8 0 0 0 6.5 1.7zm1.9.5-2.5 1.4 1.9 3.3 2.5-1.4zm2.1 3.7-2.5 1.4a1.4 1.4 0 0 0 2.5-1.4zm-13-13.7H3.8V8h6.3v-.8zm-1.4 3.2H3.8v.7h4.9zm-4.9 3.8h4.9v-.7H3.8zm0 3.1h6.3v-.7H3.8zm12-3.9-1.5-1.6-.7.6 2.1 2.3 4-3.4-.6-.7z"/></svg>